<svg width="251" height="271" viewBox="0 0 251 271" fill="none" xmlns="http://www.w3.org/2000/svg">
<path d="M50 250H250" stroke="white" stroke-linecap="round"/>
<path d="M50 250L50 50" stroke="white" stroke-linecap="round"/>
<path d="M50.0026 50L250 249.997" stroke="white" stroke-linecap="round"/>
<line x1="50" y1="225.5" x2="75" y2="225.5" stroke="white"/>
<line x1="74.5" y1="225" x2="74.5" y2="250" stroke="white"/>
<path d="M26.5234 188.922L26.7969 188.922C27.8802 190.818 30.2552 191.766 33.9219 191.766C37.6458 191.766 40.0313 190.818 41.0781 188.922L41.375 188.922C39.7396 191.828 37.2604 193.281 33.9375 193.281C32.1771 193.281 30.6615 192.872 29.3906 192.055C28.1146 191.237 27.1589 190.193 26.5234 188.922ZM26.5234 182.461L36.5391 178.117C36.987 177.924 37.2943 177.734 37.4609 177.547C37.6276 177.354 37.7109 177.031 37.7109 176.578L38 176.578L38 181.086L37.7109 181.086C37.7109 180.315 37.4531 179.93 36.9375 179.93C36.776 179.93 36.5286 180.003 36.1953 180.148L34.2969 180.977L34.2969 185.406L36.5391 186.391C36.6797 186.448 36.8255 186.477 36.9766 186.477C37.4661 186.477 37.7109 186.083 37.7109 185.297L38 185.297L38 188.469L37.7109 188.469C37.6745 188.156 37.5599 187.898 37.3672 187.695C37.1693 187.487 36.7656 187.25 36.1563 186.984L26.5234 182.758L26.5234 182.461ZM29.2266 183.187L33.7031 185.141L33.7031 181.234L29.2266 183.187ZM41.375 176.078L41.0781 176.078C40 174.182 37.6328 173.234 33.9766 173.234C32.0807 173.234 30.5547 173.466 29.3984 173.93C28.237 174.393 27.3802 175.109 26.8281 176.078L26.5234 176.078C28.1589 173.172 30.638 171.719 33.9609 171.719C35.5964 171.719 37.0755 172.109 38.3984 172.891C39.7214 173.667 40.7135 174.729 41.375 176.078ZM26.5234 160.789L36.5391 156.445C36.987 156.253 37.2943 156.062 37.4609 155.875C37.6276 155.682 37.7109 155.359 37.7109 154.906L38 154.906L38 159.414L37.7109 159.414C37.7109 158.643 37.4531 158.258 36.9375 158.258C36.776 158.258 36.5286 158.331 36.1953 158.477L34.2969 159.305L34.2969 163.734L36.5391 164.719C36.6797 164.776 36.8255 164.805 36.9766 164.805C37.4661 164.805 37.7109 164.411 37.7109 163.625L38 163.625L38 166.797L37.7109 166.797C37.6745 166.484 37.5599 166.227 37.3672 166.023C37.1693 165.815 36.7656 165.578 36.1563 165.312L26.5234 161.086L26.5234 160.789ZM29.2266 161.516L33.7031 163.469L33.7031 159.562L29.2266 161.516ZM27.5078 149.953L26.5234 147.656L26.5234 147.383L35.7656 147.383C36.3125 147.383 36.6745 147.333 36.8516 147.234C37.0286 147.13 37.1172 146.953 37.1172 146.703C37.1172 146.552 37.0781 146.391 37 146.219L37.2734 146.109L38.2188 148.672L37.1328 148.672C37.4922 149.01 37.763 149.367 37.9453 149.742C38.1276 150.117 38.2188 150.51 38.2188 150.922C38.2188 151.776 37.862 152.523 37.1484 153.164C36.4297 153.805 35.5651 154.125 34.5547 154.125C33.4401 154.125 32.4714 153.75 31.6484 153C30.8203 152.245 30.4063 151.367 30.4063 150.367C30.4063 150.076 30.4531 149.789 30.5469 149.508C30.6354 149.227 30.7734 148.948 30.9609 148.672L28.9375 148.672C28.4688 148.672 28.1406 148.721 27.9531 148.82C27.7604 148.919 27.6641 149.096 27.6641 149.352C27.6641 149.487 27.6979 149.643 27.7656 149.82L27.5078 149.953ZM36.5938 148.672L33.0938 148.672C32.2969 148.672 31.724 148.883 31.375 149.305C31.0208 149.727 30.8438 150.154 30.8438 150.586C30.8438 151.148 31.1484 151.643 31.7578 152.07C32.362 152.497 33.1016 152.711 33.9766 152.711C34.9193 152.711 35.7135 152.461 36.3594 151.961C37 151.456 37.3203 150.859 37.3203 150.172C37.3203 149.875 37.2604 149.602 37.1406 149.352C37.0156 149.102 36.8333 148.875 36.5938 148.672ZM26.4766 143.461C26.4766 143.237 26.5573 143.044 26.7188 142.883C26.8802 142.716 27.0755 142.633 27.3047 142.633C27.5339 142.633 27.7292 142.716 27.8906 142.883C28.0521 143.044 28.1328 143.237 28.1328 143.461C28.1328 143.685 28.0521 143.88 27.8906 144.047C27.7292 144.208 27.5339 144.289 27.3047 144.289C27.0755 144.289 26.8802 144.208 26.7188 144.047C26.5573 143.88 26.4766 143.685 26.4766 143.461ZM31.2188 145.344L30.4063 143.016L30.4063 142.742L37.625 142.742C38.8802 142.742 39.8203 142.979 40.4453 143.453C41.0755 143.922 41.3906 144.628 41.3906 145.57C41.3906 145.951 41.3177 146.279 41.1719 146.555C41.026 146.836 40.8307 146.977 40.5859 146.977C40.4089 146.977 40.2526 146.909 40.1172 146.773C39.987 146.638 39.9219 146.482 39.9219 146.305C39.9219 146.044 40.0495 145.773 40.3047 145.492C40.6016 145.169 40.75 144.932 40.75 144.781C40.75 144.474 40.6042 144.273 40.3125 144.18C40.0208 144.086 39.3646 144.039 38.3438 144.039L32.7109 144.039C31.8464 144.039 31.4141 144.284 31.4141 144.773C31.4141 144.904 31.4427 145.065 31.5 145.258L31.2188 145.344ZM36.6016 133.742L37.0078 133.742C37.8151 134.383 38.2188 134.982 38.2188 135.539C38.2188 136.195 37.7708 136.534 36.875 136.555C37.3229 137.018 37.6589 137.469 37.8828 137.906C38.1068 138.339 38.2188 138.758 38.2188 139.164C38.2188 139.633 38.0417 140.029 37.6875 140.352C37.3333 140.669 36.9063 140.828 36.4063 140.828C35.7396 140.828 35.1667 140.503 34.6875 139.852C34.2031 139.195 33.6979 138.096 33.1719 136.555C32.4323 136.56 31.9271 136.586 31.6563 136.633C31.3802 136.674 31.1589 136.799 30.9922 137.008C30.8203 137.216 30.7344 137.544 30.7344 137.992C30.7344 138.346 30.8307 138.641 31.0234 138.875C31.2161 139.109 31.4766 139.227 31.8047 139.227C31.8776 139.227 31.9635 139.221 32.0625 139.211C32.1354 139.206 32.2031 139.203 32.2656 139.203C32.7135 139.203 32.9375 139.411 32.9375 139.828C32.9375 140.292 32.7161 140.523 32.2734 140.523C31.7474 140.523 31.3047 140.266 30.9453 139.75C30.5859 139.234 30.4063 138.544 30.4063 137.68C30.4063 137.039 30.4974 136.534 30.6797 136.164C30.8568 135.789 31.0964 135.544 31.3984 135.43C31.7005 135.315 32.1667 135.258 32.7969 135.258L36.5156 135.258C37.0208 135.258 37.2734 135.102 37.2734 134.789C37.2734 134.482 37.0495 134.133 36.6016 133.742ZM36.5156 136.555L33.6016 136.555C34.0911 137.742 34.4974 138.529 34.8203 138.914C35.138 139.299 35.5313 139.492 36 139.492C36.3594 139.492 36.6667 139.378 36.9219 139.148C37.1771 138.914 37.3047 138.622 37.3047 138.273C37.3047 138.003 37.2396 137.724 37.1094 137.437C36.974 137.151 36.776 136.857 36.5156 136.555ZM35.2344 126.641C36.0573 126.833 36.7604 127.214 37.3438 127.781C37.9271 128.349 38.2188 129.008 38.2188 129.758C38.2188 130.758 37.8438 131.557 37.0938 132.156C36.3385 132.75 35.4349 133.047 34.3828 133.047C33.1901 133.047 32.2292 132.698 31.5 132C30.7708 131.297 30.4063 130.43 30.4063 129.398C30.4063 128.685 30.5885 128.081 30.9531 127.586C31.3125 127.086 31.7083 126.836 32.1406 126.836C32.3229 126.836 32.474 126.909 32.5938 127.055C32.7083 127.201 32.7656 127.385 32.7656 127.609C32.7656 128.094 32.5026 128.375 31.9766 128.453C31.612 128.505 31.3385 128.622 31.1563 128.805C30.9792 128.987 30.8906 129.276 30.8906 129.672C30.8906 130.333 31.1563 130.849 31.6875 131.219C32.2135 131.583 32.8672 131.766 33.6484 131.766C34.6224 131.766 35.4141 131.534 36.0234 131.07C36.6276 130.607 36.9297 129.979 36.9297 129.187C36.9297 128.031 36.3255 127.268 35.1172 126.898L35.2344 126.641ZM35.3906 119.828C36.2708 120 36.9635 120.362 37.4688 120.914C37.9688 121.461 38.2188 122.094 38.2188 122.812C38.2188 123.672 37.8854 124.409 37.2188 125.023C36.5469 125.638 35.6016 125.945 34.3828 125.945C33.2005 125.945 32.2422 125.646 31.5078 125.047C30.7734 124.448 30.4063 123.646 30.4063 122.641C30.4063 121.792 30.6849 121.112 31.2422 120.602C31.7943 120.086 32.5026 119.828 33.3672 119.828L33.3672 124.852C33.4974 124.857 33.5964 124.859 33.6641 124.859C34.4609 124.859 35.2109 124.617 35.9141 124.133C36.6172 123.648 36.9688 123.008 36.9688 122.211C36.9688 121.185 36.3984 120.474 35.2578 120.078L35.3906 119.828ZM32.875 121.484C32.2656 121.5 31.7969 121.656 31.4688 121.953C31.1406 122.245 30.9766 122.617 30.9766 123.07C30.9766 123.529 31.1484 123.922 31.4922 124.25C31.8359 124.578 32.2969 124.768 32.875 124.82L32.875 121.484ZM30.4063 116.57L31.9688 116.57C31.3854 116.055 30.9792 115.612 30.75 115.242C30.5208 114.872 30.4063 114.469 30.4063 114.031C30.4063 113.437 30.6276 112.964 31.0703 112.609C31.5182 112.255 32.1667 112.078 33.0156 112.078L36.2266 112.078C36.7943 112.078 37.1797 111.997 37.3828 111.836C37.5859 111.669 37.6953 111.375 37.7109 110.953L38 110.953L38 114.695L37.7109 114.695C37.7109 114.201 37.6146 113.859 37.4219 113.672C37.2292 113.484 36.8307 113.391 36.2266 113.391L33.0938 113.391C32.5156 113.391 32.0807 113.5 31.7891 113.719C31.4922 113.932 31.3438 114.247 31.3438 114.664C31.3438 114.977 31.4323 115.292 31.6094 115.609C31.7865 115.927 32.0521 116.247 32.4063 116.57L36.2266 116.57C36.7839 116.57 37.1693 116.49 37.3828 116.328C37.5911 116.161 37.7005 115.839 37.7109 115.359L38 115.359L38 119.031L37.7109 119.031C37.7005 118.562 37.5885 118.253 37.375 118.102C37.1563 117.951 36.7734 117.875 36.2266 117.875L32.625 117.875C31.8438 117.875 31.4531 118.091 31.4531 118.523C31.4531 118.674 31.4974 118.844 31.5859 119.031L31.2813 119.141L30.4063 116.844L30.4063 116.57ZM28.2188 107.695L30.5781 107.695L30.5781 105.992L31.0469 105.992L31.0469 107.695L35.9375 107.695C36.3906 107.695 36.7318 107.62 36.9609 107.469C37.1849 107.312 37.2969 107.081 37.2969 106.773C37.2969 106.591 37.2448 106.417 37.1406 106.25C37.0365 106.083 36.8828 105.924 36.6797 105.773L36.6797 105.453C37.1901 105.719 37.5755 106.021 37.8359 106.359C38.0911 106.698 38.2188 107.073 38.2188 107.484C38.2188 107.984 38.0417 108.362 37.6875 108.617C37.3333 108.867 36.8021 108.992 36.0938 108.992L31.0469 108.992L31.0469 110.125L30.7422 110.125C30.2995 109.031 29.4583 108.305 28.2188 107.945L28.2188 107.695Z" fill="white"/>
<path d="M134.534 102.375L134.341 102.568C132.234 101.994 129.885 103.003 127.292 105.596C124.659 108.229 123.642 110.586 124.243 112.667L124.033 112.877C123.134 109.665 123.86 106.885 126.209 104.535C127.454 103.29 128.815 102.508 130.292 102.187C131.772 101.863 133.186 101.926 134.534 102.375ZM133.087 109.656L130.844 111.899C130.41 112.334 130.148 112.639 130.06 112.816C129.975 112.989 129.971 113.203 130.049 113.457C130.13 113.707 130.341 114.004 130.684 114.346L130.48 114.551L126.994 111.065L127.198 110.86C127.53 111.192 127.821 111.394 128.071 111.468C128.325 111.545 128.537 111.54 128.706 111.451C128.883 111.363 129.187 111.103 129.618 110.673L134.374 105.916C134.82 105.471 135.081 105.158 135.159 104.977C135.243 104.797 135.243 104.59 135.159 104.358C135.078 104.123 134.877 103.837 134.556 103.502L134.761 103.298L138.247 106.783L138.042 106.988C137.7 106.66 137.411 106.452 137.175 106.364C136.939 106.275 136.729 106.272 136.545 106.353C136.361 106.434 136.046 106.697 135.601 107.143L133.562 109.181L137.385 113.004L139.423 110.965C139.869 110.52 140.13 110.207 140.208 110.026C140.292 109.846 140.292 109.636 140.208 109.396C140.123 109.157 139.908 108.861 139.561 108.507L139.766 108.303L143.279 111.816L143.075 112.02C142.74 111.7 142.454 111.496 142.219 111.407C141.99 111.319 141.782 111.317 141.594 111.402C141.41 111.483 141.095 111.746 140.65 112.192L135.893 116.948C135.462 117.379 135.203 117.683 135.114 117.86C135.03 118.033 135.024 118.245 135.098 118.495C135.175 118.749 135.381 119.044 135.717 119.379L135.512 119.583L131.999 116.07L132.203 115.865C132.553 116.208 132.849 116.423 133.093 116.512C133.339 116.596 133.553 116.596 133.733 116.512C133.917 116.423 134.229 116.16 134.667 115.722L136.91 113.479L133.087 109.656ZM133.7 122.544L133.91 122.334C136.013 122.913 138.357 121.909 140.943 119.324C142.283 117.983 143.198 116.74 143.688 115.595C144.182 114.446 144.281 113.333 143.986 112.258L144.202 112.043C145.1 115.254 144.375 118.035 142.025 120.384C140.869 121.541 139.547 122.31 138.059 122.693C136.575 123.08 135.122 123.03 133.7 122.544ZM148.997 125.566L146.754 127.809C146.319 128.243 146.058 128.549 145.97 128.726C145.885 128.899 145.881 129.113 145.959 129.367C146.04 129.617 146.251 129.914 146.594 130.256L146.389 130.461L142.904 126.975L143.108 126.77C143.439 127.102 143.73 127.304 143.981 127.378C144.235 127.455 144.447 127.45 144.616 127.361C144.793 127.273 145.097 127.013 145.528 126.582L150.284 121.826C150.73 121.38 150.991 121.067 151.069 120.887C151.153 120.706 151.153 120.5 151.069 120.268C150.987 120.033 150.787 119.747 150.466 119.412L150.671 119.208L154.157 122.693L153.952 122.898C153.61 122.57 153.321 122.362 153.085 122.274C152.849 122.185 152.639 122.181 152.455 122.262C152.271 122.344 151.956 122.607 151.51 123.052L149.472 125.091L153.295 128.914L155.333 126.875C155.779 126.43 156.04 126.117 156.118 125.936C156.202 125.756 156.202 125.546 156.118 125.306C156.033 125.067 155.818 124.771 155.471 124.417L155.676 124.213L159.189 127.726L158.985 127.93C158.65 127.61 158.364 127.406 158.129 127.317C157.9 127.229 157.692 127.227 157.504 127.312C157.32 127.393 157.005 127.656 156.56 128.102L151.803 132.858C151.372 133.289 151.113 133.593 151.024 133.77C150.94 133.943 150.934 134.154 151.008 134.405C151.085 134.659 151.291 134.954 151.626 135.289L151.422 135.493L147.909 131.98L148.113 131.775C148.463 132.118 148.759 132.333 149.002 132.422C149.249 132.506 149.463 132.506 149.643 132.422C149.827 132.333 150.139 132.07 150.577 131.632L152.82 129.389L148.997 125.566ZM157.256 130.831L159.598 133.173L159.394 133.377C159.162 133.16 158.968 133.037 158.814 133.007C158.663 132.974 158.515 133.029 158.372 133.173C158.228 133.317 158.11 133.504 158.018 133.736L156.438 137.88L159.708 136.366C160.508 136.001 160.95 135.777 161.034 135.692C161.226 135.5 161.163 135.213 160.846 134.83L161.051 134.626L162.548 136.123L162.344 136.327C162.148 136.184 161.935 136.136 161.703 136.184C161.478 136.232 160.959 136.438 160.145 136.802L154.858 139.239C153.654 139.795 152.739 140.065 152.113 140.051C151.487 140.043 150.978 139.844 150.588 139.454C150.367 139.233 150.242 138.994 150.212 138.736C150.186 138.482 150.264 138.264 150.444 138.084C150.599 137.929 150.781 137.858 150.991 137.869C151.197 137.883 151.387 137.977 151.56 138.15C151.671 138.261 151.794 138.484 151.93 138.819C151.993 138.962 152.059 139.069 152.129 139.139C152.457 139.467 153.138 139.397 154.173 138.929L154.808 138.647L157.046 132.764C157.355 131.954 157.357 131.378 157.051 131.035L157.256 130.831ZM164.896 138.228L163.697 139.426C164.356 139.283 164.936 139.263 165.437 139.366C165.938 139.469 166.36 139.692 166.702 140.034C167.233 140.564 167.466 141.281 167.404 142.183C167.341 143.085 166.929 143.918 166.166 144.68C165.316 145.531 164.349 145.967 163.266 145.989C162.183 146.011 161.311 145.691 160.648 145.028C160.39 144.77 160.195 144.494 160.062 144.199C159.929 143.905 159.859 143.595 159.852 143.271L158.41 144.713C157.987 145.137 157.771 145.485 157.764 145.757C157.753 146.033 157.937 146.361 158.316 146.741L158.106 146.95L155.284 144.128L155.493 143.918C155.854 144.279 156.167 144.459 156.433 144.459C156.694 144.463 157.048 144.242 157.493 143.796L162.25 139.04C162.647 138.642 162.868 138.34 162.913 138.134C162.964 137.927 162.905 137.74 162.736 137.57C162.64 137.474 162.498 137.377 162.31 137.277L162.421 136.99L164.702 138.034L164.896 138.228ZM163.349 139.774L161.404 141.719C160.97 142.154 160.688 142.509 160.559 142.785C160.438 143.061 160.41 143.38 160.476 143.741C160.55 144.102 160.723 144.419 160.996 144.691C161.485 145.181 162.073 145.371 162.758 145.26C163.447 145.153 164.122 144.768 164.785 144.105C165.408 143.483 165.789 142.822 165.929 142.122C166.069 141.423 165.899 140.833 165.421 140.354C165.181 140.115 164.888 139.948 164.542 139.852C164.2 139.752 163.802 139.727 163.349 139.774ZM172.26 150.751C171.483 151.528 170.531 151.946 169.404 152.005C168.28 152.068 167.347 151.727 166.603 150.983C165.929 150.309 165.592 149.468 165.592 148.459C165.595 147.446 165.967 146.569 166.708 145.829C167.437 145.1 168.359 144.693 169.475 144.608C170.591 144.523 171.538 144.87 172.315 145.647C172.996 146.328 173.329 147.177 173.315 148.193C173.304 149.206 172.952 150.059 172.26 150.751ZM170.768 150.199C171.483 149.484 171.943 148.703 172.149 147.856C172.359 147.006 172.195 146.311 171.657 145.774C171.219 145.336 170.687 145.172 170.061 145.282C169.442 145.393 168.816 145.765 168.183 146.398C167.468 147.113 167.002 147.902 166.785 148.768C166.568 149.633 166.721 150.328 167.244 150.851C167.66 151.267 168.188 151.423 168.829 151.32C169.474 151.221 170.12 150.847 170.768 150.199ZM178.95 149.188L177.281 150.856L178.485 152.06L178.154 152.392L176.95 151.188L173.492 154.646C173.171 154.966 172.983 155.261 172.928 155.53C172.88 155.799 172.965 156.042 173.182 156.259C173.311 156.388 173.471 156.474 173.663 156.519C173.854 156.563 174.075 156.566 174.326 156.53L174.552 156.756C174.003 156.929 173.517 156.988 173.094 156.933C172.674 156.874 172.319 156.699 172.028 156.408C171.674 156.054 171.532 155.662 171.602 155.231C171.676 154.804 171.963 154.34 172.464 153.839L176.033 150.271L175.232 149.47L175.447 149.254C176.534 149.714 177.642 149.633 178.773 149.011L178.95 149.188ZM180.281 160.662C179.537 161.163 178.791 161.396 178.044 161.363C177.303 161.33 176.679 161.059 176.171 160.551C175.563 159.944 175.278 159.187 175.315 158.281C175.355 157.371 175.806 156.485 176.668 155.624C177.504 154.788 178.393 154.322 179.336 154.226C180.279 154.13 181.106 154.438 181.817 155.148C182.417 155.749 182.7 156.426 182.667 157.181C182.642 157.936 182.323 158.62 181.712 159.231L178.16 155.679C178.064 155.767 177.992 155.835 177.944 155.883C177.381 156.447 177.022 157.148 176.867 157.988C176.712 158.828 176.917 159.529 177.48 160.093C178.206 160.818 179.112 160.918 180.198 160.391L180.281 160.662ZM180.889 157.712C181.308 157.27 181.529 156.828 181.551 156.386C181.577 155.948 181.43 155.568 181.109 155.248C180.785 154.924 180.386 154.767 179.911 154.778C179.436 154.789 178.975 154.981 178.53 155.353L180.889 157.712ZM186.109 159.441L185.004 160.546C185.781 160.498 186.381 160.524 186.805 160.623C187.229 160.722 187.595 160.927 187.904 161.236C188.324 161.656 188.503 162.148 188.44 162.711C188.374 163.278 188.041 163.862 187.44 164.462L185.17 166.733C184.768 167.134 184.553 167.464 184.523 167.722C184.498 167.983 184.628 168.269 184.916 168.578L184.711 168.782L182.065 166.136L182.27 165.932C182.619 166.282 182.929 166.455 183.198 166.451C183.467 166.447 183.815 166.232 184.242 165.805L186.457 163.59C186.866 163.181 187.096 162.796 187.148 162.435C187.206 162.074 187.089 161.746 186.794 161.452C186.573 161.231 186.288 161.071 185.938 160.971C185.588 160.872 185.174 160.833 184.695 160.855L181.993 163.556C181.599 163.95 181.384 164.28 181.347 164.545C181.318 164.81 181.469 165.116 181.8 165.462L181.596 165.667L178.999 163.07L179.204 162.866C179.542 163.19 179.841 163.33 180.099 163.286C180.36 163.238 180.684 163.021 181.071 162.634L183.618 160.087C184.17 159.535 184.293 159.106 183.988 158.8C183.881 158.693 183.73 158.605 183.535 158.535L183.673 158.242L185.916 159.247L186.109 159.441ZM190.418 163.993L192.285 165.86L188.777 169.368C188.387 169.758 188.164 170.125 188.109 170.467C188.061 170.81 188.182 171.127 188.473 171.417C188.702 171.646 188.985 171.815 189.324 171.926C189.667 172.032 190.062 172.079 190.512 172.064L193.511 169.064C193.769 168.806 193.904 168.598 193.915 168.44C193.929 168.285 193.924 168.151 193.898 168.037C193.88 167.922 193.72 167.711 193.418 167.401L193.622 167.197L195.434 169.009L191.716 172.727C191.37 173.073 191.167 173.353 191.108 173.566C191.049 173.78 191.108 173.975 191.285 174.152C191.388 174.255 191.545 174.349 191.755 174.434L191.534 174.655L189.308 173.688L189.098 173.478L190.225 172.351C189.532 172.41 188.943 172.384 188.457 172.274C187.971 172.163 187.586 171.966 187.302 171.683C186.997 171.377 186.822 171.022 186.777 170.616C186.737 170.208 186.807 169.843 186.987 169.523C187.175 169.202 187.494 168.817 187.943 168.368L190.379 165.932C190.659 165.652 190.801 165.392 190.805 165.153C190.812 164.917 190.665 164.648 190.363 164.346L190.213 164.197L190.418 163.993ZM199.975 173.55L198.378 175.146L198.174 174.942C198.516 174.496 198.702 174.019 198.732 173.511C198.769 173.003 198.623 172.585 198.296 172.257C198.03 171.992 197.745 171.839 197.439 171.799C197.137 171.762 196.898 171.832 196.721 172.009C196.478 172.252 196.356 172.543 196.356 172.881C196.353 173.224 196.45 173.682 196.649 174.257C196.977 175.203 197.134 175.931 197.119 176.439C197.1 176.951 196.902 177.397 196.522 177.776C196.018 178.28 195.445 178.481 194.804 178.378C194.167 178.279 193.655 178.036 193.268 177.649C193.029 177.409 192.784 177.058 192.534 176.594C192.405 176.362 192.307 176.213 192.241 176.146C192.16 176.065 192.062 176.023 191.948 176.019L191.716 175.787L193.484 174.019L193.677 174.213C193.224 174.82 193.012 175.4 193.042 175.953C193.075 176.509 193.267 176.962 193.616 177.312C193.845 177.54 194.123 177.667 194.451 177.693C194.782 177.722 195.055 177.63 195.268 177.417C195.526 177.159 195.66 176.852 195.671 176.494C195.675 176.137 195.55 175.507 195.296 174.605C195.045 173.728 194.968 173.113 195.064 172.76C195.156 172.41 195.322 172.115 195.561 171.876C195.992 171.445 196.496 171.239 197.075 171.257C197.66 171.276 198.176 171.508 198.621 171.953C198.802 172.134 198.981 172.382 199.157 172.699C199.294 172.946 199.4 173.108 199.478 173.185C199.57 173.277 199.667 173.331 199.77 173.345L199.975 173.55ZM202.113 182.494C201.369 182.994 200.623 183.228 199.875 183.195C199.135 183.162 198.511 182.891 198.003 182.383C197.395 181.775 197.11 181.019 197.146 180.113C197.187 179.203 197.638 178.317 198.5 177.455C199.336 176.619 200.225 176.154 201.168 176.058C202.111 175.962 202.938 176.27 203.649 176.98C204.249 177.581 204.532 178.258 204.499 179.013C204.473 179.768 204.155 180.451 203.544 181.063L199.991 177.511C199.896 177.599 199.824 177.667 199.776 177.715C199.213 178.279 198.853 178.98 198.699 179.82C198.544 180.66 198.748 181.361 199.312 181.925C200.037 182.65 200.943 182.75 202.03 182.223L202.113 182.494ZM202.72 179.544C203.14 179.102 203.361 178.66 203.383 178.218C203.409 177.78 203.262 177.4 202.941 177.08C202.617 176.756 202.218 176.599 201.743 176.61C201.268 176.621 200.807 176.813 200.362 177.185L202.72 179.544Z" fill="white"/>
<path d="M112.761 256.241V256.497C110.983 257.513 110.095 259.739 110.095 263.177C110.095 266.668 110.983 268.904 112.761 269.886V270.164C110.036 268.631 108.674 266.307 108.674 263.191C108.674 261.541 109.057 260.12 109.824 258.929C110.59 257.732 111.569 256.836 112.761 256.241ZM124.003 261.829C124.003 262.654 123.813 263.482 123.432 264.312C123.051 265.142 122.436 265.835 121.586 266.392C120.737 266.949 119.812 267.227 118.811 267.227C117.409 267.227 116.181 266.709 115.126 265.674C114.072 264.639 113.544 263.362 113.544 261.844C113.544 260.379 114.052 259.117 115.068 258.057C116.088 256.998 117.321 256.468 118.767 256.468C120.202 256.468 121.433 256.99 122.458 258.035C123.488 259.075 124.003 260.34 124.003 261.829ZM122.15 261.88C122.15 260.474 121.857 259.319 121.271 258.416C120.69 257.513 119.851 257.061 118.752 257.061C117.663 257.061 116.831 257.505 116.254 258.394C115.683 259.278 115.397 260.42 115.397 261.822C115.397 263.301 115.708 264.476 116.328 265.345C116.953 266.214 117.773 266.648 118.789 266.648C119.79 266.648 120.6 266.221 121.22 265.367C121.84 264.507 122.15 263.345 122.15 261.88ZM124.802 270.164V269.886C126.579 268.875 127.468 266.656 127.468 263.228C127.468 261.451 127.25 260.02 126.816 258.936C126.381 257.847 125.71 257.044 124.802 256.526V256.241C127.526 257.774 128.889 260.098 128.889 263.213C128.889 264.747 128.522 266.133 127.79 267.374C127.062 268.614 126.066 269.544 124.802 270.164ZM144.321 261.829C144.321 262.654 144.13 263.482 143.75 264.312C143.369 265.142 142.753 265.835 141.904 266.392C141.054 266.949 140.129 267.227 139.128 267.227C137.727 267.227 136.499 266.709 135.444 265.674C134.389 264.639 133.862 263.362 133.862 261.844C133.862 260.379 134.37 259.117 135.385 258.057C136.406 256.998 137.639 256.468 139.084 256.468C140.52 256.468 141.75 256.99 142.775 258.035C143.806 259.075 144.321 260.34 144.321 261.829ZM142.468 261.88C142.468 260.474 142.175 259.319 141.589 258.416C141.008 257.513 140.168 257.061 139.069 257.061C137.98 257.061 137.148 257.505 136.572 258.394C136 259.278 135.715 260.42 135.715 261.822C135.715 263.301 136.025 264.476 136.645 265.345C137.27 266.214 138.09 266.648 139.106 266.648C140.107 266.648 140.917 266.221 141.538 265.367C142.158 264.507 142.468 263.345 142.468 261.88ZM147.602 259.881V261.47C147.944 260.938 148.315 260.54 148.715 260.276C149.116 260.013 149.543 259.881 149.997 259.881C150.7 259.881 151.33 260.201 151.887 260.84C152.443 261.48 152.722 262.305 152.722 263.316C152.722 264.444 152.37 265.374 151.667 266.106C150.964 266.839 150.173 267.205 149.294 267.205C148.952 267.205 148.64 267.151 148.356 267.044C148.073 266.937 147.822 266.778 147.602 266.568V268.479C147.602 269.041 147.69 269.415 147.866 269.6C148.042 269.791 148.381 269.886 148.884 269.886V270.164H145.141V269.886C145.62 269.886 145.947 269.798 146.123 269.622C146.298 269.451 146.386 269.07 146.386 268.479V262.173C146.386 261.646 146.333 261.299 146.225 261.133C146.123 260.962 145.959 260.877 145.734 260.877C145.607 260.877 145.449 260.906 145.258 260.965L145.141 260.701L147.346 259.881H147.602ZM147.602 261.932V264.51C147.602 265.086 147.651 265.508 147.749 265.777C147.851 266.041 148.044 266.27 148.327 266.465C148.615 266.656 148.94 266.751 149.301 266.751C149.951 266.751 150.466 266.487 150.847 265.96C151.232 265.433 151.425 264.729 151.425 263.851C151.425 263.025 151.24 262.334 150.869 261.778C150.498 261.221 149.995 260.943 149.36 260.943C149.042 260.943 148.737 261.026 148.444 261.192C148.151 261.353 147.871 261.6 147.602 261.932ZM155.893 259.881V261.47C156.235 260.938 156.606 260.54 157.006 260.276C157.407 260.013 157.834 259.881 158.288 259.881C158.991 259.881 159.621 260.201 160.178 260.84C160.734 261.48 161.013 262.305 161.013 263.316C161.013 264.444 160.661 265.374 159.958 266.106C159.255 266.839 158.464 267.205 157.585 267.205C157.243 267.205 156.931 267.151 156.647 267.044C156.364 266.937 156.113 266.778 155.893 266.568V268.479C155.893 269.041 155.981 269.415 156.157 269.6C156.333 269.791 156.672 269.886 157.175 269.886V270.164H153.432V269.886C153.911 269.886 154.238 269.798 154.414 269.622C154.589 269.451 154.677 269.07 154.677 268.479V262.173C154.677 261.646 154.624 261.299 154.516 261.133C154.414 260.962 154.25 260.877 154.025 260.877C153.898 260.877 153.74 260.906 153.549 260.965L153.432 260.701L155.637 259.881H155.893ZM155.893 261.932V264.51C155.893 265.086 155.942 265.508 156.04 265.777C156.142 266.041 156.335 266.27 156.618 266.465C156.906 266.656 157.231 266.751 157.592 266.751C158.242 266.751 158.757 266.487 159.138 265.96C159.523 265.433 159.716 264.729 159.716 263.851C159.716 263.025 159.531 262.334 159.16 261.778C158.789 261.221 158.286 260.943 157.651 260.943C157.333 260.943 157.028 261.026 156.735 261.192C156.442 261.353 156.162 261.6 155.893 261.932ZM169.077 263.301C169.077 264.332 168.723 265.24 168.015 266.026C167.312 266.812 166.467 267.205 165.48 267.205C164.587 267.205 163.806 266.871 163.137 266.202C162.468 265.528 162.133 264.7 162.133 263.719C162.133 262.752 162.475 261.871 163.159 261.075C163.842 260.279 164.699 259.881 165.729 259.881C166.633 259.881 167.417 260.223 168.081 260.906C168.745 261.585 169.077 262.383 169.077 263.301ZM167.722 263.924C167.722 262.977 167.509 262.154 167.084 261.456C166.66 260.752 166.091 260.401 165.378 260.401C164.797 260.401 164.335 260.645 163.994 261.133C163.657 261.617 163.488 262.278 163.488 263.118C163.488 264.065 163.703 264.898 164.133 265.616C164.562 266.333 165.124 266.692 165.817 266.692C166.369 266.692 166.823 266.446 167.18 265.953C167.541 265.459 167.722 264.783 167.722 263.924ZM174.409 260.042V262.159H174.138C174.069 261.636 173.876 261.197 173.559 260.84C173.247 260.479 172.873 260.298 172.438 260.298C172.087 260.298 171.796 260.386 171.567 260.562C171.342 260.738 171.23 260.943 171.23 261.177C171.23 261.5 171.342 261.773 171.567 261.998C171.792 262.227 172.16 262.466 172.673 262.715C173.518 263.125 174.104 263.504 174.431 263.851C174.758 264.202 174.921 264.629 174.921 265.132C174.921 265.801 174.675 266.314 174.182 266.67C173.693 267.027 173.193 267.205 172.68 267.205C172.363 267.205 171.967 267.134 171.494 266.993C171.254 266.924 171.091 266.89 171.003 266.89C170.896 266.89 170.803 266.927 170.725 267H170.417V264.656H170.673C170.776 265.359 171.02 265.884 171.406 266.231C171.796 266.578 172.224 266.751 172.688 266.751C172.99 266.751 173.259 266.651 173.493 266.451C173.732 266.25 173.852 266.009 173.852 265.726C173.852 265.384 173.737 265.091 173.508 264.847C173.273 264.607 172.773 264.273 172.006 263.843C171.259 263.428 170.8 263.072 170.629 262.774C170.458 262.481 170.373 262.176 170.373 261.858C170.373 261.287 170.571 260.816 170.966 260.445C171.367 260.069 171.862 259.881 172.453 259.881C172.692 259.881 172.976 259.927 173.303 260.02C173.557 260.093 173.735 260.13 173.837 260.13C173.959 260.13 174.06 260.101 174.138 260.042H174.409ZM177.602 256.204C177.812 256.204 177.993 256.28 178.144 256.431C178.295 256.578 178.371 256.758 178.371 256.973C178.371 257.193 178.295 257.378 178.144 257.53C177.993 257.676 177.812 257.75 177.602 257.75C177.387 257.75 177.204 257.674 177.053 257.522C176.901 257.371 176.826 257.188 176.826 256.973C176.826 256.763 176.901 256.583 177.053 256.431C177.204 256.28 177.387 256.204 177.602 256.204ZM175.896 260.665L177.976 259.881H178.232V265.337C178.232 265.884 178.305 266.246 178.452 266.421C178.603 266.597 178.876 266.7 179.272 266.729V267H175.896V266.729C176.267 266.719 176.552 266.644 176.752 266.502C176.958 266.355 177.06 265.967 177.06 265.337V262.02C177.06 261.609 177.004 261.314 176.892 261.133C176.784 260.953 176.591 260.862 176.313 260.862C176.196 260.862 176.083 260.887 175.976 260.936L175.896 260.665ZM182.333 257.83V260.042H183.93V260.481H182.333V265.066C182.333 265.491 182.404 265.811 182.546 266.026C182.692 266.236 182.91 266.341 183.198 266.341C183.369 266.341 183.532 266.292 183.688 266.194C183.845 266.097 183.994 265.953 184.135 265.762H184.436C184.187 266.241 183.903 266.602 183.586 266.846C183.269 267.085 182.917 267.205 182.531 267.205C182.062 267.205 181.708 267.039 181.469 266.707C181.235 266.375 181.118 265.877 181.118 265.213V260.481H180.056V260.196C181.081 259.781 181.762 258.992 182.099 257.83H182.333ZM190.822 264.554C190.661 265.379 190.322 266.028 189.804 266.502C189.292 266.971 188.698 267.205 188.024 267.205C187.219 267.205 186.528 266.893 185.952 266.268C185.375 265.638 185.087 264.751 185.087 263.609C185.087 262.5 185.368 261.602 185.93 260.914C186.491 260.225 187.243 259.881 188.186 259.881C188.981 259.881 189.619 260.142 190.097 260.665C190.581 261.182 190.822 261.846 190.822 262.657H186.113C186.108 262.779 186.105 262.872 186.105 262.935C186.105 263.682 186.333 264.385 186.787 265.044C187.241 265.704 187.841 266.033 188.588 266.033C189.55 266.033 190.217 265.499 190.588 264.429L190.822 264.554ZM189.27 262.195C189.255 261.624 189.108 261.185 188.83 260.877C188.557 260.569 188.208 260.416 187.783 260.416C187.353 260.416 186.984 260.577 186.677 260.899C186.369 261.221 186.191 261.653 186.142 262.195H189.27Z" fill="white"/>
<mask id="path-9-inside-1_13_49" fill="white">
<path d="M85.3553 85.3553C80.7124 89.9983 75.2004 93.6812 69.1342 96.194C63.0679 98.7067 56.5661 100 50 100L50 50L85.3553 85.3553Z"/>
</mask>
<path d="M85.3553 85.3553C80.7124 89.9983 75.2004 93.6812 69.1342 96.194C63.0679 98.7067 56.5661 100 50 100L50 50L85.3553 85.3553Z" stroke="white" stroke-width="2" mask="url(#path-9-inside-1_13_49)"/>
<path d="M61.126 107.675V107.897C59.5856 108.778 58.8154 110.707 58.8154 113.687C58.8154 116.712 59.5856 118.65 61.126 119.501V119.742C58.7646 118.413 57.584 116.399 57.584 113.699C57.584 112.269 57.9162 111.037 58.5806 110.005C59.245 108.968 60.0934 108.192 61.126 107.675ZM65.1771 117.13C64.4664 117.13 63.8771 116.931 63.4091 116.532C62.9498 116.125 62.6074 115.548 62.3821 114.803C62.1568 114.049 62.0441 113.148 62.0441 112.099C62.0441 111.042 62.1481 110.136 62.3561 109.382C62.5641 108.628 62.8978 108.052 63.3571 107.653C63.8251 107.254 64.4318 107.055 65.1771 107.055C65.8964 107.055 66.4901 107.254 66.9581 107.653C67.4261 108.043 67.7728 108.615 67.9981 109.369C68.2321 110.123 68.3491 111.033 68.3491 112.099C68.3491 113.148 68.2408 114.049 68.0241 114.803C67.8161 115.548 67.4781 116.125 67.0101 116.532C66.5508 116.931 65.9398 117.13 65.1771 117.13ZM65.1771 116.181C65.6278 116.181 65.9961 116.051 66.2821 115.791C66.5768 115.531 66.7978 115.124 66.9451 114.569C67.0924 114.014 67.1748 113.291 67.1921 112.398H63.2011C63.2184 113.282 63.2921 114.001 63.4221 114.556C63.5608 115.111 63.7731 115.522 64.0591 115.791C64.3451 116.051 64.7178 116.181 65.1771 116.181ZM63.2011 111.514H67.1791C67.1531 110.725 67.0664 110.075 66.9191 109.564C66.7718 109.044 66.5551 108.658 66.2691 108.407C65.9831 108.147 65.6191 108.017 65.1771 108.017C64.7351 108.017 64.3711 108.147 64.0851 108.407C63.8078 108.658 63.5998 109.044 63.4611 109.564C63.3224 110.075 63.2358 110.725 63.2011 111.514ZM69.251 119.742V119.501C70.7913 118.625 71.5615 116.702 71.5615 113.731C71.5615 112.191 71.3732 110.951 70.9966 110.011C70.62 109.068 70.0381 108.371 69.251 107.923V107.675C71.6123 109.004 72.793 111.018 72.793 113.718C72.793 115.047 72.4756 116.249 71.8408 117.324C71.2103 118.399 70.347 119.205 69.251 119.742ZM78.9819 109.053V110.97H80.3657V111.351H78.9819V115.324C78.9819 115.692 79.0433 115.97 79.166 116.156C79.293 116.338 79.4813 116.429 79.731 116.429C79.8791 116.429 80.0208 116.386 80.1562 116.302C80.2917 116.217 80.4207 116.092 80.5435 115.927H80.8037C80.5879 116.342 80.3424 116.655 80.0674 116.867C79.7923 117.074 79.4876 117.178 79.1533 117.178C78.7471 117.178 78.4403 117.034 78.2329 116.746C78.0298 116.458 77.9282 116.027 77.9282 115.451V111.351H77.0078V111.103C77.8965 110.743 78.4868 110.06 78.7788 109.053H78.9819ZM83.2856 107.675V112.093C83.5903 111.691 83.9331 111.38 84.314 111.16C84.6948 110.94 85.0482 110.83 85.374 110.83C85.7337 110.83 86.0426 110.94 86.3008 111.16C86.5632 111.376 86.7345 111.647 86.8149 111.973C86.8953 112.299 86.9355 112.756 86.9355 113.344V115.565C86.9355 116.001 86.9884 116.31 87.0942 116.492C87.2043 116.674 87.4793 116.765 87.9194 116.765V117H84.8979V116.765C85.3338 116.761 85.6025 116.666 85.7041 116.479C85.8099 116.289 85.8628 115.984 85.8628 115.565V113.077C85.8628 112.713 85.8416 112.447 85.7993 112.277C85.7612 112.108 85.6512 111.956 85.4692 111.82C85.2873 111.681 85.0799 111.611 84.8472 111.611C84.6737 111.611 84.4684 111.655 84.2314 111.744C83.9945 111.829 83.6792 112.053 83.2856 112.417V115.565C83.2856 116.073 83.3597 116.401 83.5078 116.549C83.6559 116.693 83.931 116.765 84.333 116.765V117H81.2798V116.765C81.631 116.761 81.8743 116.681 82.0098 116.524C82.1494 116.367 82.2192 116.048 82.2192 115.565V110.087C82.2192 109.448 82.1854 109.042 82.1177 108.869C82.05 108.695 81.8934 108.608 81.6479 108.608C81.5379 108.608 81.4152 108.632 81.2798 108.678L81.21 108.456L83.0571 107.675H83.2856ZM93.5244 114.88C93.3848 115.595 93.0907 116.158 92.6421 116.568C92.1978 116.975 91.6836 117.178 91.0996 117.178C90.4014 117.178 89.8026 116.907 89.3032 116.365C88.8039 115.819 88.5542 115.051 88.5542 114.061C88.5542 113.1 88.7975 112.322 89.2842 111.725C89.7708 111.128 90.4225 110.83 91.2393 110.83C91.929 110.83 92.4813 111.056 92.896 111.509C93.3149 111.958 93.5244 112.533 93.5244 113.236H89.4429C89.4386 113.342 89.4365 113.422 89.4365 113.477C89.4365 114.125 89.6333 114.734 90.0269 115.305C90.4204 115.876 90.9409 116.162 91.5884 116.162C92.422 116.162 92.9997 115.699 93.3213 114.772L93.5244 114.88ZM92.1787 112.836C92.166 112.341 92.0391 111.96 91.7979 111.693C91.5609 111.427 91.2583 111.293 90.8901 111.293C90.5177 111.293 90.1982 111.433 89.9316 111.712C89.665 111.992 89.5106 112.366 89.4683 112.836H92.1787ZM96.1968 109.053V110.97H97.5806V111.351H96.1968V115.324C96.1968 115.692 96.2581 115.97 96.3809 116.156C96.5078 116.338 96.6961 116.429 96.9458 116.429C97.0939 116.429 97.2357 116.386 97.3711 116.302C97.5065 116.217 97.6356 116.092 97.7583 115.927H98.0186C97.8027 116.342 97.5573 116.655 97.2822 116.867C97.0072 117.074 96.7025 117.178 96.3682 117.178C95.9619 117.178 95.6551 117.034 95.4478 116.746C95.2446 116.458 95.1431 116.027 95.1431 115.451V111.351H94.2227V111.103C95.1113 110.743 95.7017 110.06 95.9937 109.053H96.1968ZM104.449 115.864V116.194C103.928 116.85 103.442 117.178 102.989 117.178C102.456 117.178 102.181 116.814 102.164 116.086C101.787 116.45 101.421 116.723 101.065 116.905C100.714 117.087 100.374 117.178 100.043 117.178C99.6626 117.178 99.341 117.034 99.0786 116.746C98.8205 116.458 98.6914 116.111 98.6914 115.705C98.6914 115.163 98.9559 114.698 99.4849 114.309C100.018 113.915 100.911 113.505 102.164 113.077C102.159 112.476 102.138 112.066 102.1 111.846C102.066 111.621 101.965 111.442 101.795 111.306C101.626 111.167 101.36 111.097 100.996 111.097C100.708 111.097 100.469 111.175 100.278 111.332C100.088 111.488 99.9927 111.7 99.9927 111.966C99.9927 112.026 99.9969 112.095 100.005 112.176C100.01 112.235 100.012 112.29 100.012 112.341C100.012 112.705 99.8424 112.887 99.5039 112.887C99.1273 112.887 98.939 112.707 98.939 112.347C98.939 111.92 99.1484 111.56 99.5674 111.268C99.9863 110.976 100.547 110.83 101.25 110.83C101.77 110.83 102.181 110.904 102.481 111.052C102.786 111.196 102.985 111.391 103.078 111.636C103.171 111.882 103.217 112.26 103.217 112.772V115.794C103.217 116.204 103.344 116.41 103.598 116.41C103.848 116.41 104.131 116.228 104.449 115.864ZM102.164 115.794V113.426C101.199 113.824 100.56 114.154 100.247 114.417C99.9334 114.675 99.7769 114.994 99.7769 115.375C99.7769 115.667 99.87 115.917 100.056 116.124C100.247 116.331 100.484 116.435 100.767 116.435C100.987 116.435 101.214 116.382 101.446 116.276C101.679 116.166 101.918 116.006 102.164 115.794Z" fill="white"/>
</svg>
