<svg width="276" height="251" viewBox="0 0 276 251" fill="none" xmlns="http://www.w3.org/2000/svg">
<path d="M26 201H226" stroke="white" stroke-linecap="round"/>
<path d="M26 201L26 1" stroke="white" stroke-linecap="round"/>
<path d="M26.0026 1L226 200.997" stroke="white" stroke-linecap="round"/>
<line x1="26" y1="176.5" x2="51" y2="176.5" stroke="white"/>
<line x1="50.5" y1="176" x2="50.5" y2="201" stroke="white"/>
<path d="M2.52344 139.922L2.79688 139.922C3.88021 141.818 6.25521 142.766 9.92188 142.766C13.6458 142.766 16.0313 141.818 17.0781 139.922L17.375 139.922C15.7396 142.828 13.2604 144.281 9.9375 144.281C8.17709 144.281 6.66146 143.872 5.39063 143.055C4.11459 142.237 3.15886 141.193 2.52344 139.922ZM8.48438 127.93C9.36459 127.93 10.2474 128.133 11.1328 128.539C12.0182 128.945 12.7578 129.602 13.3516 130.508C13.9453 131.414 14.2422 132.401 14.2422 133.469C14.2422 134.964 13.6901 136.273 12.5859 137.398C11.4818 138.523 10.1198 139.086 8.5 139.086C6.9375 139.086 5.59115 138.544 4.46094 137.461C3.33073 136.372 2.76563 135.057 2.76563 133.516C2.76563 131.984 3.32292 130.672 4.4375 129.578C5.54688 128.479 6.89584 127.93 8.48438 127.93ZM8.53907 129.906C7.03907 129.906 5.80729 130.219 4.84375 130.844C3.88021 131.464 3.39844 132.359 3.39844 133.531C3.39844 134.693 3.8724 135.581 4.82032 136.195C5.76302 136.805 6.98177 137.109 8.47657 137.109C10.0547 137.109 11.3073 136.779 12.2344 136.117C13.1615 135.451 13.625 134.576 13.625 133.492C13.625 132.424 13.1693 131.56 12.2578 130.898C11.3411 130.237 10.1016 129.906 8.53907 129.906ZM17.375 127.078L17.0781 127.078C16 125.182 13.6328 124.234 9.97657 124.234C8.08073 124.234 6.55469 124.466 5.39844 124.93C4.23698 125.393 3.38021 126.109 2.82813 127.078L2.52344 127.078C4.15886 124.172 6.63802 122.719 9.96094 122.719C11.5964 122.719 13.0755 123.109 14.3984 123.891C15.7214 124.667 16.7135 125.729 17.375 127.078ZM8.48438 106.258C9.36459 106.258 10.2474 106.461 11.1328 106.867C12.0182 107.273 12.7578 107.93 13.3516 108.836C13.9453 109.742 14.2422 110.729 14.2422 111.797C14.2422 113.292 13.6901 114.602 12.5859 115.727C11.4818 116.852 10.1198 117.414 8.5 117.414C6.9375 117.414 5.59115 116.872 4.46094 115.789C3.33073 114.701 2.76563 113.385 2.76563 111.844C2.76563 110.312 3.32292 109 4.4375 107.906C5.54688 106.807 6.89584 106.258 8.48438 106.258ZM8.53906 108.234C7.03906 108.234 5.80729 108.547 4.84375 109.172C3.88021 109.792 3.39844 110.687 3.39844 111.859C3.39844 113.021 3.8724 113.909 4.82031 114.523C5.76302 115.133 6.98177 115.437 8.47657 115.437C10.0547 115.437 11.3073 115.107 12.2344 114.445C13.1615 113.779 13.625 112.904 13.625 111.82C13.625 110.753 13.1693 109.888 12.2578 109.227C11.3411 108.565 10.1016 108.234 8.53906 108.234ZM6.40625 102.758L8.10156 102.758C7.53386 102.393 7.10938 101.997 6.82813 101.57C6.54688 101.143 6.40625 100.687 6.40625 100.203C6.40625 99.4531 6.7474 98.7812 7.42969 98.1875C8.11198 97.5937 8.99219 97.2969 10.0703 97.2969C11.2734 97.2969 12.2656 97.6719 13.0469 98.4219C13.8281 99.1719 14.2188 100.016 14.2188 100.953C14.2188 101.318 14.1615 101.651 14.0469 101.953C13.9323 102.255 13.763 102.523 13.5391 102.758L15.5781 102.758C16.1771 102.758 16.5755 102.664 16.7734 102.477C16.9766 102.289 17.0781 101.927 17.0781 101.391L17.375 101.391L17.375 105.383L17.0781 105.383C17.0781 104.872 16.9844 104.523 16.7969 104.336C16.6146 104.148 16.2083 104.055 15.5781 104.055L8.85156 104.055C8.28906 104.055 7.91927 104.112 7.74219 104.227C7.5599 104.336 7.46875 104.51 7.46875 104.75C7.46875 104.885 7.5 105.055 7.5625 105.258L7.28125 105.383L6.40625 103.031L6.40625 102.758ZM8.59375 102.758L11.3438 102.758C11.9583 102.758 12.4089 102.706 12.6953 102.602C12.9766 102.492 13.2214 102.286 13.4297 101.984C13.6328 101.677 13.7344 101.331 13.7344 100.945C13.7344 100.253 13.4531 99.7031 12.8906 99.2969C12.3281 98.8854 11.5781 98.6797 10.6406 98.6797C9.76042 98.6797 9.02344 98.8776 8.42969 99.2734C7.83594 99.6693 7.53906 100.206 7.53906 100.883C7.53906 101.221 7.62761 101.547 7.80469 101.859C7.97656 102.172 8.23959 102.471 8.59375 102.758ZM6.40625 93.9141L8.10156 93.9141C7.53386 93.5495 7.10938 93.1536 6.82813 92.7266C6.54688 92.2995 6.40625 91.8437 6.40625 91.3594C6.40625 90.6094 6.7474 89.9375 7.42969 89.3437C8.11198 88.75 8.99219 88.4531 10.0703 88.4531C11.2734 88.4531 12.2656 88.8281 13.0469 89.5781C13.8281 90.3281 14.2188 91.1719 14.2188 92.1094C14.2188 92.474 14.1615 92.8073 14.0469 93.1094C13.9323 93.4115 13.763 93.6797 13.5391 93.9141L15.5781 93.9141C16.1771 93.9141 16.5755 93.8203 16.7734 93.6328C16.9766 93.4453 17.0781 93.0833 17.0781 92.5469L17.375 92.5469L17.375 96.5391L17.0781 96.5391C17.0781 96.0286 16.9844 95.6797 16.7969 95.4922C16.6146 95.3047 16.2083 95.2109 15.5781 95.2109L8.85156 95.2109C8.28906 95.2109 7.91927 95.2682 7.74219 95.3828C7.5599 95.4922 7.46875 95.6667 7.46875 95.9062C7.46875 96.0417 7.5 96.2109 7.5625 96.4141L7.28125 96.5391L6.40625 94.1875L6.40625 93.9141ZM8.59375 93.9141L11.3438 93.9141C11.9583 93.9141 12.4089 93.862 12.6953 93.7578C12.9766 93.6484 13.2214 93.4427 13.4297 93.1406C13.6328 92.8333 13.7344 92.487 13.7344 92.1016C13.7344 91.4089 13.4531 90.8594 12.8906 90.4531C12.3281 90.0417 11.5781 89.8359 10.6406 89.8359C9.76042 89.8359 9.02344 90.0339 8.42969 90.4297C7.83594 90.8255 7.53906 91.362 7.53906 92.0391C7.53906 92.3776 7.62761 92.7031 7.80469 93.0156C7.97656 93.3281 8.23958 93.6276 8.59375 93.9141ZM10.0547 79.8516C11.1536 79.8516 12.1224 80.2292 12.9609 80.9844C13.7995 81.7344 14.2188 82.6354 14.2188 83.6875C14.2188 84.6406 13.862 85.474 13.1484 86.1875C12.4297 86.901 11.5469 87.2578 10.5 87.2578C9.46875 87.2578 8.52865 86.8932 7.67969 86.1641C6.83073 85.4349 6.40625 84.5208 6.40625 83.4219C6.40625 82.4583 6.77083 81.6224 7.5 80.9141C8.22396 80.2057 9.07552 79.8516 10.0547 79.8516ZM10.7188 81.2969C9.70833 81.2969 8.83073 81.5234 8.08594 81.9766C7.33594 82.4297 6.96094 83.0365 6.96094 83.7969C6.96094 84.4167 7.22136 84.9089 7.74219 85.2734C8.25781 85.6328 8.96354 85.8125 9.85938 85.8125C10.8698 85.8125 11.7578 85.5833 12.5234 85.125C13.2891 84.6667 13.6719 84.0677 13.6719 83.3281C13.6719 82.7396 13.4089 82.2552 12.8828 81.875C12.3568 81.4896 11.6354 81.2969 10.7188 81.2969ZM6.57813 74.1641L8.83594 74.1641L8.83594 74.4531C8.27865 74.526 7.8099 74.7318 7.42969 75.0703C7.04427 75.4036 6.85156 75.8021 6.85156 76.2656C6.85156 76.6406 6.94531 76.9505 7.13281 77.1953C7.32031 77.4349 7.53906 77.5547 7.78906 77.5547C8.13281 77.5547 8.42448 77.4349 8.66406 77.1953C8.90886 76.9557 9.16406 76.5625 9.42969 76.0156C9.86719 75.1146 10.2708 74.4896 10.6406 74.1406C11.0156 73.7917 11.4714 73.6172 12.0078 73.6172C12.7214 73.6172 13.2682 73.8802 13.6484 74.4062C14.0286 74.9271 14.2188 75.4609 14.2188 76.0078C14.2188 76.3464 14.1432 76.7682 13.9922 77.2734C13.9193 77.5286 13.8828 77.7031 13.8828 77.7969C13.8828 77.9115 13.9219 78.0104 14 78.0937L14 78.4219L11.5 78.4219L11.5 78.1484C12.25 78.0391 12.8099 77.7786 13.1797 77.3672C13.5495 76.9505 13.7344 76.4948 13.7344 76C13.7344 75.6771 13.6276 75.3906 13.4141 75.1406C13.2005 74.8854 12.9427 74.7578 12.6406 74.7578C12.276 74.7578 11.9635 74.8802 11.7031 75.125C11.4479 75.375 11.0911 75.9089 10.6328 76.7266C10.1901 77.5234 9.8099 78.013 9.49219 78.1953C9.17969 78.3776 8.85417 78.4687 8.51563 78.4687C7.90625 78.4687 7.40365 78.2578 7.00781 77.8359C6.60677 77.4089 6.40625 76.8802 6.40625 76.25C6.40625 75.9948 6.45573 75.6927 6.55469 75.3437C6.63281 75.0729 6.67188 74.8828 6.67188 74.7734C6.67188 74.6432 6.64063 74.5365 6.57813 74.4531L6.57813 74.1641ZM2.48438 70.7578C2.48438 70.5339 2.5651 70.3411 2.72656 70.1797C2.88281 70.0182 3.07552 69.9375 3.30469 69.9375C3.53906 69.9375 3.73698 70.0182 3.89844 70.1797C4.05469 70.3411 4.13281 70.5339 4.13281 70.7578C4.13281 70.987 4.05208 71.1823 3.89063 71.3437C3.72917 71.5052 3.53385 71.5859 3.30469 71.5859C3.08073 71.5859 2.88802 71.5052 2.72656 71.3437C2.5651 71.1823 2.48438 70.987 2.48438 70.7578ZM7.24219 72.5781L6.40625 70.3594L6.40625 70.0859L12.2266 70.0859C12.8099 70.0859 13.1953 70.0078 13.3828 69.8516C13.5703 69.6901 13.6797 69.3984 13.7109 68.9766L14 68.9766L14 72.5781L13.7109 72.5781C13.7005 72.1823 13.6198 71.8776 13.4688 71.6641C13.3125 71.4453 12.8984 71.3359 12.2266 71.3359L8.6875 71.3359C8.25 71.3359 7.9349 71.3958 7.74219 71.5156C7.54948 71.6302 7.45313 71.8359 7.45313 72.1328C7.45313 72.2578 7.47917 72.3776 7.53125 72.4922L7.24219 72.5781ZM4.21875 65.7109L6.57813 65.7109L6.57813 64.0078L7.04688 64.0078L7.04688 65.7109L11.9375 65.7109C12.3906 65.7109 12.7318 65.6354 12.9609 65.4844C13.1849 65.3281 13.2969 65.0964 13.2969 64.7891C13.2969 64.6068 13.2448 64.4323 13.1406 64.2656C13.0365 64.099 12.8828 63.9401 12.6797 63.7891L12.6797 63.4687C13.1901 63.7344 13.5755 64.0365 13.8359 64.375C14.0911 64.7135 14.2188 65.0885 14.2188 65.5C14.2188 66 14.0417 66.3776 13.6875 66.6328C13.3333 66.8828 12.8021 67.0078 12.0938 67.0078L7.04688 67.0078L7.04688 68.1406L6.74219 68.1406C6.29948 67.0469 5.45833 66.3203 4.21875 65.9609L4.21875 65.7109ZM11.3906 56.6562C12.2708 56.8281 12.9635 57.1901 13.4688 57.7422C13.9688 58.2891 14.2188 58.9219 14.2188 59.6406C14.2188 60.5 13.8854 61.237 13.2188 61.8516C12.5469 62.4661 11.6016 62.7734 10.3828 62.7734C9.20052 62.7734 8.24219 62.474 7.50781 61.875C6.77344 61.276 6.40625 60.474 6.40625 59.4687C6.40625 58.6198 6.6849 57.9401 7.24219 57.4297C7.79427 56.9141 8.5026 56.6562 9.36719 56.6562L9.36719 61.6797C9.4974 61.6849 9.59635 61.6875 9.66406 61.6875C10.4609 61.6875 11.2109 61.4453 11.9141 60.9609C12.6172 60.4766 12.9688 59.8359 12.9688 59.0391C12.9688 58.013 12.3984 57.3021 11.2578 56.9062L11.3906 56.6562ZM8.875 58.3125C8.26563 58.3281 7.79688 58.4844 7.46875 58.7812C7.14063 59.0729 6.97656 59.4453 6.97656 59.8984C6.97656 60.3568 7.14844 60.75 7.49219 61.0781C7.83594 61.4062 8.29688 61.5964 8.875 61.6484L8.875 58.3125Z" fill="white"/>
<path d="M110.534 53.3751L110.341 53.5685C108.234 52.9939 105.885 54.003 103.292 56.5958C100.659 59.229 99.6423 61.586 100.243 63.6668L100.033 63.8768C99.1341 60.6653 99.8596 57.8848 102.209 55.5351C103.454 54.2903 104.815 53.5077 106.292 53.1873C107.772 52.8632 109.186 52.9258 110.534 53.3751ZM109.087 60.6561L106.844 62.899C106.41 63.3335 106.148 63.6392 106.06 63.816C105.975 63.9891 105.971 64.2027 106.049 64.4568C106.13 64.7072 106.341 65.0037 106.684 65.3462L106.48 65.5506L102.994 62.0648L103.198 61.8604C103.53 62.1919 103.821 62.3944 104.071 62.4681C104.325 62.5454 104.537 62.5399 104.706 62.4515C104.883 62.3631 105.187 62.1035 105.618 61.6726L110.374 56.9162C110.82 56.4705 111.081 56.1575 111.159 55.977C111.243 55.7966 111.243 55.5903 111.159 55.3583C111.078 55.1226 110.877 54.8372 110.556 54.5021L110.761 54.2977L114.247 57.7835L114.042 57.9879C113.7 57.6601 113.411 57.452 113.175 57.3636C112.939 57.2753 112.729 57.2716 112.545 57.3526C112.361 57.4336 112.046 57.6969 111.601 58.1426L109.562 60.181L113.385 64.0038L115.423 61.9654C115.869 61.5197 116.13 61.2067 116.208 61.0262C116.292 60.8458 116.292 60.6359 116.208 60.3965C116.123 60.1571 115.908 59.8606 115.561 59.5071L115.766 59.3027L119.279 62.8161L119.075 63.0205C118.74 62.7001 118.454 62.4957 118.219 62.4073C117.99 62.3189 117.782 62.3171 117.594 62.4018C117.41 62.4828 117.095 62.7461 116.65 63.1917L111.893 67.9481C111.462 68.379 111.203 68.6829 111.114 68.8596C111.03 69.0327 111.024 69.2445 111.098 69.4949C111.175 69.7491 111.381 70.0437 111.717 70.3788L111.512 70.5832L107.999 67.0698L108.203 66.8654C108.553 67.2079 108.849 67.4233 109.093 67.5117C109.339 67.5964 109.553 67.5964 109.733 67.5117C109.917 67.4233 110.229 67.16 110.667 66.7218L112.91 64.4789L109.087 60.6561ZM109.7 73.5442L109.91 73.3343C112.013 73.9125 114.357 72.9089 116.943 70.3236C118.283 68.983 119.198 67.7401 119.688 66.5947C120.182 65.4456 120.281 64.3334 119.986 63.258L120.202 63.0426C121.1 66.254 120.375 69.0346 118.025 71.3842C116.869 72.5407 115.547 73.3104 114.059 73.6934C112.575 74.0801 111.122 74.0304 109.7 73.5442ZM124.997 76.566L122.754 78.8089C122.319 79.2434 122.058 79.5491 121.97 79.7259C121.885 79.899 121.881 80.1126 121.959 80.3667C122.04 80.6171 122.251 80.9136 122.594 81.2561L122.389 81.4605L118.904 77.9747L119.108 77.7703C119.439 78.1018 119.73 78.3043 119.981 78.378C120.235 78.4553 120.447 78.4498 120.616 78.3614C120.793 78.273 121.097 78.0134 121.528 77.5825L126.284 72.8261C126.73 72.3805 126.991 72.0674 127.069 71.887C127.153 71.7065 127.153 71.5003 127.069 71.2682C126.987 71.0325 126.787 70.7471 126.466 70.412L126.671 70.2076L130.157 73.6934L129.952 73.8978C129.61 73.57 129.321 73.3619 129.085 73.2735C128.849 73.1852 128.639 73.1815 128.455 73.2625C128.271 73.3435 127.956 73.6068 127.51 74.0525L125.472 76.0909L129.295 79.9137L131.333 77.8753C131.779 77.4296 132.04 77.1166 132.118 76.9361C132.202 76.7557 132.202 76.5458 132.118 76.3064C132.033 76.067 131.818 75.7705 131.471 75.417L131.676 75.2126L135.189 78.726L134.985 78.9304C134.65 78.61 134.364 78.4056 134.129 78.3172C133.9 78.2288 133.692 78.227 133.504 78.3117C133.32 78.3927 133.005 78.656 132.56 79.1016L127.803 83.858C127.372 84.2889 127.113 84.5928 127.024 84.7696C126.94 84.9426 126.934 85.1544 127.008 85.4048C127.085 85.659 127.291 85.9536 127.626 86.2887L127.422 86.4931L123.909 82.9797L124.113 82.7753C124.463 83.1178 124.759 83.3332 125.002 83.4216C125.249 83.5063 125.463 83.5063 125.643 83.4216C125.827 83.3332 126.139 83.0699 126.577 82.6317L128.82 80.3888L124.997 76.566ZM133.256 81.8306L135.598 84.1729L135.394 84.3773C135.162 84.16 134.968 84.0367 134.814 84.0072C134.663 83.9741 134.515 84.0293 134.372 84.1729C134.228 84.3166 134.11 84.5044 134.018 84.7364L132.438 88.8796L135.708 87.366C136.508 87.0014 136.95 86.7767 137.034 86.692C137.226 86.5005 137.163 86.2132 136.846 85.8302L137.051 85.6258L138.548 87.1229L138.344 87.3273C138.148 87.1837 137.935 87.1358 137.703 87.1837C137.478 87.2315 136.959 87.4378 136.145 87.8024L130.858 90.2386C129.654 90.7947 128.739 91.0654 128.113 91.0506C127.487 91.0433 126.978 90.8444 126.588 90.454C126.367 90.2331 126.242 89.9937 126.212 89.7359C126.186 89.4818 126.264 89.2645 126.444 89.084C126.599 88.9293 126.781 88.8575 126.991 88.8686C127.197 88.8833 127.387 88.9772 127.56 89.1503C127.671 89.2608 127.794 89.4836 127.93 89.8187C127.993 89.9624 128.059 90.0692 128.129 90.1391C128.457 90.4669 129.138 90.3969 130.173 89.9292L130.808 89.6475L133.046 83.7641C133.355 82.9539 133.357 82.3775 133.051 82.035L133.256 81.8306ZM140.896 89.2276L139.697 90.4264C140.356 90.2828 140.936 90.2625 141.437 90.3656C141.938 90.4688 142.36 90.6916 142.702 91.0341C143.233 91.5644 143.466 92.2807 143.404 93.183C143.341 94.0853 142.929 94.9176 142.166 95.68C141.316 96.5307 140.349 96.9671 139.266 96.9892C138.183 97.0113 137.311 96.6909 136.648 96.028C136.39 95.7702 136.195 95.494 136.062 95.1994C135.929 94.9047 135.859 94.5954 135.852 94.2713L134.41 95.7131C133.987 96.1367 133.771 96.4847 133.764 96.7572C133.753 97.0334 133.937 97.3612 134.316 97.7405L134.106 97.9505L131.284 95.1276L131.493 94.9176C131.854 95.2786 132.167 95.459 132.433 95.459C132.694 95.4627 133.048 95.2417 133.493 94.7961L138.25 90.0397C138.647 89.642 138.868 89.34 138.913 89.1337C138.964 88.9275 138.905 88.7397 138.736 88.5703C138.64 88.4745 138.498 88.3769 138.31 88.2775L138.421 87.9902L140.702 89.0343L140.896 89.2276ZM139.349 90.7744L137.404 92.719C136.97 93.1536 136.688 93.5089 136.559 93.7852C136.438 94.0614 136.41 94.3799 136.476 94.7409C136.55 95.1018 136.723 95.4185 136.996 95.691C137.485 96.1809 138.073 96.3705 138.758 96.26C139.447 96.1532 140.122 95.7684 140.785 95.1055C141.408 94.4831 141.789 93.822 141.929 93.1223C142.069 92.4225 141.899 91.8333 141.421 91.3545C141.181 91.1151 140.888 90.9475 140.542 90.8518C140.2 90.7523 139.802 90.7266 139.349 90.7744ZM148.26 101.751C147.483 102.528 146.531 102.946 145.404 103.005C144.28 103.068 143.347 102.727 142.603 101.983C141.929 101.309 141.592 100.468 141.592 99.4586C141.595 98.4458 141.967 97.5693 142.708 96.829C143.437 96.0998 144.359 95.6929 145.475 95.6082C146.591 95.5235 147.538 95.8697 148.315 96.6467C148.996 97.3281 149.329 98.177 149.315 99.1934C149.304 100.206 148.952 101.059 148.26 101.751ZM146.768 101.199C147.483 100.484 147.943 99.7035 148.149 98.8564C148.359 98.0057 148.195 97.3115 147.657 96.7738C147.219 96.3355 146.687 96.1716 146.061 96.2821C145.442 96.3926 144.816 96.7646 144.183 97.398C143.468 98.1125 143.002 98.9025 142.785 99.7679C142.568 100.633 142.721 101.328 143.244 101.851C143.66 102.267 144.188 102.423 144.829 102.32C145.474 102.221 146.12 101.847 146.768 101.199ZM154.95 100.188L153.281 101.856L154.485 103.06L154.154 103.392L152.95 102.188L149.492 105.646C149.171 105.966 148.983 106.261 148.928 106.53C148.88 106.799 148.965 107.042 149.182 107.259C149.311 107.388 149.471 107.474 149.663 107.519C149.854 107.563 150.075 107.566 150.326 107.53L150.552 107.756C150.003 107.929 149.517 107.988 149.094 107.933C148.674 107.874 148.319 107.699 148.028 107.408C147.674 107.054 147.532 106.662 147.602 106.231C147.676 105.804 147.963 105.34 148.464 104.839L152.033 101.271L151.232 100.47L151.447 100.254C152.534 100.714 153.642 100.633 154.773 100.011L154.95 100.188ZM156.281 111.662C155.537 112.163 154.791 112.396 154.044 112.363C153.303 112.33 152.679 112.059 152.171 111.551C151.563 110.944 151.278 110.187 151.315 109.281C151.355 108.371 151.806 107.485 152.668 106.624C153.504 105.788 154.393 105.322 155.336 105.226C156.279 105.13 157.106 105.438 157.817 106.148C158.417 106.749 158.7 107.426 158.667 108.181C158.642 108.936 158.323 109.62 157.712 110.231L154.16 106.679C154.064 106.767 153.992 106.835 153.944 106.883C153.381 107.447 153.022 108.148 152.867 108.988C152.712 109.828 152.917 110.529 153.48 111.093C154.206 111.818 155.112 111.918 156.198 111.391L156.281 111.662ZM156.889 108.712C157.308 108.27 157.529 107.828 157.551 107.386C157.577 106.948 157.43 106.568 157.109 106.248C156.785 105.924 156.386 105.767 155.911 105.778C155.436 105.789 154.975 105.981 154.53 106.353L156.889 108.712ZM162.109 110.441L161.004 111.546C161.781 111.498 162.381 111.524 162.805 111.623C163.229 111.722 163.595 111.927 163.904 112.236C164.324 112.656 164.503 113.148 164.44 113.711C164.374 114.278 164.041 114.862 163.44 115.462L161.17 117.733C160.768 118.134 160.553 118.464 160.523 118.722C160.498 118.983 160.628 119.269 160.916 119.578L160.711 119.782L158.065 117.136L158.27 116.932C158.619 117.282 158.929 117.455 159.198 117.451C159.467 117.447 159.815 117.232 160.242 116.805L162.457 114.59C162.866 114.181 163.096 113.796 163.148 113.435C163.206 113.074 163.089 112.746 162.794 112.452C162.573 112.231 162.288 112.071 161.938 111.971C161.588 111.872 161.174 111.833 160.695 111.855L157.993 114.556C157.599 114.95 157.384 115.28 157.347 115.545C157.318 115.81 157.469 116.116 157.8 116.462L157.596 116.667L154.999 114.07L155.204 113.866C155.542 114.19 155.841 114.33 156.099 114.286C156.36 114.238 156.684 114.021 157.071 113.634L159.618 111.087C160.17 110.535 160.293 110.106 159.988 109.8C159.881 109.693 159.73 109.605 159.535 109.535L159.673 109.242L161.916 110.247L162.109 110.441ZM166.418 114.993L168.285 116.86L164.777 120.368C164.387 120.758 164.164 121.125 164.109 121.467C164.061 121.81 164.182 122.127 164.473 122.417C164.702 122.646 164.985 122.815 165.324 122.926C165.667 123.032 166.062 123.079 166.512 123.064L169.511 120.064C169.769 119.806 169.904 119.598 169.915 119.44C169.929 119.285 169.924 119.151 169.898 119.037C169.88 118.922 169.72 118.711 169.418 118.401L169.622 118.197L171.434 120.009L167.716 123.727C167.37 124.073 167.167 124.353 167.108 124.566C167.049 124.78 167.108 124.975 167.285 125.152C167.388 125.255 167.545 125.349 167.755 125.434L167.534 125.655L165.308 124.688L165.098 124.478L166.225 123.351C165.532 123.41 164.943 123.384 164.457 123.274C163.971 123.163 163.586 122.966 163.302 122.683C162.997 122.377 162.822 122.022 162.777 121.616C162.737 121.208 162.807 120.843 162.987 120.523C163.175 120.202 163.494 119.817 163.943 119.368L166.379 116.932C166.659 116.652 166.801 116.392 166.805 116.153C166.812 115.917 166.665 115.648 166.363 115.346L166.213 115.197L166.418 114.993ZM175.975 124.55L174.378 126.146L174.174 125.942C174.516 125.496 174.702 125.019 174.732 124.511C174.769 124.003 174.623 123.585 174.296 123.257C174.03 122.992 173.745 122.839 173.439 122.799C173.137 122.762 172.898 122.832 172.721 123.009C172.478 123.252 172.356 123.543 172.356 123.881C172.353 124.224 172.45 124.682 172.649 125.257C172.977 126.203 173.134 126.931 173.119 127.439C173.1 127.951 172.902 128.397 172.522 128.776C172.018 129.28 171.445 129.481 170.804 129.378C170.167 129.279 169.655 129.036 169.268 128.649C169.029 128.409 168.784 128.058 168.534 127.594C168.405 127.362 168.307 127.213 168.241 127.146C168.16 127.065 168.062 127.023 167.948 127.019L167.716 126.787L169.484 125.019L169.677 125.213C169.224 125.82 169.012 126.4 169.042 126.953C169.075 127.509 169.267 127.962 169.616 128.312C169.845 128.54 170.123 128.667 170.451 128.693C170.782 128.722 171.055 128.63 171.268 128.417C171.526 128.159 171.66 127.852 171.671 127.494C171.675 127.137 171.55 126.507 171.296 125.605C171.045 124.728 170.968 124.113 171.064 123.76C171.156 123.41 171.322 123.115 171.561 122.876C171.992 122.445 172.496 122.239 173.075 122.257C173.66 122.276 174.176 122.508 174.621 122.953C174.802 123.134 174.981 123.382 175.157 123.699C175.294 123.946 175.4 124.108 175.478 124.185C175.57 124.277 175.667 124.331 175.77 124.345L175.975 124.55ZM178.113 133.494C177.369 133.994 176.623 134.228 175.875 134.195C175.135 134.162 174.511 133.891 174.003 133.383C173.395 132.775 173.11 132.019 173.146 131.113C173.187 130.203 173.638 129.317 174.5 128.455C175.336 127.619 176.225 127.154 177.168 127.058C178.111 126.962 178.938 127.27 179.649 127.98C180.249 128.581 180.532 129.258 180.499 130.013C180.473 130.768 180.155 131.451 179.544 132.063L175.991 128.511C175.896 128.599 175.824 128.667 175.776 128.715C175.213 129.279 174.853 129.98 174.699 130.82C174.544 131.66 174.748 132.361 175.312 132.925C176.037 133.65 176.943 133.75 178.03 133.223L178.113 133.494ZM178.72 130.544C179.14 130.102 179.361 129.66 179.383 129.218C179.409 128.78 179.262 128.4 178.941 128.08C178.617 127.756 178.218 127.599 177.743 127.61C177.268 127.621 176.807 127.813 176.362 128.185L178.72 130.544Z" fill="white"/>
<path d="M88.7607 207.241V207.497C86.9834 208.513 86.0947 210.739 86.0947 214.177C86.0947 217.668 86.9834 219.904 88.7607 220.886V221.164C86.0361 219.631 84.6738 217.307 84.6738 214.191C84.6738 212.541 85.0571 211.12 85.8237 209.929C86.5903 208.732 87.5693 207.836 88.7607 207.241ZM94.8179 207.241L98.8901 216.63C99.0708 217.05 99.249 217.338 99.4248 217.495C99.6055 217.651 99.9082 217.729 100.333 217.729V218H96.1069V217.729C96.8296 217.729 97.1909 217.487 97.1909 217.004C97.1909 216.853 97.1226 216.621 96.9858 216.308L96.2095 214.528H92.0566L91.1338 216.63C91.0801 216.762 91.0532 216.899 91.0532 217.041C91.0532 217.5 91.4219 217.729 92.1592 217.729V218H89.1855V217.729C89.4785 217.695 89.7202 217.587 89.9106 217.407C90.106 217.221 90.3281 216.843 90.5771 216.271L94.5396 207.241H94.8179ZM94.1367 209.775L92.3057 213.972H95.9678L94.1367 209.775ZM100.802 221.164V220.886C102.579 219.875 103.468 217.656 103.468 214.228C103.468 212.451 103.25 211.02 102.816 209.936C102.381 208.847 101.71 208.044 100.802 207.526V207.241C103.526 208.774 104.889 211.098 104.889 214.213C104.889 215.747 104.522 217.133 103.79 218.374C103.062 219.614 102.066 220.544 100.802 221.164ZM115.135 207.241L119.208 216.63C119.388 217.05 119.566 217.338 119.742 217.495C119.923 217.651 120.226 217.729 120.65 217.729V218H116.424V217.729C117.147 217.729 117.508 217.487 117.508 217.004C117.508 216.853 117.44 216.621 117.303 216.308L116.527 214.528H112.374L111.451 216.63C111.397 216.762 111.371 216.899 111.371 217.041C111.371 217.5 111.739 217.729 112.477 217.729V218H109.503V217.729C109.796 217.695 110.038 217.587 110.228 217.407C110.423 217.221 110.646 216.843 110.895 216.271L114.857 207.241H115.135ZM114.454 209.775L112.623 213.972H116.285L114.454 209.775ZM125.294 208.164L127.447 207.241H127.704V215.905C127.704 216.418 127.75 216.757 127.843 216.923C127.94 217.089 128.106 217.172 128.341 217.172C128.482 217.172 128.634 217.136 128.795 217.062L128.897 217.319L126.495 218.205V217.187C126.178 217.524 125.843 217.778 125.492 217.949C125.14 218.12 124.771 218.205 124.386 218.205C123.585 218.205 122.884 217.871 122.284 217.202C121.683 216.528 121.383 215.717 121.383 214.77C121.383 213.725 121.734 212.817 122.438 212.045C123.146 211.269 123.968 210.881 124.906 210.881C125.179 210.881 125.448 210.925 125.711 211.013C125.975 211.096 126.236 211.225 126.495 211.401V209.504C126.495 209.064 126.449 208.757 126.356 208.581C126.263 208.4 126.097 208.31 125.858 208.31C125.731 208.31 125.584 208.342 125.418 208.405L125.294 208.164ZM126.495 216.682V213.4C126.495 212.653 126.297 212.116 125.902 211.789C125.506 211.457 125.106 211.291 124.701 211.291C124.173 211.291 123.709 211.577 123.309 212.148C122.909 212.714 122.708 213.408 122.708 214.228C122.708 215.112 122.943 215.856 123.412 216.462C123.885 217.062 124.444 217.363 125.089 217.363C125.367 217.363 125.624 217.307 125.858 217.194C126.092 217.077 126.305 216.906 126.495 216.682ZM131.38 207.197C131.59 207.197 131.771 207.272 131.922 207.424C132.079 207.575 132.157 207.758 132.157 207.973C132.157 208.188 132.079 208.371 131.922 208.522C131.771 208.674 131.59 208.75 131.38 208.75C131.17 208.75 130.987 208.674 130.831 208.522C130.68 208.371 130.604 208.188 130.604 207.973C130.604 207.758 130.68 207.575 130.831 207.424C130.987 207.272 131.17 207.197 131.38 207.197ZM129.615 211.643L131.798 210.881H132.054V217.648C132.054 218.825 131.832 219.707 131.388 220.292C130.948 220.883 130.287 221.179 129.403 221.179C129.046 221.179 128.739 221.11 128.48 220.974C128.216 220.837 128.084 220.654 128.084 220.424C128.084 220.258 128.148 220.112 128.275 219.985C128.402 219.863 128.548 219.802 128.714 219.802C128.958 219.802 129.212 219.921 129.476 220.161C129.779 220.439 130.001 220.578 130.143 220.578C130.431 220.578 130.619 220.441 130.707 220.168C130.794 219.895 130.838 219.279 130.838 218.322V213.042C130.838 212.231 130.609 211.826 130.15 211.826C130.028 211.826 129.876 211.853 129.696 211.906L129.615 211.643ZM140.492 216.689V217.07C139.891 217.827 139.33 218.205 138.807 218.205C138.192 218.205 137.875 217.785 137.855 216.945C137.42 217.365 136.998 217.68 136.588 217.89C136.183 218.1 135.79 218.205 135.409 218.205C134.969 218.205 134.598 218.039 134.295 217.707C133.998 217.375 133.849 216.975 133.849 216.506C133.849 215.881 134.154 215.344 134.764 214.895C135.379 214.44 136.41 213.967 137.855 213.474C137.85 212.78 137.826 212.307 137.782 212.053C137.743 211.794 137.625 211.586 137.43 211.43C137.235 211.269 136.927 211.188 136.507 211.188C136.175 211.188 135.899 211.279 135.68 211.459C135.46 211.64 135.35 211.884 135.35 212.192C135.35 212.26 135.355 212.341 135.365 212.434C135.37 212.502 135.372 212.565 135.372 212.624C135.372 213.044 135.177 213.254 134.786 213.254C134.352 213.254 134.134 213.046 134.134 212.631C134.134 212.138 134.376 211.723 134.859 211.386C135.343 211.049 135.99 210.881 136.8 210.881C137.401 210.881 137.875 210.966 138.221 211.137C138.573 211.303 138.802 211.528 138.91 211.811C139.017 212.094 139.071 212.531 139.071 213.122V216.608C139.071 217.082 139.217 217.319 139.51 217.319C139.798 217.319 140.125 217.109 140.492 216.689ZM137.855 216.608V213.876C136.742 214.335 136.004 214.716 135.643 215.019C135.282 215.317 135.101 215.686 135.101 216.125C135.101 216.462 135.208 216.75 135.423 216.989C135.643 217.229 135.917 217.348 136.244 217.348C136.498 217.348 136.759 217.287 137.027 217.165C137.296 217.038 137.572 216.853 137.855 216.608ZM147.149 215.407C146.969 216.179 146.612 216.838 146.08 217.385C145.548 217.932 144.93 218.205 144.227 218.205C143.29 218.205 142.54 217.854 141.979 217.15C141.422 216.442 141.144 215.595 141.144 214.609C141.144 213.491 141.471 212.59 142.125 211.906C142.784 211.223 143.597 210.881 144.564 210.881C145.233 210.881 145.799 211.052 146.263 211.394C146.732 211.73 146.966 212.102 146.966 212.507C146.966 212.678 146.898 212.819 146.761 212.932C146.625 213.039 146.451 213.093 146.241 213.093C145.787 213.093 145.523 212.846 145.45 212.353C145.401 212.011 145.292 211.755 145.121 211.584C144.95 211.418 144.679 211.335 144.308 211.335C143.688 211.335 143.204 211.584 142.857 212.082C142.516 212.575 142.345 213.188 142.345 213.92C142.345 214.833 142.562 215.576 142.997 216.147C143.431 216.713 144.02 216.997 144.762 216.997C145.846 216.997 146.561 216.43 146.908 215.297L147.149 215.407ZM153.536 215.554C153.375 216.379 153.036 217.028 152.518 217.502C152.005 217.971 151.412 218.205 150.738 218.205C149.933 218.205 149.242 217.893 148.666 217.268C148.089 216.638 147.801 215.751 147.801 214.609C147.801 213.5 148.082 212.602 148.644 211.914C149.205 211.225 149.957 210.881 150.899 210.881C151.695 210.881 152.333 211.142 152.811 211.665C153.294 212.182 153.536 212.846 153.536 213.657H148.827C148.822 213.779 148.819 213.872 148.819 213.935C148.819 214.682 149.046 215.385 149.5 216.044C149.955 216.704 150.555 217.033 151.302 217.033C152.264 217.033 152.931 216.499 153.302 215.429L153.536 215.554ZM151.983 213.195C151.969 212.624 151.822 212.185 151.544 211.877C151.271 211.569 150.921 211.416 150.497 211.416C150.067 211.416 149.698 211.577 149.391 211.899C149.083 212.221 148.905 212.653 148.856 213.195H151.983ZM156.59 210.881V212.346C157.074 211.799 157.489 211.418 157.835 211.203C158.182 210.988 158.561 210.881 158.971 210.881C159.527 210.881 159.972 211.088 160.304 211.503C160.636 211.923 160.802 212.531 160.802 213.327V216.337C160.802 216.87 160.877 217.231 161.029 217.421C161.185 217.612 161.461 217.714 161.856 217.729V218H158.348V217.729C158.812 217.729 159.132 217.639 159.308 217.458C159.483 217.277 159.571 216.904 159.571 216.337V213.4C159.571 212.858 159.469 212.451 159.264 212.177C159.063 211.899 158.768 211.76 158.377 211.76C158.084 211.76 157.789 211.843 157.491 212.009C157.193 212.175 156.893 212.424 156.59 212.756V216.337C156.59 216.86 156.666 217.221 156.817 217.421C156.974 217.617 157.276 217.719 157.726 217.729V218H154.283V217.729C154.723 217.719 155.013 217.614 155.155 217.414C155.296 217.209 155.367 216.85 155.367 216.337V212.961C155.367 212.229 155.165 211.862 154.759 211.862C154.618 211.862 154.459 211.904 154.283 211.987L154.181 211.701L156.334 210.881H156.59ZM164.911 208.83V211.042H166.507V211.481H164.911V216.066C164.911 216.491 164.981 216.811 165.123 217.026C165.27 217.236 165.487 217.341 165.775 217.341C165.946 217.341 166.109 217.292 166.266 217.194C166.422 217.097 166.571 216.953 166.712 216.762H167.013C166.764 217.241 166.48 217.602 166.163 217.846C165.846 218.085 165.494 218.205 165.108 218.205C164.64 218.205 164.286 218.039 164.046 217.707C163.812 217.375 163.695 216.877 163.695 216.213V211.481H162.633V211.196C163.658 210.781 164.339 209.992 164.676 208.83H164.911Z" fill="white"/>
<mask id="path-9-inside-1_11_13" fill="white">
<path d="M176 201C176 194.434 177.293 187.932 179.806 181.866C182.319 175.8 186.002 170.288 190.645 165.645L226 201L176 201Z"/>
</mask>
<path d="M176 201C176 194.434 177.293 187.932 179.806 181.866C182.319 175.8 186.002 170.288 190.645 165.645L226 201L176 201Z" stroke="white" stroke-width="2" mask="url(#path-9-inside-1_11_13)"/>
<path d="M132.126 172.675V172.897C130.586 173.778 129.815 175.707 129.815 178.687C129.815 181.712 130.586 183.65 132.126 184.501V184.742C129.765 183.413 128.584 181.399 128.584 178.699C128.584 177.269 128.916 176.037 129.581 175.005C130.245 173.968 131.093 173.192 132.126 172.675ZM136.177 182.13C135.466 182.13 134.877 181.931 134.409 181.532C133.95 181.125 133.607 180.548 133.382 179.803C133.157 179.049 133.044 178.148 133.044 177.099C133.044 176.042 133.148 175.136 133.356 174.382C133.564 173.628 133.898 173.052 134.357 172.653C134.825 172.254 135.432 172.055 136.177 172.055C136.896 172.055 137.49 172.254 137.958 172.653C138.426 173.043 138.773 173.615 138.998 174.369C139.232 175.123 139.349 176.033 139.349 177.099C139.349 178.148 139.241 179.049 139.024 179.803C138.816 180.548 138.478 181.125 138.01 181.532C137.551 181.931 136.94 182.13 136.177 182.13ZM136.177 181.181C136.628 181.181 136.996 181.051 137.282 180.791C137.577 180.531 137.798 180.124 137.945 179.569C138.092 179.014 138.175 178.291 138.192 177.398H134.201C134.218 178.282 134.292 179.001 134.422 179.556C134.561 180.111 134.773 180.522 135.059 180.791C135.345 181.051 135.718 181.181 136.177 181.181ZM134.201 176.514H138.179C138.153 175.725 138.066 175.075 137.919 174.564C137.772 174.044 137.555 173.658 137.269 173.407C136.983 173.147 136.619 173.017 136.177 173.017C135.735 173.017 135.371 173.147 135.085 173.407C134.808 173.658 134.6 174.044 134.461 174.564C134.322 175.075 134.236 175.725 134.201 176.514ZM140.251 184.742V184.501C141.791 183.625 142.562 181.702 142.562 178.731C142.562 177.191 142.373 175.951 141.997 175.011C141.62 174.068 141.038 173.371 140.251 172.923V172.675C142.612 174.004 143.793 176.018 143.793 178.718C143.793 180.047 143.476 181.249 142.841 182.324C142.21 183.399 141.347 184.205 140.251 184.742ZM149.982 174.053V175.97H151.366V176.351H149.982V180.324C149.982 180.692 150.043 180.97 150.166 181.156C150.293 181.338 150.481 181.429 150.731 181.429C150.879 181.429 151.021 181.386 151.156 181.302C151.292 181.217 151.421 181.092 151.543 180.927H151.804C151.588 181.342 151.342 181.655 151.067 181.867C150.792 182.074 150.488 182.178 150.153 182.178C149.747 182.178 149.44 182.034 149.233 181.746C149.03 181.458 148.928 181.027 148.928 180.451V176.351H148.008V176.103C148.896 175.743 149.487 175.06 149.779 174.053H149.982ZM154.286 172.675V177.093C154.59 176.691 154.933 176.38 155.314 176.16C155.695 175.94 156.048 175.83 156.374 175.83C156.734 175.83 157.043 175.94 157.301 176.16C157.563 176.376 157.735 176.647 157.815 176.973C157.895 177.299 157.936 177.756 157.936 178.344V180.565C157.936 181.001 157.988 181.31 158.094 181.492C158.204 181.674 158.479 181.765 158.919 181.765V182H155.898V181.765C156.334 181.761 156.603 181.666 156.704 181.479C156.81 181.289 156.863 180.984 156.863 180.565V178.077C156.863 177.713 156.842 177.447 156.799 177.277C156.761 177.108 156.651 176.956 156.469 176.82C156.287 176.681 156.08 176.611 155.847 176.611C155.674 176.611 155.468 176.655 155.231 176.744C154.994 176.829 154.679 177.053 154.286 177.417V180.565C154.286 181.073 154.36 181.401 154.508 181.549C154.656 181.693 154.931 181.765 155.333 181.765V182H152.28V181.765C152.631 181.761 152.874 181.681 153.01 181.524C153.149 181.367 153.219 181.048 153.219 180.565V175.087C153.219 174.448 153.185 174.042 153.118 173.869C153.05 173.695 152.893 173.608 152.648 173.608C152.538 173.608 152.415 173.632 152.28 173.678L152.21 173.456L154.057 172.675H154.286ZM164.524 179.88C164.385 180.595 164.091 181.158 163.642 181.568C163.198 181.975 162.684 182.178 162.1 182.178C161.401 182.178 160.803 181.907 160.303 181.365C159.804 180.819 159.554 180.051 159.554 179.061C159.554 178.1 159.798 177.322 160.284 176.725C160.771 176.128 161.423 175.83 162.239 175.83C162.929 175.83 163.481 176.056 163.896 176.509C164.315 176.958 164.524 177.533 164.524 178.236H160.443C160.439 178.342 160.437 178.422 160.437 178.477C160.437 179.125 160.633 179.734 161.027 180.305C161.42 180.876 161.941 181.162 162.588 181.162C163.422 181.162 164 180.699 164.321 179.772L164.524 179.88ZM163.179 177.836C163.166 177.341 163.039 176.96 162.798 176.693C162.561 176.427 162.258 176.293 161.89 176.293C161.518 176.293 161.198 176.433 160.932 176.712C160.665 176.992 160.511 177.366 160.468 177.836H163.179ZM167.197 174.053V175.97H168.581V176.351H167.197V180.324C167.197 180.692 167.258 180.97 167.381 181.156C167.508 181.338 167.696 181.429 167.946 181.429C168.094 181.429 168.236 181.386 168.371 181.302C168.507 181.217 168.636 181.092 168.758 180.927H169.019C168.803 181.342 168.557 181.655 168.282 181.867C168.007 182.074 167.702 182.178 167.368 182.178C166.962 182.178 166.655 182.034 166.448 181.746C166.245 181.458 166.143 181.027 166.143 180.451V176.351H165.223V176.103C166.111 175.743 166.702 175.06 166.994 174.053H167.197ZM175.449 180.864V181.194C174.928 181.85 174.442 182.178 173.989 182.178C173.456 182.178 173.181 181.814 173.164 181.086C172.787 181.45 172.421 181.723 172.065 181.905C171.714 182.087 171.374 182.178 171.043 182.178C170.663 182.178 170.341 182.034 170.079 181.746C169.82 181.458 169.691 181.111 169.691 180.705C169.691 180.163 169.956 179.698 170.485 179.309C171.018 178.915 171.911 178.505 173.164 178.077C173.159 177.476 173.138 177.066 173.1 176.846C173.066 176.621 172.965 176.442 172.795 176.306C172.626 176.167 172.36 176.097 171.996 176.097C171.708 176.097 171.469 176.175 171.278 176.332C171.088 176.488 170.993 176.7 170.993 176.966C170.993 177.026 170.997 177.095 171.005 177.176C171.01 177.235 171.012 177.29 171.012 177.341C171.012 177.705 170.842 177.887 170.504 177.887C170.127 177.887 169.939 177.707 169.939 177.347C169.939 176.92 170.148 176.56 170.567 176.268C170.986 175.976 171.547 175.83 172.25 175.83C172.77 175.83 173.181 175.904 173.481 176.052C173.786 176.196 173.985 176.391 174.078 176.636C174.171 176.882 174.217 177.26 174.217 177.772V180.794C174.217 181.204 174.344 181.41 174.598 181.41C174.848 181.41 175.131 181.228 175.449 180.864ZM173.164 180.794V178.426C172.199 178.824 171.56 179.154 171.247 179.417C170.933 179.675 170.777 179.994 170.777 180.375C170.777 180.667 170.87 180.917 171.056 181.124C171.247 181.331 171.484 181.435 171.767 181.435C171.987 181.435 172.214 181.382 172.446 181.276C172.679 181.166 172.918 181.006 173.164 180.794Z" fill="white"/>
</svg>
