<svg width="268" height="251" viewBox="0 0 268 251" fill="none" xmlns="http://www.w3.org/2000/svg">
<path d="M18 201H218" stroke="white" stroke-linecap="round"/>
<path d="M18 201L18 1" stroke="white" stroke-linecap="round"/>
<path d="M18.0026 1L218 200.997" stroke="white" stroke-linecap="round"/>
<line x1="18" y1="176.5" x2="43" y2="176.5" stroke="white"/>
<line x1="42.5" y1="176" x2="42.5" y2="201" stroke="white"/>
<path d="M0.539062 100.867H5.55469V101.301C4.94531 101.34 4.64062 101.539 4.64062 101.898C4.64062 102.109 4.79687 102.461 5.10937 102.953L6.12891 104.57L7.27734 102.871C7.55859 102.449 7.69922 102.133 7.69922 101.922C7.69922 101.539 7.40625 101.332 6.82031 101.301V100.867H10.5117V101.301C9.69141 101.309 8.77344 102.062 7.75781 103.562L6.58594 105.297L8.46094 108.262C9.10937 109.293 9.67578 110.098 10.1602 110.676C10.6445 111.246 11.125 111.543 11.6016 111.566V112H6.69141V111.566C7.37109 111.566 7.71094 111.383 7.71094 111.016C7.71094 110.773 7.48047 110.281 7.01953 109.539L5.42578 107.008L3.375 110.043C3.10937 110.441 2.97656 110.75 2.97656 110.969C2.97656 111.367 3.33203 111.566 4.04297 111.566V112H0.410156L0.410156 111.566C1.10547 111.52 1.91406 110.812 2.83594 109.445L4.96875 106.293L3.08203 103.328C2.66016 102.664 2.26953 102.164 1.91016 101.828C1.55859 101.484 1.10156 101.309 0.539062 101.301L0.539062 100.867Z" fill="white"/>
<path d="M107.641 212.77C108.484 210.426 109.906 209.254 111.906 209.254C112.961 209.254 113.848 209.57 114.566 210.203C115.285 210.836 115.645 211.629 115.645 212.582C115.645 213.793 114.93 215.023 113.5 216.273C114.477 216.664 115.207 217.223 115.691 217.949C116.184 218.676 116.43 219.57 116.43 220.633C116.43 222.336 115.805 223.703 114.555 224.734C113.312 225.766 111.762 226.281 109.902 226.281C108.223 226.281 107.383 225.859 107.383 225.016C107.383 224.781 107.477 224.578 107.664 224.406C107.852 224.227 108.059 224.137 108.285 224.137C108.598 224.137 108.961 224.238 109.375 224.441C110.539 225.02 111.367 225.309 111.859 225.309C112.648 225.309 113.32 225 113.875 224.383C114.438 223.758 114.719 222.949 114.719 221.957C114.719 220.84 114.336 219.879 113.57 219.074C112.805 218.262 111.73 217.855 110.348 217.855H110.008V217.422C111.25 217.211 112.184 216.75 112.809 216.039C113.434 215.328 113.746 214.539 113.746 213.672C113.746 212.875 113.477 212.227 112.938 211.727C112.406 211.219 111.73 210.965 110.91 210.965C109.668 210.965 108.711 211.629 108.039 212.957L107.641 212.77Z" fill="white"/>
<mask id="path-8-inside-1_16_130" fill="white">
<path d="M168 201C168 194.434 169.293 187.932 171.806 181.866C174.319 175.8 178.002 170.288 182.645 165.645L218 201L168 201Z"/>
</mask>
<path d="M168 201C168 194.434 169.293 187.932 171.806 181.866C174.319 175.8 178.002 170.288 182.645 165.645L218 201L168 201Z" stroke="white" stroke-width="2" mask="url(#path-8-inside-1_16_130)"/>
<path d="M148.004 166.254H149.258V177.035H151.473V178.84H149.258V183H147.242V178.84H140.539V176.93L148.004 166.254ZM147.242 168.879L141.523 177.035H147.242V168.879ZM157.086 166.523H162.828L161.938 168.363H157.086L155.984 170.742C158.211 171.156 159.859 171.949 160.93 173.121C162.008 174.293 162.547 175.637 162.547 177.152C162.547 178.863 161.883 180.312 160.555 181.5C159.234 182.688 157.75 183.281 156.102 183.281C155.414 183.281 154.805 183.129 154.273 182.824C153.742 182.512 153.477 182.133 153.477 181.688C153.477 181.445 153.559 181.246 153.723 181.09C153.895 180.934 154.082 180.855 154.285 180.855C154.637 180.855 155.059 181.016 155.551 181.336C156.293 181.812 156.965 182.051 157.566 182.051C158.41 182.051 159.199 181.676 159.934 180.926C160.668 180.176 161.035 179.285 161.035 178.254C161.035 176.777 160.398 175.504 159.125 174.434C157.859 173.355 156.168 172.797 154.051 172.758L157.086 166.523ZM168.746 166.148C169.738 166.148 170.586 166.5 171.289 167.203C172 167.906 172.355 168.758 172.355 169.758C172.355 170.742 172 171.59 171.289 172.301C170.586 173.004 169.738 173.355 168.746 173.355C167.762 173.355 166.914 173.004 166.203 172.301C165.5 171.59 165.148 170.742 165.148 169.758C165.148 168.758 165.5 167.906 166.203 167.203C166.914 166.5 167.762 166.148 168.746 166.148ZM168.746 167.133C168.043 167.133 167.43 167.383 166.906 167.883C166.391 168.375 166.133 168.996 166.133 169.746C166.133 170.465 166.387 171.082 166.895 171.598C167.402 172.105 168.02 172.359 168.746 172.359C169.473 172.359 170.09 172.105 170.598 171.598C171.105 171.082 171.359 170.465 171.359 169.746C171.359 169.027 171.102 168.414 170.586 167.906C170.078 167.391 169.465 167.133 168.746 167.133Z" fill="white"/>
</svg>
