<svg width="630" height="571" viewBox="0 0 630 571" fill="none" xmlns="http://www.w3.org/2000/svg">
<g filter="url(#filter0_d_0_1)">
<path d="M313.615 9.7905C318.733 4.45167 327.267 4.45167 332.385 9.79049L405.395 85.9566C408.06 88.7377 411.823 90.1932 415.666 89.9304L527.074 82.3124C535.027 81.7686 541.592 88.4448 540.914 96.3874L532.678 192.894C532.302 197.308 534.199 201.61 537.712 204.309L619.578 267.19C626.352 272.394 626.353 282.606 619.578 287.81L537.712 350.691C534.199 353.39 532.302 357.692 532.678 362.106L540.914 458.613C541.592 466.555 535.027 473.231 527.074 472.688L415.666 465.07C411.823 464.807 408.06 466.262 405.395 469.043L332.385 545.21C327.267 550.548 318.733 550.548 313.615 545.21L240.605 469.043C237.94 466.262 234.177 464.807 230.334 465.07L118.926 472.688C110.973 473.231 104.408 466.555 105.086 458.613L113.322 362.106C113.698 357.692 111.801 353.39 108.288 350.691L26.4222 287.81C19.6475 282.606 19.6475 272.394 26.4222 267.19L108.288 204.309C111.801 201.61 113.698 197.308 113.322 192.894L105.086 96.3874C104.408 88.4448 110.973 81.7686 118.926 82.3124L230.334 89.9304C234.177 90.1932 237.94 88.7377 240.605 85.9566L313.615 9.7905Z" fill="#1AACE1"/>
<path d="M313.615 9.7905C318.733 4.45167 327.267 4.45167 332.385 9.79049L405.395 85.9566C408.06 88.7377 411.823 90.1932 415.666 89.9304L527.074 82.3124C535.027 81.7686 541.592 88.4448 540.914 96.3874L532.678 192.894C532.302 197.308 534.199 201.61 537.712 204.309L619.578 267.19C626.352 272.394 626.353 282.606 619.578 287.81L537.712 350.691C534.199 353.39 532.302 357.692 532.678 362.106L540.914 458.613C541.592 466.555 535.027 473.231 527.074 472.688L415.666 465.07C411.823 464.807 408.06 466.262 405.395 469.043L332.385 545.21C327.267 550.548 318.733 550.548 313.615 545.21L240.605 469.043C237.94 466.262 234.177 464.807 230.334 465.07L118.926 472.688C110.973 473.231 104.408 466.555 105.086 458.613L113.322 362.106C113.698 357.692 111.801 353.39 108.288 350.691L26.4222 287.81C19.6475 282.606 19.6475 272.394 26.4222 267.19L108.288 204.309C111.801 201.61 113.698 197.308 113.322 192.894L105.086 96.3874C104.408 88.4448 110.973 81.7686 118.926 82.3124L230.334 89.9304C234.177 90.1932 237.94 88.7377 240.605 85.9566L313.615 9.7905Z" stroke="black" stroke-width="10"/>
</g>
<defs>
<filter id="filter0_d_0_1" x="0.341064" y="0.786377" width="629.318" height="569.427" filterUnits="userSpaceOnUse" color-interpolation-filters="sRGB">
<feFlood flood-opacity="0" result="BackgroundImageFix"/>
<feColorMatrix in="SourceAlpha" type="matrix" values="0 0 0 0 0 0 0 0 0 0 0 0 0 0 0 0 0 0 127 0" result="hardAlpha"/>
<feOffset dx="-16" dy="16"/>
<feComposite in2="hardAlpha" operator="out"/>
<feColorMatrix type="matrix" values="0 0 0 0 0 0 0 0 0 0 0 0 0 0 0 0 0 0 1 0"/>
<feBlend mode="normal" in2="BackgroundImageFix" result="effect1_dropShadow_0_1"/>
<feBlend mode="normal" in="SourceGraphic" in2="effect1_dropShadow_0_1" result="shape"/>
</filter>
</defs>
</svg>
