<svg width="200" height="202" viewBox="0 0 200 202" fill="none" xmlns="http://www.w3.org/2000/svg">
<rect x="0.249905" y="200.75" width="199.5" height="12.8333" transform="rotate(-90 0.249905 200.75)" stroke="white" stroke-opacity="0.1" stroke-width="0.5"/>
<rect x="6.91658" y="200.75" width="199.5" height="12.8333" transform="rotate(-90 6.91658 200.75)" stroke="white" stroke-opacity="0.1" stroke-width="0.5"/>
<rect x="13.5832" y="200.75" width="199.5" height="12.8333" transform="rotate(-90 13.5832 200.75)" stroke="white" stroke-opacity="0.1" stroke-width="0.5"/>
<rect x="20.2499" y="200.75" width="199.5" height="12.8333" transform="rotate(-90 20.2499 200.75)" stroke="white" stroke-opacity="0.1" stroke-width="0.5"/>
<rect x="26.9166" y="200.75" width="199.5" height="12.8333" transform="rotate(-90 26.9166 200.75)" stroke="white" stroke-opacity="0.1" stroke-width="0.5"/>
<rect x="33.5832" y="200.75" width="199.5" height="12.8333" transform="rotate(-90 33.5832 200.75)" stroke="white" stroke-opacity="0.1" stroke-width="0.5"/>
<rect x="40.2499" y="200.75" width="199.5" height="12.8333" transform="rotate(-90 40.2499 200.75)" stroke="white" stroke-opacity="0.1" stroke-width="0.5"/>
<rect x="46.9166" y="200.75" width="199.5" height="12.8333" transform="rotate(-90 46.9166 200.75)" stroke="white" stroke-opacity="0.1" stroke-width="0.5"/>
<rect x="53.5832" y="200.75" width="199.5" height="12.8333" transform="rotate(-90 53.5832 200.75)" stroke="white" stroke-opacity="0.1" stroke-width="0.5"/>
<rect x="60.2499" y="200.75" width="199.5" height="12.8333" transform="rotate(-90 60.2499 200.75)" stroke="white" stroke-opacity="0.1" stroke-width="0.5"/>
<rect x="66.9166" y="200.75" width="199.5" height="12.8333" transform="rotate(-90 66.9166 200.75)" stroke="white" stroke-opacity="0.1" stroke-width="0.5"/>
<rect x="73.5832" y="200.75" width="199.5" height="12.8333" transform="rotate(-90 73.5832 200.75)" stroke="white" stroke-opacity="0.1" stroke-width="0.5"/>
<rect x="80.2499" y="200.75" width="199.5" height="12.8333" transform="rotate(-90 80.2499 200.75)" stroke="white" stroke-opacity="0.1" stroke-width="0.5"/>
<rect x="86.9166" y="200.75" width="199.5" height="12.8333" transform="rotate(-90 86.9166 200.75)" stroke="white" stroke-opacity="0.1" stroke-width="0.5"/>
<rect x="93.5832" y="200.75" width="199.5" height="12.8333" transform="rotate(-90 93.5832 200.75)" stroke="white" stroke-opacity="0.1" stroke-width="0.5"/>
<rect x="106.917" y="200.75" width="199.5" height="12.8333" transform="rotate(-90 106.917 200.75)" stroke="white" stroke-opacity="0.1" stroke-width="0.5"/>
<rect x="113.583" y="200.75" width="199.5" height="12.8333" transform="rotate(-90 113.583 200.75)" stroke="white" stroke-opacity="0.1" stroke-width="0.5"/>
<rect x="120.25" y="200.75" width="199.5" height="12.8333" transform="rotate(-90 120.25 200.75)" stroke="white" stroke-opacity="0.1" stroke-width="0.5"/>
<rect x="126.917" y="200.75" width="199.5" height="12.8333" transform="rotate(-90 126.917 200.75)" stroke="white" stroke-opacity="0.1" stroke-width="0.5"/>
<rect x="133.583" y="200.75" width="199.5" height="12.8333" transform="rotate(-90 133.583 200.75)" stroke="white" stroke-opacity="0.1" stroke-width="0.5"/>
<rect x="140.25" y="200.75" width="199.5" height="12.8333" transform="rotate(-90 140.25 200.75)" stroke="white" stroke-opacity="0.1" stroke-width="0.5"/>
<rect x="146.917" y="200.75" width="199.5" height="12.8333" transform="rotate(-90 146.917 200.75)" stroke="white" stroke-opacity="0.1" stroke-width="0.5"/>
<rect x="153.583" y="200.75" width="199.5" height="12.8333" transform="rotate(-90 153.583 200.75)" stroke="white" stroke-opacity="0.1" stroke-width="0.5"/>
<rect x="160.25" y="200.75" width="199.5" height="12.8333" transform="rotate(-90 160.25 200.75)" stroke="white" stroke-opacity="0.1" stroke-width="0.5"/>
<rect x="166.917" y="200.75" width="199.5" height="12.8333" transform="rotate(-90 166.917 200.75)" stroke="white" stroke-opacity="0.1" stroke-width="0.5"/>
<rect x="173.583" y="200.75" width="199.5" height="12.8333" transform="rotate(-90 173.583 200.75)" stroke="white" stroke-opacity="0.1" stroke-width="0.5"/>
<rect x="180.25" y="200.75" width="199.5" height="12.8333" transform="rotate(-90 180.25 200.75)" stroke="white" stroke-opacity="0.1" stroke-width="0.5"/>
<rect x="186.917" y="200.75" width="199.5" height="12.8333" transform="rotate(-90 186.917 200.75)" stroke="white" stroke-opacity="0.1" stroke-width="0.5"/>
<rect x="0.249881" y="1.25012" width="199.5" height="12.8333" stroke="white" stroke-opacity="0.1" stroke-width="0.5"/>
<rect x="0.249881" y="7.91678" width="199.5" height="12.8333" stroke="white" stroke-opacity="0.1" stroke-width="0.5"/>
<rect x="0.249882" y="14.5834" width="199.5" height="12.8333" stroke="white" stroke-opacity="0.1" stroke-width="0.5"/>
<rect x="0.249882" y="21.2501" width="199.5" height="12.8333" stroke="white" stroke-opacity="0.1" stroke-width="0.5"/>
<rect x="0.249882" y="27.9168" width="199.5" height="12.8333" stroke="white" stroke-opacity="0.1" stroke-width="0.5"/>
<rect x="0.249883" y="34.5834" width="199.5" height="12.8333" stroke="white" stroke-opacity="0.1" stroke-width="0.5"/>
<rect x="0.249883" y="41.2501" width="199.5" height="12.8333" stroke="white" stroke-opacity="0.1" stroke-width="0.5"/>
<rect x="0.249883" y="47.9168" width="199.5" height="12.8333" stroke="white" stroke-opacity="0.1" stroke-width="0.5"/>
<rect x="0.249884" y="54.5834" width="199.5" height="12.8333" stroke="white" stroke-opacity="0.1" stroke-width="0.5"/>
<rect x="0.249884" y="61.2501" width="199.5" height="12.8333" stroke="white" stroke-opacity="0.1" stroke-width="0.5"/>
<rect x="0.249884" y="67.9168" width="199.5" height="12.8333" stroke="white" stroke-opacity="0.1" stroke-width="0.5"/>
<rect x="0.249884" y="74.5834" width="199.5" height="12.8333" stroke="white" stroke-opacity="0.1" stroke-width="0.5"/>
<rect x="0.249885" y="81.2501" width="199.5" height="12.8333" stroke="white" stroke-opacity="0.1" stroke-width="0.5"/>
<rect x="0.249885" y="87.9168" width="199.5" height="12.8333" stroke="white" stroke-opacity="0.1" stroke-width="0.5"/>
<rect x="0.249885" y="94.5834" width="199.5" height="12.8333" stroke="white" stroke-opacity="0.1" stroke-width="0.5"/>
<rect x="0.249886" y="107.917" width="199.5" height="12.8333" stroke="white" stroke-opacity="0.1" stroke-width="0.5"/>
<rect x="0.249886" y="114.583" width="199.5" height="12.8333" stroke="white" stroke-opacity="0.1" stroke-width="0.5"/>
<rect x="0.249886" y="121.25" width="199.5" height="12.8333" stroke="white" stroke-opacity="0.1" stroke-width="0.5"/>
<rect x="0.249887" y="127.917" width="199.5" height="12.8333" stroke="white" stroke-opacity="0.1" stroke-width="0.5"/>
<rect x="0.249887" y="134.583" width="199.5" height="12.8333" stroke="white" stroke-opacity="0.1" stroke-width="0.5"/>
<rect x="0.249887" y="141.25" width="199.5" height="12.8333" stroke="white" stroke-opacity="0.1" stroke-width="0.5"/>
<rect x="0.249888" y="147.917" width="199.5" height="12.8333" stroke="white" stroke-opacity="0.1" stroke-width="0.5"/>
<rect x="0.249888" y="154.583" width="199.5" height="12.8333" stroke="white" stroke-opacity="0.1" stroke-width="0.5"/>
<rect x="0.249888" y="161.25" width="199.5" height="12.8333" stroke="white" stroke-opacity="0.1" stroke-width="0.5"/>
<rect x="0.249888" y="167.917" width="199.5" height="12.8333" stroke="white" stroke-opacity="0.1" stroke-width="0.5"/>
<rect x="0.249889" y="174.583" width="199.5" height="12.8333" stroke="white" stroke-opacity="0.1" stroke-width="0.5"/>
<rect x="0.249889" y="181.25" width="199.5" height="12.8333" stroke="white" stroke-opacity="0.1" stroke-width="0.5"/>
<rect x="0.249889" y="187.917" width="199.5" height="12.8333" stroke="white" stroke-opacity="0.1" stroke-width="0.5"/>
<path d="M200 101.001L0.000218868 101.001" stroke="white" stroke-opacity="0.5"/>
<path d="M99.9994 201L99.9994 1.00022" stroke="white" stroke-opacity="0.5"/>
<path d="M132.293 201.707C132.683 202.098 133.316 202.098 133.707 201.707L140.072 195.344C140.462 194.954 140.462 194.321 140.072 193.93C139.681 193.539 139.048 193.539 138.658 193.93L133 199.586L127.344 193.928C126.954 193.538 126.32 193.538 125.93 193.928C125.539 194.319 125.539 194.952 125.93 195.342L132.293 201.707ZM133.734 0.293307C133.343 -0.0972632 132.71 -0.0973474 132.319 0.293119L125.955 6.65624C125.564 7.04671 125.564 7.67987 125.954 8.07046C126.345 8.46103 126.978 8.46111 127.369 8.07064L133.026 2.41454L138.682 8.07215C139.073 8.46272 139.706 8.4628 140.097 8.07234C140.487 7.68185 140.487 7.04869 140.097 6.65812L133.734 0.293307ZM134 201L134.026 1.00045L132.026 1.00019L132 201L134 201Z" fill="white"/>
<path d="M152.543 17.1553L150.829 17.1553L151.154 17.4717C152.08 18.3682 152.543 19.1973 152.543 19.959C152.543 20.5156 152.391 20.9668 152.086 21.3125C151.787 21.6641 151.333 21.9102 150.724 22.0508C151.333 22.4902 151.787 22.959 152.086 23.457C152.391 23.9551 152.543 24.4795 152.543 25.0303C152.543 25.4873 152.411 25.9004 152.147 26.2695C151.89 26.6387 151.538 26.8906 151.093 27.0254C150.653 27.166 150.056 27.2363 149.3 27.2363L146.004 27.2363C145.4 27.2363 144.97 27.3096 144.712 27.4561C144.454 27.6084 144.325 27.9893 144.325 28.5986L144 28.5986L144 24.3447L144.325 24.3447C144.331 24.8897 144.437 25.2617 144.642 25.4609C144.853 25.6602 145.307 25.7598 146.004 25.7598L149.344 25.7598L149.897 25.7598C150.378 25.7656 150.759 25.6309 151.04 25.3555C151.327 25.0859 151.471 24.7402 151.471 24.3184C151.471 23.6094 151.157 22.9385 150.53 22.3057L150.363 22.1211C150.334 22.127 150.27 22.1328 150.17 22.1387C149.889 22.1738 149.578 22.1914 149.238 22.1914L146.004 22.1914C145.4 22.1914 144.97 22.2647 144.712 22.4111C144.454 22.5635 144.325 22.9473 144.325 23.5625L144 23.5625L144 19.291L144.325 19.291C144.331 19.8418 144.437 20.2168 144.642 20.416C144.853 20.6211 145.307 20.7236 146.004 20.7236L149.238 20.7236C149.994 20.7236 150.554 20.6094 150.917 20.3809C151.28 20.1582 151.462 19.7803 151.462 19.2471C151.462 18.6201 151.163 17.9932 150.565 17.3662L150.363 17.1553L146.004 17.1553C145.371 17.1553 144.932 17.2373 144.686 17.4014C144.445 17.5654 144.325 17.9258 144.325 18.4824L144 18.4824L144 14.2813L144.325 14.2813C144.331 14.8203 144.439 15.1895 144.65 15.3887C144.861 15.5879 145.312 15.6875 146.004 15.6875L149.801 15.6875C150.363 15.6875 150.768 15.6201 151.014 15.4854C151.26 15.3565 151.383 15.125 151.383 14.791C151.383 14.6856 151.365 14.5654 151.33 14.4307C151.307 14.3604 151.292 14.3106 151.286 14.2813L151.603 14.1494L152.543 16.8477L152.543 17.1553ZM152.798 34.5576L152.798 44.0938L151.664 44.0938L151.664 34.5576L152.798 34.5576ZM148.685 34.5576L148.685 44.0938L147.551 44.0938L147.551 34.5576L148.685 34.5576ZM152.35 50.1494L152.35 53.1201L146.769 53.1201C146.147 53.1201 145.679 53.2344 145.362 53.4629C145.052 53.6973 144.896 54.0459 144.896 54.5088C144.896 54.8721 144.987 55.2324 145.169 55.5899C145.356 55.9473 145.635 56.2988 146.004 56.6445L150.776 56.6445C151.187 56.6445 151.459 56.5859 151.594 56.4688C151.729 56.3574 151.831 56.2461 151.901 56.1348C151.978 56.0293 152.019 55.7334 152.024 55.2471L152.35 55.2471L152.35 58.1299L146.435 58.1299C145.884 58.1299 145.5 58.1914 145.283 58.3145C145.066 58.4375 144.958 58.6397 144.958 58.9209C144.958 59.085 145.008 59.2842 145.107 59.5186L144.756 59.5186L143.754 56.9785L143.754 56.6445L145.547 56.6445C144.949 56.1406 144.501 55.6514 144.202 55.1768C143.903 54.7022 143.754 54.2393 143.754 53.7881C143.754 53.3018 143.897 52.8799 144.185 52.5225C144.478 52.165 144.823 51.9307 145.222 51.8193C145.626 51.7139 146.186 51.6611 146.9 51.6611L150.776 51.6611C151.222 51.6611 151.541 51.5674 151.734 51.3799C151.928 51.1983 152.024 50.8672 152.024 50.3867L152.024 50.1494L152.35 50.1494ZM152.543 62.999L150.785 62.999C151.441 63.5791 151.898 64.0772 152.156 64.4932C152.414 64.9092 152.543 65.3633 152.543 65.8555C152.543 66.5234 152.294 67.0566 151.796 67.4551C151.292 67.8535 150.562 68.0527 149.607 68.0527L145.995 68.0527C145.356 68.0527 144.923 68.1436 144.694 68.3252C144.466 68.5127 144.343 68.8438 144.325 69.3184L144 69.3184L144 65.1084L144.325 65.1084C144.325 65.665 144.434 66.0488 144.65 66.2598C144.867 66.4707 145.315 66.5762 145.995 66.5762L149.52 66.5762C150.17 66.5762 150.659 66.4531 150.987 66.207C151.321 65.9668 151.488 65.6123 151.488 65.1436C151.488 64.792 151.389 64.4375 151.189 64.0801C150.99 63.7227 150.691 63.3623 150.293 62.999L145.995 62.999C145.368 62.999 144.935 63.0899 144.694 63.2715C144.46 63.459 144.337 63.8223 144.325 64.3613L144 64.3613L144 60.2305L144.325 60.2305C144.337 60.7578 144.463 61.1065 144.703 61.2764C144.949 61.4463 145.38 61.5313 145.995 61.5313L150.047 61.5313C150.926 61.5313 151.365 61.2881 151.365 60.8018C151.365 60.6318 151.315 60.4414 151.216 60.2305L151.559 60.1074L152.543 62.6914L152.543 62.999ZM155.804 75.0137L156.911 77.5977L156.911 77.9053L146.514 77.9053C145.898 77.9053 145.491 77.9609 145.292 78.0723C145.093 78.1895 144.993 78.3887 144.993 78.6699C144.993 78.8399 145.037 79.0215 145.125 79.2149L144.817 79.3379L143.754 76.4551L144.976 76.4551C144.571 76.0742 144.267 75.6729 144.062 75.251C143.856 74.8291 143.754 74.3867 143.754 73.9238C143.754 72.9629 144.155 72.1221 144.958 71.4014C145.767 70.6807 146.739 70.3203 147.876 70.3203C149.13 70.3203 150.22 70.7422 151.146 71.5859C152.077 72.4356 152.543 73.4229 152.543 74.5479C152.543 74.876 152.49 75.1983 152.385 75.5147C152.285 75.8311 152.13 76.1445 151.919 76.4551L154.195 76.4551C154.723 76.4551 155.092 76.3994 155.303 76.2881C155.52 76.1768 155.628 75.9775 155.628 75.6904C155.628 75.5381 155.59 75.3623 155.514 75.1631L155.804 75.0137ZM145.582 76.4551L149.52 76.4551C150.416 76.4551 151.061 76.2178 151.453 75.7432C151.852 75.2686 152.051 74.7881 152.051 74.3018C152.051 73.669 151.708 73.1123 151.022 72.6318C150.343 72.1514 149.511 71.9111 148.526 71.9111C147.466 71.9111 146.572 72.1924 145.846 72.7549C145.125 73.3233 144.765 73.9941 144.765 74.7676C144.765 75.1016 144.832 75.4092 144.967 75.6904C145.107 75.9717 145.312 76.2266 145.582 76.4551ZM146.936 87.125C145.945 86.9316 145.166 86.5244 144.598 85.9033C144.035 85.2881 143.754 84.5762 143.754 83.7676C143.754 82.8008 144.129 81.9717 144.879 81.2803C145.635 80.5889 146.698 80.2432 148.069 80.2432C149.399 80.2432 150.478 80.5801 151.304 81.2539C152.13 81.9277 152.543 82.8301 152.543 83.9609C152.543 84.916 152.229 85.6807 151.603 86.2549C150.981 86.835 150.185 87.125 149.212 87.125L149.212 81.4736C149.065 81.4678 148.954 81.4649 148.878 81.4649C147.981 81.4649 147.138 81.7373 146.347 82.2822C145.556 82.8272 145.16 83.5479 145.16 84.4443C145.16 85.5986 145.802 86.3984 147.085 86.8438L146.936 87.125ZM149.766 85.2617C150.451 85.2441 150.979 85.0684 151.348 84.7344C151.717 84.4063 151.901 83.9873 151.901 83.4775C151.901 82.9619 151.708 82.5195 151.321 82.1504C150.935 81.7813 150.416 81.5674 149.766 81.5088L149.766 85.2617ZM152.35 88.2149L152.35 89.375L152.807 89.375C153.574 89.375 154.239 89.4688 154.802 89.6563C155.37 89.8438 155.862 90.2188 156.278 90.7813C156.7 91.3438 156.911 91.9707 156.911 92.6621C156.911 93.2363 156.762 93.7608 156.463 94.2354C156.17 94.71 155.821 94.9473 155.417 94.9473C155.235 94.9473 155.068 94.8711 154.916 94.7188C154.764 94.5723 154.687 94.4053 154.687 94.2178C154.687 93.919 154.925 93.6084 155.399 93.2861C155.979 92.8936 156.27 92.4717 156.27 92.0205C156.27 91.7451 156.187 91.5108 156.023 91.3174C155.865 91.124 155.663 90.9951 155.417 90.9307C155.177 90.8662 154.667 90.834 153.888 90.834L152.35 90.834L152.35 92.5303L151.796 92.5303L151.796 90.834L145.995 90.834C145.28 90.834 144.823 90.9395 144.624 91.1504C144.425 91.3613 144.325 91.751 144.325 92.3193L144 92.3193L144 88.0039L144.325 88.0039C144.331 88.5254 144.439 88.8828 144.65 89.0762C144.861 89.2754 145.31 89.375 145.995 89.375L151.796 89.375L151.796 88.2149L152.35 88.2149ZM156.955 96.0283C156.955 96.2803 156.864 96.4971 156.683 96.6787C156.507 96.8604 156.29 96.9512 156.032 96.9512C155.769 96.9512 155.546 96.8604 155.364 96.6787C155.188 96.4971 155.101 96.2803 155.101 96.0283C155.101 95.7705 155.191 95.5508 155.373 95.3691C155.555 95.1875 155.774 95.0967 156.032 95.0967C156.284 95.0967 156.501 95.1875 156.683 95.3691C156.864 95.5508 156.955 95.7705 156.955 96.0283ZM151.603 93.9805L152.543 96.4766L152.543 96.7842L145.995 96.7842C145.339 96.7842 144.905 96.8721 144.694 97.0479C144.483 97.2295 144.36 97.5576 144.325 98.0322L144 98.0322L144 93.9805L144.325 93.9805C144.337 94.4258 144.428 94.7686 144.598 95.0088C144.773 95.2549 145.239 95.3779 145.995 95.3779L149.977 95.3779C150.469 95.3779 150.823 95.3106 151.04 95.1758C151.257 95.0469 151.365 94.8154 151.365 94.4815C151.365 94.3408 151.336 94.2061 151.277 94.0772L151.603 93.9805ZM152.543 101.671L150.785 101.671C151.441 102.251 151.898 102.749 152.156 103.165C152.414 103.581 152.543 104.035 152.543 104.527C152.543 105.195 152.294 105.729 151.796 106.127C151.292 106.525 150.562 106.725 149.607 106.725L145.995 106.725C145.356 106.725 144.923 106.815 144.694 106.997C144.466 107.185 144.343 107.516 144.325 107.99L144 107.99L144 103.78L144.325 103.78C144.325 104.337 144.434 104.721 144.65 104.932C144.867 105.143 145.315 105.248 145.995 105.248L149.52 105.248C150.17 105.248 150.659 105.125 150.987 104.879C151.321 104.639 151.488 104.284 151.488 103.815C151.488 103.464 151.389 103.109 151.189 102.752C150.99 102.395 150.691 102.034 150.293 101.671L145.995 101.671C145.368 101.671 144.935 101.762 144.694 101.943C144.46 102.131 144.337 102.494 144.325 103.033L144 103.033L144 98.9024L144.325 98.9024C144.337 99.4297 144.463 99.7783 144.703 99.9483C144.949 100.118 145.38 100.203 145.995 100.203L150.047 100.203C150.926 100.203 151.365 99.96 151.365 99.4736C151.365 99.3037 151.315 99.1133 151.216 98.9024L151.559 98.7793L152.543 101.363L152.543 101.671ZM146.936 115.848C145.945 115.654 145.166 115.247 144.598 114.626C144.035 114.011 143.754 113.299 143.754 112.49C143.754 111.523 144.129 110.694 144.879 110.003C145.635 109.312 146.698 108.966 148.069 108.966C149.399 108.966 150.478 109.303 151.304 109.977C152.13 110.65 152.543 111.553 152.543 112.684C152.543 113.639 152.229 114.403 151.603 114.978C150.981 115.558 150.185 115.848 149.212 115.848L149.212 110.196C149.065 110.19 148.954 110.188 148.878 110.188C147.981 110.188 147.138 110.46 146.347 111.005C145.556 111.55 145.16 112.271 145.16 113.167C145.16 114.321 145.802 115.121 147.085 115.566L146.936 115.848ZM149.766 113.984C150.451 113.967 150.979 113.791 151.348 113.457C151.717 113.129 151.901 112.71 151.901 112.2C151.901 111.685 151.708 111.242 151.321 110.873C150.935 110.504 150.416 110.29 149.766 110.231L149.766 113.984ZM155.804 121.578L156.911 124.162L156.911 124.47L146.514 124.47C145.898 124.47 145.491 124.525 145.292 124.637C145.093 124.754 144.993 124.953 144.993 125.234C144.993 125.404 145.037 125.586 145.125 125.779L144.817 125.902L143.754 123.02L144.976 123.02C144.571 122.639 144.267 122.237 144.062 121.815C143.856 121.394 143.754 120.951 143.754 120.488C143.754 119.527 144.155 118.687 144.958 117.966C145.767 117.245 146.739 116.885 147.876 116.885C149.13 116.885 150.22 117.307 151.146 118.15C152.077 119 152.543 119.987 152.543 121.112C152.543 121.44 152.49 121.763 152.385 122.079C152.285 122.396 152.13 122.709 151.919 123.02L154.195 123.02C154.723 123.02 155.092 122.964 155.303 122.853C155.52 122.741 155.628 122.542 155.628 122.255C155.628 122.103 155.59 121.927 155.514 121.728L155.804 121.578ZM145.582 123.02L149.52 123.02C150.416 123.02 151.061 122.782 151.453 122.308C151.852 121.833 152.051 121.353 152.051 120.866C152.051 120.233 151.708 119.677 151.022 119.196C150.343 118.716 149.511 118.476 148.526 118.476C147.466 118.476 146.572 118.757 145.846 119.319C145.125 119.888 144.765 120.559 144.765 121.332C144.765 121.666 144.832 121.974 144.967 122.255C145.107 122.536 145.312 122.791 145.582 123.02Z" fill="white"/>
</svg>
