<svg width="211" height="202" viewBox="0 0 211 202" fill="none" xmlns="http://www.w3.org/2000/svg">
<line x1="2" y1="39.3886" x2="153.439" y2="39.3886" stroke="white" stroke-width="3" stroke-dasharray="2 2"/>
<path d="M3.06066 38.3136C2.47487 37.7278 1.52513 37.7278 0.93934 38.3136C0.353553 38.8994 0.353553 39.8491 0.93934 40.4349L3.06066 38.3136ZM162.626 201.5C163.454 201.5 164.126 200.828 164.126 200V186.5C164.126 185.672 163.454 185 162.626 185C161.797 185 161.126 185.672 161.126 186.5V198.5H149.126C148.297 198.5 147.626 199.172 147.626 200C147.626 200.828 148.297 201.5 149.126 201.5H162.626ZM0.93934 40.4349L161.565 201.061L163.686 198.939L3.06066 38.3136L0.93934 40.4349Z" fill="white"/>
<line x1="151.939" y1="190.814" x2="151.939" y2="39.3743" stroke="white" stroke-width="3" stroke-dasharray="2 2"/>
<path d="M59.6172 29.8906L59.0664 30.2188C56.8242 27.1562 55.7031 24.125 55.7031 21.125C55.7031 18.6562 56.293 16.4922 57.4727 14.6328C58.6523 12.7812 60.4219 11.0508 62.7812 9.44141L63.2266 9.94531C61.2344 11.7734 59.8633 13.7734 59.1133 15.9453C58.3555 18.1172 57.9766 20.7148 57.9766 23.7383C57.9766 25.8477 58.5234 27.8984 59.6172 29.8906ZM62.4883 26L64.082 20.6562C64.668 18.7031 64.9609 17.5039 64.9609 17.0586C64.9609 16.7617 64.8555 16.5625 64.6445 16.4609C64.4414 16.3594 64.1055 16.3086 63.6367 16.3086V15.6641C63.6367 15.6641 64.2344 15.6094 65.4297 15.5C66.625 15.3828 67.625 15.207 68.4297 14.9727L67.0586 19.2852C68.2227 17.1992 69.0508 15.9609 69.543 15.5703C70.0352 15.1719 70.4805 14.9727 70.8789 14.9727C71.293 14.9727 71.6211 15.1172 71.8633 15.4062C72.1133 15.6875 72.2383 16.0703 72.2383 16.5547C72.2383 17.0469 72.1133 17.4688 71.8633 17.8203C71.6133 18.1719 71.2578 18.3477 70.7969 18.3477C70.4766 18.3477 70.1797 18.1875 69.9062 17.8672C69.8359 17.8047 69.7578 17.7109 69.6719 17.5859C69.5859 17.4531 69.5 17.3867 69.4141 17.3867C69.0625 17.3867 68.5664 17.9375 67.9258 19.0391C67.293 20.1406 66.7227 21.543 66.2148 23.2461C65.8477 24.4805 65.5664 25.3984 65.3711 26H62.4883ZM81.3086 15.3125H84.1445C83.6758 16.9141 83.2109 18.5117 82.75 20.1055C82.0312 22.5117 81.6719 23.875 81.6719 24.1953C81.6719 24.5156 81.8008 24.6758 82.0586 24.6758C82.4023 24.6758 82.9609 24.1055 83.7344 22.9648L84.2383 23.2812C83.0898 25.3203 81.8164 26.3398 80.418 26.3398C79.8867 26.3398 79.4883 26.2109 79.2227 25.9531C78.9648 25.6875 78.8359 25.3516 78.8359 24.9453C78.8359 24.3828 79.0039 23.5352 79.3398 22.4023C78.2852 23.9023 77.4102 24.9336 76.7148 25.4961C76.0273 26.0586 75.3203 26.3398 74.5938 26.3398C73.9922 26.3398 73.5273 26.1797 73.1992 25.8594C72.8711 25.5391 72.707 25.0859 72.707 24.5C72.707 23.9219 72.9961 22.6445 73.5742 20.668C74.1836 18.668 74.4883 17.4609 74.4883 17.0469C74.4883 16.5547 74.0469 16.3086 73.1641 16.3086V15.6641C74.0234 15.6328 74.9219 15.5352 75.8594 15.3711C76.7969 15.207 77.5742 15.0742 78.1914 14.9727L75.8594 22.4727C75.6484 23.1523 75.543 23.668 75.543 24.0195C75.543 24.418 75.7227 24.6172 76.082 24.6172C76.5039 24.6172 77.0547 24.207 77.7344 23.3867C78.2109 22.832 78.5977 22.2852 78.8945 21.7461C79.6445 20.4414 80.4492 18.2969 81.3086 15.3125ZM85.5625 26L87.2734 19.9062C87.7812 18.1328 88.0352 17.1367 88.0352 16.918C88.0352 16.6602 87.9375 16.4961 87.7422 16.4258C87.5547 16.3477 87.2109 16.3086 86.7109 16.3086V15.6641C88.0156 15.6641 89.6133 15.4336 91.5039 14.9727L90.0039 19.6602C90.9336 18.2461 91.7812 17.1133 92.5469 16.2617C93.3125 15.4023 94.2148 14.9727 95.2539 14.9727C96.418 14.9727 97 15.6172 97 16.9062C97 17.5 96.6445 18.8359 95.9336 20.9141C95.4414 22.3047 95.1445 23.1914 95.043 23.5742C94.9414 23.9492 94.8906 24.1641 94.8906 24.2188C94.8906 24.3984 94.918 24.5195 94.9727 24.582C95.0273 24.6445 95.1289 24.6758 95.2773 24.6758C95.582 24.6758 96.125 24.1055 96.9062 22.9648L97.457 23.2695C96.7617 24.4492 96.125 25.2578 95.5469 25.6953C94.9688 26.125 94.3594 26.3398 93.7188 26.3398C92.5859 26.3398 92.0195 25.8125 92.0195 24.7578C92.0195 24.0781 92.3672 22.6836 93.0625 20.5742C93.4922 19.3008 93.7734 18.4688 93.9062 18.0781C94.0469 17.6875 94.1172 17.4141 94.1172 17.2578C94.1172 17.0625 94.0664 16.9219 93.9648 16.8359C93.8711 16.7422 93.7305 16.6953 93.543 16.6953C93.0117 16.6953 92.3047 17.3516 91.4219 18.6641C90.5391 19.9688 89.8086 21.4844 89.2305 23.2109C88.9414 24.1328 88.6797 25.0625 88.4453 26H85.5625ZM101.617 9.76953L102.168 9.44141C104.41 12.5039 105.531 15.5352 105.531 18.5352C105.531 21.0039 104.941 23.168 103.762 25.0273C102.582 26.8789 100.812 28.6094 98.4531 30.2188L98.0078 29.7148C100 27.8867 101.371 25.8867 102.121 23.7148C102.879 21.543 103.258 18.9453 103.258 15.9219C103.258 13.8125 102.711 11.7617 101.617 9.76953Z" fill="white"/>
<path d="M162.617 125.891L162.066 126.219C159.824 123.156 158.703 120.125 158.703 117.125C158.703 114.656 159.293 112.492 160.473 110.633C161.652 108.781 163.422 107.051 165.781 105.441L166.227 105.945C164.234 107.773 162.863 109.773 162.113 111.945C161.355 114.117 160.977 116.715 160.977 119.738C160.977 121.848 161.523 123.898 162.617 125.891ZM165.488 122L167.082 116.656C167.668 114.703 167.961 113.504 167.961 113.059C167.961 112.762 167.855 112.562 167.645 112.461C167.441 112.359 167.105 112.309 166.637 112.309V111.664C166.637 111.664 167.234 111.609 168.43 111.5C169.625 111.383 170.625 111.207 171.43 110.973L170.059 115.285C171.223 113.199 172.051 111.961 172.543 111.57C173.035 111.172 173.48 110.973 173.879 110.973C174.293 110.973 174.621 111.117 174.863 111.406C175.113 111.688 175.238 112.07 175.238 112.555C175.238 113.047 175.113 113.469 174.863 113.82C174.613 114.172 174.258 114.348 173.797 114.348C173.477 114.348 173.18 114.188 172.906 113.867C172.836 113.805 172.758 113.711 172.672 113.586C172.586 113.453 172.5 113.387 172.414 113.387C172.062 113.387 171.566 113.938 170.926 115.039C170.293 116.141 169.723 117.543 169.215 119.246C168.848 120.48 168.566 121.398 168.371 122H165.488ZM180.465 118.777L181.016 119.117C180.109 120.5 179.367 121.383 178.789 121.766C178.219 122.148 177.648 122.34 177.078 122.34C175.953 122.34 175.391 121.805 175.391 120.734C175.391 120.375 175.52 119.727 175.777 118.789L176.973 114.359C177.168 113.664 177.266 113.234 177.266 113.07C177.266 112.562 176.848 112.309 176.012 112.309H175.848V111.664C177.801 111.523 179.418 111.293 180.699 110.973L178.566 118.777C178.371 119.48 178.273 119.988 178.273 120.301C178.273 120.41 178.309 120.5 178.379 120.57C178.449 120.641 178.543 120.676 178.66 120.676C179.035 120.676 179.637 120.043 180.465 118.777ZM178.332 107.281C178.332 106.836 178.484 106.457 178.789 106.145C179.102 105.832 179.484 105.676 179.938 105.676C180.383 105.676 180.766 105.836 181.086 106.156C181.414 106.469 181.578 106.852 181.578 107.305C181.578 107.711 181.43 108.082 181.133 108.418C180.836 108.746 180.414 108.91 179.867 108.91C179.547 108.91 179.211 108.77 178.859 108.488C178.508 108.207 178.332 107.805 178.332 107.281ZM182.633 118.402L183.266 118.473C183.359 119.465 183.617 120.238 184.039 120.793C184.461 121.34 184.973 121.613 185.574 121.613C186.02 121.613 186.359 121.484 186.594 121.227C186.836 120.961 186.957 120.676 186.957 120.371C186.957 120.027 186.895 119.727 186.77 119.469C186.645 119.203 186.414 118.871 186.078 118.473C184.789 116.934 184.051 115.906 183.863 115.391C183.676 114.867 183.582 114.387 183.582 113.949C183.582 113.09 183.871 112.379 184.449 111.816C185.027 111.254 185.836 110.973 186.875 110.973C187.297 110.973 187.727 111.062 188.164 111.242C188.609 111.414 188.953 111.5 189.195 111.5C189.438 111.5 189.66 111.336 189.863 111.008H190.555L190.004 114.723L189.371 114.676C189.051 112.723 188.328 111.746 187.203 111.746C186.727 111.746 186.383 111.875 186.172 112.133C185.969 112.383 185.867 112.695 185.867 113.07C185.867 113.297 185.945 113.551 186.102 113.832C186.258 114.105 186.465 114.398 186.723 114.711C187.809 116.078 188.5 117.008 188.797 117.5C189.094 117.984 189.242 118.535 189.242 119.152C189.242 120.105 188.902 120.875 188.223 121.461C187.551 122.047 186.703 122.34 185.68 122.34C185.273 122.34 184.824 122.262 184.332 122.105C183.848 121.941 183.535 121.859 183.395 121.859C183.043 121.859 182.82 122.02 182.727 122.34H182.082L182.633 118.402ZM194.68 117.652C194.586 118.09 194.539 118.469 194.539 118.789C194.539 120.133 195.09 120.805 196.191 120.805C197.02 120.805 197.926 120.066 198.91 118.59L199.602 119C198.969 120.148 198.281 120.992 197.539 121.531C196.805 122.07 196.02 122.34 195.184 122.34C194.168 122.34 193.301 122.02 192.582 121.379C191.871 120.738 191.516 119.859 191.516 118.742C191.516 116.945 192.211 115.203 193.602 113.516C194.992 111.82 196.598 110.973 198.418 110.973C199.129 110.973 199.723 111.152 200.199 111.512C200.676 111.863 200.914 112.387 200.914 113.082C200.914 113.98 200.367 114.898 199.273 115.836C198.188 116.773 196.656 117.379 194.68 117.652ZM194.855 116.867C195.926 116.617 196.844 116.117 197.609 115.367C198.383 114.609 198.77 113.676 198.77 112.566C198.77 111.988 198.535 111.699 198.066 111.699C197.488 111.699 196.887 112.188 196.262 113.164C195.645 114.133 195.176 115.367 194.855 116.867ZM204.594 105.77L205.145 105.441C207.387 108.504 208.508 111.535 208.508 114.535C208.508 117.004 207.918 119.168 206.738 121.027C205.559 122.879 203.789 124.609 201.43 126.219L200.984 125.715C202.977 123.887 204.348 121.887 205.098 119.715C205.855 117.543 206.234 114.945 206.234 111.922C206.234 109.812 205.688 107.762 204.594 105.77Z" fill="white"/>
</svg>
