<svg width="147" height="147" viewBox="0 0 147 147" fill="none" xmlns="http://www.w3.org/2000/svg">
<path d="M0.5 144C0.5 145.381 1.61929 146.5 3 146.5H25.5C26.8807 146.5 28 145.381 28 144C28 142.619 26.8807 141.5 25.5 141.5H5.5L5.5 121.5C5.5 120.119 4.38071 119 3 119C1.61929 119 0.5 120.119 0.5 121.5L0.5 144ZM146.921 2.57865C146.921 1.19793 145.802 0.0786462 144.421 0.0786462L121.921 0.0786462C120.541 0.0786462 119.421 1.19793 119.421 2.57865C119.421 3.95936 120.541 5.07865 121.921 5.07865L141.921 5.07865L141.921 25.0786C141.921 26.4594 143.041 27.5786 144.421 27.5786C145.802 27.5786 146.921 26.4594 146.921 25.0786L146.921 2.57865ZM4.76777 145.768L146.189 4.34641L142.654 0.810879L1.23223 142.232L4.76777 145.768Z" fill="white"/>
<path d="M144.421 146.5C145.802 146.5 146.921 145.381 146.921 144V121.5C146.921 120.119 145.802 119 144.421 119C143.041 119 141.921 120.119 141.921 121.5V141.5H121.921C120.541 141.5 119.421 142.619 119.421 144C119.421 145.381 120.541 146.5 121.921 146.5H144.421ZM3 0.0786462C1.61929 0.0786462 0.500002 1.19793 0.500002 2.57865L0.500002 25.0786C0.500002 26.4594 1.61929 27.5786 3 27.5786C4.38071 27.5786 5.5 26.4594 5.5 25.0786L5.5 5.07865L25.5 5.07865C26.8807 5.07865 28 3.95936 28 2.57865C28 1.19793 26.8807 0.0786462 25.5 0.0786462L3 0.0786462ZM146.189 142.232L4.76777 0.810879L1.23224 4.34641L142.654 145.768L146.189 142.232Z" fill="white"/>
</svg>
