<svg width="211" height="193" viewBox="0 0 211 193" fill="none" xmlns="http://www.w3.org/2000/svg">
<line x1="1" y1="162.389" x2="152.439" y2="162.389" stroke="white" stroke-width="3" stroke-dasharray="2 2"/>
<path d="M0.93934 161.565C0.353553 162.151 0.353553 163.101 0.93934 163.686C1.52513 164.272 2.47487 164.272 3.06066 163.686L0.93934 161.565ZM164.126 2C164.126 1.17157 163.454 0.499996 162.626 0.499996H149.126C148.297 0.499996 147.626 1.17157 147.626 2C147.626 2.82842 148.297 3.5 149.126 3.5H161.126V15.5C161.126 16.3284 161.797 17 162.626 17C163.454 17 164.126 16.3284 164.126 15.5V2ZM3.06066 163.686L163.686 3.06066L161.565 0.939335L0.93934 161.565L3.06066 163.686Z" fill="white"/>
<line x1="150.5" y1="164.439" x2="150.5" y2="13" stroke="white" stroke-width="3" stroke-dasharray="2 2"/>
<path d="M59.6172 190.891L59.0664 191.219C56.8242 188.156 55.7031 185.125 55.7031 182.125C55.7031 179.656 56.293 177.492 57.4727 175.633C58.6523 173.781 60.4219 172.051 62.7812 170.441L63.2266 170.945C61.2344 172.773 59.8633 174.773 59.1133 176.945C58.3555 179.117 57.9766 181.715 57.9766 184.738C57.9766 186.848 58.5234 188.898 59.6172 190.891ZM62.4883 187L64.082 181.656C64.668 179.703 64.9609 178.504 64.9609 178.059C64.9609 177.762 64.8555 177.562 64.6445 177.461C64.4414 177.359 64.1055 177.309 63.6367 177.309V176.664C63.6367 176.664 64.2344 176.609 65.4297 176.5C66.625 176.383 67.625 176.207 68.4297 175.973L67.0586 180.285C68.2227 178.199 69.0508 176.961 69.543 176.57C70.0352 176.172 70.4805 175.973 70.8789 175.973C71.293 175.973 71.6211 176.117 71.8633 176.406C72.1133 176.688 72.2383 177.07 72.2383 177.555C72.2383 178.047 72.1133 178.469 71.8633 178.82C71.6133 179.172 71.2578 179.348 70.7969 179.348C70.4766 179.348 70.1797 179.188 69.9062 178.867C69.8359 178.805 69.7578 178.711 69.6719 178.586C69.5859 178.453 69.5 178.387 69.4141 178.387C69.0625 178.387 68.5664 178.938 67.9258 180.039C67.293 181.141 66.7227 182.543 66.2148 184.246C65.8477 185.48 65.5664 186.398 65.3711 187H62.4883ZM81.3086 176.312H84.1445C83.6758 177.914 83.2109 179.512 82.75 181.105C82.0312 183.512 81.6719 184.875 81.6719 185.195C81.6719 185.516 81.8008 185.676 82.0586 185.676C82.4023 185.676 82.9609 185.105 83.7344 183.965L84.2383 184.281C83.0898 186.32 81.8164 187.34 80.418 187.34C79.8867 187.34 79.4883 187.211 79.2227 186.953C78.9648 186.688 78.8359 186.352 78.8359 185.945C78.8359 185.383 79.0039 184.535 79.3398 183.402C78.2852 184.902 77.4102 185.934 76.7148 186.496C76.0273 187.059 75.3203 187.34 74.5938 187.34C73.9922 187.34 73.5273 187.18 73.1992 186.859C72.8711 186.539 72.707 186.086 72.707 185.5C72.707 184.922 72.9961 183.645 73.5742 181.668C74.1836 179.668 74.4883 178.461 74.4883 178.047C74.4883 177.555 74.0469 177.309 73.1641 177.309V176.664C74.0234 176.633 74.9219 176.535 75.8594 176.371C76.7969 176.207 77.5742 176.074 78.1914 175.973L75.8594 183.473C75.6484 184.152 75.543 184.668 75.543 185.02C75.543 185.418 75.7227 185.617 76.082 185.617C76.5039 185.617 77.0547 185.207 77.7344 184.387C78.2109 183.832 78.5977 183.285 78.8945 182.746C79.6445 181.441 80.4492 179.297 81.3086 176.312ZM85.5625 187L87.2734 180.906C87.7812 179.133 88.0352 178.137 88.0352 177.918C88.0352 177.66 87.9375 177.496 87.7422 177.426C87.5547 177.348 87.2109 177.309 86.7109 177.309V176.664C88.0156 176.664 89.6133 176.434 91.5039 175.973L90.0039 180.66C90.9336 179.246 91.7812 178.113 92.5469 177.262C93.3125 176.402 94.2148 175.973 95.2539 175.973C96.418 175.973 97 176.617 97 177.906C97 178.5 96.6445 179.836 95.9336 181.914C95.4414 183.305 95.1445 184.191 95.043 184.574C94.9414 184.949 94.8906 185.164 94.8906 185.219C94.8906 185.398 94.918 185.52 94.9727 185.582C95.0273 185.645 95.1289 185.676 95.2773 185.676C95.582 185.676 96.125 185.105 96.9062 183.965L97.457 184.27C96.7617 185.449 96.125 186.258 95.5469 186.695C94.9688 187.125 94.3594 187.34 93.7188 187.34C92.5859 187.34 92.0195 186.812 92.0195 185.758C92.0195 185.078 92.3672 183.684 93.0625 181.574C93.4922 180.301 93.7734 179.469 93.9062 179.078C94.0469 178.688 94.1172 178.414 94.1172 178.258C94.1172 178.062 94.0664 177.922 93.9648 177.836C93.8711 177.742 93.7305 177.695 93.543 177.695C93.0117 177.695 92.3047 178.352 91.4219 179.664C90.5391 180.969 89.8086 182.484 89.2305 184.211C88.9414 185.133 88.6797 186.062 88.4453 187H85.5625ZM101.617 170.77L102.168 170.441C104.41 173.504 105.531 176.535 105.531 179.535C105.531 182.004 104.941 184.168 103.762 186.027C102.582 187.879 100.812 189.609 98.4531 191.219L98.0078 190.715C100 188.887 101.371 186.887 102.121 184.715C102.879 182.543 103.258 179.945 103.258 176.922C103.258 174.812 102.711 172.762 101.617 170.77Z" fill="white"/>
<path d="M162.617 102.891L162.066 103.219C159.824 100.156 158.703 97.125 158.703 94.125C158.703 91.6562 159.293 89.4922 160.473 87.6328C161.652 85.7812 163.422 84.0508 165.781 82.4414L166.227 82.9453C164.234 84.7734 162.863 86.7734 162.113 88.9453C161.355 91.1172 160.977 93.7148 160.977 96.7383C160.977 98.8477 161.523 100.898 162.617 102.891ZM165.488 99L167.082 93.6562C167.668 91.7031 167.961 90.5039 167.961 90.0586C167.961 89.7617 167.855 89.5625 167.645 89.4609C167.441 89.3594 167.105 89.3086 166.637 89.3086V88.6641C166.637 88.6641 167.234 88.6094 168.43 88.5C169.625 88.3828 170.625 88.207 171.43 87.9727L170.059 92.2852C171.223 90.1992 172.051 88.9609 172.543 88.5703C173.035 88.1719 173.48 87.9727 173.879 87.9727C174.293 87.9727 174.621 88.1172 174.863 88.4062C175.113 88.6875 175.238 89.0703 175.238 89.5547C175.238 90.0469 175.113 90.4688 174.863 90.8203C174.613 91.1719 174.258 91.3477 173.797 91.3477C173.477 91.3477 173.18 91.1875 172.906 90.8672C172.836 90.8047 172.758 90.7109 172.672 90.5859C172.586 90.4531 172.5 90.3867 172.414 90.3867C172.062 90.3867 171.566 90.9375 170.926 92.0391C170.293 93.1406 169.723 94.543 169.215 96.2461C168.848 97.4805 168.566 98.3984 168.371 99H165.488ZM180.465 95.7773L181.016 96.1172C180.109 97.5 179.367 98.3828 178.789 98.7656C178.219 99.1484 177.648 99.3398 177.078 99.3398C175.953 99.3398 175.391 98.8047 175.391 97.7344C175.391 97.375 175.52 96.7266 175.777 95.7891L176.973 91.3594C177.168 90.6641 177.266 90.2344 177.266 90.0703C177.266 89.5625 176.848 89.3086 176.012 89.3086H175.848V88.6641C177.801 88.5234 179.418 88.293 180.699 87.9727L178.566 95.7773C178.371 96.4805 178.273 96.9883 178.273 97.3008C178.273 97.4102 178.309 97.5 178.379 97.5703C178.449 97.6406 178.543 97.6758 178.66 97.6758C179.035 97.6758 179.637 97.043 180.465 95.7773ZM178.332 84.2812C178.332 83.8359 178.484 83.457 178.789 83.1445C179.102 82.832 179.484 82.6758 179.938 82.6758C180.383 82.6758 180.766 82.8359 181.086 83.1562C181.414 83.4688 181.578 83.8516 181.578 84.3047C181.578 84.7109 181.43 85.082 181.133 85.418C180.836 85.7461 180.414 85.9102 179.867 85.9102C179.547 85.9102 179.211 85.7695 178.859 85.4883C178.508 85.207 178.332 84.8047 178.332 84.2812ZM182.633 95.4023L183.266 95.4727C183.359 96.4648 183.617 97.2383 184.039 97.793C184.461 98.3398 184.973 98.6133 185.574 98.6133C186.02 98.6133 186.359 98.4844 186.594 98.2266C186.836 97.9609 186.957 97.6758 186.957 97.3711C186.957 97.0273 186.895 96.7266 186.77 96.4688C186.645 96.2031 186.414 95.8711 186.078 95.4727C184.789 93.9336 184.051 92.9062 183.863 92.3906C183.676 91.8672 183.582 91.3867 183.582 90.9492C183.582 90.0898 183.871 89.3789 184.449 88.8164C185.027 88.2539 185.836 87.9727 186.875 87.9727C187.297 87.9727 187.727 88.0625 188.164 88.2422C188.609 88.4141 188.953 88.5 189.195 88.5C189.438 88.5 189.66 88.3359 189.863 88.0078H190.555L190.004 91.7227L189.371 91.6758C189.051 89.7227 188.328 88.7461 187.203 88.7461C186.727 88.7461 186.383 88.875 186.172 89.1328C185.969 89.3828 185.867 89.6953 185.867 90.0703C185.867 90.2969 185.945 90.5508 186.102 90.832C186.258 91.1055 186.465 91.3984 186.723 91.7109C187.809 93.0781 188.5 94.0078 188.797 94.5C189.094 94.9844 189.242 95.5352 189.242 96.1523C189.242 97.1055 188.902 97.875 188.223 98.4609C187.551 99.0469 186.703 99.3398 185.68 99.3398C185.273 99.3398 184.824 99.2617 184.332 99.1055C183.848 98.9414 183.535 98.8594 183.395 98.8594C183.043 98.8594 182.82 99.0195 182.727 99.3398H182.082L182.633 95.4023ZM194.68 94.6523C194.586 95.0898 194.539 95.4688 194.539 95.7891C194.539 97.1328 195.09 97.8047 196.191 97.8047C197.02 97.8047 197.926 97.0664 198.91 95.5898L199.602 96C198.969 97.1484 198.281 97.9922 197.539 98.5312C196.805 99.0703 196.02 99.3398 195.184 99.3398C194.168 99.3398 193.301 99.0195 192.582 98.3789C191.871 97.7383 191.516 96.8594 191.516 95.7422C191.516 93.9453 192.211 92.2031 193.602 90.5156C194.992 88.8203 196.598 87.9727 198.418 87.9727C199.129 87.9727 199.723 88.1523 200.199 88.5117C200.676 88.8633 200.914 89.3867 200.914 90.082C200.914 90.9805 200.367 91.8984 199.273 92.8359C198.188 93.7734 196.656 94.3789 194.68 94.6523ZM194.855 93.8672C195.926 93.6172 196.844 93.1172 197.609 92.3672C198.383 91.6094 198.77 90.6758 198.77 89.5664C198.77 88.9883 198.535 88.6992 198.066 88.6992C197.488 88.6992 196.887 89.1875 196.262 90.1641C195.645 91.1328 195.176 92.3672 194.855 93.8672ZM204.594 82.7695L205.145 82.4414C207.387 85.5039 208.508 88.5352 208.508 91.5352C208.508 94.0039 207.918 96.168 206.738 98.0273C205.559 99.8789 203.789 101.609 201.43 103.219L200.984 102.715C202.977 100.887 204.348 98.8867 205.098 96.7148C205.855 94.543 206.234 91.9453 206.234 88.9219C206.234 86.8125 205.688 84.7617 204.594 82.7695Z" fill="white"/>
</svg>
