<svg width="197" height="147" viewBox="0 0 197 147" fill="none" xmlns="http://www.w3.org/2000/svg">
<path d="M0.5 144C0.5 145.381 1.61929 146.5 3 146.5H25.5C26.8807 146.5 28 145.381 28 144C28 142.619 26.8807 141.5 25.5 141.5H5.5L5.5 121.5C5.5 120.119 4.38071 119 3 119C1.61929 119 0.5 120.119 0.5 121.5L0.5 144ZM146.921 2.57865C146.921 1.19793 145.802 0.0786462 144.421 0.0786462L121.921 0.0786462C120.541 0.0786462 119.421 1.19793 119.421 2.57865C119.421 3.95936 120.541 5.07865 121.921 5.07865L141.921 5.07865L141.921 25.0786C141.921 26.4594 143.041 27.5786 144.421 27.5786C145.802 27.5786 146.921 26.4594 146.921 25.0786L146.921 2.57865ZM4.76777 145.768L146.189 4.34641L142.654 0.810879L1.23223 142.232L4.76777 145.768Z" fill="white"/>
<path d="M50.5 144C50.5 145.381 51.6193 146.5 53 146.5H75.5C76.8807 146.5 78 145.381 78 144C78 142.619 76.8807 141.5 75.5 141.5H55.5V121.5C55.5 120.119 54.3807 119 53 119C51.6193 119 50.5 120.119 50.5 121.5V144ZM196.921 2.57865C196.921 1.19793 195.802 0.0786462 194.421 0.0786462L171.921 0.0786462C170.541 0.0786462 169.421 1.19793 169.421 2.57865C169.421 3.95936 170.541 5.07865 171.921 5.07865L191.921 5.07865L191.921 25.0786C191.921 26.4594 193.041 27.5786 194.421 27.5786C195.802 27.5786 196.921 26.4594 196.921 25.0786L196.921 2.57865ZM54.7678 145.768L196.189 4.34641L192.654 0.810879L51.2322 142.232L54.7678 145.768Z" fill="white"/>
</svg>
