<svg width="147" height="147" viewBox="0 0 147 147" fill="none" xmlns="http://www.w3.org/2000/svg">
<path d="M1.66088 71.8182C0.680559 72.7985 0.674044 74.3814 1.64633 75.3537L17.4906 91.198C18.4629 92.1702 20.0458 92.1637 21.0261 91.1834C22.0064 90.2031 22.0129 88.6202 21.0407 87.6479L6.95686 73.5641L21.1571 59.3639C22.1374 58.3835 22.1439 56.8006 21.1716 55.8284C20.1994 54.8561 18.6165 54.8626 17.6361 55.8429L1.66088 71.8182ZM145.76 74.7605C146.741 73.7802 146.747 72.1973 145.775 71.225L129.931 55.3807C128.958 54.4084 127.376 54.4149 126.395 55.3952C125.415 56.3756 125.408 57.9585 126.381 58.9308L140.464 73.0146L126.264 87.2148C125.284 88.1951 125.277 89.778 126.25 90.7503C127.222 91.7226 128.805 91.7161 129.785 90.7357L145.76 74.7605ZM3.41107 76.0786L143.99 75.5L144.01 70.5L3.43165 71.0787L3.41107 76.0786Z" fill="white"/>
<path d="M71.6463 145.354C72.6186 146.326 74.2015 146.319 75.1818 145.339L91.1571 129.364C92.1374 128.384 92.1439 126.801 91.1716 125.828C90.1994 124.856 88.6165 124.863 87.6361 125.843L73.4359 140.043L59.3521 125.959C58.3798 124.987 56.7969 124.994 55.8166 125.974C54.8363 126.954 54.8298 128.537 55.802 129.509L71.6463 145.354ZM75.775 1.22498C74.8027 0.252693 73.2198 0.259208 72.2395 1.23953L56.2643 17.2148C55.2839 18.1951 55.2774 19.778 56.2497 20.7503C57.222 21.7226 58.8049 21.7161 59.7852 20.7357L73.9854 6.53551L88.0692 20.6193C89.0415 21.5916 90.6244 21.5851 91.6048 20.6048C92.5851 19.6244 92.5916 18.0415 91.6193 17.0693L75.775 1.22498ZM75.9213 143.568L76.5 2.98971L71.5 3.01029L70.9214 143.589L75.9213 143.568Z" fill="white"/>
</svg>
