<svg width="580" height="580" viewBox="0 0 580 580" fill="none" xmlns="http://www.w3.org/2000/svg">
<g filter="url(#filter0_d_0_1)">
<path d="M285.851 13.9057C290.102 2.74047 305.898 2.74047 310.149 13.9057L378.657 193.82C379.977 197.286 382.714 200.023 386.18 201.343L566.094 269.851C577.26 274.102 577.26 289.898 566.094 294.149L386.18 362.657C382.714 363.977 379.977 366.714 378.657 370.18L310.149 550.094C305.898 561.26 290.102 561.26 285.851 550.094L217.343 370.18C216.023 366.714 213.286 363.977 209.82 362.657L29.9057 294.149C18.7405 289.898 18.7405 274.102 29.9057 269.851L209.82 201.343C213.286 200.023 216.023 197.286 217.343 193.82L285.851 13.9057Z" fill="#1AACE1"/>
<path d="M285.851 13.9057C290.102 2.74047 305.898 2.74047 310.149 13.9057L378.657 193.82C379.977 197.286 382.714 200.023 386.18 201.343L566.094 269.851C577.26 274.102 577.26 289.898 566.094 294.149L386.18 362.657C382.714 363.977 379.977 366.714 378.657 370.18L310.149 550.094C305.898 561.26 290.102 561.26 285.851 550.094L217.343 370.18C216.023 366.714 213.286 363.977 209.82 362.657L29.9057 294.149C18.7405 289.898 18.7405 274.102 29.9057 269.851L209.82 201.343C213.286 200.023 216.023 197.286 217.343 193.82L285.851 13.9057Z" stroke="black" stroke-width="10"/>
</g>
<defs>
<filter id="filter0_d_0_1" x="0.531738" y="0.531738" width="578.937" height="578.937" filterUnits="userSpaceOnUse" color-interpolation-filters="sRGB">
<feFlood flood-opacity="0" result="BackgroundImageFix"/>
<feColorMatrix in="SourceAlpha" type="matrix" values="0 0 0 0 0 0 0 0 0 0 0 0 0 0 0 0 0 0 127 0" result="hardAlpha"/>
<feOffset dx="-16" dy="16"/>
<feComposite in2="hardAlpha" operator="out"/>
<feColorMatrix type="matrix" values="0 0 0 0 0 0 0 0 0 0 0 0 0 0 0 0 0 0 1 0"/>
<feBlend mode="normal" in2="BackgroundImageFix" result="effect1_dropShadow_0_1"/>
<feBlend mode="normal" in="SourceGraphic" in2="effect1_dropShadow_0_1" result="shape"/>
</filter>
</defs>
</svg>
