<svg width="202" height="202" viewBox="0 0 202 202" fill="none" xmlns="http://www.w3.org/2000/svg">
<line x1="28" y1="128.5" x2="19" y2="128.5" stroke="#0000FF"/>
<line x1="28.5" y1="128" x2="28.5" y2="180" stroke="#0000FF"/>
<line x1="129.5" y1="14" x2="129.5" y2="180" stroke="#0000FF"/>
<line x1="130" y1="14.5" x2="21" y2="14.5" stroke="#0000FF"/>
<path d="M19.4697 201.53C19.7626 201.823 20.2374 201.823 20.5303 201.53L25.3033 196.757C25.5962 196.464 25.5962 195.99 25.3033 195.697C25.0104 195.404 24.5355 195.404 24.2426 195.697L20 199.939L15.7574 195.697C15.4645 195.404 14.9896 195.404 14.6967 195.697C14.4038 195.99 14.4038 196.464 14.6967 196.757L19.4697 201.53ZM20.5303 0.46967C20.2374 0.176777 19.7626 0.176777 19.4697 0.46967L14.6967 5.24264C14.4038 5.53553 14.4038 6.01041 14.6967 6.3033C14.9896 6.59619 15.4645 6.59619 15.7574 6.3033L20 2.06066L24.2426 6.3033C24.5355 6.59619 25.0104 6.59619 25.3033 6.3033C25.5962 6.01041 25.5962 5.53553 25.3033 5.24264L20.5303 0.46967ZM20.75 201L20.75 1H19.25L19.25 201H20.75Z" fill="white"/>
<path d="M0.46967 179.47C0.176777 179.763 0.176777 180.237 0.46967 180.53L5.24264 185.303C5.53553 185.596 6.01041 185.596 6.3033 185.303C6.59619 185.01 6.59619 184.536 6.3033 184.243L2.06066 180L6.3033 175.757C6.59619 175.464 6.59619 174.99 6.3033 174.697C6.01041 174.404 5.53553 174.404 5.24264 174.697L0.46967 179.47ZM201.53 180.53C201.823 180.237 201.823 179.763 201.53 179.47L196.757 174.697C196.464 174.404 195.99 174.404 195.697 174.697C195.404 174.99 195.404 175.464 195.697 175.757L199.939 180L195.697 184.243C195.404 184.536 195.404 185.01 195.697 185.303C195.99 185.596 196.464 185.596 196.757 185.303L201.53 180.53ZM1 180.75H201V179.25H1V180.75Z" fill="white"/>
<path d="M20.5 180C20.5 121 51.5 4.50012 192.5 3.00012" stroke="white" stroke-width="2"/>
<circle cx="27.5" cy="128.5" r="2.5" fill="white"/>
<path d="M34.6406 131.768H34.9453L36.082 138.617C36.1523 139.047 36.2344 139.326 36.3281 139.455C36.4258 139.58 36.6836 139.662 37.1016 139.701V140H33.4629V139.701C33.7363 139.701 33.9609 139.654 34.1367 139.561C34.3125 139.467 34.4004 139.281 34.4004 139.004C34.4004 138.859 34.3926 138.73 34.377 138.617L34.2188 137.48H31.6641L30.9668 138.711C30.8379 138.934 30.7734 139.119 30.7734 139.268C30.7734 139.557 31.0312 139.701 31.5469 139.701V140H29.2031V139.701C29.4062 139.662 29.5781 139.578 29.7188 139.449C29.8633 139.316 30.0234 139.113 30.1992 138.84L34.6406 131.768ZM31.9395 137H34.1367L33.7031 134.082L31.9395 137ZM43.3125 141.945L43.0371 142.109C41.916 140.578 41.3555 139.063 41.3555 137.563C41.3555 136.328 41.6504 135.246 42.2402 134.316C42.8301 133.391 43.7148 132.525 44.8945 131.721L45.1172 131.973C44.1211 132.887 43.4355 133.887 43.0605 134.973C42.6816 136.059 42.4922 137.357 42.4922 138.869C42.4922 139.924 42.7656 140.949 43.3125 141.945ZM45.0703 140V139.701C45.5469 139.701 45.8926 139.615 46.1074 139.443C46.2871 139.307 46.4414 139.012 46.5703 138.559L48.0176 133.414C48.0684 133.258 48.0938 133.135 48.0938 133.045C48.0938 132.768 47.9102 132.629 47.543 132.629C47.2969 132.629 47.041 132.648 46.7754 132.688L46.7988 132.389C47.9512 132.217 49.0312 132.01 50.0391 131.768L48.2227 138.395C48.1055 138.82 48.0469 139.08 48.0469 139.174C48.0469 139.393 48.1445 139.535 48.3398 139.602C48.5391 139.668 48.834 139.701 49.2246 139.701V140H45.0703ZM50.3906 142.256L50.2266 141.98C50.6992 141.73 51.0527 141.492 51.2871 141.266C51.5254 141.039 51.6445 140.807 51.6445 140.568C51.6445 140.455 51.582 140.348 51.457 140.246C51.3359 140.141 51.1992 140.018 51.0469 139.877C50.8906 139.732 50.8125 139.545 50.8125 139.314C50.8125 139.053 50.8867 138.838 51.0352 138.67C51.1875 138.498 51.3965 138.412 51.6621 138.412C51.9355 138.412 52.1719 138.514 52.3711 138.717C52.5703 138.92 52.6699 139.199 52.6699 139.555C52.6699 140.086 52.4688 140.588 52.0664 141.061C51.6641 141.529 51.1055 141.928 50.3906 142.256ZM55.6348 135.535C57.1582 135.227 57.9199 134.611 57.9199 133.689C57.9199 133.361 57.8242 133.102 57.6328 132.91C57.4414 132.715 57.1875 132.617 56.8711 132.617C56.5508 132.617 56.2812 132.695 56.0625 132.852C55.8477 133.004 55.6309 133.236 55.4121 133.549L55.1484 133.391C55.8203 132.309 56.6504 131.768 57.6387 131.768C58.1309 131.768 58.5527 131.926 58.9043 132.242C59.2559 132.555 59.4316 132.938 59.4316 133.391C59.4316 134.152 58.9512 134.756 57.9902 135.201C58.6152 135.639 58.9277 136.236 58.9277 136.994C58.9277 137.869 58.584 138.611 57.8965 139.221C57.209 139.826 56.373 140.129 55.3887 140.129C54.8301 140.129 54.4258 140.037 54.1758 139.854C53.9297 139.666 53.8066 139.459 53.8066 139.232V139.191C53.8066 139.008 53.8633 138.854 53.9766 138.729C54.0938 138.6 54.248 138.535 54.4395 138.535H54.5039C54.8047 138.535 55.0762 138.723 55.3184 139.098C55.5566 139.465 55.8125 139.648 56.0859 139.648C56.4492 139.648 56.7617 139.451 57.0234 139.057C57.2852 138.662 57.416 138.207 57.416 137.691C57.416 137.113 57.2598 136.654 56.9473 136.314C56.6387 135.971 56.1855 135.799 55.5879 135.799L55.6348 135.535ZM61.2773 131.885L61.5527 131.721C62.6738 133.252 63.2344 134.768 63.2344 136.268C63.2344 137.502 62.9395 138.584 62.3496 139.514C61.7598 140.439 60.875 141.305 59.6953 142.109L59.4727 141.857C60.4688 140.943 61.1543 139.943 61.5293 138.857C61.9082 137.772 62.0977 136.473 62.0977 134.961C62.0977 133.906 61.8242 132.881 61.2773 131.885Z" fill="white"/>
<circle cx="128.5" cy="14.5" r="2.5" fill="white"/>
<path d="M23 138L39 82" stroke="#FF0000" stroke-dasharray="4 4"/>
<path d="M132.406 17.9375H135.693C137.568 17.9375 138.506 18.5117 138.506 19.6602C138.506 20.1641 138.338 20.5801 138.002 20.9082C137.67 21.2324 137.088 21.498 136.256 21.7051C136.893 21.9277 137.32 22.1797 137.539 22.4609C137.762 22.7422 137.873 23.0879 137.873 23.498C137.873 24.3223 137.551 24.9453 136.906 25.3672C136.266 25.7891 135.416 26 134.357 26H130.725V25.7012C131.064 25.6543 131.291 25.5586 131.404 25.4141C131.521 25.2656 131.617 25.0605 131.691 24.7988L133.15 19.4082C133.24 19.0957 133.285 18.875 133.285 18.7461C133.285 18.4062 132.992 18.2363 132.406 18.2363V17.9375ZM135.078 18.8633L134.334 21.5352C135.217 21.5352 135.838 21.3555 136.197 20.9961C136.561 20.6367 136.742 20.1387 136.742 19.502C136.742 18.7168 136.393 18.3242 135.693 18.3242C135.498 18.3242 135.359 18.3613 135.277 18.4355C135.199 18.5059 135.133 18.6484 135.078 18.8633ZM134.252 21.9219L133.467 24.834C133.42 25.0098 133.396 25.1484 133.396 25.25C133.396 25.4922 133.627 25.6133 134.088 25.6133C134.643 25.6133 135.104 25.3945 135.471 24.957C135.842 24.5195 136.027 23.9551 136.027 23.2637C136.027 22.8066 135.898 22.4688 135.641 22.25C135.383 22.0312 134.92 21.9219 134.252 21.9219ZM144.312 27.9453L144.037 28.1094C142.916 26.5781 142.355 25.0625 142.355 23.5625C142.355 22.3281 142.65 21.2461 143.24 20.3164C143.83 19.3906 144.715 18.5254 145.895 17.7207L146.117 17.9727C145.121 18.8867 144.436 19.8867 144.061 20.9727C143.682 22.0586 143.492 23.3574 143.492 24.8691C143.492 25.9238 143.766 26.9492 144.312 27.9453ZM146.891 21.5059L148.473 17.9375H151.859L151.426 19.2441H148.379L147.969 20.1758C149.953 20.4688 150.945 21.4023 150.945 22.9766C150.945 23.9141 150.596 24.6738 149.896 25.2559C149.201 25.8379 148.363 26.1289 147.383 26.1289C146.875 26.1289 146.498 26.0352 146.252 25.8477C146.006 25.6602 145.883 25.4609 145.883 25.25V25.2148C145.883 25.0195 145.938 24.8574 146.047 24.7285C146.156 24.5996 146.318 24.5352 146.533 24.5352H146.592C146.893 24.5352 147.158 24.7207 147.389 25.0918C147.627 25.4629 147.855 25.6484 148.074 25.6484C148.484 25.6484 148.854 25.457 149.182 25.0742C149.51 24.6914 149.674 24.2402 149.674 23.7207C149.674 23.0605 149.418 22.5273 148.906 22.1211C148.395 21.7109 147.723 21.5059 146.891 21.5059ZM151.391 28.2559L151.227 27.9805C151.699 27.7305 152.053 27.4922 152.287 27.2656C152.525 27.0391 152.645 26.8066 152.645 26.5684C152.645 26.4551 152.582 26.3477 152.457 26.2461C152.336 26.1406 152.199 26.0176 152.047 25.877C151.891 25.7324 151.812 25.5449 151.812 25.3145C151.812 25.0527 151.887 24.8379 152.035 24.6699C152.188 24.498 152.396 24.4121 152.662 24.4121C152.936 24.4121 153.172 24.5137 153.371 24.7168C153.57 24.9199 153.67 25.1992 153.67 25.5547C153.67 26.0859 153.469 26.5879 153.066 27.0605C152.664 27.5293 152.105 27.9277 151.391 28.2559ZM156.752 17.9375H161.322L156.729 26H155.627L159.617 19.291H157.783C157.221 19.291 156.818 19.377 156.576 19.5488C156.338 19.7207 156.148 19.9336 156.008 20.1875H155.697L156.752 17.9375ZM162.277 17.8848L162.553 17.7207C163.674 19.252 164.234 20.7676 164.234 22.2676C164.234 23.502 163.939 24.584 163.35 25.5137C162.76 26.4395 161.875 27.3047 160.695 28.1094L160.473 27.8574C161.469 26.9434 162.154 25.9434 162.529 24.8574C162.908 23.7715 163.098 22.4727 163.098 20.9609C163.098 19.9062 162.824 18.8809 162.277 17.8848Z" fill="white"/>
<path d="M96 24L155 2.99995" stroke="#FF0000" stroke-dasharray="4 4"/>
<path d="M27.5 130L128.5 14.5" stroke="white" stroke-dasharray="4 4"/>
<path d="M77.3815 87.6994C77.5362 88.4397 77.5762 88.9769 77.5016 89.3111C77.4298 89.6426 77.2807 89.9216 77.0542 90.1481C76.7669 90.4353 76.4451 90.5638 76.0888 90.5334C75.7325 90.503 75.3762 90.3097 75.0199 89.9533C74.4011 89.3346 74.0158 88.4438 73.8639 87.281C73.712 86.1126 73.8943 85.2701 74.4108 84.7536C74.6207 84.5437 74.85 84.4498 75.0986 84.4719C75.3499 84.4912 75.5391 84.5644 75.6662 84.6915C75.6662 84.6915 75.5571 84.4746 75.3389 84.041L76.2172 83.0466L77.8952 86.1665C78.1604 86.6581 78.3814 86.9923 78.5582 87.1691C78.6548 87.2658 78.7432 87.2741 78.8233 87.194C78.9283 87.089 78.9297 86.6954 78.8275 86.0132L79.1299 85.9593C79.3896 87.1249 79.3233 87.9038 78.931 88.2961C78.7736 88.4535 78.5872 88.5377 78.3717 88.5488C78.1535 88.5571 77.9629 88.4797 77.8 88.3168C77.695 88.2118 77.5555 88.006 77.3815 87.6994ZM76.1095 88.9051C76.2697 89.0653 76.4272 89.1509 76.5818 89.162C76.7393 89.1703 76.8663 89.1261 76.963 89.0294C77.2475 88.7449 77.2254 88.14 76.8967 87.2147C76.568 86.2838 76.162 85.5767 75.6786 85.0934C75.3831 84.7978 75.129 84.7564 74.9163 84.9691C74.618 85.2674 74.6401 85.8971 74.9826 86.8584C75.3278 87.8168 75.7035 88.4991 76.1095 88.9051ZM80.5386 79.8191C81.2982 80.5787 81.6214 82.537 81.5081 85.6941L81.2802 85.922L79.8633 84.4056C79.4904 84.0327 79.1423 83.7151 78.8192 83.4527C78.3082 83.0356 77.9602 82.7925 77.7751 82.7235C77.5873 82.6516 77.4229 82.6862 77.2821 82.827L77.137 82.972L76.9092 82.7442C77.1384 82.4376 77.4934 81.9197 77.974 81.1905C78.6617 81.5634 79.6975 82.4113 81.0814 83.7344C81.0013 82.2235 80.8286 81.3355 80.5635 81.0703C80.4861 80.993 80.3149 80.946 80.0497 80.9294C79.779 80.9073 79.5719 80.8245 79.4282 80.6809C79.3012 80.5538 79.2349 80.3991 79.2294 80.2168C79.2238 80.0345 79.286 79.8785 79.4158 79.7486C79.529 79.6354 79.6975 79.5719 79.9213 79.558C80.145 79.5442 80.3508 79.6312 80.5386 79.8191ZM83.8366 80.0511C83.9581 80.2389 84.0755 80.3894 84.1888 80.5027C84.6639 80.9778 85.0961 81.0206 85.4856 80.6311C85.7784 80.3383 85.8378 79.7569 85.6638 78.8868L86.0532 78.7874C86.2355 79.4172 86.2908 79.9586 86.2189 80.4115C86.1499 80.8618 85.9676 81.2347 85.672 81.5302C85.313 81.8893 84.8931 82.0826 84.4125 82.1103C83.9347 82.1351 83.4982 81.9501 83.1033 81.5551C82.468 80.9198 82.0978 80.058 81.9929 78.9697C81.8851 77.8787 82.1531 77.0114 82.7967 76.3678C83.048 76.1164 83.3215 75.97 83.617 75.9286C83.9098 75.8844 84.1791 75.9852 84.4249 76.231C84.7426 76.5487 84.8738 77.0666 84.8185 77.7848C84.7661 78.5001 84.4387 79.2556 83.8366 80.0511ZM83.6212 79.7113C83.9112 79.2445 84.059 78.7432 84.0645 78.2074C84.07 77.666 83.8766 77.1992 83.4844 76.807C83.28 76.6026 83.095 76.5832 82.9292 76.749C82.7248 76.9533 82.6848 77.3387 82.8091 77.9049C82.9334 78.4656 83.2041 79.0678 83.6212 79.7113ZM87.7975 79.1644L86.4717 76.7117C85.9883 75.814 85.6679 75.2864 85.5105 75.129C85.4055 75.024 85.2978 74.9909 85.1873 75.0295C85.0796 75.0654 84.9428 75.1662 84.7771 75.332L84.5492 75.1041C84.5492 75.1041 84.7412 74.8735 85.1251 74.4122C85.5063 73.9481 85.7977 73.5324 85.9994 73.1651L87.0393 75.1745C86.7134 74.0255 86.5684 73.2949 86.6043 72.9828C86.6374 72.6679 86.7244 72.44 86.8653 72.2991C87.0117 72.1528 87.1788 72.0878 87.3666 72.1044C87.5544 72.1155 87.734 72.2066 87.9052 72.3779C88.0792 72.5519 88.1842 72.7452 88.2201 72.9579C88.256 73.1706 88.1925 73.3584 88.0295 73.5214C87.9163 73.6346 87.7547 73.683 87.5448 73.6664C87.4978 73.6692 87.437 73.6636 87.3625 73.6498C87.2851 73.6333 87.2313 73.6402 87.2009 73.6705C87.0766 73.7948 87.0959 74.165 87.2589 74.7809C87.4246 75.3941 87.7188 76.0916 88.1414 76.8732C88.448 77.4395 88.6731 77.8635 88.8167 78.1452L87.7975 79.1644ZM92.471 72.6099C92.6257 73.3501 92.6658 73.8874 92.5912 74.2216C92.5194 74.5531 92.3702 74.832 92.1437 75.0585C91.8565 75.3458 91.5347 75.4742 91.1784 75.4438C90.822 75.4135 90.4657 75.2201 90.1094 74.8638C89.4907 74.2451 89.1054 73.3543 88.9535 72.1914C88.8015 71.023 88.9838 70.1806 89.5004 69.6641C89.7103 69.4541 89.9395 69.3602 90.1881 69.3823C90.4395 69.4017 90.6287 69.4749 90.7557 69.6019C90.7557 69.6019 90.6466 69.3851 90.4284 68.9514L91.3068 67.9571L92.9848 71.0769C93.25 71.5686 93.4709 71.9028 93.6477 72.0796C93.7444 72.1762 93.8328 72.1845 93.9129 72.1044C94.0178 71.9995 94.0192 71.6059 93.917 70.9236L94.2195 70.8697C94.4791 72.0354 94.4128 72.8143 94.0206 73.2065C93.8632 73.364 93.6767 73.4482 93.4613 73.4592C93.2431 73.4675 93.0525 73.3902 92.8895 73.2272C92.7845 73.1223 92.645 72.9165 92.471 72.6099ZM91.1991 73.8156C91.3593 73.9758 91.5167 74.0614 91.6714 74.0724C91.8288 74.0807 91.9559 74.0365 92.0526 73.9399C92.3371 73.6554 92.315 73.0505 91.9863 72.1251C91.6576 71.1943 91.2516 70.4872 90.7682 70.0038C90.4726 69.7083 90.2185 69.6668 90.0058 69.8795C89.7075 70.1778 89.7296 70.8076 90.0721 71.7688C90.4174 72.7273 90.793 73.4095 91.1991 73.8156ZM95.9513 63.7683L96.4237 64.2406L95.856 64.8082C96.0107 64.8966 96.1461 64.9988 96.2621 65.1148C96.704 65.5568 96.8877 66.0995 96.8131 66.7431C96.7358 67.3839 96.4623 67.9391 95.9928 68.4087L95.9513 68.4501C95.8767 68.5247 95.7925 68.5868 95.6986 68.6366C95.6019 68.6835 95.5232 68.7374 95.4624 68.7981C95.4044 68.8561 95.3837 68.9487 95.4003 69.0757C95.4169 69.2028 95.4528 69.2939 95.508 69.3492C95.6295 69.4707 95.8643 69.4403 96.2123 69.258C96.5604 69.0702 96.7703 68.9542 96.8421 68.91C97.4967 68.5371 97.9925 68.3507 98.3295 68.3507C98.6637 68.3479 98.9455 68.4612 99.1747 68.6904C99.5504 69.0661 99.6705 69.5591 99.5352 70.1695C99.3971 70.7772 99.0159 71.3932 98.3917 72.0174C97.9663 72.4428 97.5216 72.7439 97.0576 72.9206C96.5908 73.0946 96.2206 73.0449 95.9472 72.7715C95.7207 72.545 95.6116 72.2867 95.6199 71.9967C95.6282 71.7067 95.8036 71.2799 96.1461 70.7164C95.6875 70.9374 95.3368 70.9264 95.0937 70.6833C94.939 70.5286 94.8575 70.3449 94.8492 70.1323C94.8409 69.914 94.9114 69.5563 95.0605 69.0592C94.776 69.189 94.4971 69.2359 94.2236 69.2C93.9474 69.1614 93.6905 69.0233 93.453 68.7857C93.058 68.3907 92.8771 67.8618 92.9102 67.1989C92.9461 66.5332 93.2458 65.9186 93.8093 65.3551C94.1849 64.9795 94.5855 64.764 95.0108 64.7088L95.9513 63.7683ZM96.5189 70.559C96.4388 70.6391 96.3864 70.8435 96.3615 71.1722C96.3394 71.4981 96.414 71.7467 96.5852 71.918C96.762 72.0948 97.0023 72.1638 97.3062 72.1251C97.61 72.0865 97.8931 71.9359 98.1555 71.6735C98.5394 71.2896 98.7632 70.9609 98.8267 70.6874C98.8902 70.414 98.8295 70.1847 98.6444 69.9997C98.4262 69.7815 98.1334 69.7511 97.766 69.9085C97.523 70.019 97.2661 70.1433 96.9954 70.2814C96.7247 70.4195 96.5659 70.512 96.5189 70.559ZM94.7457 68.1062C95.0909 68.4515 95.3906 68.4971 95.6447 68.243C95.8878 67.9999 95.9154 67.6104 95.7276 67.0746C95.5398 66.5387 95.287 66.112 94.9694 65.7943C94.6075 65.4325 94.2996 65.3786 94.0455 65.6327C93.7886 65.8896 93.7665 66.2929 93.9792 66.8426C94.1946 67.3895 94.4501 67.8107 94.7457 68.1062ZM99.3985 64.4892C99.52 64.677 99.6374 64.8276 99.7506 64.9408C100.226 65.4159 100.658 65.4587 101.047 65.0693C101.34 64.7765 101.4 64.195 101.226 63.325L101.615 63.2255C101.797 63.8553 101.853 64.3967 101.781 64.8497C101.712 65.2999 101.529 65.6728 101.234 65.9683C100.875 66.3274 100.455 66.5208 99.9744 66.5484C99.4965 66.5732 99.0601 66.3882 98.6651 65.9932C98.0298 65.3579 97.6597 64.4961 97.5547 63.4078C97.447 62.3168 97.715 61.4495 98.3585 60.8059C98.6099 60.5545 98.8833 60.4082 99.1789 60.3667C99.4717 60.3225 99.741 60.4233 99.9868 60.6692C100.304 60.9868 100.436 61.5047 100.38 62.2229C100.328 62.9383 100.001 63.6937 99.3985 64.4892ZM99.183 64.1495C99.473 63.6827 99.6208 63.1813 99.6263 62.6455C99.6319 62.1041 99.4385 61.6373 99.0463 61.2451C98.8419 61.0407 98.6568 61.0213 98.4911 61.1871C98.2867 61.3915 98.2467 61.7768 98.371 62.343C98.4953 62.9037 98.7659 63.5059 99.183 64.1495Z" fill="white"/>
<path d="M25.0703 193V192.701C25.5469 192.701 25.8926 192.615 26.1074 192.443C26.2871 192.307 26.4414 192.012 26.5703 191.559L28.0176 186.414C28.0684 186.258 28.0938 186.135 28.0938 186.045C28.0938 185.768 27.9102 185.629 27.543 185.629C27.2969 185.629 27.041 185.648 26.7754 185.688L26.7988 185.389C27.9512 185.217 29.0312 185.01 30.0391 184.768L28.2227 191.395C28.1055 191.82 28.0469 192.08 28.0469 192.174C28.0469 192.393 28.1445 192.535 28.3398 192.602C28.5391 192.668 28.834 192.701 29.2246 192.701V193H25.0703Z" fill="white"/>
<path d="M11.6348 128.535C13.1582 128.227 13.9199 127.611 13.9199 126.689C13.9199 126.361 13.8242 126.102 13.6328 125.91C13.4414 125.715 13.1875 125.617 12.8711 125.617C12.5508 125.617 12.2812 125.695 12.0625 125.852C11.8477 126.004 11.6309 126.236 11.4121 126.549L11.1484 126.391C11.8203 125.309 12.6504 124.768 13.6387 124.768C14.1309 124.768 14.5527 124.926 14.9043 125.242C15.2559 125.555 15.4316 125.938 15.4316 126.391C15.4316 127.152 14.9512 127.756 13.9902 128.201C14.6152 128.639 14.9277 129.236 14.9277 129.994C14.9277 130.869 14.584 131.611 13.8965 132.221C13.209 132.826 12.373 133.129 11.3887 133.129C10.8301 133.129 10.4258 133.037 10.1758 132.854C9.92969 132.666 9.80664 132.459 9.80664 132.232V132.191C9.80664 132.008 9.86328 131.854 9.97656 131.729C10.0938 131.6 10.248 131.535 10.4395 131.535H10.5039C10.8047 131.535 11.0762 131.723 11.3184 132.098C11.5566 132.465 11.8125 132.648 12.0859 132.648C12.4492 132.648 12.7617 132.451 13.0234 132.057C13.2852 131.662 13.416 131.207 13.416 130.691C13.416 130.113 13.2598 129.654 12.9473 129.314C12.6387 128.971 12.1855 128.799 11.5879 128.799L11.6348 128.535Z" fill="white"/>
<path d="M11.752 10.9375H16.3223L11.7285 19H10.627L14.6172 12.291H12.7832C12.2207 12.291 11.8184 12.3769 11.5762 12.5488C11.3379 12.7207 11.1484 12.9336 11.0078 13.1875H10.6973L11.752 10.9375Z" fill="white"/>
<path d="M126.891 188.506L128.473 184.938H131.859L131.426 186.244H128.379L127.969 187.176C129.953 187.469 130.945 188.402 130.945 189.977C130.945 190.914 130.596 191.674 129.896 192.256C129.201 192.838 128.363 193.129 127.383 193.129C126.875 193.129 126.498 193.035 126.252 192.848C126.006 192.66 125.883 192.461 125.883 192.25V192.215C125.883 192.02 125.938 191.857 126.047 191.729C126.156 191.6 126.318 191.535 126.533 191.535H126.592C126.893 191.535 127.158 191.721 127.389 192.092C127.627 192.463 127.855 192.648 128.074 192.648C128.484 192.648 128.854 192.457 129.182 192.074C129.51 191.691 129.674 191.24 129.674 190.721C129.674 190.061 129.418 189.527 128.906 189.121C128.395 188.711 127.723 188.506 126.891 188.506Z" fill="white"/>
</svg>
