<svg width="195" height="200" viewBox="0 0 195 200" fill="none" xmlns="http://www.w3.org/2000/svg">
<path d="M22.5 200C22.5 141 53.5 24.5 194.5 23" stroke="white" stroke-width="2"/>
<path d="M-3.75544e-06 139C-3.73216e-06 139.552 0.447712 140 0.999996 140L10 140C10.5523 140 11 139.552 11 139C11 138.448 10.5523 138 10 138L2 138L2 130C2 129.448 1.55228 129 0.999996 129C0.447711 129 -4.15803e-06 129.448 -4.13476e-06 130L-3.75544e-06 139ZM140 0.999998C140 0.447714 139.552 -1.56617e-06 139 -1.54289e-06L130 -1.16357e-06C129.448 -1.14029e-06 129 0.447714 129 0.999999C129 1.55228 129.448 2 130 2L138 2L138 10C138 10.5523 138.448 11 139 11C139.552 11 140 10.5523 140 10L140 0.999998ZM1.7071 139.707L3.1446 138.27L1.73039 136.855L0.292889 138.293L1.7071 139.707ZM6.0196 135.395L8.8946 132.52L7.48039 131.105L4.60539 133.98L6.0196 135.395ZM11.7696 129.645L14.6446 126.77L13.2304 125.355L10.3554 128.23L11.7696 129.645ZM17.5196 123.895L20.3946 121.02L18.9804 119.605L16.1054 122.48L17.5196 123.895ZM23.2696 118.145L26.1446 115.27L24.7304 113.855L21.8554 116.73L23.2696 118.145ZM29.0196 112.395L31.8946 109.52L30.4804 108.105L27.6054 110.98L29.0196 112.395ZM34.7696 106.645L37.6446 103.77L36.2304 102.355L33.3554 105.23L34.7696 106.645ZM40.5196 100.895L43.3946 98.0196L41.9804 96.6054L39.1054 99.4804L40.5196 100.895ZM46.2696 95.1446L49.1446 92.2696L47.7304 90.8554L44.8554 93.7304L46.2696 95.1446ZM52.0196 89.3946L54.8946 86.5196L53.4804 85.1054L50.6054 87.9804L52.0196 89.3946ZM57.7696 83.6446L60.6446 80.7696L59.2304 79.3554L56.3554 82.2304L57.7696 83.6446ZM63.5196 77.8946L66.3946 75.0196L64.9804 73.6054L62.1054 76.4804L63.5196 77.8946ZM69.2696 72.1446L72.1446 69.2696L70.7304 67.8554L67.8554 70.7304L69.2696 72.1446ZM75.0196 66.3946L77.8946 63.5196L76.4804 62.1054L73.6054 64.9804L75.0196 66.3946ZM80.7696 60.6446L83.6446 57.7696L82.2304 56.3554L79.3554 59.2304L80.7696 60.6446ZM86.5196 54.8946L89.3946 52.0196L87.9804 50.6054L85.1054 53.4804L86.5196 54.8946ZM92.2696 49.1446L95.1446 46.2696L93.7304 44.8554L90.8554 47.7304L92.2696 49.1446ZM98.0196 43.3946L100.895 40.5196L99.4804 39.1054L96.6054 41.9804L98.0196 43.3946ZM103.77 37.6446L106.645 34.7696L105.23 33.3554L102.355 36.2304L103.77 37.6446ZM109.52 31.8946L112.395 29.0196L110.98 27.6054L108.105 30.4804L109.52 31.8946ZM115.27 26.1446L118.145 23.2697L116.73 21.8554L113.855 24.7304L115.27 26.1446ZM121.02 20.3947L123.895 17.5197L122.48 16.1054L119.605 18.9804L121.02 20.3947ZM126.77 14.6447L129.645 11.7697L128.23 10.3555L125.355 13.2305L126.77 14.6447ZM132.52 8.89468L135.395 6.01969L133.98 4.60547L131.105 7.48046L132.52 8.89468ZM138.27 3.14469L139.707 1.70711L138.293 0.292892L136.855 1.73048L138.27 3.14469Z" fill="white"/>
<circle cx="73" cy="68" r="4" fill="white"/>
<path d="M81.6406 70.7676H81.9453L83.082 77.6172C83.1523 78.0469 83.2344 78.3262 83.3281 78.4551C83.4258 78.5801 83.6836 78.6621 84.1016 78.7012V79H80.4629V78.7012C80.7363 78.7012 80.9609 78.6543 81.1367 78.5605C81.3125 78.4668 81.4004 78.2812 81.4004 78.0039C81.4004 77.8594 81.3926 77.7305 81.3769 77.6172L81.2187 76.4805H78.6641L77.9668 77.7109C77.8379 77.9336 77.7734 78.1191 77.7734 78.2676C77.7734 78.5566 78.0312 78.7012 78.5469 78.7012V79H76.2031V78.7012C76.4062 78.6621 76.5781 78.5781 76.7187 78.4492C76.8633 78.3164 77.0234 78.1133 77.1992 77.8398L81.6406 70.7676ZM78.9394 76H81.1367L80.7031 73.082L78.9394 76Z" fill="white"/>
</svg>
