<svg width="275" height="234" viewBox="0 0 275 234" fill="none" xmlns="http://www.w3.org/2000/svg">
<rect x="1.5" y="1.5" width="272" height="197" fill="#0000FF" stroke="white" stroke-width="3"/>
<circle cx="175" cy="100" r="73.5" fill="#FF0000" stroke="white" stroke-width="3"/>
<circle cx="100" cy="100" r="73.5" fill="#FF0000" stroke="white" stroke-width="3"/>
<circle cx="175" cy="100" r="73.5" stroke="white" stroke-width="3"/>
<path d="M68.3388 108H63.8047L69.6939 90.5455H75.3104L81.1996 108H76.6655L72.5661 94.9432H72.4297L68.3388 108ZM67.7337 101.131H77.2109V104.335H67.7337V101.131Z" fill="white"/>
<path d="M199.352 108V90.5455H206.631C207.938 90.5455 209.031 90.7301 209.912 91.0994C210.798 91.4687 211.463 91.9858 211.906 92.6506C212.355 93.3153 212.58 94.0852 212.58 94.9602C212.58 95.625 212.44 96.2188 212.162 96.7415C211.884 97.2585 211.5 97.6875 211.011 98.0284C210.523 98.3693 209.957 98.608 209.315 98.7443V98.9148C210.02 98.9489 210.67 99.1392 211.267 99.4858C211.869 99.8324 212.352 100.315 212.716 100.935C213.08 101.548 213.261 102.276 213.261 103.116C213.261 104.054 213.023 104.892 212.545 105.631C212.068 106.364 211.378 106.943 210.474 107.369C209.571 107.79 208.474 108 207.185 108H199.352ZM203.571 104.599H206.179C207.094 104.599 207.767 104.426 208.199 104.08C208.636 103.733 208.855 103.25 208.855 102.631C208.855 102.182 208.75 101.795 208.54 101.472C208.33 101.142 208.031 100.889 207.645 100.713C207.259 100.531 206.795 100.44 206.256 100.44H203.571V104.599ZM203.571 97.7216H205.906C206.366 97.7216 206.776 97.6449 207.134 97.4915C207.491 97.3381 207.77 97.1165 207.969 96.8267C208.173 96.5369 208.276 96.1875 208.276 95.7784C208.276 95.1932 208.068 94.733 207.653 94.3977C207.239 94.0625 206.679 93.8949 205.974 93.8949H203.571V97.7216Z" fill="white"/>
<path d="M27.315 218.054V214.628H39.511V218.054H27.315ZM27.315 223.918V220.491H39.511V223.918H27.315ZM51.9052 228H47.3711L53.2603 210.545H58.8768L64.766 228H60.2319L56.1325 214.943H55.9961L51.9052 228ZM51.3001 221.131H60.7773V224.335H51.3001V221.131ZM78.6885 228C74.1045 228 71.6805 225.144 71.6805 219.768V212.064H73.4085V219.84C73.4085 224.232 75.1365 226.368 78.6885 226.368C82.2405 226.368 83.9685 224.208 83.9685 219.84V212.064H85.6965V219.768C85.6965 225.144 83.2965 228 78.6885 228ZM93.364 228V210.545H100.642C101.949 210.545 103.043 210.73 103.924 211.099C104.81 211.469 105.475 211.986 105.918 212.651C106.367 213.315 106.591 214.085 106.591 214.96C106.591 215.625 106.452 216.219 106.174 216.741C105.895 217.259 105.512 217.687 105.023 218.028C104.534 218.369 103.969 218.608 103.327 218.744V218.915C104.032 218.949 104.682 219.139 105.279 219.486C105.881 219.832 106.364 220.315 106.728 220.935C107.091 221.548 107.273 222.276 107.273 223.116C107.273 224.054 107.034 224.892 106.557 225.631C106.08 226.364 105.39 226.943 104.486 227.369C103.583 227.79 102.486 228 101.196 228H93.364ZM97.5827 224.599H100.191C101.105 224.599 101.779 224.426 102.211 224.08C102.648 223.733 102.867 223.25 102.867 222.631C102.867 222.182 102.762 221.795 102.551 221.472C102.341 221.142 102.043 220.889 101.657 220.713C101.27 220.531 100.807 220.44 100.267 220.44H97.5827V224.599ZM97.5827 217.722H99.918C100.378 217.722 100.787 217.645 101.145 217.491C101.503 217.338 101.782 217.116 101.98 216.827C102.185 216.537 102.287 216.187 102.287 215.778C102.287 215.193 102.08 214.733 101.665 214.398C101.25 214.062 100.691 213.895 99.9862 213.895H97.5827V217.722Z" fill="white"/>
<rect x="1.5" y="211.5" width="17" height="17" fill="#FF0000" stroke="white" stroke-width="3"/>
</svg>
