<svg width="251" height="251" viewBox="0 0 251 251" fill="none" xmlns="http://www.w3.org/2000/svg">
<path d="M1 201H201" stroke="white" stroke-linecap="round"/>
<path d="M1 201L1 1" stroke="white" stroke-linecap="round"/>
<path d="M1.00257 1L201 200.997" stroke="white" stroke-linecap="round"/>
<line x1="1" y1="176.5" x2="26" y2="176.5" stroke="white"/>
<line x1="25.5" y1="176" x2="25.5" y2="201" stroke="white"/>
<path d="M112.731 81.002C115.272 79.3116 117.432 79.3558 119.211 81.1346C120.139 82.0627 120.589 83.1427 120.561 84.3746C120.534 85.6065 120.13 86.6119 119.351 87.3908C118.666 88.0758 117.821 88.5951 116.816 88.9487C115.821 89.3022 114.322 89.537 112.316 89.653C110.311 89.769 108.402 89.7828 106.59 89.6945L109.98 93.0836C110.764 93.868 111.372 94.321 111.803 94.4426C112.239 94.5586 112.684 94.5448 113.137 94.4011L113.46 94.7243L110.46 96.0667L103.723 89.3299L104.03 89.0233C106.792 89.2 109.087 89.1973 110.916 89.015C112.75 88.8382 114.09 88.5813 114.935 88.2443C115.786 87.9018 116.529 87.4129 117.164 86.7776C117.954 85.9877 118.31 85.1121 118.233 84.1508C118.161 83.1952 117.832 82.4245 117.247 81.8389C116.192 80.7838 114.794 80.6126 113.054 81.3252L112.731 81.002Z" fill="white"/>
<path d="M89.5391 214.867H94.5547V215.301C93.9453 215.34 93.6406 215.539 93.6406 215.898C93.6406 216.109 93.7969 216.461 94.1094 216.953L95.1289 218.57L96.2773 216.871C96.5586 216.449 96.6992 216.133 96.6992 215.922C96.6992 215.539 96.4062 215.332 95.8203 215.301V214.867H99.5117V215.301C98.6914 215.309 97.7734 216.062 96.7578 217.562L95.5859 219.297L97.4609 222.262C98.1094 223.293 98.6758 224.098 99.1602 224.676C99.6445 225.246 100.125 225.543 100.602 225.566V226H95.6914V225.566C96.3711 225.566 96.7109 225.383 96.7109 225.016C96.7109 224.773 96.4805 224.281 96.0195 223.539L94.4258 221.008L92.375 224.043C92.1094 224.441 91.9766 224.75 91.9766 224.969C91.9766 225.367 92.332 225.566 93.043 225.566V226H89.4102V225.566C90.1055 225.52 90.9141 224.812 91.8359 223.445L93.9688 220.293L92.082 217.328C91.6602 216.664 91.2695 216.164 90.9102 215.828C90.5586 215.484 90.1016 215.309 89.5391 215.301V214.867Z" fill="white"/>
<mask id="path-8-inside-1_14_115" fill="white">
<path d="M151 201C151 194.434 152.293 187.932 154.806 181.866C157.319 175.8 161.002 170.288 165.645 165.645L201 201L151 201Z"/>
</mask>
<path d="M151 201C151 194.434 152.293 187.932 154.806 181.866C157.319 175.8 161.002 170.288 165.645 165.645L201 201L151 201Z" stroke="white" stroke-width="2" mask="url(#path-8-inside-1_14_115)"/>
<path d="M131.004 166.254H132.258V177.035H134.473V178.84H132.258V183H130.242V178.84H123.539V176.93L131.004 166.254ZM130.242 168.879L124.523 177.035H130.242V168.879ZM140.086 166.523H145.828L144.938 168.363H140.086L138.984 170.742C141.211 171.156 142.859 171.949 143.93 173.121C145.008 174.293 145.547 175.637 145.547 177.152C145.547 178.863 144.883 180.312 143.555 181.5C142.234 182.688 140.75 183.281 139.102 183.281C138.414 183.281 137.805 183.129 137.273 182.824C136.742 182.512 136.477 182.133 136.477 181.688C136.477 181.445 136.559 181.246 136.723 181.09C136.895 180.934 137.082 180.855 137.285 180.855C137.637 180.855 138.059 181.016 138.551 181.336C139.293 181.812 139.965 182.051 140.566 182.051C141.41 182.051 142.199 181.676 142.934 180.926C143.668 180.176 144.035 179.285 144.035 178.254C144.035 176.777 143.398 175.504 142.125 174.434C140.859 173.355 139.168 172.797 137.051 172.758L140.086 166.523ZM151.746 166.148C152.738 166.148 153.586 166.5 154.289 167.203C155 167.906 155.355 168.758 155.355 169.758C155.355 170.742 155 171.59 154.289 172.301C153.586 173.004 152.738 173.355 151.746 173.355C150.762 173.355 149.914 173.004 149.203 172.301C148.5 171.59 148.148 170.742 148.148 169.758C148.148 168.758 148.5 167.906 149.203 167.203C149.914 166.5 150.762 166.148 151.746 166.148ZM151.746 167.133C151.043 167.133 150.43 167.383 149.906 167.883C149.391 168.375 149.133 168.996 149.133 169.746C149.133 170.465 149.387 171.082 149.895 171.598C150.402 172.105 151.02 172.359 151.746 172.359C152.473 172.359 153.09 172.105 153.598 171.598C154.105 171.082 154.359 170.465 154.359 169.746C154.359 169.027 154.102 168.414 153.586 167.906C153.078 167.391 152.465 167.133 151.746 167.133Z" fill="white"/>
</svg>
