<svg width="268" height="251" viewBox="0 0 268 251" fill="none" xmlns="http://www.w3.org/2000/svg">
<path d="M18 201H218" stroke="white" stroke-linecap="round"/>
<path d="M18 201L18 1" stroke="white" stroke-linecap="round"/>
<path d="M18.0026 1L218 200.997" stroke="white" stroke-linecap="round"/>
<line x1="18" y1="176.5" x2="43" y2="176.5" stroke="white"/>
<line x1="42.5" y1="176" x2="42.5" y2="201" stroke="white"/>
<path d="M2.77734 97.1875L6.66797 95.2539H7.11328L7.11328 109.598C7.11328 110.348 7.25391 110.863 7.53516 111.145C7.82422 111.426 8.35547 111.566 9.12891 111.566V112H3L3 111.566C3.82812 111.566 4.37891 111.426 4.65234 111.145C4.92578 110.863 5.0625 110.348 5.0625 109.598L5.0625 99.6133C5.0625 98.6133 5.00781 97.9609 4.89844 97.6562C4.78906 97.3516 4.55469 97.1992 4.19531 97.1992C3.84375 97.1992 3.44531 97.3242 3 97.5742L2.77734 97.1875Z" fill="white"/>
<path d="M129.731 81.002C132.272 79.3116 134.432 79.3558 136.211 81.1346C137.139 82.0627 137.589 83.1427 137.561 84.3746C137.534 85.6065 137.13 86.6119 136.351 87.3908C135.666 88.0758 134.821 88.5951 133.816 88.9487C132.821 89.3022 131.322 89.537 129.316 89.653C127.311 89.769 125.402 89.7828 123.59 89.6945L126.98 93.0836C127.764 93.868 128.372 94.321 128.803 94.4426C129.239 94.5586 129.684 94.5448 130.137 94.4011L130.46 94.7243L127.46 96.0667L120.723 89.3299L121.03 89.0233C123.792 89.2 126.087 89.1973 127.916 89.015C129.75 88.8382 131.09 88.5813 131.935 88.2443C132.786 87.9018 133.529 87.4129 134.164 86.7776C134.954 85.9877 135.31 85.1121 135.233 84.1508C135.161 83.1952 134.832 82.4245 134.247 81.8389C133.192 80.7838 131.794 80.6126 130.054 81.3252L129.731 81.002Z" fill="white"/>
<mask id="path-8-inside-1_14_115" fill="white">
<path d="M168 201C168 194.434 169.293 187.932 171.806 181.866C174.319 175.8 178.002 170.288 182.645 165.645L218 201L168 201Z"/>
</mask>
<path d="M168 201C168 194.434 169.293 187.932 171.806 181.866C174.319 175.8 178.002 170.288 182.645 165.645L218 201L168 201Z" stroke="white" stroke-width="2" mask="url(#path-8-inside-1_14_115)"/>
<path d="M156.104 184.24C154.792 184.24 153.704 183.872 152.84 183.136C151.992 182.384 151.36 181.32 150.944 179.944C150.528 178.552 150.32 176.888 150.32 174.952C150.32 173 150.512 171.328 150.896 169.936C151.28 168.544 151.896 167.48 152.744 166.744C153.608 166.008 154.728 165.64 156.104 165.64C157.432 165.64 158.528 166.008 159.392 166.744C160.256 167.464 160.896 168.52 161.312 169.912C161.744 171.304 161.96 172.984 161.96 174.952C161.96 176.888 161.76 178.552 161.36 179.944C160.976 181.32 160.352 182.384 159.488 183.136C158.64 183.872 157.512 184.24 156.104 184.24ZM156.104 182.488C156.936 182.488 157.616 182.248 158.144 181.768C158.688 181.288 159.096 180.536 159.368 179.512C159.64 178.488 159.792 177.152 159.824 175.504H152.456C152.488 177.136 152.624 178.464 152.864 179.488C153.12 180.512 153.512 181.272 154.04 181.768C154.568 182.248 155.256 182.488 156.104 182.488ZM152.456 173.872H159.8C159.752 172.416 159.592 171.216 159.32 170.272C159.048 169.312 158.648 168.6 158.12 168.136C157.592 167.656 156.92 167.416 156.104 167.416C155.288 167.416 154.616 167.656 154.088 168.136C153.576 168.6 153.192 169.312 152.936 170.272C152.68 171.216 152.52 172.416 152.456 173.872Z" fill="white"/>
</svg>
