<svg width="275" height="236" viewBox="0 0 275 236" fill="none" xmlns="http://www.w3.org/2000/svg">
<rect x="1.5" y="1.5" width="272" height="197" fill="#FF0000" stroke="white" stroke-width="3"/>
<circle cx="175" cy="100" r="73.5" fill="#FF0000" stroke="white" stroke-width="3"/>
<circle cx="100" cy="100" r="73.5" fill="#0000FF" stroke="white" stroke-width="3"/>
<circle cx="175" cy="100" r="73.5" fill="#0000FF" stroke="white" stroke-width="3"/>
<circle cx="100" cy="100" r="73.5" stroke="white" stroke-width="3"/>
<circle cx="175" cy="100" r="73.5" stroke="white" stroke-width="3"/>
<path d="M68.3388 108H63.8047L69.6939 90.5455H75.3104L81.1996 108H76.6655L72.5661 94.9432H72.4297L68.3388 108ZM67.7337 101.131H77.2109V104.335H67.7337V101.131Z" fill="white"/>
<path d="M199.352 108V90.5455H206.631C207.938 90.5455 209.031 90.7301 209.912 91.0994C210.798 91.4687 211.463 91.9858 211.906 92.6506C212.355 93.3153 212.58 94.0852 212.58 94.9602C212.58 95.625 212.44 96.2188 212.162 96.7415C211.884 97.2585 211.5 97.6875 211.011 98.0284C210.523 98.3693 209.957 98.608 209.315 98.7443V98.9148C210.02 98.9489 210.67 99.1392 211.267 99.4858C211.869 99.8324 212.352 100.315 212.716 100.935C213.08 101.548 213.261 102.276 213.261 103.116C213.261 104.054 213.023 104.892 212.545 105.631C212.068 106.364 211.378 106.943 210.474 107.369C209.571 107.79 208.474 108 207.185 108H199.352ZM203.571 104.599H206.179C207.094 104.599 207.767 104.426 208.199 104.08C208.636 103.733 208.855 103.25 208.855 102.631C208.855 102.182 208.75 101.795 208.54 101.472C208.33 101.142 208.031 100.889 207.645 100.713C207.259 100.531 206.795 100.44 206.256 100.44H203.571V104.599ZM203.571 97.7216H205.906C206.366 97.7216 206.776 97.6449 207.134 97.4915C207.491 97.3381 207.77 97.1165 207.969 96.8267C208.173 96.5369 208.276 96.1875 208.276 95.7784C208.276 95.1932 208.068 94.733 207.653 94.3977C207.239 94.0625 206.679 93.8949 205.974 93.8949H203.571V97.7216Z" fill="white"/>
<path d="M27.7447 221.741V218.324H39.9407V221.741H27.7447ZM27.7447 227.605V224.188H39.9407V227.605H27.7447ZM49.386 221.273C49.386 219.165 49.6701 217.227 50.2383 215.46C50.8065 213.688 51.6928 212.043 52.8974 210.526H56.9371C56.4826 211.088 56.0593 211.773 55.6673 212.58C55.2752 213.386 54.9343 214.27 54.6445 215.23C54.3604 216.19 54.136 217.185 53.9712 218.213C53.8121 219.241 53.7326 220.261 53.7326 221.273C53.7326 222.614 53.8718 223.969 54.1502 225.338C54.4286 226.702 54.8093 227.969 55.2923 229.139C55.7752 230.304 56.3235 231.261 56.9371 232.011H52.8974C51.6928 230.494 50.8065 228.852 50.2383 227.085C49.6701 225.312 49.386 223.375 49.386 221.273ZM62.5302 230H57.9961L63.8853 212.545H69.5018L75.391 230H70.8569L66.7575 216.943H66.6211L62.5302 230ZM61.9251 223.131H71.4023V226.335H61.9251V223.131ZM89.3135 230C84.7295 230 82.3055 227.144 82.3055 221.768V214.064H84.0335V221.84C84.0335 226.232 85.7615 228.368 89.3135 228.368C92.8655 228.368 94.5935 226.208 94.5935 221.84V214.064H96.3215V221.768C96.3215 227.144 93.9215 230 89.3135 230ZM103.989 230V212.545H111.267C112.574 212.545 113.668 212.73 114.549 213.099C115.435 213.469 116.1 213.986 116.543 214.651C116.992 215.315 117.216 216.085 117.216 216.96C117.216 217.625 117.077 218.219 116.799 218.741C116.52 219.259 116.137 219.687 115.648 220.028C115.159 220.369 114.594 220.608 113.952 220.744V220.915C114.657 220.949 115.307 221.139 115.904 221.486C116.506 221.832 116.989 222.315 117.353 222.935C117.716 223.548 117.898 224.276 117.898 225.116C117.898 226.054 117.659 226.892 117.182 227.631C116.705 228.364 116.015 228.943 115.111 229.369C114.208 229.79 113.111 230 111.821 230H103.989ZM108.208 226.599H110.816C111.73 226.599 112.404 226.426 112.836 226.08C113.273 225.733 113.492 225.25 113.492 224.631C113.492 224.182 113.387 223.795 113.176 223.472C112.966 223.142 112.668 222.889 112.282 222.713C111.895 222.531 111.432 222.44 110.892 222.44H108.208V226.599ZM108.208 219.722H110.543C111.003 219.722 111.412 219.645 111.77 219.491C112.128 219.338 112.407 219.116 112.605 218.827C112.81 218.537 112.912 218.187 112.912 217.778C112.912 217.193 112.705 216.733 112.29 216.398C111.875 216.062 111.316 215.895 110.611 215.895H108.208V219.722ZM126.651 221.273C126.651 223.375 126.367 225.312 125.799 227.085C125.23 228.852 124.344 230.494 123.14 232.011H119.1C119.56 231.449 119.983 230.764 120.37 229.957C120.762 229.151 121.1 228.267 121.384 227.307C121.674 226.347 121.898 225.352 122.057 224.324C122.222 223.295 122.304 222.278 122.304 221.273C122.304 219.926 122.165 218.571 121.887 217.207C121.608 215.838 121.228 214.571 120.745 213.406C120.262 212.236 119.713 211.276 119.1 210.526H123.14C124.344 212.043 125.23 213.688 125.799 215.46C126.367 217.227 126.651 219.165 126.651 221.273ZM134.639 215.247L132.056 211.403H135.747L137.477 215.247H134.639ZM148.026 220.054V216.628H160.222V220.054H148.026ZM148.026 225.918V222.491H160.222V225.918H148.026ZM172.616 230H168.082L173.971 212.545H179.588L185.477 230H180.943L176.843 216.943H176.707L172.616 230ZM172.011 223.131H181.488V226.335H172.011V223.131ZM191.873 215.247L189.291 211.403H192.981L194.711 215.247H191.873ZM211.329 230C206.745 230 204.321 227.144 204.321 221.768V214.064H206.049V221.84C206.049 226.232 207.777 228.368 211.329 228.368C214.881 228.368 216.609 226.208 216.609 221.84V214.064H218.337V221.768C218.337 227.144 215.937 230 211.329 230ZM226.005 230V212.545H233.283C234.59 212.545 235.684 212.73 236.564 213.099C237.451 213.469 238.115 213.986 238.559 214.651C239.007 215.315 239.232 216.085 239.232 216.96C239.232 217.625 239.093 218.219 238.814 218.741C238.536 219.259 238.152 219.687 237.664 220.028C237.175 220.369 236.61 220.608 235.968 220.744V220.915C236.672 220.949 237.323 221.139 237.919 221.486C238.522 221.832 239.005 222.315 239.368 222.935C239.732 223.548 239.914 224.276 239.914 225.116C239.914 226.054 239.675 226.892 239.198 227.631C238.721 228.364 238.03 228.943 237.127 229.369C236.223 229.79 235.127 230 233.837 230H226.005ZM230.223 226.599H232.831C233.746 226.599 234.419 226.426 234.851 226.08C235.289 225.733 235.507 225.25 235.507 224.631C235.507 224.182 235.402 223.795 235.192 223.472C234.982 223.142 234.684 222.889 234.297 222.713C233.911 222.531 233.448 222.44 232.908 222.44H230.223V226.599ZM230.223 219.722H232.559C233.019 219.722 233.428 219.645 233.786 219.491C234.144 219.338 234.422 219.116 234.621 218.827C234.826 218.537 234.928 218.187 234.928 217.778C234.928 217.193 234.721 216.733 234.306 216.398C233.891 216.062 233.331 215.895 232.627 215.895H230.223V219.722ZM246.459 215.247L243.877 211.403H247.567L249.297 215.247H246.459Z" fill="white"/>
<rect x="1.5" y="211.5" width="17" height="17" fill="#FF0000" stroke="white" stroke-width="3"/>
</svg>
