<svg width="275" height="234" viewBox="0 0 275 234" fill="none" xmlns="http://www.w3.org/2000/svg">
<rect x="1.5" y="1.5" width="272" height="197" fill="#0000FF" stroke="white" stroke-width="3"/>
<circle cx="175" cy="100" r="73.5" fill="#FF0000" stroke="white" stroke-width="3"/>
<path d="M170.25 36.2336C171.255 36.4643 172.175 37.3351 172.945 37.968C173.707 38.594 174.621 39.0134 175.397 39.6218C176.438 40.4379 177.258 41.5041 178.132 42.4856C179.396 43.9048 180.659 45.0958 182.215 46.2066C185.838 48.7918 189.222 51.4488 192.184 54.8283C193.527 56.3605 194.352 58.552 195.315 60.324C197.638 64.5995 200.089 68.6323 201.819 73.2012C203.284 77.073 204.48 81.0879 205.223 85.1607C205.76 88.1056 205.895 91.1063 206.54 94.0346C207.15 96.8017 206.913 99.6827 206.905 102.505C206.896 105.58 206.775 108.343 205.811 111.268C204.138 116.338 201.931 121.21 200.441 126.343C199.15 130.791 198.255 135.272 196.47 139.553C193.459 146.774 188.717 152.843 183.927 158.935C182.337 160.957 180.758 162.623 178.73 164.198C176.586 165.864 174.266 167.267 172.114 168.918C171.467 169.415 170.762 169.901 170.068 170.329C169.656 170.583 169.643 171.105 169.338 171.459C168.916 171.95 167.242 172.669 169.034 172.205C171.437 171.583 173.77 170.652 176.157 169.966C180.395 168.749 184.692 167.727 188.892 166.377C192.965 165.067 196.983 163.502 200.968 161.95C206.606 159.753 212.174 157.306 216.773 153.288C221.109 149.498 224.62 143.597 226.154 138.061C226.46 136.956 226.683 135.721 226.742 134.572C226.76 134.205 226.646 134.445 226.539 134.632C225.532 136.404 224.576 138.145 223.419 139.836C220.276 144.426 216.549 148.57 212.629 152.511C209.604 155.552 206.451 158.458 202.812 160.76C198.101 163.739 192.856 165.99 187.726 168.151C183.476 169.942 179.034 171.289 174.769 173.052C172.671 173.919 169.856 173.968 167.596 174C167.592 174 166.759 174 167.069 174C168.601 174 170.089 173.888 171.608 173.637C182.59 171.822 193.287 168.198 202.062 161.264C209.705 155.225 217.069 148.993 223.712 141.873C225.154 140.328 226.559 138.909 228.332 137.748C230.32 136.446 232.295 135.169 234.148 133.674C239.861 129.066 242.296 122.953 244.036 115.997C244.69 113.383 245.208 110.885 244.917 108.182C244.502 104.33 243.503 100.521 242.688 96.737C242.316 95.009 241.884 93.3081 241.31 91.6346C241.187 91.2742 241.281 90.4976 240.905 90.5657C240.767 90.5907 240.843 90.8396 240.834 90.9791C240.802 91.4927 240.8 92.0077 240.783 92.522C240.588 98.7267 240.199 104.917 239.892 111.117C239.723 114.516 239.235 118.312 239.73 121.725C239.924 123.063 239.878 119.022 239.831 117.671C239.571 110.252 238.987 102.841 238.129 95.4665C237.366 88.9125 235.811 82.4085 235.546 75.8028C235.526 75.3075 235.54 75.109 235.525 76.307C235.489 79.3762 235.494 80.4283 235.333 84.0011C234.88 94.0545 234.069 104.207 231.868 114.051C230.101 121.953 227.204 129.506 223.581 136.74C222.814 138.271 221.806 140.738 220.43 141.994C218.241 143.991 219.224 136.082 219.67 133.16C221.026 124.284 223.139 115.489 224.867 106.68C226.887 96.3874 228.918 86.0947 230.835 75.7827C232.209 68.3895 233.744 61.3875 231.442 54.0216C229.987 49.3634 227.888 45.1733 224.006 42.1024C218.735 37.9322 212.786 34.3458 206.662 31.5748C205.192 30.9098 203.579 29.954 201.9 30.0017C200.785 30.0334 200.982 32.3744 200.988 32.9462C201.022 36.1125 201.86 39.0944 203.42 41.8503C205.713 45.9014 209.28 48.7058 212.436 52.0149C214.576 54.2575 217.776 56.9945 218.718 60.0619C220.384 65.4882 217.338 71.8573 215.435 76.7507C213.318 82.1966 211.016 87.6917 210.775 93.5909C210.664 96.2946 210.734 99.013 210.734 101.718C210.734 106.46 208.137 110.768 207.269 115.372" stroke="#0000FF" stroke-width="37" stroke-linecap="round"/>
<path d="M140.963 29.5221C142.736 31.0977 144.348 32.7649 145.949 34.5293C147.642 36.3961 149.109 37.683 151.151 39.1238C154.175 41.2569 156.881 44.0738 159.689 46.4989C161.166 47.7745 162.547 49.1019 163.946 50.4526C166.551 52.9676 167.728 56.5279 169.747 59.4787C172.266 63.1606 173.336 67.007 174.591 71.3288C175.293 73.747 175.776 76.177 176.503 78.617C177.133 80.7343 177.719 82.6409 177.719 84.8299C177.719 87.9821 177.929 90.6712 178.794 93.6821C179.098 94.7381 180.787 98.7486 179.674 99.9928C178.168 101.676 177.719 104.161 177.719 106.358C177.719 107.21 178.287 107.926 178.306 108.747C178.332 109.895 178.512 111.259 178.11 112.343C177.736 113.354 177.73 114.773 177.524 115.851C177.175 117.669 177.071 119.514 176.503 121.282C176.09 122.566 175.327 123.811 174.776 125.051C174.196 126.355 173.2 127.852 172.94 129.265C172.662 130.772 172.882 132.356 172.831 133.881C172.784 135.306 171.502 136.625 170.833 137.792C169.021 140.953 166.689 144.186 165.902 147.784C165.595 149.188 164.8 150.155 163.794 151.173C161.781 153.212 159.999 155.123 158.32 157.473C157.398 158.764 156.801 160.237 155.637 161.361C154.565 162.398 153.457 163.432 152.27 164.337C150.52 165.673 148.735 166.966 147.024 168.335M142.527 168.53C143.382 168.53 144.107 167.512 144.678 166.966C145.667 166.018 146.84 165.175 147.904 164.305C148.506 163.812 148.851 163.156 149.327 162.556C149.39 162.476 150.012 161.719 149.49 162.154C147.751 163.603 145.776 164.735 143.896 165.988M140.181 166.771C141.436 166.173 142.505 165.412 143.635 164.598C145.625 163.166 147.697 161.851 149.674 160.406C151.814 158.841 154.616 157.552 156.474 155.637C159.535 152.483 163.602 149.647 165.597 145.655M151.716 157.19C155.062 154.617 157.705 151.465 160.797 148.631C162.858 146.742 164.566 145.216 165.587 142.538C166.585 139.916 167.968 137.613 169.214 135.12C169.604 134.34 170.159 133.721 170.67 133.023C171.44 131.971 171.909 130.713 172.636 129.624M139.204 31.0862C140.362 31.4998 141.431 32.1602 142.44 32.8566C143.342 33.4784 144.523 34.407 145.547 34.7792C146.268 35.0413 147.116 35.7486 147.763 36.2129C149.532 37.4849 151.01 39.0691 152.607 40.5359C153.872 41.698 154.768 42.9565 155.724 44.37C156.389 45.3527 156.97 46.8306 157.875 47.596C158.496 48.1219 159.205 48.619 159.71 49.2687C160.214 49.9157 160.407 50.834 161.025 51.4193C162.297 52.6245 163.429 54.0927 164.663 55.3729C165.731 56.4802 166.31 57.9926 167.259 59.1528C168.573 60.759 169.745 62.7204 170.442 64.6705C170.678 65.3323 171.159 65.94 171.463 66.5822C171.751 67.1921 171.766 67.9502 172.245 68.4287M176.546 77.2267C176.359 75.914 175.49 74.7302 175.384 73.4034C175.296 72.311 174.975 71.0902 174.287 70.1992C173.617 69.3326 172.597 69.172 171.854 68.4287M174.786 77.2267C174.582 76.1013 173.881 75.0117 173.635 73.903C173.443 73.0396 173.529 71.9185 173.027 71.1658M177.524 96.1912C177.524 97.256 177.719 98.2775 177.719 99.3194" stroke="#0000FF" stroke-width="9" stroke-linecap="round"/>
<path d="M180.261 153.476C185.249 149.255 193.586 146.717 196.173 140.105C196.576 139.076 196.337 137.476 196.173 136.456C195.805 134.162 195.169 131.804 195.12 129.471C195.065 126.885 197.207 124.955 198.356 122.748C200.326 118.967 200.893 114.025 200.985 109.812C201.034 107.559 201.752 105.336 201.919 103.078C202.185 99.4806 202.472 96.1545 201.68 92.5525C201.128 90.0423 200.285 87.6005 200.007 85.0362C199.604 81.3061 199.578 77.5796 199.269 73.8378C199.069 71.4238 198.586 69.0096 198.161 66.6257C197.63 63.6496 197.125 60.7964 195.988 57.9689C193.262 51.1888 187.936 45.6365 182.715 40.6771C181.804 39.8108 180.89 38.9489 180 38.0594C179.592 37.6516 178.266 36.8492 178.838 36.7777C179.455 36.7006 180.62 38.0932 181.043 38.5156" stroke="#0000FF" stroke-width="37" stroke-linecap="round"/>
<path d="M195.902 126.104C195.375 125.511 195.845 123.708 195.956 123.074C196.437 120.334 197.425 117.756 198.378 115.156C200.79 108.579 201.264 101.792 201.365 94.8335C201.482 86.778 201.732 78.287 199.388 70.5141C198.207 66.5991 196.751 62.7785 194.587 59.294C191.754 54.732 188.205 50.7247 185.235 46.2708C184.192 44.7051 183.512 42.8188 182.683 41.1332C181.513 38.7549 180.06 36.4862 178.697 34.2143" stroke="#0000FF" stroke-width="37" stroke-linecap="round"/>
<path d="M158 30C160.78 30 163.58 32.0379 165.994 33.2694C167.929 34.2563 169.797 35.381 171.686 36.4518C173.604 37.5395 175.624 38.4409 177.421 39.7321C180.326 41.8194 183.132 44.0715 185.122 47.0746C188.111 51.5867 190.388 56.2759 192.019 61.4338C194.024 67.7734 198.676 73.0033 201.86 78.7473C202.428 79.7723 203.515 81.611 202.479 82.5923C200.823 84.1607 198.616 83.9747 196.516 84.5474" stroke="#0000FF" stroke-width="37" stroke-linecap="round"/>
<path d="M143.7 37.9291C143.79 38.6483 145.824 39.7469 146.437 40.0797C146.897 40.3292 146.528 40.2958 146.198 40.2752C145.209 40.2133 144.255 39.6755 143.505 39.0587C143.009 38.6513 141.455 37.9505 142.571 37.777C143.767 37.5909 145.234 38.7637 145.851 39.6886" stroke="#0000FF" stroke-linecap="round"/>
<circle cx="175" cy="100" r="73.5" stroke="white" stroke-width="3"/>
<circle cx="100" cy="100" r="73.5" stroke="white" stroke-width="3"/>
<path d="M68.3388 108H63.8047L69.6939 90.5455H75.3104L81.1996 108H76.6655L72.5661 94.9432H72.4297L68.3388 108ZM67.7337 101.131H77.2109V104.335H67.7337V101.131Z" fill="white"/>
<path d="M199.352 108V90.5455H206.631C207.938 90.5455 209.031 90.7301 209.912 91.0994C210.798 91.4687 211.463 91.9858 211.906 92.6506C212.355 93.3153 212.58 94.0852 212.58 94.9602C212.58 95.625 212.44 96.2188 212.162 96.7415C211.884 97.2585 211.5 97.6875 211.011 98.0284C210.523 98.3693 209.957 98.608 209.315 98.7443V98.9148C210.02 98.9489 210.67 99.1392 211.267 99.4858C211.869 99.8324 212.352 100.315 212.716 100.935C213.08 101.548 213.261 102.276 213.261 103.116C213.261 104.054 213.023 104.892 212.545 105.631C212.068 106.364 211.378 106.943 210.474 107.369C209.571 107.79 208.474 108 207.185 108H199.352ZM203.571 104.599H206.179C207.094 104.599 207.767 104.426 208.199 104.08C208.636 103.733 208.855 103.25 208.855 102.631C208.855 102.182 208.75 101.795 208.54 101.472C208.33 101.142 208.031 100.889 207.645 100.713C207.259 100.531 206.795 100.44 206.256 100.44H203.571V104.599ZM203.571 97.7216H205.906C206.366 97.7216 206.776 97.6449 207.134 97.4915C207.491 97.3381 207.77 97.1165 207.969 96.8267C208.173 96.5369 208.276 96.1875 208.276 95.7784C208.276 95.1932 208.068 94.733 207.653 94.3977C207.239 94.0625 206.679 93.8949 205.974 93.8949H203.571V97.7216Z" fill="white"/>
<path d="M27.315 218.054V214.628H39.511V218.054H27.315ZM27.315 223.918V220.491H39.511V223.918H27.315ZM51.9052 228H47.3711L53.2603 210.545H58.8768L64.766 228H60.2319L56.1325 214.943H55.9961L51.9052 228ZM51.3001 221.131H60.7773V224.335H51.3001V221.131ZM71.6805 228V220.296C71.6805 214.92 74.1045 212.064 78.6885 212.064C83.2965 212.064 85.6965 214.92 85.6965 220.296V228H83.9685V220.224C83.9685 215.856 82.2405 213.696 78.6885 213.696C75.1365 213.696 73.4085 215.832 73.4085 220.224V228H71.6805ZM93.364 228V210.545H100.642C101.949 210.545 103.043 210.73 103.924 211.099C104.81 211.469 105.475 211.986 105.918 212.651C106.367 213.315 106.591 214.085 106.591 214.96C106.591 215.625 106.452 216.219 106.174 216.741C105.895 217.259 105.512 217.687 105.023 218.028C104.534 218.369 103.969 218.608 103.327 218.744V218.915C104.032 218.949 104.682 219.139 105.279 219.486C105.881 219.832 106.364 220.315 106.728 220.935C107.091 221.548 107.273 222.276 107.273 223.116C107.273 224.054 107.034 224.892 106.557 225.631C106.08 226.364 105.39 226.943 104.486 227.369C103.583 227.79 102.486 228 101.196 228H93.364ZM97.5827 224.599H100.191C101.105 224.599 101.779 224.426 102.211 224.08C102.648 223.733 102.867 223.25 102.867 222.631C102.867 222.182 102.762 221.795 102.551 221.472C102.341 221.142 102.043 220.889 101.657 220.713C101.27 220.531 100.807 220.44 100.267 220.44H97.5827V224.599ZM97.5827 217.722H99.918C100.378 217.722 100.787 217.645 101.145 217.491C101.503 217.338 101.782 217.116 101.98 216.827C102.185 216.537 102.287 216.187 102.287 215.778C102.287 215.193 102.08 214.733 101.665 214.398C101.25 214.062 100.691 213.895 99.9862 213.895H97.5827V217.722Z" fill="white"/>
<rect x="1.5" y="211.5" width="17" height="17" fill="#FF0000" stroke="white" stroke-width="3"/>
</svg>
