<svg width="204" height="202" viewBox="0 0 204 202" fill="none" xmlns="http://www.w3.org/2000/svg">
<path d="M21.4697 201.53C21.7626 201.823 22.2374 201.823 22.5303 201.53L27.3033 196.757C27.5962 196.464 27.5962 195.99 27.3033 195.697C27.0104 195.404 26.5355 195.404 26.2426 195.697L22 199.939L17.7574 195.697C17.4645 195.404 16.9896 195.404 16.6967 195.697C16.4038 195.99 16.4038 196.464 16.6967 196.757L21.4697 201.53ZM22.5303 0.46967C22.2374 0.176777 21.7626 0.176777 21.4697 0.46967L16.6967 5.24264C16.4038 5.53553 16.4038 6.01041 16.6967 6.3033C16.9896 6.59619 17.4645 6.59619 17.7574 6.3033L22 2.06066L26.2426 6.3033C26.5355 6.59619 27.0104 6.59619 27.3033 6.3033C27.5962 6.01041 27.5962 5.53553 27.3033 5.24264L22.5303 0.46967ZM22.75 201L22.75 1H21.25L21.25 201H22.75Z" fill="white"/>
<path d="M2.46967 179.47C2.17678 179.763 2.17678 180.237 2.46967 180.53L7.24264 185.303C7.53553 185.596 8.01041 185.596 8.3033 185.303C8.59619 185.01 8.59619 184.536 8.3033 184.243L4.06066 180L8.3033 175.757C8.59619 175.464 8.59619 174.99 8.3033 174.697C8.01041 174.404 7.53553 174.404 7.24264 174.697L2.46967 179.47ZM203.53 180.53C203.823 180.237 203.823 179.763 203.53 179.47L198.757 174.697C198.464 174.404 197.99 174.404 197.697 174.697C197.404 174.99 197.404 175.464 197.697 175.757L201.939 180L197.697 184.243C197.404 184.536 197.404 185.01 197.697 185.303C197.99 185.596 198.464 185.596 198.757 185.303L203.53 180.53ZM3 180.75H203V179.25H3V180.75Z" fill="white"/>
<path d="M90.6035 193V192.701C91.0605 192.701 91.3652 192.629 91.5176 192.484C91.6699 192.336 91.7969 192.092 91.8984 191.752L93.6328 185.348C92.4609 185.348 91.584 185.936 91.002 187.111L90.6973 187.029L91.166 184.938H97.7285L97.2891 187.281L96.9844 187.258C96.9844 186.617 96.8516 186.139 96.5859 185.822C96.3242 185.506 95.9238 185.348 95.3848 185.348L93.7559 191.307C93.6934 191.521 93.6484 191.705 93.6211 191.857C93.5938 192.01 93.5801 192.129 93.5801 192.215C93.5801 192.422 93.6602 192.555 93.8203 192.613C93.9844 192.672 94.2246 192.701 94.541 192.701V193H90.6035ZM99.8965 191.389L100.172 191.559C99.7188 192.25 99.3477 192.691 99.0586 192.883C98.7734 193.074 98.4883 193.17 98.2031 193.17C97.6406 193.17 97.3594 192.902 97.3594 192.367C97.3594 192.188 97.4238 191.863 97.5527 191.395L98.1504 189.18C98.248 188.832 98.2969 188.617 98.2969 188.535C98.2969 188.281 98.0879 188.154 97.6699 188.154H97.5879V187.832C98.5645 187.762 99.373 187.646 100.014 187.486L98.9473 191.389C98.8496 191.74 98.8008 191.994 98.8008 192.15C98.8008 192.205 98.8184 192.25 98.8535 192.285C98.8887 192.32 98.9355 192.338 98.9941 192.338C99.1816 192.338 99.4824 192.021 99.8965 191.389ZM98.8301 185.641C98.8301 185.418 98.9062 185.229 99.0586 185.072C99.2148 184.916 99.4062 184.838 99.6328 184.838C99.8555 184.838 100.047 184.918 100.207 185.078C100.371 185.234 100.453 185.426 100.453 185.652C100.453 185.855 100.379 186.041 100.23 186.209C100.082 186.373 99.8711 186.455 99.5977 186.455C99.4375 186.455 99.2695 186.385 99.0938 186.244C98.918 186.104 98.8301 185.902 98.8301 185.641ZM102.756 189.83C103.479 188.756 104.014 188.098 104.361 187.855C104.713 187.609 105.053 187.486 105.381 187.486C105.596 187.486 105.779 187.555 105.932 187.691C106.088 187.824 106.166 188.008 106.166 188.242C106.166 188.555 106.068 188.959 105.873 189.455C106.494 188.564 106.955 188.014 107.256 187.803C107.561 187.592 107.891 187.486 108.246 187.486C108.539 187.486 108.762 187.578 108.914 187.762C109.066 187.941 109.143 188.158 109.143 188.412C109.143 188.729 108.961 189.404 108.598 190.439C108.422 190.947 108.289 191.338 108.199 191.611C108.113 191.885 108.07 192.07 108.07 192.168C108.07 192.211 108.082 192.25 108.105 192.285C108.129 192.32 108.18 192.338 108.258 192.338H108.287C108.373 192.338 108.477 192.266 108.598 192.121C108.723 191.977 108.881 191.764 109.072 191.482L109.348 191.635C108.973 192.26 108.639 192.672 108.346 192.871C108.057 193.07 107.754 193.17 107.438 193.17C106.898 193.17 106.629 192.906 106.629 192.379C106.629 192.027 106.807 191.328 107.162 190.281C107.521 189.223 107.701 188.668 107.701 188.617C107.701 188.438 107.613 188.348 107.438 188.348C107.141 188.348 106.775 188.66 106.342 189.285C105.912 189.91 105.42 191.148 104.865 193H103.424L104.455 189.754C104.65 189.148 104.748 188.771 104.748 188.623C104.748 188.439 104.676 188.348 104.531 188.348C104.254 188.348 103.861 188.719 103.354 189.461C102.846 190.199 102.381 191.379 101.959 193H100.518L101.42 189.842C101.643 189.088 101.754 188.633 101.754 188.477C101.754 188.262 101.582 188.154 101.238 188.154H101.092V187.832C101.092 187.832 101.34 187.812 101.836 187.773C102.336 187.73 102.887 187.635 103.488 187.486L102.756 189.83ZM111.668 190.826C111.621 191.045 111.598 191.234 111.598 191.395C111.598 192.066 111.873 192.402 112.424 192.402C112.838 192.402 113.291 192.033 113.783 191.295L114.129 191.5C113.812 192.074 113.469 192.496 113.098 192.766C112.73 193.035 112.338 193.17 111.92 193.17C111.412 193.17 110.979 193.01 110.619 192.689C110.264 192.369 110.086 191.93 110.086 191.371C110.086 190.473 110.434 189.602 111.129 188.758C111.824 187.91 112.627 187.486 113.537 187.486C113.893 187.486 114.189 187.576 114.428 187.756C114.666 187.932 114.785 188.193 114.785 188.541C114.785 188.99 114.512 189.449 113.965 189.918C113.422 190.387 112.656 190.689 111.668 190.826ZM111.756 190.434C112.291 190.309 112.75 190.059 113.133 189.684C113.52 189.305 113.713 188.838 113.713 188.283C113.713 187.994 113.596 187.85 113.361 187.85C113.072 187.85 112.771 188.094 112.459 188.582C112.15 189.066 111.916 189.684 111.756 190.434Z" fill="white"/>
<path d="M13 123.551L12.7012 123.551C12.6543 123.219 12.5605 122.994 12.4199 122.877C12.2793 122.756 12.0723 122.658 11.7988 122.584L6.67774 121.201C6.16992 121.061 5.85156 120.99 5.72266 120.99C5.56641 120.99 5.45899 121.033 5.40039 121.119C5.33789 121.205 5.2832 121.455 5.23633 121.869L4.9375 121.869L4.9375 118.359C4.9375 117.211 5.21875 116.32 5.78125 115.687C6.34375 115.055 7.17578 114.738 8.27735 114.738C9.59375 114.738 10.7109 115.234 11.6289 116.227C12.543 117.219 13 118.523 13 120.141L13 123.551ZM12.1563 120.879C12.3242 120.879 12.4434 120.826 12.5137 120.721C12.5801 120.611 12.6133 120.42 12.6133 120.146C12.6133 119.057 12.1328 118.178 11.1719 117.51C10.207 116.838 8.99805 116.502 7.54492 116.502C6.06445 116.502 5.32422 117.154 5.32422 118.459C5.32422 118.74 5.37305 118.924 5.4707 119.01C5.56836 119.096 5.68945 119.158 5.83399 119.197L11.248 120.65C11.4121 120.689 11.584 120.738 11.7637 120.797C11.9434 120.852 12.0742 120.879 12.1563 120.879ZM11.3887 111.768L11.5586 111.492C12.25 111.945 12.6914 112.316 12.8828 112.605C13.0742 112.891 13.1699 113.176 13.1699 113.461C13.1699 114.023 12.9023 114.305 12.3672 114.305C12.1875 114.305 11.8633 114.24 11.3945 114.111L9.17969 113.514C8.83203 113.416 8.61719 113.367 8.53516 113.367C8.28125 113.367 8.1543 113.576 8.1543 113.994L8.1543 114.076L7.83203 114.076C7.76172 113.1 7.64649 112.291 7.48633 111.65L11.3887 112.717C11.7402 112.814 11.9941 112.863 12.1504 112.863C12.2051 112.863 12.25 112.846 12.2852 112.811C12.3203 112.775 12.3379 112.729 12.3379 112.67C12.3379 112.482 12.0215 112.182 11.3887 111.768ZM5.64063 112.834C5.41797 112.834 5.22852 112.758 5.07227 112.605C4.91602 112.449 4.83789 112.258 4.83789 112.031C4.83789 111.809 4.91797 111.617 5.07813 111.457C5.23438 111.293 5.42578 111.211 5.65235 111.211C5.85547 111.211 6.04102 111.285 6.20899 111.434C6.37305 111.582 6.45508 111.793 6.45508 112.066C6.45508 112.227 6.38477 112.395 6.24414 112.57C6.10352 112.746 5.90235 112.834 5.64063 112.834ZM11.2012 110.684L11.2363 110.367C11.7324 110.32 12.1191 110.191 12.3965 109.98C12.6699 109.77 12.8066 109.514 12.8066 109.213C12.8066 108.99 12.7422 108.82 12.6133 108.703C12.4805 108.582 12.3379 108.521 12.1855 108.521C12.0137 108.521 11.8633 108.553 11.7344 108.615C11.6016 108.678 11.4355 108.793 11.2363 108.961C10.4668 109.605 9.95313 109.975 9.69531 110.068C9.4336 110.162 9.19336 110.209 8.97461 110.209C8.54492 110.209 8.18945 110.064 7.9082 109.775C7.62695 109.486 7.48633 109.082 7.48633 108.562C7.48633 108.352 7.53125 108.137 7.62109 107.918C7.70703 107.695 7.75 107.523 7.75 107.402C7.75 107.281 7.66797 107.17 7.50391 107.068L7.50391 106.723L9.36133 106.998L9.33789 107.314C8.36133 107.475 7.87305 107.836 7.87305 108.398C7.87305 108.637 7.9375 108.809 8.06641 108.914C8.19141 109.016 8.34766 109.066 8.53516 109.066C8.64844 109.066 8.77539 109.027 8.91602 108.949C9.05274 108.871 9.19922 108.768 9.35547 108.639C10.0391 108.096 10.5039 107.75 10.75 107.602C10.9922 107.453 11.2676 107.379 11.5762 107.379C12.0527 107.379 12.4375 107.549 12.7305 107.889C13.0234 108.225 13.1699 108.648 13.1699 109.16C13.1699 109.363 13.1309 109.588 13.0527 109.834C12.9707 110.076 12.9297 110.232 12.9297 110.303C12.9297 110.479 13.0098 110.59 13.1699 110.637L13.1699 110.959L11.2012 110.684ZM7.65625 102.979L8.17188 102.979L8.17188 103.934L11.3594 104.83C11.7383 104.932 11.9941 104.982 12.127 104.982C12.1934 104.982 12.2461 104.967 12.2852 104.936C12.3203 104.9 12.3379 104.852 12.3379 104.789C12.3379 104.68 12.2109 104.521 11.957 104.314C11.6992 104.107 11.5098 103.973 11.3887 103.91L11.5586 103.635C12.2773 104.107 12.7266 104.486 12.9063 104.771C13.082 105.053 13.1699 105.33 13.1699 105.604C13.1699 105.826 13.1074 106.023 12.9824 106.195C12.8535 106.363 12.6563 106.447 12.3906 106.447C12.1719 106.447 11.7109 106.348 11.0078 106.148L8.17188 105.352L8.17188 105.943L7.73828 105.943C7.38281 105.045 6.76172 104.314 5.875 103.752L5.875 103.336L7.65625 103.816L7.65625 102.979ZM11.6699 99.9609C12.3027 100.375 12.7109 100.727 12.8945 101.016C13.0781 101.301 13.1699 101.604 13.1699 101.924C13.1699 102.33 13.0332 102.648 12.7598 102.879C12.4863 103.109 12.0977 103.225 11.5938 103.225C10.7188 103.225 9.81641 102.867 8.88672 102.152C7.95313 101.434 7.48633 100.709 7.48633 99.9785C7.48633 99.6816 7.58203 99.4531 7.77344 99.293C7.96484 99.1289 8.15039 99.0469 8.33008 99.0469C8.33008 99.0469 8.09961 98.9707 7.63867 98.8184L7.55664 97.4941L10.9492 98.5137C11.4844 98.6738 11.877 98.7539 12.127 98.7539C12.2637 98.7539 12.332 98.6973 12.332 98.584C12.332 98.4355 12.0547 98.1562 11.5 97.7461L11.6758 97.4941C12.6836 98.1348 13.1875 98.7324 13.1875 99.2871C13.1875 99.5098 13.1152 99.7012 12.9707 99.8613C12.8223 100.021 12.6328 100.102 12.4023 100.102C12.2539 100.102 12.0098 100.055 11.6699 99.9609ZM11.623 101.713C11.8496 101.713 12.0215 101.662 12.1387 101.561C12.2559 101.455 12.3145 101.334 12.3145 101.197C12.3145 100.795 11.8711 100.383 10.9844 99.9609C10.0938 99.5352 9.30664 99.3223 8.62305 99.3223C8.20508 99.3223 7.99609 99.4727 7.99609 99.7734C7.99609 100.195 8.45703 100.625 9.37891 101.062C10.3008 101.496 11.0488 101.713 11.623 101.713ZM13 97.043L9.95313 96.1875C9.06641 95.9336 8.56836 95.8066 8.45899 95.8066C8.33008 95.8066 8.24805 95.8555 8.21289 95.9531C8.17383 96.0469 8.1543 96.2187 8.1543 96.4687L7.83203 96.4687C7.83203 95.8164 7.7168 95.0176 7.48633 94.0723L9.83008 94.8223C9.12305 94.3574 8.55664 93.9336 8.13086 93.5508C7.70117 93.168 7.48633 92.7168 7.48633 92.1973C7.48633 91.6152 7.80859 91.3242 8.45313 91.3242C8.75 91.3242 9.41797 91.502 10.457 91.8574C11.1523 92.1035 11.5957 92.252 11.7871 92.3027C11.9746 92.3535 12.082 92.3789 12.1094 92.3789C12.1992 92.3789 12.2598 92.3652 12.291 92.3379C12.3223 92.3105 12.3379 92.2598 12.3379 92.1855C12.3379 92.0332 12.0527 91.7617 11.4824 91.3711L11.6348 91.0957C12.2246 91.4434 12.6289 91.7617 12.8477 92.0508C13.0625 92.3398 13.1699 92.6445 13.1699 92.9648C13.1699 93.5312 12.9063 93.8145 12.3789 93.8145C12.0391 93.8145 11.3418 93.6406 10.2871 93.293C9.65039 93.0781 9.23438 92.9375 9.03906 92.8711C8.84375 92.8008 8.70703 92.7656 8.62891 92.7656C8.53125 92.7656 8.46094 92.791 8.41797 92.8418C8.37109 92.8887 8.34766 92.959 8.34766 93.0527C8.34766 93.3184 8.67578 93.6719 9.33203 94.1133C9.98438 94.5547 10.7422 94.9199 11.6055 95.209C12.0664 95.3535 12.5313 95.4844 13 95.6016L13 97.043ZM11.2949 86.3848L11.5117 86.0391C12.2227 86.5234 12.6777 86.9453 12.877 87.3047C13.0723 87.6602 13.1699 88.0293 13.1699 88.4121C13.1699 88.9473 13.002 89.375 12.666 89.6953C12.3262 90.0156 11.8867 90.1758 11.3477 90.1758C10.4453 90.1758 9.57617 89.8262 8.74023 89.127C7.9043 88.4277 7.48633 87.6582 7.48633 86.8184C7.48633 86.416 7.57813 86.0918 7.76172 85.8457C7.94531 85.5996 8.19336 85.4766 8.50586 85.4766C8.79883 85.4766 9.01563 85.5508 9.15625 85.6992C9.29297 85.8437 9.36133 86.0273 9.36133 86.25C9.36133 86.4023 9.30859 86.5527 9.20313 86.7012C9.09375 86.8457 8.93359 86.918 8.72266 86.918C8.60156 86.918 8.47266 86.8789 8.33594 86.8008C8.19922 86.7109 8.10938 86.666 8.06641 86.666C7.92188 86.666 7.84961 86.7539 7.84961 86.9297C7.84961 87.3516 8.25391 87.7461 9.0625 88.1133C9.86719 88.4805 10.584 88.6641 11.2129 88.6641C12.0059 88.6641 12.4023 88.377 12.4023 87.8027C12.4023 87.3418 12.0332 86.8691 11.2949 86.3848ZM10.8262 83.3086C11.0449 83.3555 11.2344 83.3789 11.3945 83.3789C12.0664 83.3789 12.4023 83.1035 12.4023 82.5527C12.4023 82.1387 12.0332 81.6855 11.2949 81.1934L11.5 80.8477C12.0742 81.1641 12.4961 81.5078 12.7656 81.8789C13.0352 82.2461 13.1699 82.6387 13.1699 83.0566C13.1699 83.5645 13.0098 83.998 12.6895 84.3574C12.3691 84.7129 11.9297 84.8906 11.3711 84.8906C10.4727 84.8906 9.60156 84.543 8.75781 83.8477C7.91016 83.1523 7.48633 82.3496 7.48633 81.4395C7.48633 81.084 7.57617 80.7871 7.75586 80.5488C7.93164 80.3105 8.19336 80.1914 8.54102 80.1914C8.99023 80.1914 9.44922 80.4648 9.91797 81.0117C10.3867 81.5547 10.6895 82.3203 10.8262 83.3086ZM10.4336 83.2207C10.3086 82.6855 10.0586 82.2266 9.68359 81.8437C9.30469 81.457 8.83789 81.2637 8.2832 81.2637C7.99414 81.2637 7.84961 81.3809 7.84961 81.6152C7.84961 81.9043 8.09375 82.2051 8.58203 82.5176C9.06641 82.8262 9.68359 83.0605 10.4336 83.2207Z" fill="white"/>
<path d="M22.5 180C22.5 121 53.5 4.5 194.5 3" stroke="white" stroke-width="2"/>
</svg>
