<svg width="199" height="205" viewBox="0 0 199 205" fill="none" xmlns="http://www.w3.org/2000/svg">
<circle cx="99.5" cy="100.5" r="4.5" fill="white"/>
<path d="M0 204C35.7523 204 100.92 188.521 99.9901 101" stroke="white" stroke-width="2"/>
<path d="M100 101C100 67.6667 117.663 1.84746 198 1" stroke="white" stroke-width="2"/>
<path d="M109.598 96.0625V95.5254C110.151 95.5254 110.506 95.4049 110.662 95.1641C110.818 94.9232 110.971 94.5163 111.121 93.9434L113.318 85.4375C113.455 84.9167 113.523 84.5944 113.523 84.4707C113.523 84.2428 113.455 84.0964 113.318 84.0312C113.188 83.9596 113.006 83.9238 112.771 83.9238H112.459V83.3867C113.266 83.2956 114.549 83.1035 116.307 82.8105L115.564 84.998C116.574 83.5397 117.612 82.8105 118.68 82.8105C120.125 82.8105 120.848 83.6602 120.848 85.3594C120.848 86.8047 120.301 88.3216 119.207 89.9102C118.113 91.4922 116.834 92.2832 115.369 92.2832C115.167 92.2832 114.946 92.2441 114.705 92.166C114.471 92.0879 114.249 91.9805 114.041 91.8438L113.436 94.1387C113.344 94.4967 113.299 94.7441 113.299 94.8809C113.299 95.1413 113.393 95.3138 113.582 95.3984C113.771 95.4831 114.106 95.5254 114.588 95.5254V96.0625H109.598ZM114.246 90.8477C114.246 91.0625 114.321 91.2415 114.471 91.3848C114.62 91.528 114.799 91.5996 115.008 91.5996C115.737 91.5996 116.473 90.8607 117.215 89.3828C117.957 87.8984 118.328 86.5182 118.328 85.2422C118.328 84.5521 118.084 84.207 117.596 84.207C116.6 84.207 115.792 85.2194 115.174 87.2441C114.555 89.2689 114.246 90.4701 114.246 90.8477ZM121.922 89.2852C121.922 87.6836 122.501 86.2057 123.66 84.8516C124.819 83.4909 126.18 82.8105 127.742 82.8105C128.595 82.8105 129.324 83.084 129.93 83.6309C130.542 84.1712 130.848 84.9329 130.848 85.916C130.848 87.4264 130.291 88.8652 129.178 90.2324C128.071 91.5996 126.733 92.2832 125.164 92.2832C124.311 92.2832 123.556 92.026 122.898 91.5117C122.247 90.9909 121.922 90.2487 121.922 89.2852ZM124.285 90.3203C124.285 91.2253 124.63 91.6777 125.32 91.6777C126.134 91.6777 126.863 90.8118 127.508 89.0801C128.159 87.3483 128.484 85.8802 128.484 84.6758C128.484 83.8359 128.162 83.416 127.518 83.416C126.632 83.416 125.87 84.2754 125.232 85.9941C124.601 87.7129 124.285 89.1549 124.285 90.3203ZM136.268 89.3145L136.727 89.5977C135.971 90.75 135.353 91.4857 134.871 91.8047C134.396 92.1237 133.921 92.2832 133.445 92.2832C132.508 92.2832 132.039 91.8372 132.039 90.9453C132.039 90.6458 132.146 90.1055 132.361 89.3242L133.357 85.6328C133.52 85.0534 133.602 84.6953 133.602 84.5586C133.602 84.1354 133.253 83.9238 132.557 83.9238H132.42V83.3867C134.048 83.2695 135.395 83.0775 136.463 82.8105L134.686 89.3145C134.523 89.9004 134.441 90.3236 134.441 90.584C134.441 90.6751 134.471 90.75 134.529 90.8086C134.588 90.8672 134.666 90.8965 134.764 90.8965C135.076 90.8965 135.577 90.3691 136.268 89.3145ZM134.49 79.7344C134.49 79.3633 134.617 79.0475 134.871 78.7871C135.132 78.5267 135.451 78.3965 135.828 78.3965C136.199 78.3965 136.518 78.5299 136.785 78.7969C137.059 79.0573 137.195 79.3763 137.195 79.7539C137.195 80.0924 137.072 80.4017 136.824 80.6816C136.577 80.9551 136.225 81.0918 135.77 81.0918C135.503 81.0918 135.223 80.9746 134.93 80.7402C134.637 80.5059 134.49 80.1706 134.49 79.7344ZM137.449 92L138.875 86.9219C139.298 85.444 139.51 84.6139 139.51 84.4316C139.51 84.2168 139.428 84.0801 139.266 84.0215C139.109 83.9564 138.823 83.9238 138.406 83.9238V83.3867C139.493 83.3867 140.825 83.1947 142.4 82.8105L141.15 86.7168C141.925 85.5384 142.632 84.5944 143.27 83.8848C143.908 83.1686 144.66 82.8105 145.525 82.8105C146.495 82.8105 146.98 83.3477 146.98 84.4219C146.98 84.9167 146.684 86.0299 146.092 87.7617C145.682 88.9206 145.434 89.6595 145.35 89.9785C145.265 90.291 145.223 90.4701 145.223 90.5156C145.223 90.6654 145.245 90.7663 145.291 90.8184C145.337 90.8704 145.421 90.8965 145.545 90.8965C145.799 90.8965 146.251 90.4212 146.902 89.4707L147.361 89.7246C146.782 90.7077 146.251 91.3815 145.77 91.7461C145.288 92.1042 144.78 92.2832 144.246 92.2832C143.302 92.2832 142.83 91.8438 142.83 90.9648C142.83 90.3984 143.12 89.2363 143.699 87.4785C144.057 86.4173 144.292 85.724 144.402 85.3984C144.52 85.0729 144.578 84.8451 144.578 84.7148C144.578 84.5521 144.536 84.4349 144.451 84.3633C144.373 84.2852 144.256 84.2461 144.1 84.2461C143.657 84.2461 143.068 84.793 142.332 85.8867C141.596 86.974 140.988 88.237 140.506 89.6758C140.265 90.444 140.047 91.2188 139.852 92H137.449ZM154.256 83.0938V83.9531H152.664L151.17 89.2656C151.001 89.8971 150.916 90.3236 150.916 90.5449C150.916 90.6556 150.942 90.7435 150.994 90.8086C151.053 90.8672 151.134 90.8965 151.238 90.8965C151.421 90.8965 151.684 90.6849 152.029 90.2617C152.374 89.832 152.599 89.5163 152.703 89.3145L153.162 89.5977C152.374 90.7956 151.743 91.5443 151.268 91.8438C150.799 92.1367 150.337 92.2832 149.881 92.2832C149.51 92.2832 149.181 92.179 148.895 91.9707C148.615 91.7559 148.475 91.4271 148.475 90.9844C148.475 90.6198 148.641 89.8516 148.973 88.6797L150.301 83.9531H149.314V83.2305C150.812 82.638 152.029 81.6029 152.967 80.125H153.66L152.859 83.0938H154.256ZM159.188 89.2852C159.188 87.6836 159.767 86.2057 160.926 84.8516C162.085 83.4909 163.445 82.8105 165.008 82.8105C165.861 82.8105 166.59 83.084 167.195 83.6309C167.807 84.1712 168.113 84.9329 168.113 85.916C168.113 87.4264 167.557 88.8652 166.443 90.2324C165.337 91.5996 163.999 92.2832 162.43 92.2832C161.577 92.2832 160.822 92.026 160.164 91.5117C159.513 90.9909 159.188 90.2487 159.188 89.2852ZM161.551 90.3203C161.551 91.2253 161.896 91.6777 162.586 91.6777C163.4 91.6777 164.129 90.8118 164.773 89.0801C165.424 87.3483 165.75 85.8802 165.75 84.6758C165.75 83.8359 165.428 83.416 164.783 83.416C163.898 83.416 163.136 84.2754 162.498 85.9941C161.867 87.7129 161.551 89.1549 161.551 90.3203ZM171.453 83.9531H170.096L170.291 83.0938H171.658C172.492 79.7279 174.038 78.0449 176.297 78.0449C176.967 78.0449 177.456 78.2044 177.762 78.5234C178.068 78.8359 178.221 79.2038 178.221 79.627C178.221 79.946 178.136 80.2064 177.967 80.4082C177.804 80.6035 177.57 80.7012 177.264 80.7012C176.919 80.7012 176.661 80.6035 176.492 80.4082C176.323 80.2064 176.238 79.9655 176.238 79.6855C176.238 79.5228 176.287 79.3828 176.385 79.2656C176.489 79.1484 176.541 79.0573 176.541 78.9922C176.541 78.862 176.512 78.7741 176.453 78.7285C176.401 78.6764 176.323 78.6504 176.219 78.6504C175.503 78.6504 174.897 79.6139 174.402 81.541L174.002 83.0938H175.877L175.682 83.9531H173.846C172.856 88.6016 172.075 91.6061 171.502 92.9668C170.636 95.0306 169.419 96.0625 167.85 96.0625C167.218 96.0625 166.73 95.9193 166.385 95.6328C166.046 95.3398 165.877 94.9362 165.877 94.4219C165.877 94.1484 165.965 93.9108 166.141 93.709C166.316 93.5072 166.58 93.4062 166.932 93.4062C167.199 93.4062 167.426 93.5007 167.615 93.6895C167.804 93.8783 167.898 94.1029 167.898 94.3633C167.898 94.5716 167.846 94.7572 167.742 94.9199C167.645 95.0762 167.596 95.1673 167.596 95.1934C167.596 95.291 167.625 95.3594 167.684 95.3984C167.742 95.4375 167.827 95.457 167.938 95.457C168.387 95.457 168.729 95.1934 168.963 94.666C169.197 94.1322 169.471 93.1654 169.783 91.7656C170.219 89.6953 170.776 87.0911 171.453 83.9531ZM116.268 115.314L116.727 115.598C115.971 116.75 115.353 117.486 114.871 117.805C114.396 118.124 113.921 118.283 113.445 118.283C112.508 118.283 112.039 117.837 112.039 116.945C112.039 116.646 112.146 116.105 112.361 115.324L113.357 111.633C113.52 111.053 113.602 110.695 113.602 110.559C113.602 110.135 113.253 109.924 112.557 109.924H112.42V109.387C114.048 109.27 115.395 109.077 116.463 108.811L114.686 115.314C114.523 115.9 114.441 116.324 114.441 116.584C114.441 116.675 114.471 116.75 114.529 116.809C114.588 116.867 114.666 116.896 114.764 116.896C115.076 116.896 115.577 116.369 116.268 115.314ZM114.49 105.734C114.49 105.363 114.617 105.048 114.871 104.787C115.132 104.527 115.451 104.396 115.828 104.396C116.199 104.396 116.518 104.53 116.785 104.797C117.059 105.057 117.195 105.376 117.195 105.754C117.195 106.092 117.072 106.402 116.824 106.682C116.577 106.955 116.225 107.092 115.77 107.092C115.503 107.092 115.223 106.975 114.93 106.74C114.637 106.506 114.49 106.171 114.49 105.734ZM117.449 118L118.875 112.922C119.298 111.444 119.51 110.614 119.51 110.432C119.51 110.217 119.428 110.08 119.266 110.021C119.109 109.956 118.823 109.924 118.406 109.924V109.387C119.493 109.387 120.825 109.195 122.4 108.811L121.15 112.717C121.925 111.538 122.632 110.594 123.27 109.885C123.908 109.169 124.66 108.811 125.525 108.811C126.495 108.811 126.98 109.348 126.98 110.422C126.98 110.917 126.684 112.03 126.092 113.762C125.682 114.921 125.434 115.66 125.35 115.979C125.265 116.291 125.223 116.47 125.223 116.516C125.223 116.665 125.245 116.766 125.291 116.818C125.337 116.87 125.421 116.896 125.545 116.896C125.799 116.896 126.251 116.421 126.902 115.471L127.361 115.725C126.782 116.708 126.251 117.382 125.77 117.746C125.288 118.104 124.78 118.283 124.246 118.283C123.302 118.283 122.83 117.844 122.83 116.965C122.83 116.398 123.12 115.236 123.699 113.479C124.057 112.417 124.292 111.724 124.402 111.398C124.52 111.073 124.578 110.845 124.578 110.715C124.578 110.552 124.536 110.435 124.451 110.363C124.373 110.285 124.256 110.246 124.1 110.246C123.657 110.246 123.068 110.793 122.332 111.887C121.596 112.974 120.988 114.237 120.506 115.676C120.265 116.444 120.047 117.219 119.852 118H117.449ZM130.887 109.953H129.529L129.725 109.094H131.092C131.925 105.728 133.471 104.045 135.73 104.045C136.401 104.045 136.889 104.204 137.195 104.523C137.501 104.836 137.654 105.204 137.654 105.627C137.654 105.946 137.57 106.206 137.4 106.408C137.238 106.604 137.003 106.701 136.697 106.701C136.352 106.701 136.095 106.604 135.926 106.408C135.757 106.206 135.672 105.965 135.672 105.686C135.672 105.523 135.721 105.383 135.818 105.266C135.923 105.148 135.975 105.057 135.975 104.992C135.975 104.862 135.945 104.774 135.887 104.729C135.835 104.676 135.757 104.65 135.652 104.65C134.936 104.65 134.331 105.614 133.836 107.541L133.436 109.094H135.311L135.115 109.953H133.279C132.29 114.602 131.508 117.606 130.936 118.967C130.07 121.031 128.852 122.062 127.283 122.062C126.652 122.062 126.163 121.919 125.818 121.633C125.48 121.34 125.311 120.936 125.311 120.422C125.311 120.148 125.398 119.911 125.574 119.709C125.75 119.507 126.014 119.406 126.365 119.406C126.632 119.406 126.86 119.501 127.049 119.689C127.238 119.878 127.332 120.103 127.332 120.363C127.332 120.572 127.28 120.757 127.176 120.92C127.078 121.076 127.029 121.167 127.029 121.193C127.029 121.291 127.059 121.359 127.117 121.398C127.176 121.438 127.26 121.457 127.371 121.457C127.82 121.457 128.162 121.193 128.396 120.666C128.631 120.132 128.904 119.165 129.217 117.766C129.653 115.695 130.21 113.091 130.887 109.953ZM139.666 115.314L140.125 115.598C139.363 116.75 138.751 117.486 138.289 117.805C137.833 118.124 137.345 118.283 136.824 118.283C135.874 118.283 135.398 117.84 135.398 116.955C135.398 116.577 135.545 115.868 135.838 114.826L137.84 107.551C138.094 106.62 138.221 106.037 138.221 105.803C138.221 105.562 138.143 105.402 137.986 105.324C137.837 105.246 137.495 105.207 136.961 105.207V104.67C138.341 104.572 139.738 104.38 141.15 104.094L138.162 114.787C137.921 115.666 137.801 116.265 137.801 116.584C137.801 116.675 137.83 116.75 137.889 116.809C137.947 116.861 138.025 116.887 138.123 116.887C138.442 116.887 138.956 116.363 139.666 115.314ZM143.68 114.377C143.602 114.742 143.562 115.057 143.562 115.324C143.562 116.444 144.021 117.004 144.939 117.004C145.63 117.004 146.385 116.389 147.205 115.158L147.781 115.5C147.254 116.457 146.681 117.16 146.062 117.609C145.451 118.059 144.796 118.283 144.1 118.283C143.253 118.283 142.531 118.016 141.932 117.482C141.339 116.949 141.043 116.216 141.043 115.285C141.043 113.788 141.622 112.336 142.781 110.93C143.94 109.517 145.278 108.811 146.795 108.811C147.387 108.811 147.882 108.96 148.279 109.26C148.676 109.553 148.875 109.989 148.875 110.568C148.875 111.317 148.419 112.082 147.508 112.863C146.603 113.645 145.327 114.149 143.68 114.377ZM143.826 113.723C144.718 113.514 145.483 113.098 146.121 112.473C146.766 111.841 147.088 111.063 147.088 110.139C147.088 109.657 146.893 109.416 146.502 109.416C146.02 109.416 145.519 109.823 144.998 110.637C144.484 111.444 144.093 112.473 143.826 113.723ZM156.326 115.158L156.902 115.52C156.095 116.704 155.392 117.463 154.793 117.795C154.201 118.12 153.585 118.283 152.947 118.283C152.055 118.283 151.342 118.003 150.809 117.443C150.275 116.877 150.008 116.145 150.008 115.246C150.008 113.742 150.59 112.294 151.756 110.9C152.921 109.507 154.204 108.811 155.604 108.811C156.274 108.811 156.814 108.964 157.225 109.27C157.635 109.576 157.84 109.989 157.84 110.51C157.84 110.998 157.716 111.359 157.469 111.594C157.228 111.822 156.922 111.936 156.551 111.936C156.297 111.936 156.046 111.848 155.799 111.672C155.558 111.49 155.438 111.223 155.438 110.871C155.438 110.669 155.503 110.454 155.633 110.227C155.783 109.999 155.857 109.849 155.857 109.777C155.857 109.536 155.711 109.416 155.418 109.416C154.715 109.416 154.057 110.09 153.445 111.438C152.833 112.779 152.527 113.973 152.527 115.021C152.527 116.343 153.006 117.004 153.963 117.004C154.731 117.004 155.519 116.389 156.326 115.158ZM164.256 109.094V109.953H162.664L161.17 115.266C161.001 115.897 160.916 116.324 160.916 116.545C160.916 116.656 160.942 116.743 160.994 116.809C161.053 116.867 161.134 116.896 161.238 116.896C161.421 116.896 161.684 116.685 162.029 116.262C162.374 115.832 162.599 115.516 162.703 115.314L163.162 115.598C162.374 116.796 161.743 117.544 161.268 117.844C160.799 118.137 160.337 118.283 159.881 118.283C159.51 118.283 159.181 118.179 158.895 117.971C158.615 117.756 158.475 117.427 158.475 116.984C158.475 116.62 158.641 115.852 158.973 114.68L160.301 109.953H159.314V109.23C160.812 108.638 162.029 107.603 162.967 106.125H163.66L162.859 109.094H164.256ZM168.533 115.314L168.992 115.598C168.237 116.75 167.618 117.486 167.137 117.805C166.661 118.124 166.186 118.283 165.711 118.283C164.773 118.283 164.305 117.837 164.305 116.945C164.305 116.646 164.412 116.105 164.627 115.324L165.623 111.633C165.786 111.053 165.867 110.695 165.867 110.559C165.867 110.135 165.519 109.924 164.822 109.924H164.686V109.387C166.313 109.27 167.661 109.077 168.729 108.811L166.951 115.314C166.788 115.9 166.707 116.324 166.707 116.584C166.707 116.675 166.736 116.75 166.795 116.809C166.854 116.867 166.932 116.896 167.029 116.896C167.342 116.896 167.843 116.369 168.533 115.314ZM166.756 105.734C166.756 105.363 166.883 105.048 167.137 104.787C167.397 104.527 167.716 104.396 168.094 104.396C168.465 104.396 168.784 104.53 169.051 104.797C169.324 105.057 169.461 105.376 169.461 105.754C169.461 106.092 169.337 106.402 169.09 106.682C168.842 106.955 168.491 107.092 168.035 107.092C167.768 107.092 167.488 106.975 167.195 106.74C166.902 106.506 166.756 106.171 166.756 105.734ZM169.754 115.285C169.754 113.684 170.333 112.206 171.492 110.852C172.651 109.491 174.012 108.811 175.574 108.811C176.427 108.811 177.156 109.084 177.762 109.631C178.374 110.171 178.68 110.933 178.68 111.916C178.68 113.426 178.123 114.865 177.01 116.232C175.903 117.6 174.565 118.283 172.996 118.283C172.143 118.283 171.388 118.026 170.73 117.512C170.079 116.991 169.754 116.249 169.754 115.285ZM172.117 116.32C172.117 117.225 172.462 117.678 173.152 117.678C173.966 117.678 174.695 116.812 175.34 115.08C175.991 113.348 176.316 111.88 176.316 110.676C176.316 109.836 175.994 109.416 175.35 109.416C174.464 109.416 173.702 110.275 173.064 111.994C172.433 113.713 172.117 115.155 172.117 116.32ZM179.715 118L181.141 112.922C181.564 111.444 181.775 110.614 181.775 110.432C181.775 110.217 181.694 110.08 181.531 110.021C181.375 109.956 181.089 109.924 180.672 109.924V109.387C181.759 109.387 183.09 109.195 184.666 108.811L183.416 112.717C184.191 111.538 184.897 110.594 185.535 109.885C186.173 109.169 186.925 108.811 187.791 108.811C188.761 108.811 189.246 109.348 189.246 110.422C189.246 110.917 188.95 112.03 188.357 113.762C187.947 114.921 187.7 115.66 187.615 115.979C187.531 116.291 187.488 116.47 187.488 116.516C187.488 116.665 187.511 116.766 187.557 116.818C187.602 116.87 187.687 116.896 187.811 116.896C188.064 116.896 188.517 116.421 189.168 115.471L189.627 115.725C189.048 116.708 188.517 117.382 188.035 117.746C187.553 118.104 187.046 118.283 186.512 118.283C185.568 118.283 185.096 117.844 185.096 116.965C185.096 116.398 185.385 115.236 185.965 113.479C186.323 112.417 186.557 111.724 186.668 111.398C186.785 111.073 186.844 110.845 186.844 110.715C186.844 110.552 186.801 110.435 186.717 110.363C186.639 110.285 186.521 110.246 186.365 110.246C185.923 110.246 185.333 110.793 184.598 111.887C183.862 112.974 183.253 114.237 182.771 115.676C182.531 116.444 182.312 117.219 182.117 118H179.715Z" fill="white"/>
</svg>
