<svg width="400" height="400" viewBox="0 0 400 400" fill="none" xmlns="http://www.w3.org/2000/svg">
<path d="M0 200C0 89.5431 89.5431 0 200 0V0V200H0V200Z" fill="white"/>
<path d="M400 200C400 310.457 310.457 400 200 400V400L200 200L400 200V200Z" fill="white"/>
<path d="M200 -8.74228e-06C310.457 -3.91405e-06 400 89.5431 400 200V200L200 200L200 -8.74228e-06V-8.74228e-06Z" fill="black"/>
<path d="M200 400C89.5431 400 -3.91405e-06 310.457 -8.74228e-06 200V200L200 200L200 400V400Z" fill="black"/>
</svg>
