<svg width="300" height="300" viewBox="0 0 300 300" fill="none" xmlns="http://www.w3.org/2000/svg">
<path d="M250.707 250.708C251.098 250.317 251.098 249.684 250.707 249.293L244.343 242.929C243.953 242.539 243.319 242.539 242.929 242.929C242.538 243.32 242.538 243.953 242.929 244.344L248.586 250L242.929 255.657C242.538 256.048 242.538 256.681 242.929 257.071C243.319 257.462 243.953 257.462 244.343 257.071L250.707 250.708ZM50 249C49.4477 249 49 249.448 49 250C49 250.553 49.4477 251 50 251L50 249ZM250 249L50 249L50 251L250 251L250 249Z" fill="white"/>
<mask id="path-2-inside-1_23_210" fill="white">
<path d="M85.3553 214.645C89.9983 219.288 93.6812 224.8 96.194 230.866C98.7067 236.932 100 243.434 100 250L50 250L85.3553 214.645Z"/>
</mask>
<path d="M85.3553 214.645C89.9983 219.288 93.6812 224.8 96.194 230.866C98.7067 236.932 100 243.434 100 250L50 250L85.3553 214.645Z" stroke="white" stroke-width="4" mask="url(#path-2-inside-1_23_210)"/>
<path d="M50 249.998L249.997 50.0006" stroke="white" stroke-width="2" stroke-linecap="round"/>
<path d="M112.727 236.602V237.008C112.086 237.815 111.487 238.219 110.93 238.219C110.273 238.219 109.935 237.771 109.914 236.875C109.451 237.323 109 237.659 108.562 237.883C108.13 238.107 107.711 238.219 107.305 238.219C106.836 238.219 106.44 238.042 106.117 237.688C105.799 237.333 105.641 236.906 105.641 236.406C105.641 235.74 105.966 235.167 106.617 234.688C107.273 234.203 108.372 233.698 109.914 233.172C109.909 232.432 109.883 231.927 109.836 231.656C109.794 231.38 109.669 231.159 109.461 230.992C109.253 230.82 108.924 230.734 108.477 230.734C108.122 230.734 107.828 230.831 107.594 231.023C107.359 231.216 107.242 231.477 107.242 231.805C107.242 231.878 107.247 231.964 107.258 232.062C107.263 232.135 107.266 232.203 107.266 232.266C107.266 232.714 107.057 232.938 106.641 232.938C106.177 232.938 105.945 232.716 105.945 232.273C105.945 231.747 106.203 231.305 106.719 230.945C107.234 230.586 107.924 230.406 108.789 230.406C109.43 230.406 109.935 230.497 110.305 230.68C110.68 230.857 110.924 231.096 111.039 231.398C111.154 231.701 111.211 232.167 111.211 232.797V236.516C111.211 237.021 111.367 237.273 111.68 237.273C111.987 237.273 112.336 237.049 112.727 236.602ZM109.914 236.516V233.602C108.727 234.091 107.94 234.497 107.555 234.82C107.169 235.138 106.977 235.531 106.977 236C106.977 236.359 107.091 236.667 107.32 236.922C107.555 237.177 107.846 237.305 108.195 237.305C108.466 237.305 108.745 237.24 109.031 237.109C109.318 236.974 109.612 236.776 109.914 236.516ZM115.867 230.406V231.969C116.383 231.385 116.826 230.979 117.195 230.75C117.565 230.521 117.969 230.406 118.406 230.406C119 230.406 119.474 230.628 119.828 231.07C120.182 231.518 120.359 232.167 120.359 233.016V236.227C120.359 236.794 120.44 237.18 120.602 237.383C120.768 237.586 121.062 237.695 121.484 237.711V238H117.742V237.711C118.237 237.711 118.578 237.615 118.766 237.422C118.953 237.229 119.047 236.831 119.047 236.227V233.094C119.047 232.516 118.937 232.081 118.719 231.789C118.505 231.492 118.19 231.344 117.773 231.344C117.461 231.344 117.146 231.432 116.828 231.609C116.51 231.786 116.19 232.052 115.867 232.406V236.227C115.867 236.784 115.948 237.169 116.109 237.383C116.276 237.591 116.599 237.701 117.078 237.711V238H113.406V237.711C113.875 237.701 114.185 237.589 114.336 237.375C114.487 237.156 114.562 236.773 114.562 236.227V232.625C114.562 231.844 114.346 231.453 113.914 231.453C113.763 231.453 113.594 231.497 113.406 231.586L113.297 231.281L115.594 230.406H115.867ZM127.547 230.867H129.266C129.484 230.867 129.594 230.953 129.594 231.125V231.414C129.594 231.555 129.5 231.625 129.312 231.625H128.164C128.44 232.036 128.578 232.49 128.578 232.984C128.578 233.74 128.315 234.354 127.789 234.828C127.263 235.302 126.604 235.539 125.812 235.539C125.464 235.539 125.112 235.487 124.758 235.383C124.544 235.57 124.383 235.745 124.273 235.906C124.164 236.062 124.109 236.206 124.109 236.336C124.109 236.523 124.224 236.651 124.453 236.719C124.687 236.781 125.099 236.812 125.687 236.812L127.016 236.805C127.901 236.805 128.544 236.971 128.945 237.305C129.341 237.643 129.539 238.026 129.539 238.453C129.539 239.297 129.102 239.997 128.227 240.555C127.352 241.112 126.406 241.391 125.391 241.391C124.583 241.391 123.875 241.229 123.266 240.906C122.656 240.583 122.352 240.247 122.352 239.898C122.352 239.69 122.435 239.458 122.602 239.203C122.773 238.948 123.201 238.479 123.883 237.797C123.341 237.62 123.07 237.357 123.07 237.008C123.07 236.753 123.177 236.477 123.391 236.18C123.609 235.878 123.932 235.557 124.359 235.219C123.906 234.984 123.565 234.685 123.336 234.32C123.112 233.956 123 233.529 123 233.039C123 232.32 123.268 231.703 123.805 231.188C124.341 230.667 125.039 230.406 125.898 230.406C126.211 230.406 126.503 230.445 126.773 230.523C127.049 230.596 127.307 230.711 127.547 230.867ZM124.336 232.352C124.336 233.102 124.487 233.755 124.789 234.312C125.091 234.865 125.503 235.141 126.023 235.141C126.378 235.141 126.661 234.974 126.875 234.641C127.094 234.302 127.203 233.872 127.203 233.352C127.203 232.742 127.052 232.172 126.75 231.641C126.453 231.109 126.052 230.844 125.547 230.844C125.172 230.844 124.875 230.992 124.656 231.289C124.443 231.581 124.336 231.935 124.336 232.352ZM124.25 237.875C123.76 238.396 123.516 238.857 123.516 239.258C123.516 239.654 123.792 239.948 124.344 240.141C124.896 240.333 125.521 240.43 126.219 240.43C127.042 240.43 127.716 240.273 128.242 239.961C128.768 239.648 129.031 239.271 129.031 238.828C129.031 238.568 128.906 238.37 128.656 238.234C128.406 238.099 127.677 238.021 126.469 238C125.26 237.984 124.521 237.943 124.25 237.875ZM132.742 226.523V236.234C132.742 236.839 132.823 237.232 132.984 237.414C133.151 237.596 133.424 237.695 133.805 237.711V238H130.203V237.711C130.76 237.706 131.104 237.583 131.234 237.344C131.365 237.099 131.43 236.729 131.43 236.234V229.336C131.43 228.799 131.417 228.453 131.391 228.297C131.37 228.135 131.297 227.992 131.172 227.867C131.052 227.737 130.893 227.672 130.695 227.672C130.576 227.672 130.448 227.703 130.312 227.766L130.203 227.484L132.469 226.523H132.742ZM140.812 235.391C140.641 236.271 140.279 236.964 139.727 237.469C139.18 237.969 138.547 238.219 137.828 238.219C136.969 238.219 136.232 237.885 135.617 237.219C135.003 236.547 134.695 235.602 134.695 234.383C134.695 233.201 134.995 232.242 135.594 231.508C136.193 230.773 136.995 230.406 138 230.406C138.849 230.406 139.529 230.685 140.039 231.242C140.555 231.794 140.812 232.503 140.812 233.367H135.789C135.784 233.497 135.781 233.596 135.781 233.664C135.781 234.461 136.023 235.211 136.508 235.914C136.992 236.617 137.633 236.969 138.43 236.969C139.456 236.969 140.167 236.398 140.562 235.258L140.812 235.391ZM139.156 232.875C139.141 232.266 138.984 231.797 138.687 231.469C138.396 231.141 138.023 230.977 137.57 230.977C137.112 230.977 136.719 231.148 136.391 231.492C136.062 231.836 135.872 232.297 135.82 232.875H139.156ZM153.32 234.055C153.32 235.154 152.943 236.122 152.187 236.961C151.437 237.799 150.536 238.219 149.484 238.219C148.531 238.219 147.698 237.862 146.984 237.148C146.271 236.43 145.914 235.547 145.914 234.5C145.914 233.469 146.279 232.529 147.008 231.68C147.737 230.831 148.651 230.406 149.75 230.406C150.714 230.406 151.549 230.771 152.258 231.5C152.966 232.224 153.32 233.076 153.32 234.055ZM151.875 234.719C151.875 233.708 151.648 232.831 151.195 232.086C150.742 231.336 150.135 230.961 149.375 230.961C148.755 230.961 148.263 231.221 147.898 231.742C147.539 232.258 147.359 232.964 147.359 233.859C147.359 234.87 147.589 235.758 148.047 236.523C148.505 237.289 149.104 237.672 149.844 237.672C150.432 237.672 150.917 237.409 151.297 236.883C151.682 236.357 151.875 235.635 151.875 234.719ZM154.625 230.578H155.656V230.172C155.656 229.49 155.74 228.898 155.906 228.398C156.073 227.893 156.406 227.456 156.906 227.086C157.406 226.711 157.964 226.523 158.578 226.523C159.089 226.523 159.555 226.656 159.977 226.922C160.398 227.182 160.609 227.492 160.609 227.852C160.609 228.013 160.542 228.161 160.406 228.297C160.276 228.432 160.128 228.5 159.961 228.5C159.695 228.5 159.419 228.289 159.133 227.867C158.784 227.352 158.409 227.094 158.008 227.094C157.763 227.094 157.555 227.167 157.383 227.312C157.211 227.453 157.096 227.633 157.039 227.852C156.982 228.065 156.953 228.518 156.953 229.211V230.578H158.461V231.07H156.953V236.227C156.953 236.862 157.047 237.268 157.234 237.445C157.422 237.622 157.768 237.711 158.273 237.711V238H154.437V237.711C154.901 237.706 155.219 237.609 155.391 237.422C155.568 237.234 155.656 236.836 155.656 236.227V231.07H154.625V230.578ZM170 235.391C169.828 236.271 169.466 236.964 168.914 237.469C168.367 237.969 167.734 238.219 167.016 238.219C166.156 238.219 165.419 237.885 164.805 237.219C164.19 236.547 163.883 235.602 163.883 234.383C163.883 233.201 164.182 232.242 164.781 231.508C165.38 230.773 166.182 230.406 167.187 230.406C168.036 230.406 168.716 230.685 169.227 231.242C169.742 231.794 170 232.503 170 233.367H164.977C164.971 233.497 164.969 233.596 164.969 233.664C164.969 234.461 165.211 235.211 165.695 235.914C166.18 236.617 166.82 236.969 167.617 236.969C168.643 236.969 169.354 236.398 169.75 235.258L170 235.391ZM168.344 232.875C168.328 232.266 168.172 231.797 167.875 231.469C167.583 231.141 167.211 230.977 166.758 230.977C166.299 230.977 165.906 231.148 165.578 231.492C165.25 231.836 165.06 232.297 165.008 232.875H168.344ZM173.289 226.523V236.234C173.289 236.839 173.37 237.232 173.531 237.414C173.698 237.596 173.971 237.695 174.352 237.711V238H170.75V237.711C171.307 237.706 171.651 237.583 171.781 237.344C171.911 237.099 171.977 236.729 171.977 236.234V229.336C171.977 228.799 171.964 228.453 171.937 228.297C171.917 228.135 171.844 227.992 171.719 227.867C171.599 227.737 171.44 227.672 171.242 227.672C171.122 227.672 170.995 227.703 170.859 227.766L170.75 227.484L173.016 226.523H173.289ZM181.359 235.391C181.187 236.271 180.826 236.964 180.273 237.469C179.727 237.969 179.094 238.219 178.375 238.219C177.516 238.219 176.779 237.885 176.164 237.219C175.549 236.547 175.242 235.602 175.242 234.383C175.242 233.201 175.542 232.242 176.141 231.508C176.74 230.773 177.542 230.406 178.547 230.406C179.396 230.406 180.076 230.685 180.586 231.242C181.102 231.794 181.359 232.503 181.359 233.367H176.336C176.331 233.497 176.328 233.596 176.328 233.664C176.328 234.461 176.57 235.211 177.055 235.914C177.539 236.617 178.18 236.969 178.977 236.969C180.003 236.969 180.714 236.398 181.109 235.258L181.359 235.391ZM179.703 232.875C179.687 232.266 179.531 231.797 179.234 231.469C178.943 231.141 178.57 230.977 178.117 230.977C177.659 230.977 177.266 231.148 176.937 231.492C176.609 231.836 176.419 232.297 176.367 232.875H179.703ZM181.977 230.578H185.305V230.867C184.773 230.898 184.508 231.115 184.508 231.516C184.508 231.75 184.604 232.094 184.797 232.547L186.281 236.188L187.984 231.961C188.094 231.695 188.148 231.5 188.148 231.375C188.148 231.062 187.875 230.893 187.328 230.867V230.578H189.562V230.867C189.312 230.893 189.125 230.979 189 231.125C188.88 231.266 188.711 231.62 188.492 232.188L186.062 238.219H185.75L183.602 232.945C183.253 232.091 182.977 231.536 182.773 231.281C182.576 231.026 182.31 230.888 181.977 230.867V230.578ZM197.477 236.602V237.008C196.836 237.815 196.237 238.219 195.68 238.219C195.023 238.219 194.685 237.771 194.664 236.875C194.201 237.323 193.75 237.659 193.312 237.883C192.88 238.107 192.461 238.219 192.055 238.219C191.586 238.219 191.19 238.042 190.867 237.688C190.549 237.333 190.391 236.906 190.391 236.406C190.391 235.74 190.716 235.167 191.367 234.688C192.023 234.203 193.122 233.698 194.664 233.172C194.659 232.432 194.633 231.927 194.586 231.656C194.544 231.38 194.419 231.159 194.211 230.992C194.003 230.82 193.674 230.734 193.227 230.734C192.872 230.734 192.578 230.831 192.344 231.023C192.109 231.216 191.992 231.477 191.992 231.805C191.992 231.878 191.997 231.964 192.008 232.062C192.013 232.135 192.016 232.203 192.016 232.266C192.016 232.714 191.807 232.938 191.391 232.938C190.927 232.938 190.695 232.716 190.695 232.273C190.695 231.747 190.953 231.305 191.469 230.945C191.984 230.586 192.674 230.406 193.539 230.406C194.18 230.406 194.685 230.497 195.055 230.68C195.43 230.857 195.674 231.096 195.789 231.398C195.904 231.701 195.961 232.167 195.961 232.797V236.516C195.961 237.021 196.117 237.273 196.43 237.273C196.737 237.273 197.086 237.049 197.477 236.602ZM194.664 236.516V233.602C193.477 234.091 192.69 234.497 192.305 234.82C191.919 235.138 191.727 235.531 191.727 236C191.727 236.359 191.841 236.667 192.07 236.922C192.305 237.177 192.596 237.305 192.945 237.305C193.216 237.305 193.495 237.24 193.781 237.109C194.068 236.974 194.362 236.776 194.664 236.516ZM200.648 228.219V230.578H202.352V231.047H200.648V235.938C200.648 236.391 200.724 236.732 200.875 236.961C201.031 237.185 201.263 237.297 201.57 237.297C201.753 237.297 201.927 237.245 202.094 237.141C202.26 237.036 202.419 236.883 202.57 236.68H202.891C202.625 237.19 202.323 237.576 201.984 237.836C201.646 238.091 201.271 238.219 200.859 238.219C200.359 238.219 199.982 238.042 199.727 237.688C199.477 237.333 199.352 236.802 199.352 236.094V231.047H198.219V230.742C199.312 230.299 200.039 229.458 200.398 228.219H200.648ZM205.273 226.484C205.497 226.484 205.69 226.565 205.852 226.727C206.013 226.883 206.094 227.076 206.094 227.305C206.094 227.539 206.013 227.737 205.852 227.898C205.69 228.055 205.497 228.133 205.273 228.133C205.044 228.133 204.849 228.052 204.687 227.891C204.526 227.729 204.445 227.534 204.445 227.305C204.445 227.081 204.526 226.888 204.687 226.727C204.849 226.565 205.044 226.484 205.273 226.484ZM203.453 231.242L205.672 230.406H205.945V236.227C205.945 236.81 206.023 237.195 206.18 237.383C206.341 237.57 206.633 237.68 207.055 237.711V238H203.453V237.711C203.849 237.701 204.154 237.62 204.367 237.469C204.586 237.312 204.695 236.898 204.695 236.227V232.688C204.695 232.25 204.635 231.935 204.516 231.742C204.401 231.549 204.195 231.453 203.898 231.453C203.773 231.453 203.654 231.479 203.539 231.531L203.453 231.242ZM215.539 234.055C215.539 235.154 215.161 236.122 214.406 236.961C213.656 237.799 212.755 238.219 211.703 238.219C210.75 238.219 209.917 237.862 209.203 237.148C208.49 236.43 208.133 235.547 208.133 234.5C208.133 233.469 208.497 232.529 209.227 231.68C209.956 230.831 210.87 230.406 211.969 230.406C212.932 230.406 213.768 230.771 214.477 231.5C215.185 232.224 215.539 233.076 215.539 234.055ZM214.094 234.719C214.094 233.708 213.867 232.831 213.414 232.086C212.961 231.336 212.354 230.961 211.594 230.961C210.974 230.961 210.482 231.221 210.117 231.742C209.758 232.258 209.578 232.964 209.578 233.859C209.578 234.87 209.807 235.758 210.266 236.523C210.724 237.289 211.323 237.672 212.062 237.672C212.651 237.672 213.135 237.409 213.516 236.883C213.901 236.357 214.094 235.635 214.094 234.719ZM219.133 230.406V231.969C219.648 231.385 220.091 230.979 220.461 230.75C220.831 230.521 221.234 230.406 221.672 230.406C222.266 230.406 222.74 230.628 223.094 231.07C223.448 231.518 223.625 232.167 223.625 233.016V236.227C223.625 236.794 223.706 237.18 223.867 237.383C224.034 237.586 224.328 237.695 224.75 237.711V238H221.008V237.711C221.503 237.711 221.844 237.615 222.031 237.422C222.219 237.229 222.312 236.831 222.312 236.227V233.094C222.312 232.516 222.203 232.081 221.984 231.789C221.771 231.492 221.456 231.344 221.039 231.344C220.727 231.344 220.411 231.432 220.094 231.609C219.776 231.786 219.456 232.052 219.133 232.406V236.227C219.133 236.784 219.214 237.169 219.375 237.383C219.542 237.591 219.865 237.701 220.344 237.711V238H216.672V237.711C217.141 237.701 217.451 237.589 217.602 237.375C217.753 237.156 217.828 236.773 217.828 236.227V232.625C217.828 231.844 217.612 231.453 217.18 231.453C217.029 231.453 216.859 231.497 216.672 231.586L216.562 231.281L218.859 230.406H219.133Z" fill="white"/>
<path d="M49.293 49.293C48.9025 49.6835 48.9025 50.3167 49.293 50.7072L55.657 57.0712C56.0475 57.4617 56.6807 57.4617 57.0712 57.0712C57.4617 56.6807 57.4617 56.0475 57.0712 55.657L51.4143 50.0001L57.0712 44.3433C57.4617 43.9527 57.4617 43.3196 57.0712 42.929C56.6807 42.5385 56.0475 42.5385 55.657 42.929L49.293 49.293ZM250 51.0001C250.552 51.0001 251 50.5524 251 50.0001C251 49.4478 250.552 49.0001 250 49.0001L250 51.0001ZM50.0001 51.0001L250 51.0001L250 49.0001L50.0001 49.0001L50.0001 51.0001Z" fill="white"/>
<path d="M250 50.0027L50.0027 250" stroke="white" stroke-width="2" stroke-linecap="round"/>
<mask id="path-7-inside-2_23_210" fill="white">
<path d="M214.645 85.3554C210.002 80.7125 206.319 75.2006 203.806 69.1343C201.293 63.068 200 56.5662 200 50.0001L250 50.0001L214.645 85.3554Z"/>
</mask>
<path d="M214.645 85.3554C210.002 80.7125 206.319 75.2006 203.806 69.1343C201.293 63.068 200 56.5662 200 50.0001L250 50.0001L214.645 85.3554Z" stroke="white" stroke-width="4" mask="url(#path-7-inside-2_23_210)"/>
<path d="M76.7266 70.6016V71.0078C76.0859 71.8151 75.487 72.2188 74.9297 72.2188C74.2734 72.2188 73.9349 71.7708 73.9141 70.875C73.4505 71.3229 73 71.6589 72.5625 71.8828C72.1302 72.1068 71.7109 72.2188 71.3047 72.2188C70.8359 72.2188 70.4401 72.0417 70.1172 71.6875C69.7995 71.3333 69.6406 70.9062 69.6406 70.4062C69.6406 69.7396 69.9661 69.1667 70.6172 68.6875C71.2734 68.2031 72.3724 67.6979 73.9141 67.1719C73.9089 66.4323 73.8828 65.9271 73.8359 65.6562C73.7943 65.3802 73.6693 65.1589 73.4609 64.9922C73.2526 64.8203 72.9245 64.7344 72.4766 64.7344C72.1224 64.7344 71.8281 64.8307 71.5937 65.0234C71.3594 65.2161 71.2422 65.4766 71.2422 65.8047C71.2422 65.8776 71.2474 65.9635 71.2578 66.0625C71.263 66.1354 71.2656 66.2031 71.2656 66.2656C71.2656 66.7135 71.0573 66.9375 70.6406 66.9375C70.1771 66.9375 69.9453 66.7161 69.9453 66.2734C69.9453 65.7474 70.2031 65.3047 70.7187 64.9453C71.2344 64.5859 71.9245 64.4062 72.7891 64.4062C73.4297 64.4062 73.9349 64.4974 74.3047 64.6797C74.6797 64.8568 74.9245 65.0964 75.0391 65.3984C75.1536 65.7005 75.2109 66.1667 75.2109 66.7969V70.5156C75.2109 71.0208 75.3672 71.2734 75.6797 71.2734C75.987 71.2734 76.3359 71.0495 76.7266 70.6016ZM73.9141 70.5156V67.6016C72.7266 68.0911 71.9401 68.4974 71.5547 68.8203C71.1693 69.138 70.9766 69.5312 70.9766 70C70.9766 70.3594 71.0911 70.6667 71.3203 70.9219C71.5547 71.1771 71.8464 71.3047 72.1953 71.3047C72.4661 71.3047 72.7448 71.2396 73.0312 71.1094C73.3177 70.974 73.612 70.776 73.9141 70.5156ZM79.8672 64.4062V65.9688C80.3828 65.3854 80.8255 64.9792 81.1953 64.75C81.5651 64.5208 81.9687 64.4062 82.4062 64.4062C83 64.4062 83.474 64.6276 83.8281 65.0703C84.1823 65.5182 84.3594 66.1667 84.3594 67.0156V70.2266C84.3594 70.7943 84.4401 71.1797 84.6016 71.3828C84.7682 71.5859 85.0625 71.6953 85.4844 71.7109V72H81.7422V71.7109C82.237 71.7109 82.5781 71.6146 82.7656 71.4219C82.9531 71.2292 83.0469 70.8307 83.0469 70.2266V67.0938C83.0469 66.5156 82.9375 66.0807 82.7187 65.7891C82.5052 65.4922 82.1901 65.3438 81.7734 65.3438C81.4609 65.3438 81.1458 65.4323 80.8281 65.6094C80.5104 65.7865 80.1901 66.0521 79.8672 66.4062V70.2266C79.8672 70.7839 79.9479 71.1693 80.1094 71.3828C80.276 71.5911 80.599 71.7005 81.0781 71.7109V72H77.4062V71.7109C77.875 71.7005 78.1849 71.5885 78.3359 71.375C78.487 71.1562 78.5625 70.7734 78.5625 70.2266V66.625C78.5625 65.8438 78.3464 65.4531 77.9141 65.4531C77.763 65.4531 77.5937 65.4974 77.4062 65.5859L77.2969 65.2812L79.5937 64.4062H79.8672ZM91.5469 64.8672H93.2656C93.4844 64.8672 93.5937 64.9531 93.5937 65.125V65.4141C93.5937 65.5547 93.5 65.625 93.3125 65.625H92.1641C92.4401 66.0365 92.5781 66.4896 92.5781 66.9844C92.5781 67.7396 92.3151 68.3542 91.7891 68.8281C91.263 69.3021 90.6042 69.5391 89.8125 69.5391C89.4635 69.5391 89.112 69.487 88.7578 69.3828C88.5443 69.5703 88.3828 69.7448 88.2734 69.9062C88.1641 70.0625 88.1094 70.2057 88.1094 70.3359C88.1094 70.5234 88.224 70.651 88.4531 70.7188C88.6875 70.7812 89.099 70.8125 89.6875 70.8125L91.0156 70.8047C91.901 70.8047 92.5443 70.9714 92.9453 71.3047C93.3411 71.6432 93.5391 72.026 93.5391 72.4531C93.5391 73.2969 93.1016 73.9974 92.2266 74.5547C91.3516 75.112 90.4062 75.3906 89.3906 75.3906C88.5833 75.3906 87.875 75.2292 87.2656 74.9062C86.6562 74.5833 86.3516 74.2474 86.3516 73.8984C86.3516 73.6901 86.4349 73.4583 86.6016 73.2031C86.7734 72.9479 87.2005 72.4792 87.8828 71.7969C87.3411 71.6198 87.0703 71.3568 87.0703 71.0078C87.0703 70.7526 87.1771 70.4766 87.3906 70.1797C87.6094 69.8776 87.9323 69.5573 88.3594 69.2188C87.9062 68.9844 87.5651 68.6849 87.3359 68.3203C87.112 67.9557 87 67.5286 87 67.0391C87 66.3203 87.2682 65.7031 87.8047 65.1875C88.3411 64.6667 89.0391 64.4062 89.8984 64.4062C90.2109 64.4062 90.5026 64.4453 90.7734 64.5234C91.0495 64.5964 91.3073 64.7109 91.5469 64.8672ZM88.3359 66.3516C88.3359 67.1016 88.487 67.7552 88.7891 68.3125C89.0911 68.8646 89.5026 69.1406 90.0234 69.1406C90.3776 69.1406 90.6615 68.974 90.875 68.6406C91.0937 68.3021 91.2031 67.8724 91.2031 67.3516C91.2031 66.7422 91.0521 66.1719 90.75 65.6406C90.4531 65.1094 90.0521 64.8438 89.5469 64.8438C89.1719 64.8438 88.875 64.9922 88.6562 65.2891C88.4427 65.5807 88.3359 65.9349 88.3359 66.3516ZM88.25 71.875C87.7604 72.3958 87.5156 72.8568 87.5156 73.2578C87.5156 73.6536 87.7917 73.9479 88.3437 74.1406C88.8958 74.3333 89.5208 74.4297 90.2187 74.4297C91.0417 74.4297 91.7161 74.2734 92.2422 73.9609C92.7682 73.6484 93.0312 73.2708 93.0312 72.8281C93.0312 72.5677 92.9062 72.3698 92.6562 72.2344C92.4062 72.099 91.6771 72.0208 90.4687 72C89.2604 71.9844 88.5208 71.9427 88.25 71.875ZM96.7422 60.5234V70.2344C96.7422 70.8385 96.8229 71.2318 96.9844 71.4141C97.151 71.5964 97.4245 71.6953 97.8047 71.7109V72H94.2031V71.7109C94.7604 71.7057 95.1042 71.5833 95.2344 71.3438C95.3646 71.099 95.4297 70.7292 95.4297 70.2344V63.3359C95.4297 62.7995 95.4167 62.4531 95.3906 62.2969C95.3698 62.1354 95.2969 61.9922 95.1719 61.8672C95.0521 61.737 94.8932 61.6719 94.6953 61.6719C94.5755 61.6719 94.4479 61.7031 94.3125 61.7656L94.2031 61.4844L96.4687 60.5234H96.7422ZM104.812 69.3906C104.641 70.2708 104.279 70.9635 103.727 71.4688C103.18 71.9688 102.547 72.2188 101.828 72.2188C100.969 72.2188 100.232 71.8854 99.6172 71.2188C99.0026 70.5469 98.6953 69.6016 98.6953 68.3828C98.6953 67.2005 98.9948 66.2422 99.5937 65.5078C100.193 64.7734 100.995 64.4062 102 64.4062C102.849 64.4062 103.529 64.6849 104.039 65.2422C104.555 65.7943 104.812 66.5026 104.812 67.3672H99.7891C99.7839 67.4974 99.7812 67.5964 99.7812 67.6641C99.7812 68.4609 100.023 69.2109 100.508 69.9141C100.992 70.6172 101.633 70.9688 102.43 70.9688C103.456 70.9688 104.167 70.3984 104.562 69.2578L104.812 69.3906ZM103.156 66.875C103.141 66.2656 102.984 65.7969 102.687 65.4688C102.396 65.1406 102.023 64.9766 101.57 64.9766C101.112 64.9766 100.719 65.1484 100.391 65.4922C100.062 65.8359 99.8724 66.2969 99.8203 66.875H103.156ZM117.32 68.0547C117.32 69.1536 116.943 70.1224 116.187 70.9609C115.437 71.7995 114.536 72.2188 113.484 72.2188C112.531 72.2188 111.698 71.862 110.984 71.1484C110.271 70.4297 109.914 69.5469 109.914 68.5C109.914 67.4688 110.279 66.5286 111.008 65.6797C111.737 64.8307 112.651 64.4062 113.75 64.4062C114.714 64.4062 115.549 64.7708 116.258 65.5C116.966 66.224 117.32 67.0755 117.32 68.0547ZM115.875 68.7188C115.875 67.7083 115.648 66.8307 115.195 66.0859C114.742 65.3359 114.135 64.9609 113.375 64.9609C112.755 64.9609 112.263 65.2214 111.898 65.7422C111.539 66.2578 111.359 66.9635 111.359 67.8594C111.359 68.8698 111.589 69.7578 112.047 70.5234C112.505 71.2891 113.104 71.6719 113.844 71.6719C114.432 71.6719 114.917 71.4089 115.297 70.8828C115.682 70.3568 115.875 69.6354 115.875 68.7188ZM118.625 64.5781H119.656V64.1719C119.656 63.4896 119.74 62.8984 119.906 62.3984C120.073 61.8932 120.406 61.4557 120.906 61.0859C121.406 60.7109 121.964 60.5234 122.578 60.5234C123.089 60.5234 123.555 60.6562 123.977 60.9219C124.398 61.1823 124.609 61.4922 124.609 61.8516C124.609 62.013 124.542 62.1615 124.406 62.2969C124.276 62.4323 124.128 62.5 123.961 62.5C123.695 62.5 123.419 62.2891 123.133 61.8672C122.784 61.3516 122.409 61.0938 122.008 61.0938C121.763 61.0938 121.555 61.1667 121.383 61.3125C121.211 61.4531 121.096 61.6328 121.039 61.8516C120.982 62.0651 120.953 62.5182 120.953 63.2109V64.5781H122.461V65.0703H120.953V70.2266C120.953 70.862 121.047 71.2682 121.234 71.4453C121.422 71.6224 121.768 71.7109 122.273 71.7109V72H118.437V71.7109C118.901 71.7057 119.219 71.6094 119.391 71.4219C119.568 71.2344 119.656 70.8359 119.656 70.2266V65.0703H118.625V64.5781ZM132.078 61.5078L134.375 60.5234H134.648V69.7656C134.648 70.3125 134.698 70.6745 134.797 70.8516C134.901 71.0286 135.078 71.1172 135.328 71.1172C135.479 71.1172 135.641 71.0781 135.812 71L135.922 71.2734L133.359 72.2188V71.1328C133.021 71.4922 132.664 71.763 132.289 71.9453C131.914 72.1276 131.521 72.2188 131.109 72.2188C130.255 72.2188 129.508 71.862 128.867 71.1484C128.227 70.4297 127.906 69.5651 127.906 68.5547C127.906 67.4401 128.281 66.4714 129.031 65.6484C129.786 64.8203 130.664 64.4062 131.664 64.4062C131.956 64.4062 132.242 64.4531 132.523 64.5469C132.805 64.6354 133.083 64.7734 133.359 64.9609V62.9375C133.359 62.4688 133.31 62.1406 133.211 61.9531C133.112 61.7604 132.935 61.6641 132.68 61.6641C132.544 61.6641 132.388 61.6979 132.211 61.7656L132.078 61.5078ZM133.359 70.5938V67.0938C133.359 66.2969 133.148 65.724 132.727 65.375C132.305 65.0208 131.878 64.8438 131.445 64.8438C130.883 64.8438 130.388 65.1484 129.961 65.7578C129.534 66.362 129.32 67.1016 129.32 67.9766C129.32 68.9193 129.57 69.7135 130.07 70.3594C130.576 71 131.172 71.3203 131.859 71.3203C132.156 71.3203 132.43 71.2604 132.68 71.1406C132.93 71.0156 133.156 70.8333 133.359 70.5938ZM142.844 69.3906C142.672 70.2708 142.31 70.9635 141.758 71.4688C141.211 71.9688 140.578 72.2188 139.859 72.2188C139 72.2188 138.263 71.8854 137.648 71.2188C137.034 70.5469 136.727 69.6016 136.727 68.3828C136.727 67.2005 137.026 66.2422 137.625 65.5078C138.224 64.7734 139.026 64.4062 140.031 64.4062C140.88 64.4062 141.56 64.6849 142.07 65.2422C142.586 65.7943 142.844 66.5026 142.844 67.3672H137.82C137.815 67.4974 137.812 67.5964 137.812 67.6641C137.812 68.4609 138.055 69.2109 138.539 69.9141C139.023 70.6172 139.664 70.9688 140.461 70.9688C141.487 70.9688 142.198 70.3984 142.594 69.2578L142.844 69.3906ZM141.187 66.875C141.172 66.2656 141.016 65.7969 140.719 65.4688C140.427 65.1406 140.055 64.9766 139.602 64.9766C139.143 64.9766 138.75 65.1484 138.422 65.4922C138.094 65.8359 137.904 66.2969 137.852 66.875H141.187ZM146.133 64.4062V66.1016C146.497 65.5339 146.893 65.1094 147.32 64.8281C147.747 64.5469 148.203 64.4062 148.687 64.4062C149.437 64.4062 150.109 64.7474 150.703 65.4297C151.297 66.112 151.594 66.9922 151.594 68.0703C151.594 69.2734 151.219 70.2656 150.469 71.0469C149.719 71.8281 148.875 72.2188 147.937 72.2188C147.573 72.2188 147.24 72.1615 146.937 72.0469C146.635 71.9323 146.367 71.763 146.133 71.5391V73.5781C146.133 74.1771 146.227 74.5755 146.414 74.7734C146.602 74.9766 146.964 75.0781 147.5 75.0781V75.375H143.508V75.0781C144.018 75.0781 144.367 74.9844 144.555 74.7969C144.742 74.6146 144.836 74.2083 144.836 73.5781V66.8516C144.836 66.2891 144.779 65.9193 144.664 65.7422C144.555 65.5599 144.38 65.4688 144.141 65.4688C144.005 65.4688 143.836 65.5 143.633 65.5625L143.508 65.2812L145.859 64.4062H146.133ZM146.133 66.5938V69.3438C146.133 69.9583 146.185 70.4089 146.289 70.6953C146.398 70.9766 146.604 71.2214 146.906 71.4297C147.214 71.6328 147.56 71.7344 147.945 71.7344C148.638 71.7344 149.187 71.4531 149.594 70.8906C150.005 70.3281 150.211 69.5781 150.211 68.6406C150.211 67.7604 150.013 67.0234 149.617 66.4297C149.221 65.8359 148.685 65.5391 148.008 65.5391C147.669 65.5391 147.344 65.6276 147.031 65.8047C146.719 65.9766 146.419 66.2396 146.133 66.5938ZM155.031 64.4062V66.0078C155.354 65.4714 155.685 65.0703 156.023 64.8047C156.367 64.5391 156.716 64.4062 157.07 64.4062C157.32 64.4062 157.544 64.5026 157.742 64.6953C157.94 64.888 158.039 65.1016 158.039 65.3359C158.039 65.4974 157.969 65.6536 157.828 65.8047C157.687 65.9505 157.521 66.0234 157.328 66.0234C157.13 66.0234 156.906 65.9167 156.656 65.7031C156.469 65.5417 156.323 65.4609 156.219 65.4609C156.021 65.4609 155.823 65.5521 155.625 65.7344C155.427 65.9167 155.229 66.1901 155.031 66.5547V70.2188C155.031 70.849 155.128 71.2552 155.32 71.4375C155.518 71.6198 155.893 71.7109 156.445 71.7109V72H152.516V71.7109C152.964 71.6953 153.276 71.5964 153.453 71.4141C153.635 71.2266 153.727 70.8281 153.727 70.2188V66.8203C153.727 66.2161 153.659 65.8464 153.523 65.7109C153.393 65.5703 153.229 65.5 153.031 65.5C152.896 65.5 152.755 65.5312 152.609 65.5938L152.516 65.3281L154.734 64.4062H155.031ZM164.875 69.3906C164.703 70.2708 164.341 70.9635 163.789 71.4688C163.242 71.9688 162.609 72.2188 161.891 72.2188C161.031 72.2188 160.294 71.8854 159.68 71.2188C159.065 70.5469 158.758 69.6016 158.758 68.3828C158.758 67.2005 159.057 66.2422 159.656 65.5078C160.255 64.7734 161.057 64.4062 162.062 64.4062C162.911 64.4062 163.591 64.6849 164.102 65.2422C164.617 65.7943 164.875 66.5026 164.875 67.3672H159.852C159.846 67.4974 159.844 67.5964 159.844 67.6641C159.844 68.4609 160.086 69.2109 160.57 69.9141C161.055 70.6172 161.695 70.9688 162.492 70.9688C163.518 70.9688 164.229 70.3984 164.625 69.2578L164.875 69.3906ZM163.219 66.875C163.203 66.2656 163.047 65.7969 162.75 65.4688C162.458 65.1406 162.086 64.9766 161.633 64.9766C161.174 64.9766 160.781 65.1484 160.453 65.4922C160.125 65.8359 159.935 66.2969 159.883 66.875H163.219ZM170.227 64.5781V66.8359H169.937C169.865 66.2786 169.659 65.8099 169.32 65.4297C168.987 65.0443 168.589 64.8516 168.125 64.8516C167.75 64.8516 167.44 64.9453 167.195 65.1328C166.956 65.3203 166.836 65.5391 166.836 65.7891C166.836 66.1328 166.956 66.4245 167.195 66.6641C167.435 66.9089 167.828 67.1641 168.375 67.4297C169.276 67.8672 169.901 68.2708 170.25 68.6406C170.599 69.0156 170.773 69.4714 170.773 70.0078C170.773 70.7214 170.51 71.2682 169.984 71.6484C169.464 72.0286 168.93 72.2188 168.383 72.2188C168.044 72.2188 167.622 72.1432 167.117 71.9922C166.862 71.9193 166.687 71.8828 166.594 71.8828C166.479 71.8828 166.38 71.9219 166.297 72H165.969V69.5H166.242C166.352 70.25 166.612 70.8099 167.023 71.1797C167.44 71.5495 167.896 71.7344 168.391 71.7344C168.714 71.7344 169 71.6276 169.25 71.4141C169.505 71.2005 169.633 70.9427 169.633 70.6406C169.633 70.276 169.51 69.9635 169.266 69.7031C169.016 69.4479 168.482 69.0911 167.664 68.6328C166.867 68.1901 166.378 67.8099 166.195 67.4922C166.013 67.1797 165.922 66.8542 165.922 66.5156C165.922 65.9062 166.133 65.4036 166.555 65.0078C166.982 64.6068 167.51 64.4062 168.141 64.4062C168.396 64.4062 168.698 64.4557 169.047 64.5547C169.318 64.6328 169.508 64.6719 169.617 64.6719C169.747 64.6719 169.854 64.6406 169.937 64.5781H170.227ZM176.398 64.5781V66.8359H176.109C176.036 66.2786 175.831 65.8099 175.492 65.4297C175.159 65.0443 174.76 64.8516 174.297 64.8516C173.922 64.8516 173.612 64.9453 173.367 65.1328C173.128 65.3203 173.008 65.5391 173.008 65.7891C173.008 66.1328 173.128 66.4245 173.367 66.6641C173.607 66.9089 174 67.1641 174.547 67.4297C175.448 67.8672 176.073 68.2708 176.422 68.6406C176.771 69.0156 176.945 69.4714 176.945 70.0078C176.945 70.7214 176.682 71.2682 176.156 71.6484C175.635 72.0286 175.102 72.2188 174.555 72.2188C174.216 72.2188 173.794 72.1432 173.289 71.9922C173.034 71.9193 172.859 71.8828 172.766 71.8828C172.651 71.8828 172.552 71.9219 172.469 72H172.141V69.5H172.414C172.523 70.25 172.784 70.8099 173.195 71.1797C173.612 71.5495 174.068 71.7344 174.562 71.7344C174.885 71.7344 175.172 71.6276 175.422 71.4141C175.677 71.2005 175.805 70.9427 175.805 70.6406C175.805 70.276 175.682 69.9635 175.437 69.7031C175.187 69.4479 174.654 69.0911 173.836 68.6328C173.039 68.1901 172.549 67.8099 172.367 67.4922C172.185 67.1797 172.094 66.8542 172.094 66.5156C172.094 65.9062 172.305 65.4036 172.727 65.0078C173.154 64.6068 173.682 64.4062 174.312 64.4062C174.568 64.4062 174.87 64.4557 175.219 64.5547C175.49 64.6328 175.68 64.6719 175.789 64.6719C175.919 64.6719 176.026 64.6406 176.109 64.5781H176.398ZM179.805 60.4844C180.029 60.4844 180.221 60.5651 180.383 60.7266C180.544 60.8828 180.625 61.0755 180.625 61.3047C180.625 61.5391 180.544 61.737 180.383 61.8984C180.221 62.0547 180.029 62.1328 179.805 62.1328C179.576 62.1328 179.38 62.0521 179.219 61.8906C179.057 61.7292 178.977 61.5339 178.977 61.3047C178.977 61.0807 179.057 60.888 179.219 60.7266C179.38 60.5651 179.576 60.4844 179.805 60.4844ZM177.984 65.2422L180.203 64.4062H180.477V70.2266C180.477 70.8099 180.555 71.1953 180.711 71.3828C180.872 71.5703 181.164 71.6797 181.586 71.7109V72H177.984V71.7109C178.38 71.7005 178.685 71.6198 178.898 71.4688C179.117 71.3125 179.227 70.8984 179.227 70.2266V66.6875C179.227 66.25 179.167 65.9349 179.047 65.7422C178.932 65.5495 178.727 65.4531 178.43 65.4531C178.305 65.4531 178.185 65.4792 178.07 65.5312L177.984 65.2422ZM190.07 68.0547C190.07 69.1536 189.693 70.1224 188.937 70.9609C188.187 71.7995 187.286 72.2188 186.234 72.2188C185.281 72.2188 184.448 71.862 183.734 71.1484C183.021 70.4297 182.664 69.5469 182.664 68.5C182.664 67.4688 183.029 66.5286 183.758 65.6797C184.487 64.8307 185.401 64.4062 186.5 64.4062C187.464 64.4062 188.299 64.7708 189.008 65.5C189.716 66.224 190.07 67.0755 190.07 68.0547ZM188.625 68.7188C188.625 67.7083 188.398 66.8307 187.945 66.0859C187.492 65.3359 186.885 64.9609 186.125 64.9609C185.505 64.9609 185.013 65.2214 184.648 65.7422C184.289 66.2578 184.109 66.9635 184.109 67.8594C184.109 68.8698 184.339 69.7578 184.797 70.5234C185.255 71.2891 185.854 71.6719 186.594 71.6719C187.182 71.6719 187.667 71.4089 188.047 70.8828C188.432 70.3568 188.625 69.6354 188.625 68.7188ZM193.664 64.4062V65.9688C194.18 65.3854 194.622 64.9792 194.992 64.75C195.362 64.5208 195.766 64.4062 196.203 64.4062C196.797 64.4062 197.271 64.6276 197.625 65.0703C197.979 65.5182 198.156 66.1667 198.156 67.0156V70.2266C198.156 70.7943 198.237 71.1797 198.398 71.3828C198.565 71.5859 198.859 71.6953 199.281 71.7109V72H195.539V71.7109C196.034 71.7109 196.375 71.6146 196.562 71.4219C196.75 71.2292 196.844 70.8307 196.844 70.2266V67.0938C196.844 66.5156 196.734 66.0807 196.516 65.7891C196.302 65.4922 195.987 65.3438 195.57 65.3438C195.258 65.3438 194.943 65.4323 194.625 65.6094C194.307 65.7865 193.987 66.0521 193.664 66.4062V70.2266C193.664 70.7839 193.745 71.1693 193.906 71.3828C194.073 71.5911 194.396 71.7005 194.875 71.7109V72H191.203V71.7109C191.672 71.7005 191.982 71.5885 192.133 71.375C192.284 71.1562 192.359 70.7734 192.359 70.2266V66.625C192.359 65.8438 192.143 65.4531 191.711 65.4531C191.56 65.4531 191.391 65.4974 191.203 65.5859L191.094 65.2812L193.391 64.4062H193.664Z" fill="white"/>
</svg>
