<svg width="402" height="273" viewBox="0 0 402 273" fill="none" xmlns="http://www.w3.org/2000/svg">
<mask id="path-1-inside-1_25_215" fill="white">
<path d="M283.322 54.6777C281.001 52.3562 279.159 49.6002 277.903 46.5671C276.647 43.534 276 40.2831 276 37L301 37L283.322 54.6777Z"/>
</mask>
<path d="M283.322 54.6777C281.001 52.3562 279.159 49.6002 277.903 46.5671C276.647 43.534 276 40.2831 276 37L301 37L283.322 54.6777Z" stroke="#FF0000" stroke-width="4" mask="url(#path-1-inside-1_25_215)"/>
<mask id="path-2-inside-2_25_215" fill="white">
<path d="M318.678 19.3224C323.366 24.0108 326 30.3696 326 37L301 37L318.678 19.3224Z"/>
</mask>
<path d="M318.678 19.3224C323.366 24.0108 326 30.3696 326 37L301 37L318.678 19.3224Z" stroke="#FF0000" stroke-width="4" mask="url(#path-2-inside-2_25_215)"/>
<mask id="path-3-inside-3_25_215" fill="white">
<path d="M83.3223 254.678C81.0009 252.356 79.1594 249.6 77.903 246.567C76.6466 243.534 76 240.283 76 237L101 237L83.3223 254.678Z"/>
</mask>
<path d="M83.3223 254.678C81.0009 252.356 79.1594 249.6 77.903 246.567C76.6466 243.534 76 240.283 76 237L101 237L83.3223 254.678Z" stroke="#FF0000" stroke-width="4" mask="url(#path-3-inside-3_25_215)"/>
<mask id="path-4-inside-4_25_215" fill="white">
<path d="M118.678 219.322C123.366 224.011 126 230.37 126 237L101 237L118.678 219.322Z"/>
</mask>
<path d="M118.678 219.322C123.366 224.011 126 230.37 126 237L101 237L118.678 219.322Z" stroke="#FF0000" stroke-width="4" mask="url(#path-4-inside-4_25_215)"/>
<mask id="path-5-inside-5_25_215" fill="white">
<path d="M76 237C76 232.055 77.4662 227.222 80.2133 223.111C82.9603 219 86.8648 215.795 91.4329 213.903C96.0011 212.011 101.028 211.516 105.877 212.48C110.727 213.445 115.181 215.826 118.678 219.322L101 237L76 237Z"/>
</mask>
<path d="M76 237C76 232.055 77.4662 227.222 80.2133 223.111C82.9603 219 86.8648 215.795 91.4329 213.903C96.0011 212.011 101.028 211.516 105.877 212.48C110.727 213.445 115.181 215.826 118.678 219.322L101 237L76 237Z" stroke="#0000FF" stroke-width="4" mask="url(#path-5-inside-5_25_215)"/>
<mask id="path-6-inside-6_25_215" fill="white">
<path d="M126 237C126 241.945 124.534 246.778 121.787 250.889C119.04 255 115.135 258.205 110.567 260.097C105.999 261.989 100.972 262.484 96.1227 261.52C91.2732 260.555 86.8186 258.174 83.3223 254.678L101 237H126Z"/>
</mask>
<path d="M126 237C126 241.945 124.534 246.778 121.787 250.889C119.04 255 115.135 258.205 110.567 260.097C105.999 261.989 100.972 262.484 96.1227 261.52C91.2732 260.555 86.8186 258.174 83.3223 254.678L101 237H126Z" stroke="#0000FF" stroke-width="4" mask="url(#path-6-inside-6_25_215)"/>
<mask id="path-7-inside-7_25_215" fill="white">
<path d="M276 37C276 32.0555 277.466 27.222 280.213 23.1108C282.96 18.9995 286.865 15.7952 291.433 13.903C296.001 12.0108 301.028 11.5158 305.877 12.4804C310.727 13.445 315.181 15.826 318.678 19.3224L301 37L276 37Z"/>
</mask>
<path d="M276 37C276 32.0555 277.466 27.222 280.213 23.1108C282.96 18.9995 286.865 15.7952 291.433 13.903C296.001 12.0108 301.028 11.5158 305.877 12.4804C310.727 13.445 315.181 15.826 318.678 19.3224L301 37L276 37Z" stroke="#0000FF" stroke-width="4" mask="url(#path-7-inside-7_25_215)"/>
<mask id="path-8-inside-8_25_215" fill="white">
<path d="M326 37C326 41.9446 324.534 46.778 321.787 50.8893C319.04 55.0005 315.135 58.2048 310.567 60.097C305.999 61.9892 300.972 62.4843 296.123 61.5197C291.273 60.555 286.819 58.174 283.322 54.6777L301 37H326Z"/>
</mask>
<path d="M326 37C326 41.9446 324.534 46.778 321.787 50.8893C319.04 55.0005 315.135 58.2048 310.567 60.097C305.999 61.9892 300.972 62.4843 296.123 61.5197C291.273 60.555 286.819 58.174 283.322 54.6777L301 37H326Z" stroke="#0000FF" stroke-width="4" mask="url(#path-8-inside-8_25_215)"/>
<path d="M65 271.709C65 272.261 65.4477 272.709 66 272.709L75 272.709C75.5523 272.709 76 272.261 76 271.709C76 271.157 75.5523 270.709 75 270.709L67 270.709L67 262.709C67 262.157 66.5523 261.709 66 261.709C65.4477 261.709 65 262.157 65 262.709L65 271.709ZM337.709 1.00011C337.709 0.447824 337.261 0.000108546 336.709 0.000108593L327.709 0.000109352C327.156 0.000109398 326.709 0.447825 326.709 1.00011C326.709 1.55239 327.156 2.00011 327.709 2.00011L335.709 2.00011L335.709 10.0001C335.709 10.5524 336.156 11.0001 336.709 11.0001C337.261 11.0001 337.709 10.5524 337.709 10.0001L337.709 1.00011ZM66.7071 272.416L337.416 1.70722L336.002 0.293002L65.2929 271.002L66.7071 272.416Z" fill="white"/>
<path d="M301.707 237.707C302.098 237.317 302.098 236.684 301.707 236.293L295.343 229.929C294.953 229.539 294.319 229.539 293.929 229.929C293.538 230.32 293.538 230.953 293.929 231.343L299.586 237L293.929 242.657C293.538 243.048 293.538 243.681 293.929 244.071C294.319 244.462 294.953 244.462 295.343 244.071L301.707 237.707ZM0.292817 236.293C-0.0977074 236.684 -0.0977073 237.317 0.292817 237.707L6.65678 244.071C7.0473 244.462 7.68047 244.462 8.07099 244.071C8.46152 243.681 8.46152 243.048 8.07099 242.657L2.41414 237L8.07099 231.343C8.46152 230.953 8.46152 230.32 8.07099 229.929C7.68047 229.539 7.0473 229.539 6.65678 229.929L0.292817 236.293ZM301 236L0.999924 236L0.999924 238L301 238L301 236Z" fill="white"/>
<path d="M100.293 36.293C99.9025 36.6836 99.9025 37.3167 100.293 37.7072L106.657 44.0712C107.048 44.4617 107.681 44.4617 108.071 44.0712C108.462 43.6807 108.462 43.0475 108.071 42.657L102.414 37.0001L108.071 31.3433C108.462 30.9528 108.462 30.3196 108.071 29.9291C107.681 29.5385 107.048 29.5385 106.657 29.9291L100.293 36.293ZM401.707 37.7073C402.098 37.3167 402.098 36.6836 401.707 36.293L395.343 29.9291C394.953 29.5386 394.32 29.5386 393.929 29.9291C393.539 30.3196 393.539 30.9528 393.929 31.3433L399.586 37.0002L393.929 42.657C393.539 43.0475 393.539 43.6807 393.929 44.0712C394.32 44.4617 394.953 44.4617 395.343 44.0712L401.707 37.7073ZM101 38.0001L401 38.0002L401 36.0002L101 36.0001L101 38.0001Z" fill="white"/>
<path d="M231.707 37.7071C232.098 37.3166 232.098 36.6834 231.707 36.2929L225.343 29.929C224.953 29.5384 224.319 29.5384 223.929 29.929C223.538 30.3195 223.538 30.9526 223.929 31.3432L229.586 37L223.929 42.6569C223.538 43.0474 223.538 43.6806 223.929 44.0711C224.319 44.4616 224.953 44.4616 225.343 44.0711L231.707 37.7071ZM231 36L201 36L201 38L231 38L231 36Z" fill="white"/>
<path d="M246.707 37.7071C247.098 37.3166 247.098 36.6834 246.707 36.2929L240.343 29.929C239.953 29.5384 239.319 29.5384 238.929 29.929C238.538 30.3195 238.538 30.9526 238.929 31.3432L244.586 37L238.929 42.6569C238.538 43.0474 238.538 43.6806 238.929 44.0711C239.319 44.4616 239.953 44.4616 240.343 44.0711L246.707 37.7071ZM246 36L216 36L216 38L246 38L246 36Z" fill="white"/>
<path d="M231.707 237.707C232.098 237.317 232.098 236.683 231.707 236.293L225.343 229.929C224.953 229.538 224.319 229.538 223.929 229.929C223.538 230.319 223.538 230.953 223.929 231.343L229.586 237L223.929 242.657C223.538 243.047 223.538 243.681 223.929 244.071C224.319 244.462 224.953 244.462 225.343 244.071L231.707 237.707ZM231 236L201 236L201 238L231 238L231 236Z" fill="white"/>
<path d="M246.707 237.707C247.098 237.317 247.098 236.683 246.707 236.293L240.343 229.929C239.953 229.538 239.319 229.538 238.929 229.929C238.538 230.319 238.538 230.953 238.929 231.343L244.586 237L238.929 242.657C238.538 243.047 238.538 243.681 238.929 244.071C239.319 244.462 239.953 244.462 240.343 244.071L246.707 237.707ZM246 236L216 236L216 238L246 238L246 236Z" fill="white"/>
</svg>
