<svg width="275" height="236" viewBox="0 0 275 236" fill="none" xmlns="http://www.w3.org/2000/svg">
<rect x="1.5" y="1.5" width="272" height="197" fill="#0000FF" stroke="white" stroke-width="3"/>
<circle cx="175" cy="100" r="73.5" stroke="white" stroke-width="3"/>
<circle cx="175" cy="100" r="73.5" stroke="white" stroke-width="3"/>
<circle cx="100" cy="100" r="73.5" stroke="white" stroke-width="3"/>
<path d="M68.3388 108H63.8047L69.6939 90.5455H75.3104L81.1996 108H76.6655L72.5661 94.9432H72.4297L68.3388 108ZM67.7337 101.131H77.2109V104.335H67.7337V101.131Z" fill="white"/>
<path d="M199.352 108V90.5455H206.631C207.938 90.5455 209.031 90.7301 209.912 91.0994C210.798 91.4687 211.463 91.9858 211.906 92.6506C212.355 93.3153 212.58 94.0852 212.58 94.9602C212.58 95.625 212.44 96.2188 212.162 96.7415C211.884 97.2585 211.5 97.6875 211.011 98.0284C210.523 98.3693 209.957 98.608 209.315 98.7443V98.9148C210.02 98.9489 210.67 99.1392 211.267 99.4858C211.869 99.8324 212.352 100.315 212.716 100.935C213.08 101.548 213.261 102.276 213.261 103.116C213.261 104.054 213.023 104.892 212.545 105.631C212.068 106.364 211.378 106.943 210.474 107.369C209.571 107.79 208.474 108 207.185 108H199.352ZM203.571 104.599H206.179C207.094 104.599 207.767 104.426 208.199 104.08C208.636 103.733 208.855 103.25 208.855 102.631C208.855 102.182 208.75 101.795 208.54 101.472C208.33 101.142 208.031 100.889 207.645 100.713C207.259 100.531 206.795 100.44 206.256 100.44H203.571V104.599ZM203.571 97.7216H205.906C206.366 97.7216 206.776 97.6449 207.134 97.4915C207.491 97.3381 207.77 97.1165 207.969 96.8267C208.173 96.5369 208.276 96.1875 208.276 95.7784C208.276 95.1932 208.068 94.733 207.653 94.3977C207.239 94.0625 206.679 93.8949 205.974 93.8949H203.571V97.7216Z" fill="white"/>
<path d="M27.483 220.054V216.628H39.679V220.054H27.483ZM27.483 225.918V222.491H39.679V225.918H27.483ZM52.0732 230H47.5391L53.4283 212.545H59.0447L64.9339 230H60.3999L56.3004 216.943H56.1641L52.0732 230ZM51.468 223.131H60.9453V226.335H51.468V223.131ZM71.8484 230V222.296C71.8484 216.92 74.2724 214.064 78.8564 214.064C83.4644 214.064 85.8644 216.92 85.8644 222.296V230H84.1364V222.224C84.1364 217.856 82.4084 215.696 78.8564 215.696C75.3044 215.696 73.5764 217.832 73.5764 222.224V230H71.8484ZM93.532 230V212.545H100.81C102.117 212.545 103.211 212.73 104.092 213.099C104.978 213.469 105.643 213.986 106.086 214.651C106.535 215.315 106.759 216.085 106.759 216.96C106.759 217.625 106.62 218.219 106.342 218.741C106.063 219.259 105.68 219.687 105.191 220.028C104.702 220.369 104.137 220.608 103.495 220.744V220.915C104.2 220.949 104.85 221.139 105.447 221.486C106.049 221.832 106.532 222.315 106.896 222.935C107.259 223.548 107.441 224.276 107.441 225.116C107.441 226.054 107.202 226.892 106.725 227.631C106.248 228.364 105.558 228.943 104.654 229.369C103.751 229.79 102.654 230 101.364 230H93.532ZM97.7507 226.599H100.359C101.273 226.599 101.947 226.426 102.379 226.08C102.816 225.733 103.035 225.25 103.035 224.631C103.035 224.182 102.93 223.795 102.719 223.472C102.509 223.142 102.211 222.889 101.825 222.713C101.438 222.531 100.975 222.44 100.435 222.44H97.7507V226.599ZM97.7507 219.722H100.086C100.546 219.722 100.955 219.645 101.313 219.491C101.671 219.338 101.95 219.116 102.148 218.827C102.353 218.537 102.455 218.187 102.455 217.778C102.455 217.193 102.248 216.733 101.833 216.398C101.418 216.062 100.859 215.895 100.154 215.895H97.7507V219.722ZM113.987 215.247L111.404 211.403H115.094L116.825 215.247H113.987ZM127.374 221.741V218.324H139.57V221.741H127.374ZM127.374 227.605V224.188H139.57V227.605H127.374ZM149.015 223.131C149.015 221.023 149.299 219.085 149.867 217.318C150.435 215.545 151.322 213.901 152.526 212.384H156.566C156.112 212.946 155.688 213.631 155.296 214.438C154.904 215.244 154.563 216.128 154.273 217.088C153.989 218.048 153.765 219.043 153.6 220.071C153.441 221.099 153.362 222.119 153.362 223.131C153.362 224.472 153.501 225.827 153.779 227.196C154.058 228.56 154.438 229.824 154.921 230.989C155.404 232.159 155.952 233.119 156.566 233.869H152.526C151.322 232.352 150.435 230.71 149.867 228.943C149.299 227.17 149.015 225.233 149.015 223.131ZM162.551 222.534V230H158.384V216.909H162.347V219.312H162.491C162.781 218.511 163.276 217.884 163.974 217.429C164.673 216.969 165.506 216.739 166.472 216.739C167.392 216.739 168.19 216.946 168.866 217.361C169.548 217.77 170.077 218.344 170.452 219.082C170.832 219.815 171.02 220.673 171.014 221.656V230H166.847V222.474C166.852 221.747 166.668 221.179 166.293 220.77C165.923 220.361 165.409 220.156 164.75 220.156C164.312 220.156 163.926 220.253 163.591 220.446C163.261 220.634 163.006 220.903 162.824 221.256C162.648 221.608 162.557 222.034 162.551 222.534ZM179.705 230.247C178.33 230.247 177.148 229.966 176.16 229.403C175.177 228.835 174.418 228.045 173.884 227.034C173.356 226.017 173.092 224.838 173.092 223.497C173.092 222.151 173.356 220.972 173.884 219.96C174.418 218.943 175.177 218.153 176.16 217.591C177.148 217.023 178.33 216.739 179.705 216.739C181.08 216.739 182.259 217.023 183.242 217.591C184.231 218.153 184.989 218.943 185.518 219.96C186.052 220.972 186.319 222.151 186.319 223.497C186.319 224.838 186.052 226.017 185.518 227.034C184.989 228.045 184.231 228.835 183.242 229.403C182.259 229.966 181.08 230.247 179.705 230.247ZM179.731 227.102C180.231 227.102 180.654 226.949 181.001 226.642C181.347 226.335 181.612 225.909 181.793 225.364C181.981 224.818 182.075 224.187 182.075 223.472C182.075 222.744 181.981 222.108 181.793 221.562C181.612 221.017 181.347 220.591 181.001 220.284C180.654 219.977 180.231 219.824 179.731 219.824C179.214 219.824 178.776 219.977 178.418 220.284C178.066 220.591 177.796 221.017 177.609 221.562C177.427 222.108 177.336 222.744 177.336 223.472C177.336 224.187 177.427 224.818 177.609 225.364C177.796 225.909 178.066 226.335 178.418 226.642C178.776 226.949 179.214 227.102 179.731 227.102ZM195.843 216.909V219.977H187.585V216.909H195.843ZM189.315 213.773H193.482V225.884C193.482 226.139 193.522 226.347 193.602 226.506C193.687 226.659 193.809 226.77 193.968 226.838C194.127 226.901 194.317 226.932 194.539 226.932C194.698 226.932 194.866 226.918 195.042 226.889C195.224 226.855 195.36 226.827 195.451 226.804L196.082 229.812C195.883 229.869 195.602 229.94 195.238 230.026C194.88 230.111 194.451 230.165 193.951 230.188C192.974 230.233 192.136 230.119 191.437 229.847C190.744 229.568 190.212 229.136 189.843 228.551C189.479 227.966 189.303 227.23 189.315 226.344V213.773ZM202.418 222.534V230H198.251V212.545H202.282V219.312H202.427C202.722 218.506 203.205 217.875 203.876 217.42C204.552 216.966 205.379 216.739 206.356 216.739C207.276 216.739 208.077 216.943 208.759 217.352C209.441 217.756 209.969 218.327 210.344 219.065C210.725 219.804 210.913 220.668 210.907 221.656V230H206.739V222.474C206.745 221.747 206.563 221.179 206.194 220.77C205.825 220.361 205.305 220.156 204.634 220.156C204.197 220.156 203.81 220.253 203.475 220.446C203.146 220.634 202.887 220.903 202.7 221.256C202.518 221.608 202.424 222.034 202.418 222.534ZM213.509 230V216.909H217.676V230H213.509ZM215.597 215.384C215.011 215.384 214.509 215.19 214.088 214.804C213.668 214.412 213.457 213.94 213.457 213.389C213.457 212.844 213.668 212.378 214.088 211.991C214.509 211.599 215.011 211.403 215.597 211.403C216.188 211.403 216.69 211.599 217.105 211.991C217.526 212.378 217.736 212.844 217.736 213.389C217.736 213.94 217.526 214.412 217.105 214.804C216.69 215.19 216.188 215.384 215.597 215.384ZM224.496 222.534V230H220.329V216.909H224.292V219.312H224.437C224.727 218.511 225.221 217.884 225.92 217.429C226.619 216.969 227.451 216.739 228.417 216.739C229.337 216.739 230.136 216.946 230.812 217.361C231.494 217.77 232.022 218.344 232.397 219.082C232.778 219.815 232.965 220.673 232.96 221.656V230H228.792V222.474C228.798 221.747 228.613 221.179 228.238 220.77C227.869 220.361 227.354 220.156 226.695 220.156C226.258 220.156 225.871 220.253 225.536 220.446C225.207 220.634 224.951 220.903 224.769 221.256C224.593 221.608 224.502 222.034 224.496 222.534ZM241.642 235.182C240.398 235.182 239.332 235.009 238.446 234.662C237.56 234.315 236.864 233.841 236.358 233.239C235.852 232.636 235.548 231.955 235.446 231.193L239.392 230.972C239.466 231.239 239.602 231.472 239.801 231.67C240.006 231.869 240.27 232.023 240.594 232.131C240.923 232.239 241.31 232.293 241.753 232.293C242.452 232.293 243.028 232.122 243.483 231.781C243.943 231.446 244.173 230.858 244.173 230.017V227.716H244.028C243.864 228.119 243.614 228.48 243.278 228.798C242.943 229.116 242.526 229.366 242.026 229.548C241.531 229.73 240.963 229.821 240.321 229.821C239.366 229.821 238.491 229.599 237.696 229.156C236.906 228.707 236.273 228.014 235.795 227.077C235.324 226.134 235.088 224.92 235.088 223.438C235.088 221.909 235.332 220.651 235.821 219.662C236.31 218.668 236.949 217.932 237.739 217.455C238.534 216.977 239.389 216.739 240.304 216.739C240.991 216.739 241.58 216.858 242.068 217.097C242.563 217.33 242.969 217.631 243.287 218C243.605 218.369 243.847 218.753 244.011 219.151H244.131V216.909H248.281V230.051C248.281 231.159 248.003 232.094 247.446 232.855C246.889 233.616 246.111 234.193 245.111 234.585C244.111 234.983 242.955 235.182 241.642 235.182ZM241.77 226.787C242.276 226.787 242.707 226.653 243.065 226.386C243.423 226.119 243.699 225.736 243.892 225.236C244.085 224.736 244.182 224.136 244.182 223.438C244.182 222.727 244.085 222.116 243.892 221.605C243.705 221.088 243.429 220.69 243.065 220.412C242.707 220.134 242.276 219.994 241.77 219.994C241.253 219.994 240.815 220.136 240.457 220.42C240.099 220.705 239.827 221.105 239.639 221.622C239.457 222.134 239.366 222.739 239.366 223.438C239.366 224.136 239.46 224.736 239.648 225.236C239.835 225.736 240.105 226.119 240.457 226.386C240.815 226.653 241.253 226.787 241.77 226.787ZM257.663 223.131C257.663 225.233 257.379 227.17 256.81 228.943C256.242 230.71 255.356 232.352 254.151 233.869H250.112C250.572 233.307 250.995 232.622 251.381 231.815C251.773 231.009 252.112 230.125 252.396 229.165C252.685 228.205 252.91 227.21 253.069 226.182C253.234 225.153 253.316 224.136 253.316 223.131C253.316 221.784 253.177 220.429 252.898 219.065C252.62 217.696 252.239 216.429 251.756 215.264C251.273 214.094 250.725 213.134 250.112 212.384H254.151C255.356 213.901 256.242 215.545 256.81 217.318C257.379 219.085 257.663 221.023 257.663 223.131Z" fill="white"/>
<rect x="1.5" y="211.5" width="17" height="17" fill="#FF0000" stroke="white" stroke-width="3"/>
</svg>
