<svg width="275" height="234" viewBox="0 0 275 234" fill="none" xmlns="http://www.w3.org/2000/svg">
<rect x="1.5" y="1.5" width="272" height="197" fill="#FF0000" stroke="white" stroke-width="3"/>
<circle cx="175" cy="100" r="73.5" fill="#0000FF" stroke="white" stroke-width="3"/>
<circle cx="100" cy="100" r="73.5" stroke="white" stroke-width="3"/>
<path d="M68.3388 108H63.8047L69.6939 90.5455H75.3104L81.1996 108H76.6655L72.5661 94.9432H72.4297L68.3388 108ZM67.7337 101.131H77.2109V104.335H67.7337V101.131Z" fill="white"/>
<path d="M199.352 108V90.5455H206.631C207.938 90.5455 209.031 90.7301 209.912 91.0994C210.798 91.4687 211.463 91.9858 211.906 92.6506C212.355 93.3153 212.58 94.0852 212.58 94.9602C212.58 95.625 212.44 96.2188 212.162 96.7415C211.884 97.2585 211.5 97.6875 211.011 98.0284C210.523 98.3693 209.957 98.608 209.315 98.7443V98.9148C210.02 98.9489 210.67 99.1392 211.267 99.4858C211.869 99.8324 212.352 100.315 212.716 100.935C213.08 101.548 213.261 102.276 213.261 103.116C213.261 104.054 213.023 104.892 212.545 105.631C212.068 106.364 211.378 106.943 210.474 107.369C209.571 107.79 208.474 108 207.185 108H199.352ZM203.571 104.599H206.179C207.094 104.599 207.767 104.426 208.199 104.08C208.636 103.733 208.855 103.25 208.855 102.631C208.855 102.182 208.75 101.795 208.54 101.472C208.33 101.142 208.031 100.889 207.645 100.713C207.259 100.531 206.795 100.44 206.256 100.44H203.571V104.599ZM203.571 97.7216H205.906C206.366 97.7216 206.776 97.6449 207.134 97.4915C207.491 97.3381 207.77 97.1165 207.969 96.8267C208.173 96.5369 208.276 96.1875 208.276 95.7784C208.276 95.1932 208.068 94.733 207.653 94.3977C207.239 94.0625 206.679 93.8949 205.974 93.8949H203.571V97.7216Z" fill="white"/>
<path d="M27.4673 218.054V214.628H39.6634V218.054H27.4673ZM27.4673 223.918V220.491H39.6634V223.918H27.4673ZM48.282 228V210.545H55.5604C56.8672 210.545 57.9609 210.73 58.8416 211.099C59.728 211.469 60.3928 211.986 60.8359 212.651C61.2848 213.315 61.5092 214.085 61.5092 214.96C61.5092 215.625 61.37 216.219 61.0916 216.741C60.8132 217.259 60.4297 217.687 59.9411 218.028C59.4524 218.369 58.8871 218.608 58.245 218.744V218.915C58.9496 218.949 59.6001 219.139 60.1967 219.486C60.799 219.832 61.282 220.315 61.6456 220.935C62.0092 221.548 62.1911 222.276 62.1911 223.116C62.1911 224.054 61.9524 224.892 61.4751 225.631C60.9979 226.364 60.3075 226.943 59.4041 227.369C58.5007 227.79 57.4041 228 56.1143 228H48.282ZM52.5007 224.599H55.1087C56.0234 224.599 56.6967 224.426 57.1286 224.08C57.5661 223.733 57.7848 223.25 57.7848 222.631C57.7848 222.182 57.6797 221.795 57.4695 221.472C57.2592 221.142 56.9609 220.889 56.5746 220.713C56.1882 220.531 55.7251 220.44 55.1854 220.44H52.5007V224.599ZM52.5007 217.722H54.8359C55.2962 217.722 55.7053 217.645 56.0632 217.491C56.4212 217.338 56.6996 217.116 56.8984 216.827C57.103 216.537 57.2053 216.187 57.2053 215.778C57.2053 215.193 56.9979 214.733 56.5831 214.398C56.1683 214.062 55.6087 213.895 54.9041 213.895H52.5007V217.722ZM68.7365 213.247L66.1541 209.403H69.8445L71.5746 213.247H68.7365Z" fill="white"/>
<rect x="1.5" y="211.5" width="17" height="17" fill="#FF0000" stroke="white" stroke-width="3"/>
</svg>
