<svg width="275" height="236" viewBox="0 0 275 236" fill="none" xmlns="http://www.w3.org/2000/svg">
<rect x="1.5" y="1.5" width="272" height="197" fill="#FF0000" stroke="white" stroke-width="3"/>
<circle cx="175" cy="100" r="73.5" fill="#FF0000" stroke="white" stroke-width="3"/>
<circle cx="100" cy="100" r="73.5" fill="#FF0000" stroke="white" stroke-width="3"/>
<circle cx="175" cy="100" r="73.5" fill="#0000FF" stroke="white" stroke-width="3"/>
<path d="M145.375 32.25C144.523 32.6557 143.606 33.1236 142.694 33.375C142.211 33.5083 141.892 33.8117 141.479 34.0694C141.353 34.1484 140.237 34.8307 140.495 34.9706M140.495 34.9706C140.515 34.9817 140.544 34.9894 140.583 34.9931C140.725 35.0065 140.866 35.0076 141.007 34.999M140.495 34.9706C140.597 34.9867 140.708 35 140.826 35C140.887 35 140.947 34.9997 141.007 34.999M140.495 34.9706C140.035 34.8976 139.771 34.7672 139.903 35.5556C140.24 37.5794 143.036 39.3853 144.847 40.0694C144.89 40.0857 145.585 40.1604 145.569 40.0972C145.518 39.8898 145.096 39.5675 144.972 39.4167C144.522 38.8696 144.101 38.304 143.625 37.7778C143.103 37.2003 142.432 36.6368 142.125 35.9028C142.096 35.8336 141.918 35.4644 142.139 35.7222C142.904 36.6152 143.643 37.53 144.417 38.4167C145.642 39.8209 146.916 41.5406 148.535 42.5278C149.787 43.2914 148.471 40.9101 148.333 40.6458C147.319 38.7026 145.711 36.8971 144.958 34.8403C144.884 34.6373 144.695 34.1818 145 34.7292C145.511 35.6451 146.076 36.5305 146.708 37.3681C148.105 39.2184 149.837 40.7882 151.299 42.5903L151.301 42.5936C151.411 42.7289 152.875 44.5347 152.875 43.9375C152.875 43.215 154.277 44.6725 154.389 44.7986C155.528 46.085 156.347 47.5673 157.306 48.9792C157.962 49.9465 159.026 50.4588 159.688 51.375C160.46 52.444 161.261 53.4832 161.91 54.6181C162.021 54.8136 162.126 55.0116 162.226 55.2115M141.007 34.999C141.668 34.9584 142.32 34.7022 142.938 34.5C143.277 34.3889 144.681 33.7795 143.688 34.3681C142.824 34.8795 141.965 34.988 141.007 34.999ZM162.226 55.2115C162.614 55.9897 162.928 56.7958 163.292 57.5903C163.629 58.326 162.335 56.7139 162.299 56.6667C161.821 56.0502 161.335 55.4339 160.979 54.7361C160.974 54.7258 160.598 54.0896 160.903 54.2083C161.372 54.3909 161.835 54.8031 162.226 55.2115ZM162.226 55.2115C162.381 55.3733 162.524 55.5345 162.653 55.6806C163.218 56.3243 163.592 57.3461 164.028 58.0833C164.816 59.4148 165.695 60.688 166.597 61.9444C166.795 62.2205 166.929 62.5275 167 62.8611C167.049 63.0914 167.275 63.6865 167.194 63.9167C167.177 63.9674 166.394 62.9208 166.197 62.6569M166.197 62.6569C166.169 62.6192 166.153 62.5972 166.153 62.5972C165.448 61.5154 163.384 58.277 164.278 59.2083C164.994 59.9542 165.393 61.264 165.903 62.1528C166 62.3221 166.098 62.4901 166.197 62.6569ZM166.197 62.6569C166.673 63.4593 167.171 64.2361 167.694 65.0139C167.911 65.3353 168.16 65.6282 168.278 66C168.606 67.0393 169.176 68.0496 169.597 69.0556C169.686 69.2668 169.768 69.4879 169.854 69.7098M169.854 69.7098C169.947 69.9539 170.044 70.1989 170.153 70.4326M169.854 69.7098C169.633 69.3894 169.32 69.0727 169.055 68.7729M169.854 69.7098C169.977 69.8895 170.071 70.0703 170.111 70.25C170.125 70.311 170.139 70.3718 170.153 70.4326M170.153 70.4326C170.203 70.5388 170.256 70.6427 170.313 70.7431C170.321 70.7582 170.329 70.7721 170.336 70.7848M170.153 70.4326C170.163 70.4706 170.172 70.5085 170.181 70.5464M170.336 70.7848C170.406 70.9058 170.418 70.914 170.336 70.7848ZM170.336 70.7848C170.32 70.7598 170.301 70.7298 170.278 70.6944C170.245 70.6452 170.213 70.5959 170.181 70.5464M170.181 70.5464C169.866 70.0574 169.567 69.558 169.25 69.0694C169.204 68.9987 169.135 68.8934 169.055 68.7729M170.181 70.5464C170.428 71.5245 170.803 72.4714 171.153 73.4236C171.9 75.455 173.125 77.1597 173.125 79.3542C173.125 80.7634 173.401 82.1036 173.875 83.4306C174.159 84.227 174.442 85.2562 174.847 85.9861C175.273 86.7518 175 88.182 175 89.0139C175 89.4724 175.26 90.875 174.653 90.875C173.566 90.875 175.841 95.1762 175.25 95.25C174.783 95.3084 175.375 97.4016 175.375 97.75C175.375 98.1132 175.756 98.1363 175.875 98.375M169.055 68.7729C168.646 68.1546 167.958 67.1355 168.701 68.3194C168.793 68.4648 168.917 68.6165 169.055 68.7729ZM145.75 160.625C145.159 160.679 144.72 161.202 144.332 161.82M144.332 161.82C143.905 162.498 143.541 163.289 143.107 163.697M144.332 161.82C143.817 161.981 143.301 162.383 142.882 162.625C142.469 162.864 142.116 163.239 141.681 163.431C141.473 163.522 141.124 163.557 140.958 163.722C140.933 163.748 141.763 164.13 142.262 164.359M144.332 161.82C144.472 161.776 144.612 161.75 144.75 161.75M143.107 163.697C143.09 163.713 143.073 163.728 143.056 163.743C142.819 163.946 142.576 164.132 142.33 164.31M143.107 163.697C142.616 163.633 142.128 163.625 141.625 163.625C141.311 163.625 141.185 163.599 141.556 163.688C141.74 163.731 142.361 163.749 142.375 164C142.381 164.101 142.364 164.205 142.33 164.31M143.107 163.697C143.265 163.718 143.424 163.744 143.583 163.778C144.151 163.898 144.72 164 145.29 164.102M142.33 164.31C142.307 164.327 142.285 164.343 142.262 164.359M142.33 164.31C142.322 164.333 142.314 164.356 142.305 164.379M142.262 164.359C141.885 164.629 141.502 164.883 141.125 165.153C140.485 165.61 140.925 165.644 141.431 165.361C141.751 165.182 142.147 164.784 142.305 164.379M142.262 164.359C142.277 164.366 142.291 164.373 142.305 164.379M142.305 164.379C142.478 164.459 142.604 164.516 142.625 164.528C143.663 165.094 144.394 166.38 145.215 167.201C145.666 167.652 145.474 166.968 145.438 166.681C145.36 166.075 145.303 165.457 145.278 164.847C145.273 164.739 145.269 164.445 145.29 164.102M145.29 164.102C145.559 164.15 145.828 164.199 146.097 164.25C146.494 164.325 147.25 164.726 147.25 164.118C147.25 163.364 146.793 162.969 146.153 162.59C145.521 162.217 145.338 163.297 145.29 164.102Z" stroke="#FF0000" stroke-width="3" stroke-linecap="round"/>
<path d="M164.347 28C165.704 29.5704 166.939 31.232 168.164 32.9907C168.443 33.3914 168.715 33.7654 168.984 34.1198M168.984 34.1198C169.937 35.3741 170.866 36.3842 172.043 37.4739M168.984 34.1198C168.613 33.7645 168.214 33.4089 167.857 33.2397C167.073 32.8688 166.168 31.9432 165.478 31.3235C164.705 30.6294 163.887 29.9711 163 29.5589M168.984 34.1198C169.185 34.3128 169.379 34.5057 169.553 34.6687C170.451 35.5087 171.25 36.4853 172.043 37.4739M172.043 37.4739C172.078 37.5059 172.113 37.5379 172.148 37.57C174.462 39.696 176.534 42.5035 178.684 44.9207C179.815 46.1921 180.873 47.515 181.944 48.8613C183.938 51.3679 184.839 54.9164 186.384 57.8575C188.136 61.1908 188.973 64.6592 189.832 68.4951M172.043 37.4739C172.447 37.9774 172.849 38.484 173.262 38.9773C174.23 40.1357 174.916 41.39 175.649 42.7988C176.158 43.7783 176.603 45.2512 177.295 46.0141C177.771 46.5383 178.314 47.0337 178.701 47.6813C179.086 48.3261 179.234 49.2414 179.707 49.8248C180.681 51.026 181.547 52.4894 182.493 53.7653C183.31 54.8689 183.753 56.3763 184.48 57.5327C185.486 59.1335 186.383 61.0885 186.917 63.0322C187.098 63.6917 187.466 64.2974 187.698 64.9375C187.919 65.5454 187.931 66.301 188.297 66.7779M189.832 68.4951C189.918 68.8824 190.005 69.2734 190.093 69.6684C190.631 72.0786 191.001 74.5006 191.557 76.9325C192.039 79.0428 192.488 80.9431 192.488 83.1248C192.488 86.2666 192.649 88.9468 193.312 91.9478C193.544 93.0003 194.838 96.9975 193.985 98.2376C192.832 99.9152 192.488 102.392 192.488 104.582C192.488 105.431 192.923 106.145 192.937 106.963C192.957 108.107 193.095 109.466 192.788 110.547C192.501 111.554 192.497 112.969 192.339 114.043C192.072 115.856 191.992 117.694 191.557 119.456C191.241 120.736 190.657 121.977 190.235 123.213C189.791 124.512 189.029 126.005 188.829 127.413C188.617 128.915 188.785 130.494 188.746 132.014C188.71 133.434 187.728 134.748 187.216 135.911C185.829 139.062 184.043 142.285 183.441 145.871C183.206 147.27 182.597 148.234 181.827 149.249C180.286 151.281 178.921 153.185 177.636 155.528C176.93 156.814 176.473 158.282 175.582 159.403C174.761 160.436 173.912 161.467 173.004 162.369C171.664 163.701 170.298 164.989 168.987 166.353M189.832 68.4951C189.841 68.5107 189.851 68.5265 189.861 68.5425C190.388 69.4307 190.634 70.6474 190.7 71.7361C190.782 73.0585 191.447 74.2385 191.59 75.5468M189.832 68.4951C189.319 67.6726 188.556 67.505 187.998 66.7779M165.545 166.548C166.199 166.548 166.754 165.534 167.191 164.989C167.949 164.045 168.847 163.204 169.661 162.337C170.122 161.846 170.386 161.192 170.75 160.594C170.799 160.514 171.275 159.76 170.875 160.193C169.544 161.637 168.032 162.766 166.592 164.015M163.748 164.794C164.71 164.199 165.528 163.44 166.393 162.629C167.916 161.201 169.503 159.892 171.017 158.451C172.655 156.891 174.8 155.606 176.222 153.698C178.566 150.554 181.68 147.728 183.208 143.749M172.58 155.246C175.141 152.681 177.165 149.54 179.532 146.715L179.636 146.591C181.168 144.764 182.436 143.252 183.199 140.642C183.964 138.029 185.023 135.733 185.977 133.248C186.275 132.471 186.7 131.854 187.091 131.159C187.681 130.11 188.04 128.856 188.596 127.77M190.243 75.5468C190.086 74.4252 189.55 73.3391 189.362 72.2341C189.215 71.3736 189.28 70.2561 188.896 69.506M192.339 94.4486C192.339 95.5098 192.488 96.528 192.488 97.5664M194.434 151.544C198.253 147.337 204.636 144.807 206.617 138.217C206.925 137.192 206.743 135.597 206.617 134.58C206.335 132.294 205.848 129.944 205.81 127.619C205.768 125.041 207.408 123.118 208.289 120.918C209.797 117.149 210.231 112.223 210.301 108.024C210.339 105.779 210.888 103.563 211.016 101.312C211.22 97.7271 211.44 94.412 210.833 90.8219C210.41 88.32 209.765 85.8863 209.553 83.3305C209.244 79.6127 209.224 75.8985 208.987 72.1691C208.834 69.7631 208.464 67.3569 208.139 64.9808L208.133 64.934C207.729 61.9847 207.342 59.156 206.476 56.3527C204.389 49.5951 200.311 44.0611 196.314 39.1181C195.616 38.2547 194.916 37.3956 194.235 36.5091C193.922 36.1026 192.907 35.3029 193.345 35.2316C193.817 35.1548 194.71 36.5427 195.033 36.9637M206.409 124.263C206.006 123.672 206.366 121.874 206.451 121.242C206.819 118.511 207.575 115.942 208.305 113.35C210.152 106.795 210.515 100.03 210.592 93.0954C210.682 85.0665 210.873 76.6036 209.079 68.8565C208.175 64.9543 207.06 61.1464 205.403 57.6734C203.234 53.1265 200.516 49.1325 198.243 44.6933C197.444 43.1328 196.924 41.2527 196.289 39.5727C195.393 37.2023 194.28 34.9411 193.237 32.6767M177.391 28.4763C179.519 28.4763 181.664 30.5075 183.512 31.7349C184.993 32.7186 186.423 33.8395 187.869 34.9068C189.338 35.9908 190.884 36.8893 192.26 38.1762C194.484 40.2566 196.633 42.5013 198.156 45.4944C200.445 49.9916 202.188 54.6653 203.437 59.8061C204.971 66.1248 208.533 71.3374 210.971 77.0624C211.406 78.084 212.238 79.9166 211.445 80.8947C210.177 82.4579 208.487 82.2725 206.879 82.8433M166.443 36.3791C166.443 36.3819 166.443 36.3846 166.444 36.3874M166.444 36.3874C166.523 37.0984 168.046 38.1744 168.527 38.5144L168.538 38.5226C168.89 38.7714 168.607 38.738 168.355 38.7175C167.598 38.6559 166.868 38.1198 166.293 37.505C165.914 37.099 164.724 36.4006 165.578 36.2276C165.855 36.1714 166.152 36.2395 166.444 36.3874ZM166.444 36.3874C167.115 36.7276 167.76 37.4903 168.089 38.1329M186.77 34.6893C187.539 34.9192 188.243 35.7872 188.833 36.418C189.417 37.0419 190.116 37.4599 190.71 38.0663C191.508 38.8797 192.135 39.9424 192.805 40.9206C193.772 42.3351 194.739 43.5222 195.931 44.6293C198.704 47.206 201.295 49.8542 203.563 53.2225C204.591 54.7496 205.222 56.9339 205.96 58.7001C207.739 62.9614 209.616 66.9809 210.94 71.5346C212.062 75.3936 212.977 79.3952 213.546 83.4546C213.957 86.3897 214.06 89.3805 214.554 92.2991C215.021 95.057 214.84 97.9286 214.833 100.742C214.827 103.806 214.734 106.561 213.996 109.475C212.715 114.529 211.025 119.385 209.885 124.501C208.897 128.933 208.211 133.4 206.844 137.667C204.539 144.865 200.909 150.913 197.241 156.984C196.024 159.001 194.815 160.661 193.262 162.231C191.621 163.891 189.844 165.289 188.197 166.935C187.701 167.43 187.162 167.915 186.63 168.342C186.315 168.594 186.305 169.115 186.072 169.467C185.748 169.956 184.467 170.674 185.839 170.211C187.678 169.591 189.465 168.663 191.292 167.98C194.537 166.766 197.827 165.748 201.042 164.402C204.056 163.14 207.03 161.642 209.979 160.146M209.979 160.146C210.082 160.094 210.185 160.042 210.288 159.99C210.397 159.935 210.505 159.879 210.614 159.824M209.979 160.146C210.422 159.818 210.86 159.481 211.292 159.135M209.979 160.146C206.839 162.473 203.463 164.353 200.15 166.171C196.896 167.956 193.495 169.298 190.229 171.055C190.218 171.061 190.207 171.067 190.195 171.074M210.614 159.824C214.819 157.676 218.957 155.261 222.388 151.356C225.323 148.018 227.763 143.035 229.102 138.113M210.614 159.824C204.638 165.759 197.547 169.169 190.195 171.074M210.614 159.824C210.785 159.653 210.956 159.481 211.126 159.306C211.181 159.249 211.237 159.192 211.292 159.135M229.102 138.113C229.278 137.467 229.435 136.821 229.571 136.18C229.806 135.078 229.976 133.847 230.021 132.702C230.035 132.337 229.947 132.576 229.866 132.763C229.095 134.528 228.363 136.263 227.477 137.949C225.071 142.524 222.217 146.654 219.216 150.582C219.178 150.632 219.14 150.682 219.102 150.732M229.102 138.113C228.625 138.707 228.166 139.332 227.702 139.979C224.976 143.782 222.092 147.331 219.102 150.732M229.102 138.113C229.76 137.296 230.452 136.539 231.239 135.868C232.761 134.571 234.273 133.297 235.691 131.808C240.065 127.214 241.929 121.121 243.262 114.189C243.762 111.583 244.16 109.093 243.936 106.4C243.618 102.56 242.854 98.7636 242.23 94.9926C241.945 93.2703 241.614 91.5751 241.175 89.907C241.08 89.5478 241.153 88.7738 240.865 88.8417C240.759 88.8666 240.817 89.1147 240.81 89.2537C240.786 89.7656 240.784 90.2789 240.772 90.7915C240.622 96.9757 240.325 103.146 240.089 109.325C240.05 110.341 239.99 111.393 239.934 112.459M219.102 150.732C216.821 153.709 214.44 156.547 211.7 158.804C211.565 158.915 211.429 159.025 211.292 159.135M219.102 150.732C216.564 153.617 213.951 156.396 211.292 159.135M190.195 171.074C188.593 171.92 186.456 171.969 184.738 172C184.735 172 184.097 172 184.334 172C185.507 172 186.646 171.888 187.809 171.638C188.607 171.467 189.402 171.279 190.195 171.074ZM239.934 112.459C239.804 114.948 239.7 117.516 239.965 119.898C240.113 121.231 240.079 117.204 240.043 115.858C240.012 114.725 239.976 113.592 239.934 112.459ZM239.934 112.459C239.702 106.2 239.296 99.95 238.739 93.7262C238.156 87.194 236.965 80.7115 236.762 74.1277C236.746 73.634 236.757 73.4361 236.746 74.6302C236.718 77.6892 236.722 78.7378 236.599 82.2988C236.252 92.319 235.631 102.438 233.946 112.249C232.593 120.125 230.375 127.654 227.601 134.863C227.014 136.389 226.242 138.848 225.189 140.1C223.513 142.09 224.265 134.207 224.607 131.295C225.645 122.448 227.263 113.682 228.586 104.902C230.132 94.6441 231.687 84.3855 233.155 74.1076C234.207 66.7389 235.382 59.76 233.62 52.4185C232.506 47.7757 230.899 43.5995 227.927 40.5387C223.891 36.3823 219.337 32.8078 214.647 30.0459C213.522 29.3831 212.287 28.4304 211.002 28.478C210.148 28.5096 210.299 30.8429 210.304 31.4128C210.33 34.5686 210.971 37.5406 212.165 40.2874C213.921 44.3251 216.652 47.1202 219.069 50.4184C220.707 52.6536 223.157 55.3815 223.878 58.4387C225.153 63.8471 222.821 70.1952 221.365 75.0724C219.744 80.5003 217.981 85.9772 217.797 91.8569C217.712 94.5517 217.765 97.261 217.765 99.9576C217.765 104.683 215.777 108.977 215.113 113.566" stroke="#FF0000" stroke-width="37" stroke-linecap="round"/>
<circle cx="100" cy="100" r="73.5" stroke="white" stroke-width="3"/>
<circle cx="175" cy="100" r="73.5" stroke="white" stroke-width="3"/>
<path d="M68.3388 108H63.8047L69.6939 90.5455H75.3104L81.1996 108H76.6655L72.5661 94.9432H72.4297L68.3388 108ZM67.7337 101.131H77.2109V104.335H67.7337V101.131Z" fill="white"/>
<path d="M199.352 108V90.5455H206.631C207.938 90.5455 209.031 90.7301 209.912 91.0994C210.798 91.4687 211.463 91.9858 211.906 92.6506C212.355 93.3153 212.58 94.0852 212.58 94.9602C212.58 95.625 212.44 96.2188 212.162 96.7415C211.884 97.2585 211.5 97.6875 211.011 98.0284C210.523 98.3693 209.957 98.608 209.315 98.7443V98.9148C210.02 98.9489 210.67 99.1392 211.267 99.4858C211.869 99.8324 212.352 100.315 212.716 100.935C213.08 101.548 213.261 102.276 213.261 103.116C213.261 104.054 213.023 104.892 212.545 105.631C212.068 106.364 211.378 106.943 210.474 107.369C209.571 107.79 208.474 108 207.185 108H199.352ZM203.571 104.599H206.179C207.094 104.599 207.767 104.426 208.199 104.08C208.636 103.733 208.855 103.25 208.855 102.631C208.855 102.182 208.75 101.795 208.54 101.472C208.33 101.142 208.031 100.889 207.645 100.713C207.259 100.531 206.795 100.44 206.256 100.44H203.571V104.599ZM203.571 97.7216H205.906C206.366 97.7216 206.776 97.6449 207.134 97.4915C207.491 97.3381 207.77 97.1165 207.969 96.8267C208.173 96.5369 208.276 96.1875 208.276 95.7784C208.276 95.1932 208.068 94.733 207.653 94.3977C207.239 94.0625 206.679 93.8949 205.974 93.8949H203.571V97.7216Z" fill="white"/>
<path d="M27.7447 221.741V218.324H39.9407V221.741H27.7447ZM27.7447 227.605V224.188H39.9407V227.605H27.7447ZM49.386 221.273C49.386 219.165 49.6701 217.227 50.2383 215.46C50.8065 213.688 51.6928 212.043 52.8974 210.526H56.9371C56.4826 211.088 56.0593 211.773 55.6673 212.58C55.2752 213.386 54.9343 214.27 54.6445 215.23C54.3604 216.19 54.136 217.185 53.9712 218.213C53.8121 219.241 53.7326 220.261 53.7326 221.273C53.7326 222.614 53.8718 223.969 54.1502 225.338C54.4286 226.702 54.8093 227.969 55.2923 229.139C55.7752 230.304 56.3235 231.261 56.9371 232.011H52.8974C51.6928 230.494 50.8065 228.852 50.2383 227.085C49.6701 225.312 49.386 223.375 49.386 221.273ZM62.5302 230H57.9961L63.8853 212.545H69.5018L75.391 230H70.8569L66.7575 216.943H66.6211L62.5302 230ZM61.9251 223.131H71.4023V226.335H61.9251V223.131ZM82.3055 230V222.296C82.3055 216.92 84.7295 214.064 89.3135 214.064C93.9215 214.064 96.3215 216.92 96.3215 222.296V230H94.5935V222.224C94.5935 217.856 92.8655 215.696 89.3135 215.696C85.7615 215.696 84.0335 217.832 84.0335 222.224V230H82.3055ZM103.989 230V212.545H111.267C112.574 212.545 113.668 212.73 114.549 213.099C115.435 213.469 116.1 213.986 116.543 214.651C116.992 215.315 117.216 216.085 117.216 216.96C117.216 217.625 117.077 218.219 116.799 218.741C116.52 219.259 116.137 219.687 115.648 220.028C115.159 220.369 114.594 220.608 113.952 220.744V220.915C114.657 220.949 115.307 221.139 115.904 221.486C116.506 221.832 116.989 222.315 117.353 222.935C117.716 223.548 117.898 224.276 117.898 225.116C117.898 226.054 117.659 226.892 117.182 227.631C116.705 228.364 116.015 228.943 115.111 229.369C114.208 229.79 113.111 230 111.821 230H103.989ZM108.208 226.599H110.816C111.73 226.599 112.404 226.426 112.836 226.08C113.273 225.733 113.492 225.25 113.492 224.631C113.492 224.182 113.387 223.795 113.176 223.472C112.966 223.142 112.668 222.889 112.282 222.713C111.895 222.531 111.432 222.44 110.892 222.44H108.208V226.599ZM108.208 219.722H110.543C111.003 219.722 111.412 219.645 111.77 219.491C112.128 219.338 112.407 219.116 112.605 218.827C112.81 218.537 112.912 218.187 112.912 217.778C112.912 217.193 112.705 216.733 112.29 216.398C111.875 216.062 111.316 215.895 110.611 215.895H108.208V219.722ZM126.651 221.273C126.651 223.375 126.367 225.312 125.799 227.085C125.23 228.852 124.344 230.494 123.14 232.011H119.1C119.56 231.449 119.983 230.764 120.37 229.957C120.762 229.151 121.1 228.267 121.384 227.307C121.674 226.347 121.898 225.352 122.057 224.324C122.222 223.295 122.304 222.278 122.304 221.273C122.304 219.926 122.165 218.571 121.887 217.207C121.608 215.838 121.228 214.571 120.745 213.406C120.262 212.236 119.713 211.276 119.1 210.526H123.14C124.344 212.043 125.23 213.688 125.799 215.46C126.367 217.227 126.651 219.165 126.651 221.273ZM134.639 215.247L132.056 211.403H135.747L137.477 215.247H134.639ZM148.026 220.054V216.628H160.222V220.054H148.026ZM148.026 225.918V222.491H160.222V225.918H148.026ZM172.616 230H168.082L173.971 212.545H179.588L185.477 230H180.943L176.843 216.943H176.707L172.616 230ZM172.011 223.131H181.488V226.335H172.011V223.131ZM191.873 215.247L189.291 211.403H192.981L194.711 215.247H191.873ZM204.321 230V222.296C204.321 216.92 206.745 214.064 211.329 214.064C215.937 214.064 218.337 216.92 218.337 222.296V230H216.609V222.224C216.609 217.856 214.881 215.696 211.329 215.696C207.777 215.696 206.049 217.832 206.049 222.224V230H204.321ZM226.005 230V212.545H233.283C234.59 212.545 235.684 212.73 236.564 213.099C237.451 213.469 238.115 213.986 238.559 214.651C239.007 215.315 239.232 216.085 239.232 216.96C239.232 217.625 239.093 218.219 238.814 218.741C238.536 219.259 238.152 219.687 237.664 220.028C237.175 220.369 236.61 220.608 235.968 220.744V220.915C236.672 220.949 237.323 221.139 237.919 221.486C238.522 221.832 239.005 222.315 239.368 222.935C239.732 223.548 239.914 224.276 239.914 225.116C239.914 226.054 239.675 226.892 239.198 227.631C238.721 228.364 238.03 228.943 237.127 229.369C236.223 229.79 235.127 230 233.837 230H226.005ZM230.223 226.599H232.831C233.746 226.599 234.419 226.426 234.851 226.08C235.289 225.733 235.507 225.25 235.507 224.631C235.507 224.182 235.402 223.795 235.192 223.472C234.982 223.142 234.684 222.889 234.297 222.713C233.911 222.531 233.448 222.44 232.908 222.44H230.223V226.599ZM230.223 219.722H232.559C233.019 219.722 233.428 219.645 233.786 219.491C234.144 219.338 234.422 219.116 234.621 218.827C234.826 218.537 234.928 218.187 234.928 217.778C234.928 217.193 234.721 216.733 234.306 216.398C233.891 216.062 233.331 215.895 232.627 215.895H230.223V219.722ZM246.459 215.247L243.877 211.403H247.567L249.297 215.247H246.459Z" fill="white"/>
<rect x="1.5" y="211.5" width="17" height="17" fill="#FF0000" stroke="white" stroke-width="3"/>
</svg>
