<svg width="275" height="234" viewBox="0 0 275 234" fill="none" xmlns="http://www.w3.org/2000/svg">
<rect x="1.5" y="1.5" width="272" height="197" fill="#0000FF" stroke="white" stroke-width="3"/>
<circle cx="100" cy="100" r="73.5" fill="#FF0000" stroke="white" stroke-width="3"/>
<circle cx="175" cy="100" r="73.5" stroke="white" stroke-width="3"/>
<path d="M68.3388 108H63.8047L69.6939 90.5455H75.3104L81.1996 108H76.6655L72.5661 94.9432H72.4297L68.3388 108ZM67.7337 101.131H77.2109V104.335H67.7337V101.131Z" fill="white"/>
<path d="M199.352 108V90.5455H206.631C207.938 90.5455 209.031 90.7301 209.912 91.0994C210.798 91.4687 211.463 91.9858 211.906 92.6506C212.355 93.3153 212.58 94.0852 212.58 94.9602C212.58 95.625 212.44 96.2188 212.162 96.7415C211.884 97.2585 211.5 97.6875 211.011 98.0284C210.523 98.3693 209.957 98.608 209.315 98.7443V98.9148C210.02 98.9489 210.67 99.1392 211.267 99.4858C211.869 99.8324 212.352 100.315 212.716 100.935C213.08 101.548 213.261 102.276 213.261 103.116C213.261 104.054 213.023 104.892 212.545 105.631C212.068 106.364 211.378 106.943 210.474 107.369C209.571 107.79 208.474 108 207.185 108H199.352ZM203.571 104.599H206.179C207.094 104.599 207.767 104.426 208.199 104.08C208.636 103.733 208.855 103.25 208.855 102.631C208.855 102.182 208.75 101.795 208.54 101.472C208.33 101.142 208.031 100.889 207.645 100.713C207.259 100.531 206.795 100.44 206.256 100.44H203.571V104.599ZM203.571 97.7216H205.906C206.366 97.7216 206.776 97.6449 207.134 97.4915C207.491 97.3381 207.77 97.1165 207.969 96.8267C208.173 96.5369 208.276 96.1875 208.276 95.7784C208.276 95.1932 208.068 94.733 207.653 94.3977C207.239 94.0625 206.679 93.8949 205.974 93.8949H203.571V97.7216Z" fill="white"/>
<path d="M27.6431 218.054V214.628H39.8391V218.054H27.6431ZM27.6431 223.918V220.491H39.8391V223.918H27.6431ZM52.2333 228H47.6992L53.5884 210.545H59.2049L65.0941 228H60.56L56.4606 214.943H56.3242L52.2333 228ZM51.6282 221.131H61.1055V224.335H51.6282V221.131Z" fill="white"/>
<rect x="1.5" y="211.5" width="17" height="17" fill="#FF0000" stroke="white" stroke-width="3"/>
</svg>
