<svg width="275" height="236" viewBox="0 0 275 236" fill="none" xmlns="http://www.w3.org/2000/svg">
<rect x="1.5" y="1.5" width="272" height="197" fill="#0000FF" stroke="white" stroke-width="3"/>
<circle cx="73" cy="100" r="48.5" fill="#FF0000" stroke="white" stroke-width="3"/>
<circle cx="206" cy="100" r="48.5" fill="#FF0000" stroke="#D9D9D9" stroke-width="3"/>
<path d="M68.3388 108H63.8047L69.6939 90.5455H75.3104L81.1996 108H76.6655L72.5661 94.9432H72.4297L68.3388 108ZM67.7337 101.131H77.2109V104.335H67.7337V101.131Z" fill="white"/>
<path d="M199.352 108V90.5455H206.631C207.938 90.5455 209.031 90.7301 209.912 91.0994C210.798 91.4687 211.463 91.9858 211.906 92.6506C212.355 93.3153 212.58 94.0852 212.58 94.9602C212.58 95.625 212.44 96.2188 212.162 96.7415C211.884 97.2585 211.5 97.6875 211.011 98.0284C210.523 98.3693 209.957 98.608 209.315 98.7443V98.9148C210.02 98.9489 210.67 99.1392 211.267 99.4858C211.869 99.8324 212.352 100.315 212.716 100.935C213.08 101.548 213.261 102.276 213.261 103.116C213.261 104.054 213.023 104.892 212.545 105.631C212.068 106.364 211.378 106.943 210.474 107.369C209.571 107.79 208.474 108 207.185 108H199.352ZM203.571 104.599H206.179C207.094 104.599 207.767 104.426 208.199 104.08C208.636 103.733 208.855 103.25 208.855 102.631C208.855 102.182 208.75 101.795 208.54 101.472C208.33 101.142 208.031 100.889 207.645 100.713C207.259 100.531 206.795 100.44 206.256 100.44H203.571V104.599ZM203.571 97.7216H205.906C206.366 97.7216 206.776 97.6449 207.134 97.4915C207.491 97.3381 207.77 97.1165 207.969 96.8267C208.173 96.5369 208.276 96.1875 208.276 95.7784C208.276 95.1932 208.068 94.733 207.653 94.3977C207.239 94.0625 206.679 93.8949 205.974 93.8949H203.571V97.7216Z" fill="white"/>
<path d="M27.6236 220.054V216.628H39.8196V220.054H27.6236ZM27.6236 225.918V222.491H39.8196V225.918H27.6236ZM52.2138 230H47.6797L53.5689 212.545H59.1854L65.0746 230H60.5405L56.4411 216.943H56.3047L52.2138 230ZM51.6087 223.131H61.0859V226.335H51.6087V223.131ZM71.9891 230V222.296C71.9891 216.92 74.4131 214.064 78.9971 214.064C83.6051 214.064 86.0051 216.92 86.0051 222.296V230H84.2771V222.224C84.2771 217.856 82.5491 215.696 78.9971 215.696C75.4451 215.696 73.7171 217.832 73.7171 222.224V230H71.9891ZM93.6726 230V212.545H100.951C102.258 212.545 103.352 212.73 104.232 213.099C105.119 213.469 105.783 213.986 106.227 214.651C106.675 215.315 106.9 216.085 106.9 216.96C106.9 217.625 106.761 218.219 106.482 218.741C106.204 219.259 105.82 219.687 105.332 220.028C104.843 220.369 104.278 220.608 103.636 220.744V220.915C104.34 220.949 104.991 221.139 105.587 221.486C106.19 221.832 106.673 222.315 107.036 222.935C107.4 223.548 107.582 224.276 107.582 225.116C107.582 226.054 107.343 226.892 106.866 227.631C106.388 228.364 105.698 228.943 104.795 229.369C103.891 229.79 102.795 230 101.505 230H93.6726ZM97.8913 226.599H100.499C101.414 226.599 102.087 226.426 102.519 226.08C102.957 225.733 103.175 225.25 103.175 224.631C103.175 224.182 103.07 223.795 102.86 223.472C102.65 223.142 102.352 222.889 101.965 222.713C101.579 222.531 101.116 222.44 100.576 222.44H97.8913V226.599ZM97.8913 219.722H100.227C100.687 219.722 101.096 219.645 101.454 219.491C101.812 219.338 102.09 219.116 102.289 218.827C102.494 218.537 102.596 218.187 102.596 217.778C102.596 217.193 102.388 216.733 101.974 216.398C101.559 216.062 100.999 215.895 100.295 215.895H97.8913V219.722ZM115.585 220.054V216.628H127.781V220.054H115.585ZM115.585 225.918V222.491H127.781V225.918H115.585ZM137.175 230.58L136.254 229.659L149.584 216.33L150.504 217.216L137.175 230.58ZM143.413 230.205C142.476 230.205 141.598 230.031 140.78 229.685C139.962 229.332 139.243 228.847 138.624 228.227C138.004 227.608 137.521 226.892 137.175 226.08C136.828 225.261 136.658 224.386 136.663 223.455C136.658 222.528 136.828 221.662 137.175 220.855C137.521 220.043 138.004 219.33 138.624 218.716C139.243 218.097 139.962 217.614 140.78 217.267C141.598 216.915 142.476 216.739 143.413 216.739C144.334 216.739 145.197 216.915 146.004 217.267C146.817 217.614 147.53 218.097 148.143 218.716C148.763 219.33 149.246 220.043 149.592 220.855C149.945 221.662 150.124 222.528 150.129 223.455C150.124 224.386 149.945 225.261 149.592 226.08C149.246 226.892 148.763 227.608 148.143 228.227C147.53 228.847 146.817 229.332 146.004 229.685C145.197 230.031 144.334 230.205 143.413 230.205ZM143.405 226.523C143.82 226.523 144.209 226.443 144.572 226.284C144.942 226.125 145.266 225.906 145.544 225.628C145.822 225.344 146.041 225.017 146.2 224.648C146.359 224.273 146.442 223.875 146.447 223.455C146.442 222.898 146.3 222.389 146.021 221.929C145.749 221.463 145.382 221.094 144.922 220.821C144.467 220.548 143.964 220.415 143.413 220.42C142.982 220.415 142.578 220.491 142.203 220.651C141.828 220.81 141.501 221.028 141.223 221.307C140.945 221.585 140.726 221.909 140.567 222.278C140.413 222.642 140.339 223.034 140.345 223.455C140.339 224.017 140.47 224.531 140.737 224.997C141.01 225.463 141.379 225.835 141.845 226.114C142.317 226.386 142.837 226.523 143.405 226.523Z" fill="white"/>
<rect x="1.5" y="211.5" width="17" height="17" fill="#FF0000" stroke="white" stroke-width="3"/>
</svg>
