<svg width="350" height="256" viewBox="0 0 350 256" fill="none" xmlns="http://www.w3.org/2000/svg">
<mask id="path-1-inside-1_86_3" fill="white">
<path d="M250 66C250 60.4771 245.512 55.9482 240.017 56.4996C230.309 57.4736 220.778 59.8648 211.732 63.612C199.599 68.6375 188.575 76.0035 179.289 85.2893C170.003 94.5752 162.638 105.599 157.612 117.732C152.587 129.864 150 142.868 150 156C150 169.132 152.587 182.136 157.612 194.268C162.638 206.401 170.003 217.425 179.289 226.711C188.575 235.997 199.599 243.362 211.732 248.388C220.778 252.135 230.309 254.526 240.017 255.5C245.512 256.052 250 251.523 250 246V246C250 240.477 245.506 236.064 240.026 235.376C232.947 234.486 226.004 232.652 219.385 229.91C209.679 225.89 200.86 219.997 193.431 212.569C186.003 205.14 180.11 196.321 176.09 186.615C172.069 176.909 170 166.506 170 156C170 145.494 172.069 135.091 176.09 125.385C180.11 115.679 186.003 106.86 193.431 99.4315C200.86 92.0028 209.679 86.11 219.385 82.0896C226.004 79.348 232.947 77.5137 240.026 76.6242C245.506 75.9356 250 71.5228 250 66V66Z"/>
</mask>
<path d="M250 66C250 60.4771 245.512 55.9482 240.017 56.4996C230.309 57.4736 220.778 59.8648 211.732 63.612C199.599 68.6375 188.575 76.0035 179.289 85.2893C170.003 94.5752 162.638 105.599 157.612 117.732C152.587 129.864 150 142.868 150 156C150 169.132 152.587 182.136 157.612 194.268C162.638 206.401 170.003 217.425 179.289 226.711C188.575 235.997 199.599 243.362 211.732 248.388C220.778 252.135 230.309 254.526 240.017 255.5C245.512 256.052 250 251.523 250 246V246C250 240.477 245.506 236.064 240.026 235.376C232.947 234.486 226.004 232.652 219.385 229.91C209.679 225.89 200.86 219.997 193.431 212.569C186.003 205.14 180.11 196.321 176.09 186.615C172.069 176.909 170 166.506 170 156C170 145.494 172.069 135.091 176.09 125.385C180.11 115.679 186.003 106.86 193.431 99.4315C200.86 92.0028 209.679 86.11 219.385 82.0896C226.004 79.348 232.947 77.5137 240.026 76.6242C245.506 75.9356 250 71.5228 250 66V66Z" fill="#ADD8E6" stroke="white" stroke-width="6" mask="url(#path-1-inside-1_86_3)"/>
<path d="M116.818 31.3409C115.03 31.3409 113.492 30.9621 112.205 30.2045C110.924 29.4394 109.939 28.3788 109.25 27.0227C108.568 25.6667 108.227 24.1061 108.227 22.3409C108.227 20.553 108.572 18.9848 109.261 17.6364C109.958 16.2803 110.947 15.2235 112.227 14.4659C113.508 13.7008 115.03 13.3182 116.795 13.3182C118.318 13.3182 119.652 13.5947 120.795 14.1477C121.939 14.7008 122.845 15.4773 123.511 16.4773C124.178 17.4773 124.545 18.6515 124.614 20H120.045C119.917 19.1288 119.576 18.428 119.023 17.8977C118.477 17.3598 117.761 17.0909 116.875 17.0909C116.125 17.0909 115.47 17.2955 114.909 17.7045C114.356 18.1061 113.924 18.6932 113.614 19.4659C113.303 20.2386 113.148 21.1742 113.148 22.2727C113.148 23.3864 113.299 24.3333 113.602 25.1136C113.913 25.8939 114.348 26.4886 114.909 26.8977C115.47 27.3068 116.125 27.5114 116.875 27.5114C117.428 27.5114 117.924 27.3977 118.364 27.1705C118.811 26.9432 119.178 26.6136 119.466 26.1818C119.761 25.7424 119.955 25.2159 120.045 24.6023H124.614C124.538 25.9356 124.174 27.1098 123.523 28.125C122.879 29.1326 121.989 29.9205 120.852 30.4886C119.716 31.0568 118.371 31.3409 116.818 31.3409ZM135.599 31.3409C133.834 31.3409 132.308 30.9659 131.02 30.2159C129.74 29.4583 128.751 28.4053 128.054 27.0568C127.357 25.7008 127.009 24.1288 127.009 22.3409C127.009 20.5379 127.357 18.9621 128.054 17.6136C128.751 16.2576 129.74 15.2045 131.02 14.4545C132.308 13.697 133.834 13.3182 135.599 13.3182C137.365 13.3182 138.887 13.697 140.168 14.4545C141.455 15.2045 142.448 16.2576 143.145 17.6136C143.842 18.9621 144.19 20.5379 144.19 22.3409C144.19 24.1288 143.842 25.7008 143.145 27.0568C142.448 28.4053 141.455 29.4583 140.168 30.2159C138.887 30.9659 137.365 31.3409 135.599 31.3409ZM135.622 27.5909C136.425 27.5909 137.096 27.3636 137.634 26.9091C138.171 26.447 138.577 25.8182 138.849 25.0227C139.13 24.2273 139.27 23.322 139.27 22.3068C139.27 21.2917 139.13 20.3864 138.849 19.5909C138.577 18.7955 138.171 18.1667 137.634 17.7045C137.096 17.2424 136.425 17.0114 135.622 17.0114C134.812 17.0114 134.13 17.2424 133.577 17.7045C133.031 18.1667 132.618 18.7955 132.338 19.5909C132.065 20.3864 131.929 21.2917 131.929 22.3068C131.929 23.322 132.065 24.2273 132.338 25.0227C132.618 25.8182 133.031 26.447 133.577 26.9091C134.13 27.3636 134.812 27.5909 135.622 27.5909ZM152.179 20.9091V31H147.338V13.5455H151.952V16.625H152.156C152.543 15.6098 153.19 14.8068 154.099 14.2159C155.009 13.6174 156.111 13.3182 157.406 13.3182C158.618 13.3182 159.675 13.5833 160.577 14.1136C161.478 14.6439 162.179 15.4015 162.679 16.3864C163.179 17.3636 163.429 18.5303 163.429 19.8864V31H158.588V20.75C158.596 19.6818 158.323 18.8485 157.77 18.25C157.217 17.6439 156.455 17.3409 155.486 17.3409C154.834 17.3409 154.259 17.4811 153.759 17.7614C153.266 18.0417 152.88 18.4508 152.599 18.9886C152.327 19.5189 152.187 20.1591 152.179 20.9091ZM182.892 13.5455L176.79 31H171.335L165.233 13.5455H170.347L173.972 26.0341H174.153L177.767 13.5455H182.892ZM192.761 31.3409C190.966 31.3409 189.42 30.9773 188.125 30.25C186.837 29.5152 185.845 28.4773 185.148 27.1364C184.451 25.7879 184.102 24.1932 184.102 22.3523C184.102 20.5568 184.451 18.9811 185.148 17.625C185.845 16.2689 186.826 15.2121 188.091 14.4545C189.364 13.697 190.856 13.3182 192.568 13.3182C193.72 13.3182 194.792 13.5038 195.784 13.875C196.784 14.2386 197.655 14.7879 198.398 15.5227C199.148 16.2576 199.731 17.1818 200.148 18.2955C200.564 19.4015 200.773 20.697 200.773 22.1818V23.5114H186.034V20.5114H196.216C196.216 19.8144 196.064 19.197 195.761 18.6591C195.458 18.1212 195.038 17.7008 194.5 17.3977C193.97 17.0871 193.352 16.9318 192.648 16.9318C191.913 16.9318 191.261 17.1023 190.693 17.4432C190.133 17.7765 189.693 18.2273 189.375 18.7955C189.057 19.3561 188.894 19.9811 188.886 20.6705V23.5227C188.886 24.3864 189.045 25.1326 189.364 25.7614C189.689 26.3902 190.148 26.875 190.739 27.2159C191.33 27.5568 192.03 27.7273 192.841 27.7273C193.379 27.7273 193.871 27.6515 194.318 27.5C194.765 27.3485 195.148 27.1212 195.466 26.8182C195.784 26.5152 196.027 26.1439 196.193 25.7045L200.67 26C200.443 27.0758 199.977 28.0152 199.273 28.8182C198.576 29.6136 197.674 30.2348 196.568 30.6818C195.47 31.1212 194.201 31.3409 192.761 31.3409ZM207.665 13.5455L210.869 19.6477L214.153 13.5455H219.119L214.062 22.2727L219.256 31H214.312L210.869 24.9659L207.483 31H202.483L207.665 22.2727L202.665 13.5455H207.665ZM229.401 31V13.5455H234.014V16.625H234.219C234.582 15.6023 235.188 14.7955 236.037 14.2045C236.885 13.6136 237.901 13.3182 239.082 13.3182C240.279 13.3182 241.298 13.6174 242.139 14.2159C242.98 14.8068 243.541 15.6098 243.821 16.625H244.003C244.359 15.625 245.003 14.8258 245.935 14.2273C246.874 13.6212 247.984 13.3182 249.264 13.3182C250.893 13.3182 252.215 13.8371 253.23 14.875C254.253 15.9053 254.764 17.3674 254.764 19.2614V31H249.935V20.2159C249.935 19.2462 249.677 18.5189 249.162 18.0341C248.647 17.5492 248.003 17.3068 247.23 17.3068C246.351 17.3068 245.666 17.5871 245.173 18.1477C244.681 18.7008 244.435 19.4318 244.435 20.3409V31H239.741V20.1136C239.741 19.2576 239.495 18.5758 239.003 18.0682C238.518 17.5606 237.878 17.3068 237.082 17.3068C236.545 17.3068 236.06 17.4432 235.628 17.7159C235.204 17.9811 234.866 18.3561 234.616 18.8409C234.366 19.3182 234.241 19.8788 234.241 20.5227V31H229.401ZM258.588 31V13.5455H263.429V31H258.588ZM261.02 11.2955C260.3 11.2955 259.683 11.0568 259.168 10.5795C258.66 10.0947 258.406 9.51515 258.406 8.84091C258.406 8.17424 258.66 7.60227 259.168 7.125C259.683 6.64015 260.3 6.39773 261.02 6.39773C261.74 6.39773 262.353 6.64015 262.861 7.125C263.376 7.60227 263.634 8.17424 263.634 8.84091C263.634 9.51515 263.376 10.0947 262.861 10.5795C262.353 11.0568 261.74 11.2955 261.02 11.2955ZM267.307 31V13.5455H272V16.5909H272.182C272.5 15.5076 273.034 14.6894 273.784 14.1364C274.534 13.5758 275.398 13.2955 276.375 13.2955C276.617 13.2955 276.879 13.3106 277.159 13.3409C277.439 13.3712 277.686 13.4129 277.898 13.4659V17.7614C277.67 17.6932 277.356 17.6326 276.955 17.5795C276.553 17.5265 276.186 17.5 275.852 17.5C275.14 17.5 274.504 17.6553 273.943 17.9659C273.39 18.2689 272.951 18.6932 272.625 19.2386C272.307 19.7841 272.148 20.4129 272.148 21.125V31H267.307ZM280.401 31V13.5455H285.094V16.5909H285.276C285.594 15.5076 286.128 14.6894 286.878 14.1364C287.628 13.5758 288.491 13.2955 289.469 13.2955C289.711 13.2955 289.973 13.3106 290.253 13.3409C290.533 13.3712 290.779 13.4129 290.991 13.4659V17.7614C290.764 17.6932 290.45 17.6326 290.048 17.5795C289.647 17.5265 289.279 17.5 288.946 17.5C288.234 17.5 287.598 17.6553 287.037 17.9659C286.484 18.2689 286.045 18.6932 285.719 19.2386C285.401 19.7841 285.241 20.4129 285.241 21.125V31H280.401ZM300.568 31.3409C298.803 31.3409 297.277 30.9659 295.989 30.2159C294.708 29.4583 293.72 28.4053 293.023 27.0568C292.326 25.7008 291.977 24.1288 291.977 22.3409C291.977 20.5379 292.326 18.9621 293.023 17.6136C293.72 16.2576 294.708 15.2045 295.989 14.4545C297.277 13.697 298.803 13.3182 300.568 13.3182C302.333 13.3182 303.856 13.697 305.136 14.4545C306.424 15.2045 307.417 16.2576 308.114 17.6136C308.811 18.9621 309.159 20.5379 309.159 22.3409C309.159 24.1288 308.811 25.7008 308.114 27.0568C307.417 28.4053 306.424 29.4583 305.136 30.2159C303.856 30.9659 302.333 31.3409 300.568 31.3409ZM300.591 27.5909C301.394 27.5909 302.064 27.3636 302.602 26.9091C303.14 26.447 303.545 25.8182 303.818 25.0227C304.098 24.2273 304.239 23.322 304.239 22.3068C304.239 21.2917 304.098 20.3864 303.818 19.5909C303.545 18.7955 303.14 18.1667 302.602 17.7045C302.064 17.2424 301.394 17.0114 300.591 17.0114C299.78 17.0114 299.098 17.2424 298.545 17.7045C298 18.1667 297.587 18.7955 297.307 19.5909C297.034 20.3864 296.898 21.2917 296.898 22.3068C296.898 23.322 297.034 24.2273 297.307 25.0227C297.587 25.8182 298 26.447 298.545 26.9091C299.098 27.3636 299.78 27.5909 300.591 27.5909ZM312.307 31V13.5455H317V16.5909H317.182C317.5 15.5076 318.034 14.6894 318.784 14.1364C319.534 13.5758 320.398 13.2955 321.375 13.2955C321.617 13.2955 321.879 13.3106 322.159 13.3409C322.439 13.3712 322.686 13.4129 322.898 13.4659V17.7614C322.67 17.6932 322.356 17.6326 321.955 17.5795C321.553 17.5265 321.186 17.5 320.852 17.5C320.14 17.5 319.504 17.6553 318.943 17.9659C318.39 18.2689 317.951 18.6932 317.625 19.2386C317.307 19.7841 317.148 20.4129 317.148 21.125V31H312.307Z" fill="white"/>
<path d="M101.768 157.768C102.744 156.791 102.744 155.209 101.768 154.232L85.8579 138.322C84.8816 137.346 83.2986 137.346 82.3223 138.322C81.346 139.299 81.346 140.882 82.3223 141.858L96.4645 156L82.3223 170.142C81.346 171.118 81.346 172.701 82.3223 173.678C83.2986 174.654 84.8816 174.654 85.8579 173.678L101.768 157.768ZM0 158.5H100V153.5H0V158.5Z" fill="white"/>
<path d="M6.77273 117.727V141H1.93182V117.727H6.77273ZM10.6506 141V123.545H15.4915V141H10.6506ZM13.0824 121.295C12.3627 121.295 11.7453 121.057 11.2301 120.58C10.7225 120.095 10.4688 119.515 10.4688 118.841C10.4688 118.174 10.7225 117.602 11.2301 117.125C11.7453 116.64 12.3627 116.398 13.0824 116.398C13.8021 116.398 14.4157 116.64 14.9233 117.125C15.4384 117.602 15.696 118.174 15.696 118.841C15.696 119.515 15.4384 120.095 14.9233 120.58C14.4157 121.057 13.8021 121.295 13.0824 121.295ZM27.233 147.909C25.6648 147.909 24.3201 147.693 23.1989 147.261C22.0852 146.837 21.1989 146.258 20.5398 145.523C19.8807 144.788 19.4527 143.962 19.2557 143.045L23.733 142.443C23.8693 142.792 24.0852 143.117 24.3807 143.42C24.6761 143.723 25.0663 143.966 25.5511 144.148C26.0436 144.337 26.642 144.432 27.3466 144.432C28.3996 144.432 29.267 144.174 29.9489 143.659C30.6383 143.152 30.983 142.299 30.983 141.102V137.909H30.7784C30.5663 138.394 30.2481 138.852 29.8239 139.284C29.3996 139.716 28.8542 140.068 28.1875 140.341C27.5208 140.614 26.7254 140.75 25.8011 140.75C24.4905 140.75 23.2973 140.447 22.2216 139.841C21.1534 139.227 20.3011 138.292 19.6648 137.034C19.036 135.769 18.7216 134.17 18.7216 132.239C18.7216 130.261 19.0436 128.61 19.6875 127.284C20.3314 125.958 21.1875 124.966 22.2557 124.307C23.3314 123.648 24.5095 123.318 25.7898 123.318C26.767 123.318 27.5852 123.485 28.2443 123.818C28.9034 124.144 29.4337 124.553 29.8352 125.045C30.2443 125.53 30.5587 126.008 30.7784 126.477H30.9602V123.545H35.767V141.17C35.767 142.655 35.4034 143.898 34.6761 144.898C33.9489 145.898 32.9413 146.648 31.6534 147.148C30.3731 147.655 28.8996 147.909 27.233 147.909ZM27.3352 137.114C28.1155 137.114 28.7746 136.92 29.3125 136.534C29.858 136.14 30.2746 135.58 30.5625 134.852C30.858 134.117 31.0057 133.239 31.0057 132.216C31.0057 131.193 30.8617 130.307 30.5739 129.557C30.286 128.799 29.8693 128.212 29.3239 127.795C28.7784 127.379 28.1155 127.17 27.3352 127.17C26.5398 127.17 25.8693 127.386 25.3239 127.818C24.7784 128.242 24.3655 128.833 24.0852 129.591C23.8049 130.348 23.6648 131.223 23.6648 132.216C23.6648 133.223 23.8049 134.095 24.0852 134.83C24.3731 135.557 24.786 136.121 25.3239 136.523C25.8693 136.917 26.5398 137.114 27.3352 137.114ZM44.4602 130.909V141H39.6193V117.727H44.3239V126.625H44.5284C44.9223 125.595 45.5587 124.788 46.4375 124.205C47.3163 123.614 48.4186 123.318 49.7443 123.318C50.9564 123.318 52.0133 123.583 52.9148 124.114C53.8239 124.636 54.5284 125.39 55.0284 126.375C55.536 127.352 55.786 128.523 55.7784 129.886V141H50.9375V130.75C50.9451 129.674 50.6723 128.837 50.1193 128.239C49.5739 127.64 48.8087 127.341 47.8239 127.341C47.1648 127.341 46.5814 127.481 46.0739 127.761C45.5739 128.042 45.1799 128.451 44.892 128.989C44.6117 129.519 44.4678 130.159 44.4602 130.909ZM68.8722 123.545V127.182H58.3608V123.545H68.8722ZM60.7472 119.364H65.5881V135.636C65.5881 136.083 65.6563 136.432 65.7926 136.682C65.929 136.924 66.1184 137.095 66.3608 137.193C66.6108 137.292 66.8987 137.341 67.2244 137.341C67.4517 137.341 67.679 137.322 67.9062 137.284C68.1335 137.239 68.3078 137.205 68.429 137.182L69.1903 140.784C68.9479 140.86 68.607 140.947 68.1676 141.045C67.7282 141.152 67.1941 141.216 66.5653 141.239C65.3987 141.284 64.3759 141.129 63.4972 140.773C62.6259 140.417 61.9479 139.864 61.4631 139.114C60.9782 138.364 60.7396 137.417 60.7472 136.273V119.364Z" fill="white"/>
</svg>
