<svg width="324" height="256" viewBox="0 0 324 256" fill="none" xmlns="http://www.w3.org/2000/svg">
<mask id="path-1-inside-1_86_16" fill="white">
<path d="M150 246C150 251.523 154.488 256.052 159.983 255.5C169.691 254.526 179.222 252.135 188.268 248.388C200.401 243.362 211.425 235.997 220.711 226.711C229.997 217.425 237.362 206.401 242.388 194.268C247.413 182.136 250 169.132 250 156C250 142.868 247.413 129.864 242.388 117.732C237.362 105.599 229.997 94.5752 220.711 85.2893C211.425 76.0035 200.401 68.6375 188.268 63.612C179.222 59.8648 169.691 57.4736 159.983 56.4996C154.488 55.9482 150 60.4772 150 66V66C150 71.5229 154.494 75.9356 159.974 76.6242C167.053 77.5137 173.996 79.348 180.615 82.0896C190.321 86.11 199.14 92.0028 206.569 99.4315C213.997 106.86 219.89 115.679 223.91 125.385C227.931 135.091 230 145.494 230 156C230 166.506 227.931 176.909 223.91 186.615C219.89 196.321 213.997 205.14 206.569 212.569C199.14 219.997 190.321 225.89 180.615 229.91C173.996 232.652 167.053 234.486 159.974 235.376C154.494 236.064 150 240.477 150 246V246Z"/>
</mask>
<path d="M150 246C150 251.523 154.488 256.052 159.983 255.5C169.691 254.526 179.222 252.135 188.268 248.388C200.401 243.362 211.425 235.997 220.711 226.711C229.997 217.425 237.362 206.401 242.388 194.268C247.413 182.136 250 169.132 250 156C250 142.868 247.413 129.864 242.388 117.732C237.362 105.599 229.997 94.5752 220.711 85.2893C211.425 76.0035 200.401 68.6375 188.268 63.612C179.222 59.8648 169.691 57.4736 159.983 56.4996C154.488 55.9482 150 60.4772 150 66V66C150 71.5229 154.494 75.9356 159.974 76.6242C167.053 77.5137 173.996 79.348 180.615 82.0896C190.321 86.11 199.14 92.0028 206.569 99.4315C213.997 106.86 219.89 115.679 223.91 125.385C227.931 135.091 230 145.494 230 156C230 166.506 227.931 176.909 223.91 186.615C219.89 196.321 213.997 205.14 206.569 212.569C199.14 219.997 190.321 225.89 180.615 229.91C173.996 232.652 167.053 234.486 159.974 235.376C154.494 236.064 150 240.477 150 246V246Z" fill="#ADD8E6" stroke="white" stroke-width="6" mask="url(#path-1-inside-1_86_16)"/>
<path d="M97.8182 31.3409C96.0303 31.3409 94.4924 30.9621 93.2045 30.2045C91.9242 29.4394 90.9394 28.3788 90.25 27.0227C89.5682 25.6667 89.2273 24.1061 89.2273 22.3409C89.2273 20.553 89.572 18.9848 90.2614 17.6364C90.9583 16.2803 91.947 15.2235 93.2273 14.4659C94.5076 13.7008 96.0303 13.3182 97.7955 13.3182C99.3182 13.3182 100.652 13.5947 101.795 14.1477C102.939 14.7008 103.845 15.4773 104.511 16.4773C105.178 17.4773 105.545 18.6515 105.614 20H101.045C100.917 19.1288 100.576 18.428 100.023 17.8977C99.4773 17.3598 98.7614 17.0909 97.875 17.0909C97.125 17.0909 96.4697 17.2955 95.9091 17.7045C95.3561 18.1061 94.9242 18.6932 94.6136 19.4659C94.303 20.2386 94.1477 21.1742 94.1477 22.2727C94.1477 23.3864 94.2992 24.3333 94.6023 25.1136C94.9129 25.8939 95.3485 26.4886 95.9091 26.8977C96.4697 27.3068 97.125 27.5114 97.875 27.5114C98.428 27.5114 98.9242 27.3977 99.3636 27.1705C99.8106 26.9432 100.178 26.6136 100.466 26.1818C100.761 25.7424 100.955 25.2159 101.045 24.6023H105.614C105.538 25.9356 105.174 27.1098 104.523 28.125C103.879 29.1326 102.989 29.9205 101.852 30.4886C100.716 31.0568 99.3712 31.3409 97.8182 31.3409ZM116.599 31.3409C114.834 31.3409 113.308 30.9659 112.02 30.2159C110.74 29.4583 109.751 28.4053 109.054 27.0568C108.357 25.7008 108.009 24.1288 108.009 22.3409C108.009 20.5379 108.357 18.9621 109.054 17.6136C109.751 16.2576 110.74 15.2045 112.02 14.4545C113.308 13.697 114.834 13.3182 116.599 13.3182C118.365 13.3182 119.887 13.697 121.168 14.4545C122.455 15.2045 123.448 16.2576 124.145 17.6136C124.842 18.9621 125.19 20.5379 125.19 22.3409C125.19 24.1288 124.842 25.7008 124.145 27.0568C123.448 28.4053 122.455 29.4583 121.168 30.2159C119.887 30.9659 118.365 31.3409 116.599 31.3409ZM116.622 27.5909C117.425 27.5909 118.096 27.3636 118.634 26.9091C119.171 26.447 119.577 25.8182 119.849 25.0227C120.13 24.2273 120.27 23.322 120.27 22.3068C120.27 21.2917 120.13 20.3864 119.849 19.5909C119.577 18.7955 119.171 18.1667 118.634 17.7045C118.096 17.2424 117.425 17.0114 116.622 17.0114C115.812 17.0114 115.13 17.2424 114.577 17.7045C114.031 18.1667 113.618 18.7955 113.338 19.5909C113.065 20.3864 112.929 21.2917 112.929 22.3068C112.929 23.322 113.065 24.2273 113.338 25.0227C113.618 25.8182 114.031 26.447 114.577 26.9091C115.13 27.3636 115.812 27.5909 116.622 27.5909ZM133.179 20.9091V31H128.338V13.5455H132.952V16.625H133.156C133.543 15.6098 134.19 14.8068 135.099 14.2159C136.009 13.6174 137.111 13.3182 138.406 13.3182C139.618 13.3182 140.675 13.5833 141.577 14.1136C142.478 14.6439 143.179 15.4015 143.679 16.3864C144.179 17.3636 144.429 18.5303 144.429 19.8864V31H139.588V20.75C139.596 19.6818 139.323 18.8485 138.77 18.25C138.217 17.6439 137.455 17.3409 136.486 17.3409C135.834 17.3409 135.259 17.4811 134.759 17.7614C134.266 18.0417 133.88 18.4508 133.599 18.9886C133.327 19.5189 133.187 20.1591 133.179 20.9091ZM156.131 31.3409C154.343 31.3409 152.805 30.9621 151.517 30.2045C150.237 29.4394 149.252 28.3788 148.562 27.0227C147.881 25.6667 147.54 24.1061 147.54 22.3409C147.54 20.553 147.884 18.9848 148.574 17.6364C149.271 16.2803 150.259 15.2235 151.54 14.4659C152.82 13.7008 154.343 13.3182 156.108 13.3182C157.631 13.3182 158.964 13.5947 160.108 14.1477C161.252 14.7008 162.157 15.4773 162.824 16.4773C163.491 17.4773 163.858 18.6515 163.926 20H159.358C159.229 19.1288 158.888 18.428 158.335 17.8977C157.79 17.3598 157.074 17.0909 156.188 17.0909C155.438 17.0909 154.782 17.2955 154.222 17.7045C153.669 18.1061 153.237 18.6932 152.926 19.4659C152.616 20.2386 152.46 21.1742 152.46 22.2727C152.46 23.3864 152.612 24.3333 152.915 25.1136C153.225 25.8939 153.661 26.4886 154.222 26.8977C154.782 27.3068 155.438 27.5114 156.188 27.5114C156.741 27.5114 157.237 27.3977 157.676 27.1705C158.123 26.9432 158.491 26.6136 158.778 26.1818C159.074 25.7424 159.267 25.2159 159.358 24.6023H163.926C163.85 25.9356 163.487 27.1098 162.835 28.125C162.191 29.1326 161.301 29.9205 160.165 30.4886C159.028 31.0568 157.684 31.3409 156.131 31.3409ZM172.003 31.3295C170.889 31.3295 169.897 31.1364 169.026 30.75C168.154 30.3561 167.465 29.7765 166.957 29.0114C166.457 28.2386 166.207 27.2765 166.207 26.125C166.207 25.1553 166.385 24.3409 166.741 23.6818C167.098 23.0227 167.582 22.4924 168.196 22.0909C168.81 21.6894 169.507 21.3864 170.287 21.1818C171.075 20.9773 171.901 20.8333 172.764 20.75C173.779 20.6439 174.598 20.5455 175.219 20.4545C175.84 20.3561 176.291 20.2121 176.571 20.0227C176.851 19.8333 176.991 19.553 176.991 19.1818V19.1136C176.991 18.3939 176.764 17.8371 176.31 17.4432C175.863 17.0492 175.226 16.8523 174.401 16.8523C173.529 16.8523 172.836 17.0455 172.321 17.4318C171.806 17.8106 171.465 18.2879 171.298 18.8636L166.821 18.5C167.048 17.4394 167.495 16.5227 168.162 15.75C168.829 14.9697 169.688 14.3712 170.741 13.9545C171.802 13.5303 173.029 13.3182 174.423 13.3182C175.393 13.3182 176.321 13.4318 177.207 13.6591C178.101 13.8864 178.893 14.2386 179.582 14.7159C180.279 15.1932 180.829 15.8068 181.23 16.5568C181.632 17.2992 181.832 18.1894 181.832 19.2273V31H177.241V28.5795H177.105C176.825 29.125 176.45 29.6061 175.98 30.0227C175.51 30.4318 174.946 30.7538 174.287 30.9886C173.628 31.2159 172.866 31.3295 172.003 31.3295ZM173.389 27.9886C174.101 27.9886 174.73 27.8485 175.276 27.5682C175.821 27.2803 176.249 26.8939 176.56 26.4091C176.87 25.9242 177.026 25.375 177.026 24.7614V22.9091C176.874 23.0076 176.666 23.0985 176.401 23.1818C176.143 23.2576 175.851 23.3295 175.526 23.3977C175.2 23.4583 174.874 23.5152 174.548 23.5682C174.223 23.6136 173.927 23.6553 173.662 23.6932C173.094 23.7765 172.598 23.9091 172.173 24.0909C171.749 24.2727 171.42 24.5189 171.185 24.8295C170.95 25.1326 170.832 25.5114 170.832 25.9659C170.832 26.625 171.071 27.1288 171.548 27.4773C172.033 27.8182 172.647 27.9886 173.389 27.9886ZM201.236 13.5455L195.134 31H189.679L183.577 13.5455H188.69L192.315 26.0341H192.497L196.111 13.5455H201.236ZM211.105 31.3409C209.31 31.3409 207.764 30.9773 206.469 30.25C205.181 29.5152 204.188 28.4773 203.491 27.1364C202.795 25.7879 202.446 24.1932 202.446 22.3523C202.446 20.5568 202.795 18.9811 203.491 17.625C204.188 16.2689 205.17 15.2121 206.435 14.4545C207.707 13.697 209.2 13.3182 210.912 13.3182C212.063 13.3182 213.135 13.5038 214.128 13.875C215.128 14.2386 215.999 14.7879 216.741 15.5227C217.491 16.2576 218.075 17.1818 218.491 18.2955C218.908 19.4015 219.116 20.697 219.116 22.1818V23.5114H204.378V20.5114H214.56C214.56 19.8144 214.408 19.197 214.105 18.6591C213.802 18.1212 213.382 17.7008 212.844 17.3977C212.313 17.0871 211.696 16.9318 210.991 16.9318C210.257 16.9318 209.605 17.1023 209.037 17.4432C208.476 17.7765 208.037 18.2273 207.719 18.7955C207.401 19.3561 207.238 19.9811 207.23 20.6705V23.5227C207.23 24.3864 207.389 25.1326 207.707 25.7614C208.033 26.3902 208.491 26.875 209.082 27.2159C209.673 27.5568 210.374 27.7273 211.185 27.7273C211.723 27.7273 212.215 27.6515 212.662 27.5C213.109 27.3485 213.491 27.1212 213.81 26.8182C214.128 26.5152 214.37 26.1439 214.537 25.7045L219.014 26C218.787 27.0758 218.321 28.0152 217.616 28.8182C216.92 29.6136 216.018 30.2348 214.912 30.6818C213.813 31.1212 212.545 31.3409 211.105 31.3409ZM229.682 31V13.5455H234.295V16.625H234.5C234.864 15.6023 235.47 14.7955 236.318 14.2045C237.167 13.6136 238.182 13.3182 239.364 13.3182C240.561 13.3182 241.58 13.6174 242.42 14.2159C243.261 14.8068 243.822 15.6098 244.102 16.625H244.284C244.64 15.625 245.284 14.8258 246.216 14.2273C247.155 13.6212 248.265 13.3182 249.545 13.3182C251.174 13.3182 252.496 13.8371 253.511 14.875C254.534 15.9053 255.045 17.3674 255.045 19.2614V31H250.216V20.2159C250.216 19.2462 249.958 18.5189 249.443 18.0341C248.928 17.5492 248.284 17.3068 247.511 17.3068C246.633 17.3068 245.947 17.5871 245.455 18.1477C244.962 18.7008 244.716 19.4318 244.716 20.3409V31H240.023V20.1136C240.023 19.2576 239.777 18.5758 239.284 18.0682C238.799 17.5606 238.159 17.3068 237.364 17.3068C236.826 17.3068 236.341 17.4432 235.909 17.7159C235.485 17.9811 235.148 18.3561 234.898 18.8409C234.648 19.3182 234.523 19.8788 234.523 20.5227V31H229.682ZM258.869 31V13.5455H263.71V31H258.869ZM261.301 11.2955C260.581 11.2955 259.964 11.0568 259.449 10.5795C258.941 10.0947 258.688 9.51515 258.688 8.84091C258.688 8.17424 258.941 7.60227 259.449 7.125C259.964 6.64015 260.581 6.39773 261.301 6.39773C262.021 6.39773 262.634 6.64015 263.142 7.125C263.657 7.60227 263.915 8.17424 263.915 8.84091C263.915 9.51515 263.657 10.0947 263.142 10.5795C262.634 11.0568 262.021 11.2955 261.301 11.2955ZM267.588 31V13.5455H272.281V16.5909H272.463C272.781 15.5076 273.315 14.6894 274.065 14.1364C274.815 13.5758 275.679 13.2955 276.656 13.2955C276.899 13.2955 277.16 13.3106 277.44 13.3409C277.721 13.3712 277.967 13.4129 278.179 13.4659V17.7614C277.952 17.6932 277.637 17.6326 277.236 17.5795C276.834 17.5265 276.467 17.5 276.134 17.5C275.421 17.5 274.785 17.6553 274.224 17.9659C273.671 18.2689 273.232 18.6932 272.906 19.2386C272.588 19.7841 272.429 20.4129 272.429 21.125V31H267.588ZM280.682 31V13.5455H285.375V16.5909H285.557C285.875 15.5076 286.409 14.6894 287.159 14.1364C287.909 13.5758 288.773 13.2955 289.75 13.2955C289.992 13.2955 290.254 13.3106 290.534 13.3409C290.814 13.3712 291.061 13.4129 291.273 13.4659V17.7614C291.045 17.6932 290.731 17.6326 290.33 17.5795C289.928 17.5265 289.561 17.5 289.227 17.5C288.515 17.5 287.879 17.6553 287.318 17.9659C286.765 18.2689 286.326 18.6932 286 19.2386C285.682 19.7841 285.523 20.4129 285.523 21.125V31H280.682ZM300.849 31.3409C299.084 31.3409 297.558 30.9659 296.27 30.2159C294.99 29.4583 294.001 28.4053 293.304 27.0568C292.607 25.7008 292.259 24.1288 292.259 22.3409C292.259 20.5379 292.607 18.9621 293.304 17.6136C294.001 16.2576 294.99 15.2045 296.27 14.4545C297.558 13.697 299.084 13.3182 300.849 13.3182C302.615 13.3182 304.137 13.697 305.418 14.4545C306.705 15.2045 307.698 16.2576 308.395 17.6136C309.092 18.9621 309.44 20.5379 309.44 22.3409C309.44 24.1288 309.092 25.7008 308.395 27.0568C307.698 28.4053 306.705 29.4583 305.418 30.2159C304.137 30.9659 302.615 31.3409 300.849 31.3409ZM300.872 27.5909C301.675 27.5909 302.346 27.3636 302.884 26.9091C303.421 26.447 303.827 25.8182 304.099 25.0227C304.38 24.2273 304.52 23.322 304.52 22.3068C304.52 21.2917 304.38 20.3864 304.099 19.5909C303.827 18.7955 303.421 18.1667 302.884 17.7045C302.346 17.2424 301.675 17.0114 300.872 17.0114C300.062 17.0114 299.38 17.2424 298.827 17.7045C298.281 18.1667 297.868 18.7955 297.588 19.5909C297.315 20.3864 297.179 21.2917 297.179 22.3068C297.179 23.322 297.315 24.2273 297.588 25.0227C297.868 25.8182 298.281 26.447 298.827 26.9091C299.38 27.3636 300.062 27.5909 300.872 27.5909ZM312.588 31V13.5455H317.281V16.5909H317.463C317.781 15.5076 318.315 14.6894 319.065 14.1364C319.815 13.5758 320.679 13.2955 321.656 13.2955C321.899 13.2955 322.16 13.3106 322.44 13.3409C322.721 13.3712 322.967 13.4129 323.179 13.4659V17.7614C322.952 17.6932 322.637 17.6326 322.236 17.5795C321.834 17.5265 321.467 17.5 321.134 17.5C320.421 17.5 319.785 17.6553 319.224 17.9659C318.671 18.2689 318.232 18.6932 317.906 19.2386C317.588 19.7841 317.429 20.4129 317.429 21.125V31H312.588Z" fill="white"/>
<path d="M101.768 157.768C102.744 156.791 102.744 155.209 101.768 154.232L85.8579 138.322C84.8816 137.346 83.2986 137.346 82.3223 138.322C81.346 139.299 81.346 140.882 82.3223 141.858L96.4645 156L82.3223 170.142C81.346 171.118 81.346 172.701 82.3223 173.678C83.2986 174.654 84.8816 174.654 85.8579 173.678L101.768 157.768ZM0 158.5H100V153.5H0V158.5Z" fill="white"/>
<path d="M6.77273 117.727V141H1.93182V117.727H6.77273ZM10.6506 141V123.545H15.4915V141H10.6506ZM13.0824 121.295C12.3627 121.295 11.7453 121.057 11.2301 120.58C10.7225 120.095 10.4688 119.515 10.4688 118.841C10.4688 118.174 10.7225 117.602 11.2301 117.125C11.7453 116.64 12.3627 116.398 13.0824 116.398C13.8021 116.398 14.4157 116.64 14.9233 117.125C15.4384 117.602 15.696 118.174 15.696 118.841C15.696 119.515 15.4384 120.095 14.9233 120.58C14.4157 121.057 13.8021 121.295 13.0824 121.295ZM27.233 147.909C25.6648 147.909 24.3201 147.693 23.1989 147.261C22.0852 146.837 21.1989 146.258 20.5398 145.523C19.8807 144.788 19.4527 143.962 19.2557 143.045L23.733 142.443C23.8693 142.792 24.0852 143.117 24.3807 143.42C24.6761 143.723 25.0663 143.966 25.5511 144.148C26.0436 144.337 26.642 144.432 27.3466 144.432C28.3996 144.432 29.267 144.174 29.9489 143.659C30.6383 143.152 30.983 142.299 30.983 141.102V137.909H30.7784C30.5663 138.394 30.2481 138.852 29.8239 139.284C29.3996 139.716 28.8542 140.068 28.1875 140.341C27.5208 140.614 26.7254 140.75 25.8011 140.75C24.4905 140.75 23.2973 140.447 22.2216 139.841C21.1534 139.227 20.3011 138.292 19.6648 137.034C19.036 135.769 18.7216 134.17 18.7216 132.239C18.7216 130.261 19.0436 128.61 19.6875 127.284C20.3314 125.958 21.1875 124.966 22.2557 124.307C23.3314 123.648 24.5095 123.318 25.7898 123.318C26.767 123.318 27.5852 123.485 28.2443 123.818C28.9034 124.144 29.4337 124.553 29.8352 125.045C30.2443 125.53 30.5587 126.008 30.7784 126.477H30.9602V123.545H35.767V141.17C35.767 142.655 35.4034 143.898 34.6761 144.898C33.9489 145.898 32.9413 146.648 31.6534 147.148C30.3731 147.655 28.8996 147.909 27.233 147.909ZM27.3352 137.114C28.1155 137.114 28.7746 136.92 29.3125 136.534C29.858 136.14 30.2746 135.58 30.5625 134.852C30.858 134.117 31.0057 133.239 31.0057 132.216C31.0057 131.193 30.8617 130.307 30.5739 129.557C30.286 128.799 29.8693 128.212 29.3239 127.795C28.7784 127.379 28.1155 127.17 27.3352 127.17C26.5398 127.17 25.8693 127.386 25.3239 127.818C24.7784 128.242 24.3655 128.833 24.0852 129.591C23.8049 130.348 23.6648 131.223 23.6648 132.216C23.6648 133.223 23.8049 134.095 24.0852 134.83C24.3731 135.557 24.786 136.121 25.3239 136.523C25.8693 136.917 26.5398 137.114 27.3352 137.114ZM44.4602 130.909V141H39.6193V117.727H44.3239V126.625H44.5284C44.9223 125.595 45.5587 124.788 46.4375 124.205C47.3163 123.614 48.4186 123.318 49.7443 123.318C50.9564 123.318 52.0133 123.583 52.9148 124.114C53.8239 124.636 54.5284 125.39 55.0284 126.375C55.536 127.352 55.786 128.523 55.7784 129.886V141H50.9375V130.75C50.9451 129.674 50.6723 128.837 50.1193 128.239C49.5739 127.64 48.8087 127.341 47.8239 127.341C47.1648 127.341 46.5814 127.481 46.0739 127.761C45.5739 128.042 45.1799 128.451 44.892 128.989C44.6117 129.519 44.4678 130.159 44.4602 130.909ZM68.8722 123.545V127.182H58.3608V123.545H68.8722ZM60.7472 119.364H65.5881V135.636C65.5881 136.083 65.6563 136.432 65.7926 136.682C65.929 136.924 66.1184 137.095 66.3608 137.193C66.6108 137.292 66.8987 137.341 67.2244 137.341C67.4517 137.341 67.679 137.322 67.9062 137.284C68.1335 137.239 68.3078 137.205 68.429 137.182L69.1903 140.784C68.9479 140.86 68.607 140.947 68.1676 141.045C67.7282 141.152 67.1941 141.216 66.5653 141.239C65.3987 141.284 64.3759 141.129 63.4972 140.773C62.6259 140.417 61.9479 139.864 61.4631 139.114C60.9782 138.364 60.7396 137.417 60.7472 136.273V119.364Z" fill="white"/>
</svg>
