<svg width="202" height="200" viewBox="0 0 202 200" fill="none" xmlns="http://www.w3.org/2000/svg">
<rect x="1.25008" y="0.250015" width="199.5" height="12.8333" stroke="white" stroke-opacity="0.1" stroke-width="0.5"/>
<rect x="1.2501" y="6.91669" width="199.5" height="12.8333" stroke="white" stroke-opacity="0.1" stroke-width="0.5"/>
<rect x="1.2501" y="13.5834" width="199.5" height="12.8333" stroke="white" stroke-opacity="0.1" stroke-width="0.5"/>
<rect x="1.2501" y="20.25" width="199.5" height="12.8333" stroke="white" stroke-opacity="0.1" stroke-width="0.5"/>
<rect x="1.2501" y="26.9167" width="199.5" height="12.8333" stroke="white" stroke-opacity="0.1" stroke-width="0.5"/>
<rect x="1.2501" y="33.5833" width="199.5" height="12.8333" stroke="white" stroke-opacity="0.1" stroke-width="0.5"/>
<rect x="1.2501" y="40.25" width="199.5" height="12.8333" stroke="white" stroke-opacity="0.1" stroke-width="0.5"/>
<rect x="1.2501" y="46.9167" width="199.5" height="12.8333" stroke="white" stroke-opacity="0.1" stroke-width="0.5"/>
<rect x="1.2501" y="53.5833" width="199.5" height="12.8333" stroke="white" stroke-opacity="0.1" stroke-width="0.5"/>
<rect x="1.2501" y="60.25" width="199.5" height="12.8333" stroke="white" stroke-opacity="0.1" stroke-width="0.5"/>
<rect x="1.2501" y="66.9167" width="199.5" height="12.8333" stroke="white" stroke-opacity="0.1" stroke-width="0.5"/>
<rect x="1.2501" y="73.5833" width="199.5" height="12.8333" stroke="white" stroke-opacity="0.1" stroke-width="0.5"/>
<rect x="1.2501" y="80.25" width="199.5" height="12.8333" stroke="white" stroke-opacity="0.1" stroke-width="0.5"/>
<rect x="1.2501" y="86.9167" width="199.5" height="12.8333" stroke="white" stroke-opacity="0.1" stroke-width="0.5"/>
<rect x="1.2501" y="93.5833" width="199.5" height="12.8333" stroke="white" stroke-opacity="0.1" stroke-width="0.5"/>
<rect x="1.2501" y="106.917" width="199.5" height="12.8333" stroke="white" stroke-opacity="0.1" stroke-width="0.5"/>
<rect x="1.2501" y="113.583" width="199.5" height="12.8333" stroke="white" stroke-opacity="0.1" stroke-width="0.5"/>
<rect x="1.2501" y="120.25" width="199.5" height="12.8333" stroke="white" stroke-opacity="0.1" stroke-width="0.5"/>
<rect x="1.2501" y="126.917" width="199.5" height="12.8333" stroke="white" stroke-opacity="0.1" stroke-width="0.5"/>
<rect x="1.2501" y="133.583" width="199.5" height="12.8333" stroke="white" stroke-opacity="0.1" stroke-width="0.5"/>
<rect x="1.2501" y="140.25" width="199.5" height="12.8333" stroke="white" stroke-opacity="0.1" stroke-width="0.5"/>
<rect x="1.2501" y="146.917" width="199.5" height="12.8333" stroke="white" stroke-opacity="0.1" stroke-width="0.5"/>
<rect x="1.2501" y="153.583" width="199.5" height="12.8333" stroke="white" stroke-opacity="0.1" stroke-width="0.5"/>
<rect x="1.2501" y="160.25" width="199.5" height="12.8333" stroke="white" stroke-opacity="0.1" stroke-width="0.5"/>
<rect x="1.2501" y="166.917" width="199.5" height="12.8333" stroke="white" stroke-opacity="0.1" stroke-width="0.5"/>
<rect x="1.2501" y="173.583" width="199.5" height="12.8333" stroke="white" stroke-opacity="0.1" stroke-width="0.5"/>
<rect x="1.2501" y="180.25" width="199.5" height="12.8333" stroke="white" stroke-opacity="0.1" stroke-width="0.5"/>
<rect x="1.2501" y="186.917" width="199.5" height="12.8333" stroke="white" stroke-opacity="0.1" stroke-width="0.5"/>
<rect x="200.75" y="0.25" width="199.5" height="12.8333" transform="rotate(90 200.75 0.25)" stroke="white" stroke-opacity="0.1" stroke-width="0.5"/>
<rect x="194.083" y="0.25" width="199.5" height="12.8333" transform="rotate(90 194.083 0.25)" stroke="white" stroke-opacity="0.1" stroke-width="0.5"/>
<rect x="187.417" y="0.25" width="199.5" height="12.8333" transform="rotate(90 187.417 0.25)" stroke="white" stroke-opacity="0.1" stroke-width="0.5"/>
<rect x="180.75" y="0.25" width="199.5" height="12.8333" transform="rotate(90 180.75 0.25)" stroke="white" stroke-opacity="0.1" stroke-width="0.5"/>
<rect x="174.083" y="0.25" width="199.5" height="12.8333" transform="rotate(90 174.083 0.25)" stroke="white" stroke-opacity="0.1" stroke-width="0.5"/>
<rect x="167.417" y="0.25" width="199.5" height="12.8333" transform="rotate(90 167.417 0.25)" stroke="white" stroke-opacity="0.1" stroke-width="0.5"/>
<rect x="160.75" y="0.25" width="199.5" height="12.8333" transform="rotate(90 160.75 0.25)" stroke="white" stroke-opacity="0.1" stroke-width="0.5"/>
<rect x="154.083" y="0.25" width="199.5" height="12.8333" transform="rotate(90 154.083 0.25)" stroke="white" stroke-opacity="0.1" stroke-width="0.5"/>
<rect x="147.417" y="0.25" width="199.5" height="12.8333" transform="rotate(90 147.417 0.25)" stroke="white" stroke-opacity="0.1" stroke-width="0.5"/>
<rect x="140.75" y="0.25" width="199.5" height="12.8333" transform="rotate(90 140.75 0.25)" stroke="white" stroke-opacity="0.1" stroke-width="0.5"/>
<rect x="134.083" y="0.25" width="199.5" height="12.8333" transform="rotate(90 134.083 0.25)" stroke="white" stroke-opacity="0.1" stroke-width="0.5"/>
<rect x="127.417" y="0.25" width="199.5" height="12.8333" transform="rotate(90 127.417 0.25)" stroke="white" stroke-opacity="0.1" stroke-width="0.5"/>
<rect x="120.75" y="0.25" width="199.5" height="12.8333" transform="rotate(90 120.75 0.25)" stroke="white" stroke-opacity="0.1" stroke-width="0.5"/>
<rect x="114.083" y="0.25" width="199.5" height="12.8333" transform="rotate(90 114.083 0.25)" stroke="white" stroke-opacity="0.1" stroke-width="0.5"/>
<rect x="107.417" y="0.25" width="199.5" height="12.8333" transform="rotate(90 107.417 0.25)" stroke="white" stroke-opacity="0.1" stroke-width="0.5"/>
<rect x="94.0834" y="0.25" width="199.5" height="12.8333" transform="rotate(90 94.0834 0.25)" stroke="white" stroke-opacity="0.1" stroke-width="0.5"/>
<rect x="87.4168" y="0.25" width="199.5" height="12.8333" transform="rotate(90 87.4168 0.25)" stroke="white" stroke-opacity="0.1" stroke-width="0.5"/>
<rect x="80.7501" y="0.25" width="199.5" height="12.8333" transform="rotate(90 80.7501 0.25)" stroke="white" stroke-opacity="0.1" stroke-width="0.5"/>
<rect x="74.0834" y="0.25" width="199.5" height="12.8333" transform="rotate(90 74.0834 0.25)" stroke="white" stroke-opacity="0.1" stroke-width="0.5"/>
<rect x="67.4168" y="0.25" width="199.5" height="12.8333" transform="rotate(90 67.4168 0.25)" stroke="white" stroke-opacity="0.1" stroke-width="0.5"/>
<rect x="60.7501" y="0.25" width="199.5" height="12.8333" transform="rotate(90 60.7501 0.25)" stroke="white" stroke-opacity="0.1" stroke-width="0.5"/>
<rect x="54.0835" y="0.25" width="199.5" height="12.8333" transform="rotate(90 54.0835 0.25)" stroke="white" stroke-opacity="0.1" stroke-width="0.5"/>
<rect x="47.4168" y="0.25" width="199.5" height="12.8333" transform="rotate(90 47.4168 0.25)" stroke="white" stroke-opacity="0.1" stroke-width="0.5"/>
<rect x="40.7501" y="0.25" width="199.5" height="12.8333" transform="rotate(90 40.7501 0.25)" stroke="white" stroke-opacity="0.1" stroke-width="0.5"/>
<rect x="34.0835" y="0.25" width="199.5" height="12.8333" transform="rotate(90 34.0835 0.25)" stroke="white" stroke-opacity="0.1" stroke-width="0.5"/>
<rect x="27.4168" y="0.25" width="199.5" height="12.8333" transform="rotate(90 27.4168 0.25)" stroke="white" stroke-opacity="0.1" stroke-width="0.5"/>
<rect x="20.7501" y="0.25" width="199.5" height="12.8333" transform="rotate(90 20.7501 0.25)" stroke="white" stroke-opacity="0.1" stroke-width="0.5"/>
<rect x="14.0835" y="0.25" width="199.5" height="12.8333" transform="rotate(90 14.0835 0.25)" stroke="white" stroke-opacity="0.1" stroke-width="0.5"/>
<path d="M100.999 200L100.999 0.00032568" stroke="white" stroke-opacity="0.5"/>
<path d="M1 99.9995H201" stroke="white" stroke-opacity="0.5"/>
<path d="M0.292987 132.293C-0.097589 132.683 -0.0976732 133.316 0.292799 133.707L6.65591 140.072C7.04639 140.462 7.67955 140.462 8.07013 140.072C8.4607 139.682 8.46079 139.048 8.07032 138.658L2.41421 133L8.07182 127.344C8.4624 126.954 8.46248 126.32 8.07201 125.93C7.68154 125.539 7.04837 125.539 6.65779 125.93L0.292987 132.293ZM201.707 133.734C202.097 133.343 202.098 132.71 201.707 132.32L195.344 125.955C194.953 125.564 194.32 125.564 193.93 125.955C193.539 126.345 193.539 126.978 193.93 127.369L199.586 133.026L193.928 138.683C193.537 139.073 193.537 139.706 193.928 140.097C194.318 140.487 194.951 140.487 195.342 140.097L201.707 133.734ZM0.999867 134L201 134.027L201 132.027L1.00013 132L0.999867 134Z" fill="white"/>
<path d="M17.1553 114.457V116.171L17.4717 115.846C18.3682 114.92 19.1973 114.457 19.959 114.457C20.5156 114.457 20.9668 114.609 21.3125 114.914C21.6641 115.213 21.9102 115.667 22.0508 116.276C22.4902 115.667 22.959 115.213 23.457 114.914C23.9551 114.609 24.4795 114.457 25.0303 114.457C25.4873 114.457 25.9004 114.589 26.2695 114.853C26.6387 115.11 26.8906 115.462 27.0254 115.907C27.166 116.347 27.2363 116.944 27.2363 117.7V120.996C27.2363 121.6 27.3096 122.03 27.4561 122.288C27.6084 122.546 27.9893 122.675 28.5986 122.675V123H24.3447V122.675C24.8896 122.669 25.2617 122.563 25.4609 122.358C25.6602 122.147 25.7598 121.693 25.7598 120.996V117.656V117.103C25.7656 116.622 25.6309 116.241 25.3555 115.96C25.0859 115.673 24.7402 115.529 24.3184 115.529C23.6094 115.529 22.9385 115.843 22.3057 116.47L22.1211 116.637C22.127 116.666 22.1328 116.73 22.1387 116.83C22.1738 117.111 22.1914 117.422 22.1914 117.762V120.996C22.1914 121.6 22.2646 122.03 22.4111 122.288C22.5635 122.546 22.9473 122.675 23.5625 122.675V123H19.291V122.675C19.8418 122.669 20.2168 122.563 20.416 122.358C20.6211 122.147 20.7236 121.693 20.7236 120.996L20.7236 117.762C20.7236 117.006 20.6094 116.446 20.3809 116.083C20.1582 115.72 19.7803 115.538 19.2471 115.538C18.6201 115.538 17.9932 115.837 17.3662 116.435L17.1553 116.637L17.1553 120.996C17.1553 121.629 17.2373 122.068 17.4014 122.314C17.5654 122.555 17.9258 122.675 18.4824 122.675V123H14.2813V122.675C14.8203 122.669 15.1895 122.561 15.3887 122.35C15.5879 122.139 15.6875 121.688 15.6875 120.996V117.199C15.6875 116.637 15.6201 116.232 15.4854 115.986C15.3564 115.74 15.125 115.617 14.791 115.617C14.6855 115.617 14.5654 115.635 14.4307 115.67C14.3604 115.693 14.3105 115.708 14.2813 115.714L14.1494 115.397L16.8477 114.457H17.1553ZM34.5576 114.202H44.0938V115.336H34.5576V114.202ZM34.5576 118.315H44.0938V119.449H34.5576V118.315ZM50.4043 116.733C50.4043 114.788 50.8086 113.253 51.6172 112.128C52.4258 111.003 53.2988 110.44 54.2363 110.44C55.3906 110.44 56.3428 111.044 57.0928 112.251C57.8486 113.452 58.2266 114.967 58.2266 116.795C58.2266 118.881 57.8105 120.472 56.9785 121.567C56.1523 122.663 55.3027 123.211 54.4297 123.211C53.7441 123.211 53.082 122.953 52.4434 122.438C51.8105 121.922 51.3125 121.192 50.9492 120.249C50.5859 119.306 50.4043 118.134 50.4043 116.733ZM52.1445 116.716C52.1445 118.69 52.3291 120.173 52.6982 121.163C53.0732 122.147 53.6299 122.64 54.3682 122.64C55.0186 122.64 55.5342 122.188 55.915 121.286C56.3018 120.378 56.4951 118.919 56.4951 116.909C56.4951 114.923 56.3105 113.435 55.9414 112.444C55.5723 111.454 55.0156 110.959 54.2715 110.959C53.5625 110.959 53.0293 111.439 52.6719 112.4C52.3203 113.355 52.1445 114.794 52.1445 116.716Z" fill="white"/>
</svg>
